<?xml version="1.0" standalone="no"?>
<!DOCTYPE svg PUBLIC "-//W3C//DTD SVG 1.1//EN" "http://www.w3.org/Graphics/SVG/1.1/DTD/svg11.dtd">
<svg xmlns="http://www.w3.org/2000/svg">
<metadata>Copyright (C) 2013 by Aristeides Stathopoulos</metadata>
<defs>
<font id="elusive" horiz-adv-x="1000" >
<font-face font-family="Font Awesome" font-weight="400" font-stretch="normal" units-per-em="1000" ascent="850" descent="-150" />
<missing-glyph horiz-adv-x="1000" />
<glyph glyph-name="glass" unicode="&#xe0e4;" d="M0 810.9h999.9l-419.9-419.9v-412.1h156.2v-89.8h-470.7v89.8h154.3v412.1z" horiz-adv-x="1000" />
<glyph glyph-name="music" unicode="&#xe073;" d="M1.4-11.3q-8.8 56.6 37.1 103.5t118.2 56.6q64.4 9.8 119.1-17.6l25.4 652.3 689.4 52.7q-31.2-726.5-33.2-755.8-2-50.8-45.9-90.8t-108.4-49.8q-72.3-9.8-128.9 22.5t-64.4 88.9 37.1 104.5 117.2 57.6q68.4 9.8 125-21.5l25.4 464.8-539-54.7-5.9-130.9q-5.9-130.9-11.7-277.3t-7.8-175.8v-5.9q-5.9-50.8-48.8-88.9t-107.4-47.8q-70.3-9.8-126.9 23.4t-65.4 89.8z" horiz-adv-x="991" />
<glyph glyph-name="search" unicode="&#xe03e;" d="M0 8.2l185.5 185.5h2q-66.4 105.5-66.4 228.5 0 177.7 125 302.7t302.7 125 302.7-125 125-302.7-125-302.7-302.7-125q-105.5 0-197.3 48.8l-193.3-193.3z m310.5 415q0-98.6 70.3-168t168-69.3 168 69.3 70.3 168-70.3 168-168 69.3-168-69.3-70.3-168z" horiz-adv-x="977" />
<glyph glyph-name="search-circled" unicode="&#xe03d;" d="M0 350q0 207 146.5 353.5t353.5 146.5 353.5-146.5 146.5-353.5-146.5-353.5-353.5-146.5-353.5 146.5-146.5 353.5z m222.6-193.3l89.8-89.8 109.4 109.4q52.7-27.3 113.3-27.3 99.6 0 170.9 71.3t71.3 170.9-71.3 170.9-171.9 71.3-170.9-71.3-70.3-170.9q0-70.3 37.1-128.9h-2z m177.7 234.4q0 56.6 39.1 95.7t94.7 39.1 94.7-39.1 39.1-95.7-39.1-95.7-94.7-39.1-94.7 39.1-39.1 95.7z" horiz-adv-x="1000" />
<glyph glyph-name="mail" unicode="&#xe0eb;" d="M0-28.9l324.2 341.8 175.8-99.6 175.8 99.6 324.2-341.8h-999.9z m0 113.3v414l253.9-146.5z m0 503.9v140.6h999.9v-140.6l-500-285.1z m746-236.3l253.9 146.5v-414z" horiz-adv-x="1000" />
<glyph glyph-name="mail-circled" unicode="&#xe0ea;" d="M0 350q0 207 146.5 353.5t353.5 146.5 353.5-146.5 146.5-353.5-146.5-353.5-353.5-146.5-353.5 146.5-146.5 353.5z m244.1-193.3h511.7l-166 173.8-89.8-50.8-89.8 50.8z m0 58.6l130.9 136.7-130.9 74.2v-210.9z m0 255.8l255.8-144.5 255.8 144.5v72.3h-511.7v-72.3z m380.8-119.1l130.9-136.7v210.9z" horiz-adv-x="1000" />
<glyph glyph-name="heart" unicode="&#xe0b1;" d="M.8 554.1q6.8 110.3 75.2 182.6 93.7 80.1 211.9 70.3t190.4-97.7q37.1 48.8 91.8 78.1 113.3 43 216.8 3.9t150.4-140.6q29.3-105.5 9.8-199.2t-78.1-173.8q-68.4-93.7-173.8-183.6-52.7-48.8-124-103.5t-92.8-56.6q-13.7 2-28.3 11.7t-35.2 25.4-24.4 19.5q-263.7 199.2-347.6 357.4-48.8 95.7-42 206z" horiz-adv-x="955" />
<glyph glyph-name="heart-circled" unicode="&#xe0b0;" d="M0 344.1q0 207 146.5 353.5t353.5 146.5 353.5-146.5 146.5-353.5-146.5-353.5-353.5-146.5-353.5 146.5-146.5 353.5z m242.2 76.2q-3.9-60.5 21.5-111.3 46.9-85.9 189.4-195.3 2-2 12.7-10.7t18.6-13.7 15.6-4.9q27.3 2 119.1 85.9 56.6 48.8 93.7 99.6 70.3 95.7 37.1 203.1-19.5 41-56.6 63.5t-82 22.5q-31.2 0-60.5-11.7-29.3-15.6-50.8-43-39.1 48.8-103.5 53.7t-113.3-40q-37.1-37.1-41-97.7z" horiz-adv-x="1000" />
<glyph glyph-name="heart-empty" unicode="&#xe0e1;" d="M.8 543.3q6.8 115.2 79.1 191.4h2l2 2q87.9 76.2 199.2 76.2t191.4-70.3q31.2 27.3 66.4 44.9l2 2h2q56.6 23.4 117.2 23.4 87.9 2 161.1-43.9t110.3-124v-2l2-3.9q29.3-105.5 9.8-201.2t-80.1-175.8q-62.5-87.9-162.1-171.9 0-2-2-2-48.8-44.9-107.4-89.8-33.2-25.4-58.6-41-33.2-23.4-54.7-23.4l-5.9-2-5.9 2q-27.3 3.9-58.6 29.3-9.8 5.9-21.5 16.6t-15.6 12.7h-2q-246.1 187.5-328.1 339.8v2q-48.8 93.7-42 209z m85-9.8q-5.9-85.9 33.2-162.1 74.2-134.8 302.7-310.5h2q5.9-5.9 18.6-15.6t18.6-13.7q7.8-5.9 15.6-9.8 7.8 2 13.7 5.9 21.5 13.7 50.8 37.1 58.6 43 105.5 87.9 93.7 80.1 150.4 160.1 107.4 142.6 58.6 298.8-27.3 56.6-78.1 87.9t-113.3 29.3q-43 0-85.9-17.6-39.1-21.5-68.4-56.6l-31.2-43-35.2 43q-52.7 64.4-141.6 72.3t-161.1-52.7q-48.8-54.7-54.7-140.6z" horiz-adv-x="953" />
<glyph glyph-name="star" unicode="&#xe031;" d="M0 471.1l378.9-2 125 359.4 117.2-363.3 378.9-7.8-308.6-220.7 109.4-365.2-306.6 224.6-310.5-214.8 119.1 359.4z" horiz-adv-x="1000" />
<glyph glyph-name="star-circled" unicode="&#xe030;" d="M0 350q0 207 146.5 353.5t353.5 146.5 353.5-146.5 146.5-353.5-146.5-353.5-353.5-146.5-353.5 146.5-146.5 353.5z m160.1 82l205.1-156.2-80.1-246.1 210.9 148.4 209-152.3-74.2 246.1 209 152.3-257.8 3.9-78.1 246.1-85.9-242.2h-257.8z" horiz-adv-x="1000" />
<glyph glyph-name="star-empty" unicode="&#xe02f;" d="M0 471.1h93.7l285.1-2 95.7 269.5 29.3 89.8 29.3-91.8 87.9-271.5 285.1-5.9 93.7-2-76.2-54.7-232.4-166 82-273.4 27.3-91.8-76.2 56.6-230.5 168-232.4-162.1-78.1-52.7 29.3 89.8 89.8 269.5-226.5 173.8z m189.4-64.4l168-128.9 19.5-13.7-7.8-21.5-66.4-203.1 175.8 123 17.6 11.7 17.6-13.7 171.9-125-60.5 203.1-5.9 21.5 17.6 13.7 173.8 125-214.8 3.9-21.5 2-7.8 21.5-64.4 201.2-70.3-199.2-7.8-21.5h-234.4z" horiz-adv-x="1000" />
<glyph glyph-name="user" unicode="&#xe013;" d="M0-150v156.2q0 23.4 57.6 57.6t159.2 71.3q99.6 35.2 136.7 72.3t37.1 101.6q0 29.3-26.4 72.3t-32.2 58.6q-11.7 35.2-29.3 134.8-9.8 52.7-13.7 93.7-2 21.5 5.9 49.8t28.3 59.6 66.4 51.8 110.3 20.5 110.3-20.5 66.4-51.8 28.3-59.6 5.9-49.8q-3.9-41-13.7-93.7-17.6-99.6-29.3-134.8-5.9-15.6-32.2-58.6t-26.4-72.3q0-64.4 37.1-101.6t136.7-72.3q216.8-80.1 216.8-128.9v-156.2h-999.9z" horiz-adv-x="1000" />
<glyph glyph-name="group" unicode="&#xe091;" d="M0 105.8v134.8q0 25.4 17.6 31.2l171.9 80.1q-66.4 39.1-68.4 130.9 0 56.6 35.2 103.5 37.1 41 89.8 43 31.2 0 62.5-19.5-48.8-125 23.4-236.3-11.7-11.7-25.4-19.5l-113.3-54.7q-48.8-23.4-52.7-84v-142.6h-113.3q-25.4 0-27.3 33.2z m193.3-58.6v168q0 27.3 21.5 37.1l152.3 70.3 56.6 27.3q-37.1 23.4-59.6 66.4t-22.5 93.7q0 76.2 45.9 129.9t110.3 53.7 109.4-53.7 44.9-129.9q0-105.5-78.1-158.2l60.5-29.3 146.5-70.3q23.4-9.8 23.4-37.1v-168q-2-37.1-37.1-41h-541q-13.7 2-23.4 13.7t-9.8 27.3z m472.6 330.1q68.4 105.5 21.5 230.5 31.2 19.5 66.4 21.5 48.8 0 89.8-43 35.2-41 35.2-103.5 0-82-64.4-130.9l168-80.1q17.6-9.8 17.6-31.2v-134.8q0-31.2-27.3-33.2h-117.2v142.6q0 56.6-50.8 84l-109.4 52.7q-15.6 7.8-29.3 25.4z" horiz-adv-x="1000" />
<glyph glyph-name="group-circled" unicode="&#xe090;" d="M0 350q0 207 146.5 353.5t353.5 146.5 353.5-146.5 146.5-353.5-146.5-353.5-353.5-146.5-353.5 146.5-146.5 353.5z m177.7-158.2q0-21.5 17.6-21.5h72.3v91.8q0 17.6 8.8 32.2t24.4 22.5l74.2 35.2q9.8 5.9 15.6 13.7-11.7 17.6-19.5 41t-7.8 48.8q0 15.6 3.9 31.2t9.8 29.3q-19.5 13.7-41 13.7-37.1-2-58.6-30.3t-21.5-63.5q2-60.5 43-85.9l-111.3-50.8q-9.8-5.9-9.8-19.5v-87.9z m123-21.5q-2-41 23.4-43h349.6q11.7 3.9 16.6 11.7t4.9 12.7v110.3q0 17.6-13.7 23.4l-93.7 46.9-41 19.5q37.1 21.5 48.8 74.2 7.8 29.3 0 60.5-9.8 35.2-36.1 59.6t-61.5 26.4q-35.2-2-60.5-26.4t-35.2-57.6q-11.7-44.9 7.8-91.8 15.6-29.3 41-46.9l-37.1-17.6-97.7-44.9q-15.6-7.8-15.6-25.4v-91.8z m306.6 195.3q7.8-7.8 19.5-15.6t21.5-11.7 25.4-10.7 23.4-10.7q15.6-7.8 24.4-22.5t8.8-32.2v-91.8h74.2q17.6 2 17.6 21.5v87.9q0 13.7-9.8 19.5l-109.4 52.7q41 29.3 41 84 0 37.1-23.4 65.4t-56.6 28.3q-21.5 0-43-13.7 11.7-29.3 11.7-60.5 0-48.8-25.4-89.8z" horiz-adv-x="1000" />
<glyph glyph-name="torso" unicode="&#xe01c;" d="M0-150v357.4l337.9 144.5q-60.5 37.1-91.8 100.6t-31.2 133.8q0 103.5 64.4 183.6t162.1 80.1q101.6-3.9 164.1-83t62.5-180.7q-2-74.2-33.2-136.7t-85.9-97.7l334-144.5v-357.4h-882.8z" horiz-adv-x="883" />
<glyph glyph-name="video" unicode="&#xe012;" d="M0-28.9v757.8h999.9v-757.8h-999.9z m123 123h753.9v511.7h-753.9v-511.7z m265.6 82v339.8l292.9-169.9z" horiz-adv-x="1000" />
<glyph glyph-name="video-circled" unicode="&#xe011;" d="M0 350q0 207 146.5 353.5t353.5 146.5 353.5-146.5 146.5-353.5-146.5-353.5-353.5-146.5-353.5 146.5-146.5 353.5z m201.2-226.5h597.6v453.1h-597.6v-453.1z m74.2 74.2v304.7h449.2v-304.7h-449.2z m158.2 48.8l175.8 101.6-175.8 101.6v-203.1z" horiz-adv-x="1000" />
<glyph glyph-name="video-alt" unicode="&#xe0e9;" d="M0-150v999.9h882.8v-999.9h-882.8z m44.9 119.1h109.4v82h-109.4v-82z m0 183.6h109.4v84h-109.4v-84z m0 185.5h109.4v82h-109.4v-82z m0 185.5h109.4v82h-109.4v-82z m0 183.6h109.4v82h-109.4v-82z m156.2-826.1h480.4v435.5h-480.4v-435.5z m0 466.8h480.4v435.5h-480.4v-435.5z m527.3-378.9h109.4v82h-109.4v-82z m0 183.6h109.4v84h-109.4v-84z m0 185.5h109.4v82h-109.4v-82z m0 185.5h109.4v82h-109.4v-82z m0 183.6h109.4v82h-109.4v-82z" horiz-adv-x="883" />
<glyph glyph-name="videocam" unicode="&#xe09b;" d="M0-36.7v773.4h775.3v-324.2l224.6 324.2v-773.4l-224.6 324.2v-324.2h-775.3z" horiz-adv-x="1000" />
<glyph glyph-name="video-chat" unicode="&#xe010;" d="M0 96.1v712.8h999.9v-712.8h-472.6l-320.3-205.1v205.1h-207z m218.7 201.2h402.3v125l160.1-125v332l-160.1-123v123h-402.3v-332z" horiz-adv-x="1000" />
<glyph glyph-name="picture" unicode="&#xe060;" d="M0-68v835.9h999.9v-835.9h-999.9z m76.2 78.1h847.6v679.6h-847.6v-679.6z m89.8 80.1v58.6l150.4 195.3 101.6-85.9 193.3 291 222.6-228.5v-230.5h-667.9z m0 416q0 37.1 24.4 61.5t61.5 24.4q33.2 0 57.6-24.4t24.4-61.5q0-33.2-24.4-57.6t-57.6-24.4q-37.1 0-61.5 24.4t-24.4 57.6z" horiz-adv-x="1000" />
<glyph glyph-name="camera" unicode="&#xe0a9;" d="M0-27v626.9h294.9l31.2 126.9h361.3l31.2-126.9h281.2v-626.9h-999.9z m220.7 345.7q0-117.2 83-199.2t199.2-82 198.2 82 82 199.2-82 199.2-198.2 82-199.2-82-83-199.2z m84 0q0 82 57.6 140.6t139.6 58.6 140.6-58.6 58.6-140.6-58.6-139.6-140.6-57.6-139.6 57.6-57.6 139.6z m527.3 138.7h142.6v82h-142.6v-82z" horiz-adv-x="1000" />
<glyph glyph-name="photo" unicode="&#xe063;" d="M0-124.6v949.2h999.9v-949.2h-999.9z m123 308.6h753.9v521.5h-753.9v-521.5z" horiz-adv-x="1000" />
<glyph glyph-name="photo-circled" unicode="&#xe062;" d="M0 350q0 207 146.5 353.5t353.5 146.5 353.5-146.5 146.5-353.5-146.5-353.5-353.5-146.5-353.5 146.5-146.5 353.5z m232.4-253.9h535.1v507.8h-535.1v-507.8z m66.4 166v277.3h402.3v-277.3h-402.3z" horiz-adv-x="1000" />
<glyph glyph-name="th-large" unicode="&#xe023;" d="M0-150v437.5h437.5v-437.5h-437.5z m0 562.5v437.5h437.5v-437.5h-437.5z m562.5-562.5v437.5h437.5v-437.5h-437.5z m0 562.5v437.5h437.5v-437.5h-437.5z" horiz-adv-x="1000" />
<glyph glyph-name="th" unicode="&#xe024;" d="M0-150v250h250v-250h-250z m0 375v250h250v-250h-250z m0 375v250h250v-250h-250z m375-750v250h250v-250h-250z m0 375v250h250v-250h-250z m0 375v250h250v-250h-250z m375-750v250h250v-250h-250z m0 375v250h250v-250h-250z m0 375v250h250v-250h-250z" horiz-adv-x="1000" />
<glyph glyph-name="th-list" unicode="&#xe022;" d="M0-150v250h250v-250h-250z m0 375v250h250v-250h-250z m0 375v250h250v-250h-250z m390.6-750v250h609.3v-250h-609.3z m0 375v250h609.3v-250h-609.3z m0 375v250h609.3v-250h-609.3z" horiz-adv-x="1000" />
<glyph glyph-name="view-mode" unicode="&#xe00f;" d="M0-75.8l925.7 925.7 74.2-74.2-925.7-925.7z m0 410.1v234.4h234.4v-234.4h-234.4z m0 279.3v234.4h234.4v-234.4h-234.4z m275.4-279.3v234.4h234.4z m0 279.3v234.4h234.4v-234.4h-234.4z m236.3-761.7v130.9h488.3v-130.9h-488.3z m0 168v130.9h488.3v-130.9h-488.3z m31.2 168l144.5 130.9h312.5v-130.9h-457z" horiz-adv-x="1000" />
<glyph glyph-name="ok" unicode="&#xe070;" d="M0 260.1l162.1 162.1 166-164.1 507.8 509.7 164.1-164.1-509.7-509.7-162.1-162.1-162.1 164.1z" horiz-adv-x="1000" />
<glyph glyph-name="ok-circled" unicode="&#xe06e;" d="M0 350q0 207 146.5 353.5t353.5 146.5 353.5-146.5 146.5-353.5-146.5-353.5-353.5-146.5-353.5 146.5-146.5 353.5z m181.6-56.6l105.5-105.5 103.5-103.5 103.5 103.5 324.2 324.2-103.5 103.5-324.2-324.2-105.5 105.5z" horiz-adv-x="1000" />
<glyph glyph-name="ok-circled2" unicode="&#xe06f;" d="M0 350q0 207 146.5 353.5t353.5 146.5 353.5-146.5 146.5-353.5-146.5-353.5-353.5-146.5-353.5 146.5-146.5 353.5z m109.4 0q0-162.1 114.3-276.4t276.4-114.3 276.4 114.3 114.3 276.4-114.3 276.4-276.4 114.3-276.4-114.3-114.3-276.4z m105.5-50.8l93.7 91.8 93.7-93.7 289 291 93.7-93.7-291-289-91.8-93.7-93.7 93.7z" horiz-adv-x="1000" />
<glyph glyph-name="cancel" unicode="&#xe04e;" d="M0 70.7l279.3 279.3-279.3 279.3 220.7 220.7 279.3-279.3 279.3 279.3 220.7-220.7-279.3-279.3 279.3-279.3-220.7-220.7-279.3 279.3-279.3-279.3z" horiz-adv-x="1000" />
<glyph glyph-name="cancel-circled" unicode="&#xe04c;" d="M0 350q0 207 146.5 353.5t353.5 146.5 353.5-146.5 146.5-353.5-146.5-353.5-353.5-146.5-353.5 146.5-146.5 353.5z m218.7-156.2l125-125 156.2 156.2 156.2-156.2 125 125-156.2 156.2 156.2 156.2-125 125-156.2-156.2-156.2 156.2-125-125 156.2-156.2z" horiz-adv-x="1000" />
<glyph glyph-name="cancel-circled2" unicode="&#xe04d;" d="M0 350q0 207 146.5 353.5t353.5 146.5 353.5-146.5 146.5-353.5-146.5-353.5-353.5-146.5-353.5 146.5-146.5 353.5z m109.4 0q0-162.1 114.3-276.4t276.4-114.3 276.4 114.3 114.3 276.4-114.3 276.4-276.4 114.3-276.4-114.3-114.3-276.4z m144.5-136.7l136.7 136.7-136.7 136.7 109.4 109.4 136.7-136.7 136.7 136.7 109.4-109.4-136.7-136.7 136.7-136.7-109.4-109.4-136.7 136.7-136.7-136.7z" horiz-adv-x="1000" />
<glyph glyph-name="plus" unicode="&#xe05a;" d="M0 209.4v281.2h359.4v359.4h281.2v-359.4h359.4v-281.2h-359.4v-359.4h-281.2v359.4h-359.4z" horiz-adv-x="1000" />
<glyph glyph-name="plus-circled" unicode="&#xe059;" d="M0 350q0 207 146.5 353.5t353.5 146.5 353.5-146.5 146.5-353.5-146.5-353.5-353.5-146.5-353.5 146.5-146.5 353.5z m218.7-80.1h201.2v-201.2h160.1v201.2h201.2v160.1h-201.2v201.2h-160.1v-201.2h-201.2v-160.1z" horiz-adv-x="1000" />
<glyph glyph-name="minus" unicode="&#xe076;" d="M0 209.4v281.2h999.9v-281.2h-999.9z" horiz-adv-x="1000" />
<glyph glyph-name="minus-circled" unicode="&#xe075;" d="M0 350q0 207 146.5 353.5t353.5 146.5 353.5-146.5 146.5-353.5-146.5-353.5-353.5-146.5-353.5 146.5-146.5 353.5z m212.9-82h574.2v164.1h-574.2v-164.1z" horiz-adv-x="1000" />
<glyph glyph-name="help" unicode="&#xe056;" d="M1.3 703.5q2 48.8 85 97.7t147.5 48.8q121.1 0 191.4-72.3 66.4-68.4 66.4-162.1 0-48.8-9.8-79.1t-44.9-83q-3.9-7.8-58.6-75.2t-77.1-119.1-12.7-104.5l-93.7 2q-29.3 66.4-26.4 130.9t28.3 119.1q13.7 31.2 40 74.2t40 74.2q19.5 44.9-13.7 88.9t-76.2 43.9q-39.1 0-59.6-14.6t-34.2-47.8h-76.2q-21.5 11.7-15.6 78.1z m123-740.2q0 46.9 33.2 80.1t80.1 33.2 80.1-33.2 33.2-80.1-33.2-80.1-80.1-33.2-80.1 33.2-33.2 80.1z" horiz-adv-x="492" />
<glyph glyph-name="help-circled" unicode="&#xe055;" d="M0 350q0 207 146.5 353.5t353.5 146.5 353.5-146.5 146.5-353.5-146.5-353.5-353.5-146.5-353.5 146.5-146.5 353.5z m316.4 263.7q-3.9-48.8 11.7-56.6h56.6q21.5 46.9 70.3 44.9 33.2 0 57.6-32.2t10.7-65.4q-9.8-23.4-29.3-55.7t-31.2-55.7q-19.5-41-20.5-89.8t20.5-97.7l70.3-2q-7.8 41 8.8 79.1t57.6 88.9 44.9 56.6q25.4 39.1 32.2 61.5t6.8 59.6q0 70.3-48.8 121.1-52.7 54.7-144.5 54.7-46.9 0-109.4-37.1t-64.4-74.2z m93.7-552.7q0-35.2 24.4-60.5t59.6-25.4 60.5 25.4 25.4 60.5-25.4 59.6-60.5 24.4-59.6-24.4-24.4-59.6z" horiz-adv-x="1000" />
<glyph glyph-name="info-circled" unicode="&#xe089;" d="M0 350q0 207 146.5 353.5t353.5 146.5 353.5-146.5 146.5-353.5-146.5-353.5-353.5-146.5-353.5 146.5-146.5 353.5z m373 66.4l7.8-39.1 35.2 7.8q25.4 0 25.4-35.2v-244.1q0-19.5-13.7-29.3-17.6-11.7-52.7-19.5l7.8-35.2q84 7.8 118.2 7.8t118.2-7.8l7.8 35.2q-35.2 9.8-52.7 19.5-9.8 5.9-11.7 11.7-2 3.9-2 17.6v240.2q0 48.8 15.6 89.8l-19.5 23.4q-31.2 0-89.8-13.7t-93.7-29.3z m35.2 194.3q0-30.3 19.5-49.8 21.5-17.6 56.6-17.6t56.6 18.6 21.5 48.8-21.5 48.8-56.6 18.6-56.6-17.6q-19.5-19.5-19.5-49.8z" horiz-adv-x="1000" />
<glyph glyph-name="home" unicode="&#xe0e0;" d="M0-150v648.4l453.1 351.5 453.1-351.5v-648.4h-312.5v390.6h-281.2v-390.6h-312.5z" horiz-adv-x="907" />
<glyph glyph-name="home-circled" unicode="&#xe0df;" d="M0 350q0 207 146.5 353.5t353.5 146.5 353.5-146.5 146.5-353.5-146.5-353.5-353.5-146.5-353.5 146.5-146.5 353.5z m255.8-269.5h168v210.9h152.3v-210.9h168v349.6l-244.1 189.4-244.1-189.4v-349.6z" horiz-adv-x="1000" />
<glyph glyph-name="website" unicode="&#xe008;" d="M0-118.8v937.4h999.9v-937.4h-999.9z m123 123h753.9v691.4h-753.9v-691.4z m82 78.1v166h166v-166h-166z m0 218.7v306.6h587.9v-306.6h-587.9z m210.9-218.7v166h166v-166h-166z m210.9 0v166h166v-166h-166z" horiz-adv-x="1000" />
<glyph glyph-name="website-circled" unicode="&#xe007;" d="M0 350q0 207 146.5 353.5t353.5 146.5 353.5-146.5 146.5-353.5-146.5-353.5-353.5-146.5-353.5 146.5-146.5 353.5z m234.4-248h531.2v496.1h-531.2v-496.1z m66.4 64.4v367.2h400.4v-367.2h-400.4z m43 41h87.9v87.9h-87.9v-87.9z m0 117.2h312.5v162.1h-312.5v-162.1z m111.3-117.2h87.9v87.9h-87.9v-87.9z m111.3 0h89.8v87.9h-89.8v-87.9z" horiz-adv-x="1000" />
<glyph glyph-name="attach" unicode="&#xe06d;" d="M.4 66.8q7.8 68.4 66.4 126.9l382.8 382.8q117.2 115.2 210.9 33.2 84-85.9-35.2-209l-353.5-351.5-66.4 70.3 349.6 349.6q2 0 7.8 5.9l7.8 7.8 6.8 8.8 6.8 9.8 5.9 9.8 3.9 10.7v9.8l-2 11.7q-19.5 17.6-74.2-37.1l-380.8-380.8q-37.1-35.2-41-68.4-3.9-39.1 35.2-78.1 41-33.2 69.3-28.3t71.3 45.9q82 80.1 217.8 214.8t194.3 195.3q2 2 17.6 16.6t17.6 17.6 14.6 15.6 15.6 17.6 11.7 16.6 12.7 19.5 10.7 19.5 10.7 25.4q15.6 56.6-33.2 123t-115.2 74.2q-68.4 7.8-152.3-72.3l-417.9-417.9-68.4 66.4 417.9 419.9q97.7 95.7 199.2 100.6t189.4-83q105.5-107.4 74.2-236.3-19.5-74.2-93.7-150.4-85.9-84-246.1-244.1l-209-209q-70.3-70.3-150.4-72.3-68.4 0-125 56.6-70.3 70.3-64.4 156.2z" horiz-adv-x="897" />
<glyph glyph-name="attach-circled" unicode="&#xe06c;" d="M0 350q0 207 146.5 353.5t353.5 146.5 353.5-146.5 146.5-353.5-146.5-353.5-353.5-146.5-353.5 146.5-146.5 353.5z m218.7-179.7q-3.9-52.7 41-97.7 35.2-35.2 78.1-35.2 50.8 2 95.7 44.9 29.3 31.2 129.9 131.8t155.3 153.3q44.9 48.8 58.6 93.7 19.5 82-46.9 148.4-52.7 52.7-111.3 52.7h-7.8q-62.5-2-125-62.5l-261.7-263.7 43-43 261.7 261.7q52.7 50.8 95.7 46.9 43-5.9 73.2-46.9t20.5-78.1q-3.9-5.9-5.9-12.7t-5.9-12.7-6.8-9.8-7.8-9.8-6.8-9.8-8.8-9.8-8.8-8.8-9.8-9.8-9.8-8.8l-122.1-122.1-135.7-135.7q-27.3-25.4-45.9-28.3t-43.9 16.6q-23.4 25.4-21.5 48.8 2 21.5 25.4 43l240.2 240.2q33.2 33.2 44.9 23.4 7.8-17.6-21.5-46.9l-220.7-220.7 43-43 220.7 220.7q74.2 76.2 23.4 130.9-60.5 50.8-132.8-21.5l-240.2-240.2q-37.1-37.1-43-80.1z" horiz-adv-x="1000" />
<glyph glyph-name="lock" unicode="&#xe07e;" d="M0-150v578.1h138.7q-2 166 25.4 230.5 39.1 87.9 116.2 139.6t168.9 51.8q93.7 0 171.9-53.7t115.2-137.7q25.4-58.6 25.4-121.1v-109.4h150.4v-578.1h-912.1z m322.2 578.1h255.8v111.3q-2 52.7-38.1 88.9t-90.8 38.1q-52.7 2-86.9-34.2t-40-94.7v-109.4z" horiz-adv-x="913" />
<glyph glyph-name="lock-circled" unicode="&#xe07d;" d="M0 350q0 207 146.5 353.5t353.5 146.5 353.5-146.5 146.5-353.5-146.5-353.5-353.5-146.5-353.5 146.5-146.5 353.5z m251.9-271.5h496.1v314.4h-82v58.6q0 33.2-13.7 66.4-19.5 44.9-62.5 74.2t-93.7 29.3-91.8-28.3-62.5-75.2q-15.6-35.2-13.7-125h-76.2v-314.4z m175.8 314.4v58.6q2 31.2 19.5 49.8t44.9 20.5h3.9q29.3-2 48.8-21.5t21.5-48.8v-58.6h-138.7z" horiz-adv-x="1000" />
<glyph glyph-name="lock-open" unicode="&#xe016;" d="M0-150v558.6h152.3v138.7q2 126.9 87.9 214.8 41 39.1 95.7 63.5t119.1 24.4q123-2 210.9-87.9 85.9-87.9 89.8-209h-177.7q-2 46.9-37.1 82-37.1 35.2-85.9 37.1-52.7-2-87.9-37.1-37.1-39.1-37.1-87.9v-138.7h552.7v-558.6h-882.8z" horiz-adv-x="883" />
<glyph glyph-name="lock-open-alt" unicode="&#xe015;" d="M0 350q0 207 146.5 353.5t353.5 146.5 353.5-146.5 146.5-353.5-146.5-353.5-353.5-146.5-353.5 146.5-146.5 353.5z m257.8-224.6h484.3v304.7h-302.7v78.1q0 27.3 19.5 46.9t48.8 19.5q27.3 2 45.9-16.6t20.5-47.8h97.7q-2 66.4-49.8 116.2t-114.3 45.9q-70.3-2-115.2-47.8t-50.8-116.2v-78.1h-84v-304.7z" horiz-adv-x="1000" />
<glyph glyph-name="eye" unicode="&#xe09d;" d="M0 350q5.9 48.8 64.4 109.4 78.1 80.1 175.8 128.9 128.9 60.5 259.7 60.5 136.7-2 259.7-60.5 103.5-52.7 175.8-128.9 64.4-72.3 64.4-109.4-5.9-48.8-64.4-109.4-78.1-80.1-175.8-128.9-128.9-60.5-259.7-60.5-136.7 2-259.7 60.5-103.5 52.7-175.8 128.9-64.4 72.3-64.4 109.4z m263.7 0q0-93.7 69.3-159.2t167-65.4 167 65.4 69.3 159.2-69.3 159.2-167 65.4-167-65.4-69.3-159.2z m85.9 1q0 59.6 43.9 101.6t106.4 42 106.4-42 43.9-101.6-43.9-102.5-106.4-43-106.4 43-43.9 102.5z" horiz-adv-x="1000" />
<glyph glyph-name="eye-off" unicode="&#xe102;" d="M0 350q5.9 48.8 64.4 109.4 78.1 80.1 175.8 128.9 128.9 60.5 259.7 60.5 29.3 0 58.6-2l74.2 128.9q9.8 15.6 23.4 17.6 3.9 0 7.8-2l50.8-31.2q17.6-7.8 2-33.2l-56.6-101.6-46.9-78.1-41-72.3-144.5-250-41-72.3-46.9-80.1-56.6-99.6q-15.6-25.4-31.2-15.6l-52.7 31.2q-15.6 7.8 0 33.2l48.8 85.9-7.8 3.9q-103.5 52.7-175.8 128.9-64.4 72.3-64.4 109.4z m263.7 0q0-74.2 46.9-132.8l48.8 84q-9.8 23.4-9.8 48.8 0 50.8 34.2 90.8t85 49.8l48.8 84h-17.6q-97.7 0-167-65.4t-69.3-159.2z m177.7-294.9l41 70.3h17.6q97.7 0 167 65.4t69.3 159.2q0 74.2-46.9 132.8l62.5 109.4q2-2 3.9-2.9t3.9-1q103.5-52.7 175.8-128.9 64.4-72.3 64.4-109.4-5.9-48.8-64.4-109.4-78.1-80.1-175.8-128.9-128.9-60.5-259.7-60.5-25.4 0-58.6 3.9z m89.8 154.3l109.4 189.4q9.8-25.4 9.8-48.8 0-50.8-34.2-89.8t-85-50.8z" horiz-adv-x="1000" />
<glyph glyph-name="tag" unicode="&#xe029;" d="M0 486.7v287.1q2 31.2 24.4 53.7t51.8 22.5h287.1q87.9-5.9 132.8-54.7l425.8-472.6q19.5-27.3 19.5-57.6t-19.5-51.8l-334-334q-25.4-21.5-56.6-21.5t-52.7 21.5l-423.8 474.6q-54.7 64.4-54.7 132.8z m125 164.1q2-31.2 23.4-51.8t50.8-20.5q31.2 0 51.8 22.5t20.5 49.8q0 33.2-22.5 53.7t-49.8 20.5q-33.2-2-53.7-23.4t-20.5-50.8z" horiz-adv-x="942" />
<glyph glyph-name="tags" unicode="&#xe028;" d="M0 463.2v240.2q2 27.3 20.5 45.9t43.9 18.6h240.2q43 0 87.9-27.3l376.9-414q17.6-23.4 17.6-47.8t-17.6-43.9l-279.3-277.3q-21.5-17.6-46.9-18.6t-43 18.6l-355.4 396.5q-44.9 54.7-44.9 109.4z m103.5 137.7q0-24.4 17.6-42 21.5-19.5 45.9-18.6t42 18.6q17.6 19.5 17.6 44.9t-17.6 43q-19.5 17.6-44.9 16.6t-43-16.6q-17.6-21.5-17.6-45.9z m316.4 165h91.8q72.3-3.9 109.4-44.9l355.4-396.5q17.6-21.5 17.6-47.8t-17.6-43.9l-279.3-277.3q-60.5-35.2-95.7 7.8l271.5 271.5q17.6 21.5 17.6 46.9t-17.6 44.9l-318.3 355.4q-23.4 31.2-70.3 56.6t-64.4 27.3z" horiz-adv-x="995" />
<glyph glyph-name="bookmark" unicode="&#xe0f4;" d="M0-56.3v906.2h609.3v-999.9l-304.7 304.7-304.7-304.7v93.7z" horiz-adv-x="610" />
<glyph glyph-name="bookmark-empty" unicode="&#xe0f3;" d="M0-56.3v906.2h609.3v-999.9l-304.7 304.7-304.7-304.7v93.7z m62.5 62.5l242.2 242.2 242.2-242.2v781.2h-484.3v-781.2z" horiz-adv-x="610" />
<glyph glyph-name="flag" unicode="&#xe0e6;" d="M0-7.4v802.7q68.4 41 135.7 50.8t124-2.9 112.3-35.2 112.3-43 113.3-31.2 124 2.9 137.7 58.6v-459q-52.7-52.7-109.4-67.4t-110.3 1-116.2 40-124 51.8-135.7 34.2-150.4-10.7v-392.6h-113.3z" horiz-adv-x="860" />
<glyph glyph-name="flag-circled" unicode="&#xe101;" d="M0 350q0 207 146.5 353.5t353.5 146.5 353.5-146.5 146.5-353.5-146.5-353.5-353.5-146.5-353.5 146.5-146.5 353.5z m216.8-281.2h76.2v257.8q64.4 17.6 117.2 4.9t104.5-33.2 93.7-39.1 87.9-11.7 86.9 45.9v302.7q-62.5-39.1-124-42t-106.4 16.6-104.5 40-106.4 20.5q-62.5 2-125-35.2v-527.3z" horiz-adv-x="1000" />
<glyph glyph-name="thumbs-up" unicode="&#xe020;" d="M0-87.5v552.7q0 15.6 9.8 24.4t25.4 10.7h146.5q33.2 0 35.2-35.2v-552.7q0-13.7-9.8-23.4t-25.4-11.7h-146.5q-13.7 0-23.4 9.8t-11.7 25.4z m277.3 27.3v500q0 21.5 13.7 35.2t37.1 15.6h113.3l113.3 251.9q13.7 31.2 41 31.2 37.1 2 93.7-60.5 17.6-25.4 24.4-55.7t5.9-47.8-8.8-63.5-9.8-55.7h248q25.4 0 38.1-16.6t10.7-43.9l-70.3-429.7q-11.7-41-52.7-73.2t-87.9-38.1h-459q-21.5 0-35.2 13.7t-15.6 37.1z" horiz-adv-x="999" />
<glyph glyph-name="thumbs-down" unicode="&#xe021;" d="M0 213.3v552.7q2 33.2 35.2 33.2h146.5q35.2-2 35.2-33.2v-552.7q-2-15.6-11.7-25.4t-23.4-9.8h-146.5q-13.7 2-24.4 11.7t-10.7 23.4z m277.3 23.4v501.9q2 21.5 15.6 35.2t33.2 13.7h459q35.2-2 70.3-21.5 54.7-33.2 70.3-87.9l70.3-429.7q2-25.4-12.7-43t-36.1-17.6h-248q7.8-58.6 21.5-117.2 5.9-89.8-93.7-158.2-19.5-13.7-43-5.9-19.5 5.9-31.2 29.3l-111.3 251.9h-115.2q-21.5 2-35.2 15.6t-13.7 33.2z" horiz-adv-x="997" />
<glyph glyph-name="download" unicode="&#xe0c4;" d="M0 350q0 207 146.5 353.5t353.5 146.5 353.5-146.5 146.5-353.5-146.5-353.5-353.5-146.5-353.5 146.5-146.5 353.5z m109.4 0q0-162.1 114.3-276.4t276.4-114.3 276.4 114.3 114.3 276.4-114.3 276.4-276.4 114.3-276.4-114.3-114.3-276.4z m169.9-13.7h123v222.6h195.3v-222.6h123l-220.7-207z" horiz-adv-x="1000" />
<glyph glyph-name="download-alt" unicode="&#xe0c3;" d="M0-150v134.8h999.9v-134.8h-999.9z m87.9 585.9h228.5v414h369.1v-414h228.5l-414-384.7z" horiz-adv-x="1000" />
<glyph glyph-name="upload" unicode="&#xe014;" d="M0 350q0 207 146.5 353.5t353.5 146.5 353.5-146.5 146.5-353.5-146.5-353.5-353.5-146.5-353.5 146.5-146.5 353.5z m109.4 0q0-162.1 114.3-276.4t276.4-114.3 276.4 114.3 114.3 276.4-114.3 276.4-276.4 114.3-276.4-114.3-114.3-276.4z m169.9 13.7l220.7 207 220.7-207h-123v-222.6h-195.3v222.6h-123z" horiz-adv-x="1000" />
<glyph glyph-name="share" unicode="&#xe03b;" d="M0-120.7q0 142.6 24.4 255.8t59.6 185.5 94.7 124 107.4 76.2 122.1 38.1 114.3 15.6 106.4 2v244.1l371.1-371.1-371.1-371.1v267.6q-101.6 0-151.4-1t-126-9.8-113.3-26.4-85.9-50.8-74.2-83-46.9-124-31.2-171.9z" horiz-adv-x="1000" />
<glyph glyph-name="quote" unicode="&#xe054;" d="M0-62.1v437.5q0 70.3 14.6 128.9t38.1 96.7 61.5 67.4 71.3 44.9 83 27.3 82 14.6 81 6.8l37.1-175.8q-48.8-9.8-81-20.5t-65.4-31.2-47.8-52.7-10.7-77.1h130.9v-466.8h-394.5z m529.3 0v437.5q0 70.3 15.6 128.9t38.1 96.7 60.5 67.4 72.3 44.9 83 27.3 81 14.6 81 6.8l39.1-175.8q-50.8-9.8-83-20.5t-65.4-31.2-46.9-52.7-11.7-77.1h130.9v-466.8h-394.5z" horiz-adv-x="1000" />
<glyph glyph-name="quote-circled" unicode="&#xe053;" d="M0 350q0 207 146.5 353.5t353.5 146.5 353.5-146.5 146.5-353.5-146.5-353.5-353.5-146.5-353.5 146.5-146.5 353.5z m218.7-199.2h222.6v261.7h-74.2q-3.9 48.8 26.4 69.3t88.9 34.2l-21.5 99.6q-39.1-3.9-64.4-7.8t-62.5-17.6-59.6-35.2-39.1-62.5-16.6-95.7v-246.1z m298.8 0h222.6v261.7h-74.2q-3.9 48.8 26.4 69.3t88.9 34.2l-21.5 99.6q-39.1-3.9-64.4-7.8t-62.5-17.6-59.6-35.2-39.1-62.5-16.6-95.7v-246.1z" horiz-adv-x="1000" />
<glyph glyph-name="export" unicode="&#xe03c;" d="M0-150v999.9h494.1v-164.1h-330.1v-671.8h671.8v183.6l164.1 173.8v-521.5h-999.9z m232.4 277.3q0 85.9 11.7 158.2t28.3 124 46.9 92.8 56.6 67.4 67.4 44.9 69.3 27.3 72.3 13.7 67.4 5.9 62.5 1v187.5l285.1-285.1-285.1-285.1v205.1q-107.4 0-159.2-2.9t-121.1-20.5-101.6-54.7-61.5-106.4-39.1-172.8z" horiz-adv-x="1000" />
<glyph glyph-name="pencil" unicode="&#xe068;" d="M0-138.3l68.4 343.7 273.4-273.4z m136.7 392.6l421.8 421.8 259.7-259.7-421.8-421.8z m531.2 494.1q2 39.1 31.2 68.4t68.4 31.2 66.4-25.4l130.9-130.9q25.4-25.4 24.4-65.4t-30.3-69.3-69.3-30.3-65.4 24.4l-130.9 130.9q-27.3 27.3-25.4 66.4z" horiz-adv-x="1591" />
<glyph glyph-name="pencil-circled" unicode="&#xe067;" d="M0 350q0 207 146.5 353.5t353.5 146.5 353.5-146.5 146.5-353.5-146.5-353.5-353.5-146.5-353.5 146.5-146.5 353.5z m173.8-287.1l218.7 43-175.8 175.8z m85.9 250l168-166 269.5 271.5-166 166z m341.8 316.4q-2-25.4 15.6-41l84-84q17.6-17.6 43-16.6t43.9 19.5 19.5 43.9-16.6 43l-84 84q-15.6 15.6-39.1 15.6-27.3 0-46.9-19.5-17.6-19.5-19.5-44.9z" horiz-adv-x="1059" />
<glyph glyph-name="edit" unicode="&#xe0bf;" d="M0-150v818.3l187.5 181.6h521.5v-226.5l31.2 31.2 162.1-160.1-380.8-380.8-238.3-78.1 76.2 238.3 261.7 261.7v226.5h-369.1v-156.2h-164.1v-667.9h533.2v142.6l87.9 87.9v-318.3h-708.9z m361.3 263.7l119.1 39.1-80.1 82z" horiz-adv-x="903" />
<glyph glyph-name="edit-circled" unicode="&#xe0be;" d="M0 350q0 207 146.5 353.5t353.5 146.5 353.5-146.5 146.5-353.5-146.5-353.5-353.5-146.5-353.5 146.5-146.5 353.5z m261.7-316.4h447.2v201.2l-54.7-54.7v-91.8h-337.9v423.8h105.5v99.6h232.4v-144.5l-166-164.1-48.8-152.3 152.3 48.8 240.2 242.2-101.6 101.6-21.5-21.5v144.5h-328.1l-119.1-115.2v-517.5z m228.5 168l25.4 74.2 50.8-50.8z" horiz-adv-x="1000" />
<glyph glyph-name="edit-alt" unicode="&#xe0ed;" d="M0-150v999.9h646.4l-164.1-164.1h-318.3v-671.8h671.8v318.3l164.1 164.1v-646.4h-999.9z m363.3 363.3v117.2h5.9q39.1 2 72.3-29.3 39.1-39.1 39.1-87.9h-117.2z m50.8 175.8l367.2 367.2 125-125-367.2-367.2z m396.5 396.5l64.4 64.4 125-125-64.4-64.4z" horiz-adv-x="1000" />
<glyph glyph-name="print" unicode="&#xe058;" d="M0 168.3v304.7h999.9v-304.7h-154.3l54.7-265.6h-800.7l54.7 265.6h-154.3z m33.2 361.3l234.4 99.6h39.1v152.3h386.7v-152.3h39.1l234.4-99.6h-933.5z m130.9-552.7h671.8l-78.1 380.8h-515.6z" horiz-adv-x="1000" />
<glyph glyph-name="retweet" unicode="&#xe045;" d="M0 412.5l250 250 250-250h-187.5v-187.5h125l125-125h-375v312.5h-187.5z m437.5 187.5h375v-312.5h187.5l-250-250-250 250h187.5v187.5h-125z" horiz-adv-x="1000" />
<glyph glyph-name="comment" unicode="&#xe106;" d="M0 96.1v712.8h999.9v-712.8h-472.6l-320.3-205.1v205.1h-207z" horiz-adv-x="1000" />
<glyph glyph-name="comment-alt" unicode="&#xe0a3;" d="M0 191.8v607.4h853.5v-607.4h-404.3l-273.4-175.8v175.8h-175.8z m347.6-111.3l119.1 76.2h128.9l9.8-5.9 169.9-111.3v117.2h148.4v433.6h-31.2v76.2h107.4v-585.9h-148.4v-179.7l-58.6 37.1-220.7 142.6h-224.6z" horiz-adv-x="1000" />
<glyph glyph-name="bell" unicode="&#xe0d1;" d="M0 12.1v44.9l197.3 169.9v265.6q0 107.4 67.4 190.4t170.9 104.5v62.5h130.9v-62.5q101.6-21.5 169.9-104.5t68.4-190.4v-265.6l195.3-169.9v-44.9h-999.9z m427.7-86.9q0 30.3 21.5 51.8t51.8 21.5 51.8-21.5 21.5-51.8-21.5-50.8-51.8-20.5-51.8 20.5-21.5 50.8z" horiz-adv-x="1000" />
<glyph glyph-name="warning" unicode="&#xe009;" d="M0-150l500 999.9 500-999.9h-999.9z m460.9 179.7h78.1v82h-78.1v-82z m0 341.8l19.5-185.5h39.1l19.5 185.5v130.9h-78.1v-130.9z" horiz-adv-x="1000" />
<glyph glyph-name="exclamation" unicode="&#xe103;" d="M0 350q0 207 146.5 353.5t353.5 146.5 353.5-146.5 146.5-353.5-146.5-353.5-353.5-146.5-353.5 146.5-146.5 353.5z m318.3 402.3l78.1-550.7h207l78.1 550.7h-363.3z m76.2-696.2q0-43.9 31.2-76.2t76.2-32.2 76.2 32.2 31.2 76.2-31.2 76.2-76.2 32.2-76.2-32.2-31.2-76.2z" horiz-adv-x="1000" />
<glyph glyph-name="error" unicode="&#xe105;" d="M0 350q0 207 146.5 353.5t353.5 146.5 353.5-146.5 146.5-353.5-146.5-353.5-353.5-146.5-353.5 146.5-146.5 353.5z m136.7 0q0-150.4 106.4-256.8t256.8-106.4 256.8 106.4 106.4 256.8-106.4 256.8-256.8 106.4-256.8-106.4-106.4-256.8z m97.7-97.7v195.3h531.2v-195.3h-531.2z" horiz-adv-x="1000" />
<glyph glyph-name="error-alt" unicode="&#xe104;" d="M0 350q0 207 146.5 353.5t353.5 146.5 353.5-146.5 146.5-353.5-146.5-353.5-353.5-146.5-353.5 146.5-146.5 353.5z m164.1-132.8h671.8v265.6h-671.8v-265.6z" horiz-adv-x="1000" />
<glyph glyph-name="location" unicode="&#xe07a;" d="M0 473q0 156.2 110.3 266.6t266.6 110.3 266.6-110.3 110.3-266.6q0-123-52.7-193.3l-324.2-429.7-324.2 429.7q-52.7 70.3-52.7 193.3z m218.7 0q0-66.4 45.9-112.3t112.3-45.9 112.3 45.9 45.9 112.3-45.9 112.3-112.3 45.9-112.3-45.9-45.9-112.3z" horiz-adv-x="754" />
<glyph glyph-name="location-circled" unicode="&#xe079;" d="M0 350q0 207 146.5 353.5t353.5 146.5 353.5-146.5 146.5-353.5-146.5-353.5-353.5-146.5-353.5 146.5-146.5 353.5z m250 82q0-82 35.2-128.9l214.8-283.2 214.8 283.2q35.2 46.9 35.2 128.9 0 103.5-73.2 175.8t-176.7 72.3-176.7-72.3-73.2-175.8z m144.5-1q0 43.9 31.2 74.2t74.2 30.3 74.2-30.3 31.2-74.2-31.2-74.2-74.2-30.3-74.2 30.3-31.2 74.2z" horiz-adv-x="1000" />
<glyph glyph-name="compass" unicode="&#xe0a2;" d="M0 393.9q0 188.5 133.8 322.2t322.2 133.8 321.3-133.8 132.8-322.2-132.8-321.3-321.3-132.8-322.2 132.8-133.8 321.3z m62.5 1q0-162.1 115.2-277.3t277.3-115.2 277.3 115.2 115.2 277.3-115.2 277.3-277.3 115.2-277.3-115.2-115.2-277.3z m138.7-234.4l185.5 302.7 302.7 185.5 19.5-21.5-183.6-302.7-302.7-183.6z" horiz-adv-x="911" />
<glyph glyph-name="compass-circled" unicode="&#xe0a1;" d="M0 393.9q0 188.5 133.8 322.2t322.2 133.8 321.3-133.8 132.8-322.2-132.8-321.3-321.3-132.8-322.2 132.8-133.8 321.3z m183.6-249l21.5-23.4 324.2 199.2 199.2 324.2-23.4 21.5-324.2-197.3z" horiz-adv-x="911" />
<glyph glyph-name="trash" unicode="&#xe01b;" d="M0 633.2v140.6h289v76.2h246.1v-76.2h289v-140.6h-824.2z m43-783.2v675.7h738.2v-675.7h-738.2z" horiz-adv-x="825" />
<glyph glyph-name="trash-circled" unicode="&#xe01a;" d="M0 350q0 207 146.5 353.5t353.5 146.5 353.5-146.5 146.5-353.5-146.5-353.5-353.5-146.5-353.5 146.5-146.5 353.5z m242.2 177.7h515.6v87.9h-179.7v46.9h-156.2v-46.9h-179.7v-87.9z m27.3-490.2h460.9v421.8h-460.9v-421.8z" horiz-adv-x="1000" />
<glyph glyph-name="doc" unicode="&#xe0c1;" d="M0-153.9v673.8h337.9v326.2h371.1v-999.9h-708.9z m0 755.8v62.5l189.4 181.6h64.4v-244.1h-253.9z" horiz-adv-x="709" />
<glyph glyph-name="doc-circled" unicode="&#xe0c0;" d="M0 350q0 207 146.5 353.5t353.5 146.5 353.5-146.5 146.5-353.5-146.5-353.5-353.5-146.5-353.5 146.5-146.5 353.5z m316.4-259.7h367.2v519.5h-191.4v-169.9h-175.8v-349.6z m0 392.6h130.9v126.9h-33.2l-97.7-95.7v-31.2z" horiz-adv-x="1000" />
<glyph glyph-name="doc-new" unicode="&#xe0bd;" d="M0-150v818.3l187.5 181.6h519.5v-347.6h-85.9v259.7h-369.1v-156.2h-166v-667.9h417.9v-87.9h-503.9z m373 207v162.1h209v207h160.1v-207h207v-162.1h-207v-207h-160.1v207h-209z" horiz-adv-x="950" />
<glyph glyph-name="doc-new-circled" unicode="&#xe0bc;" d="M0 350q0 207 146.5 353.5t353.5 146.5 353.5-146.5 146.5-353.5-146.5-353.5-353.5-146.5-353.5 146.5-146.5 353.5z m263.7-271.5h294.9v52.7h-244.1v390.6h97.7v91.8h214.8v-152.3h52.7v203.1h-304.7l-111.3-105.5v-480.4z m218.7 123h123v-123h93.7v123h121.1v93.7h-121.1v121.1h-93.7v-121.1h-123v-93.7z" horiz-adv-x="1000" />
<glyph glyph-name="folder" unicode="&#xe0ff;" d="M0-52.4v714.8h138.7l68.4 89.8h216.8l68.4-89.8h507.8v-714.8h-999.9z" horiz-adv-x="1000" />
<glyph glyph-name="folder-circled" unicode="&#xe096;" d="M0 350q0 207 146.5 353.5t353.5 146.5 353.5-146.5 146.5-353.5-146.5-353.5-353.5-146.5-353.5 146.5-146.5 353.5z m201.2-240.2h597.6v425.8h-302.7l-41 54.7h-128.9l-43-54.7h-82v-425.8z" horiz-adv-x="1000" />
<glyph glyph-name="folder-close" unicode="&#xe0fe;" d="M0-52.4v560.5h999.9v-560.5h-999.9z m0 593.7v121.1h138.7l68.4 89.8h216.8l68.4-89.8h507.8v-121.1h-999.9z" horiz-adv-x="1000" />
<glyph glyph-name="folder-open" unicode="&#xe097;" d="M0-52.4v54.7l146.5 505.8h853.5l-171.9-560.5h-828.1z m0 205.1v509.7h138.7l68.4 89.8h216.8l68.4-89.8h335.9v-121.1h-724.6z" horiz-adv-x="1000" />
<glyph glyph-name="rss" unicode="&#xe042;" d="M0-150v199.2q82 0 140.6-58.6t58.6-140.6h-199.2z m0 400.4v199.2q248 0 423.8-175.8t175.8-423.8h-199.2q0 166-117.2 283.2t-283.2 117.2z m0 400.4v199.2q203.1 0 388.6-79.1t319.3-212.9 212.9-319.3 79.1-388.6h-199.2q0 216.8-107.4 401.3t-292 292-401.3 107.4z" horiz-adv-x="1000" />
<glyph glyph-name="phone" unicode="&#xe065;" d="M.4 627.3q0 50.8 27.3 76.2l138.7 138.7q44.9 37.1 76.2-13.7l113.3-210.9q17.6-39.1-13.7-70.3l-50.8-52.7q-5.9-5.9-5.9-13.7 25.4-97.7 132.8-195.3l30.3-30.3 36.1-33.2 34.2-26.4 41-25.4 40-13.7q19.5-5.9 27.3 2l60.5 60.5q39.1 29.3 72.3 11.7l203.1-121.1q21.5-13.7 24.4-37.1t-12.7-39.1l-140.6-138.7q-27.3-27.3-74.2-27.3-140.6 3.9-318.3 121.1-257.8 185.5-375 406.2-72.3 150.4-66.4 232.4z" horiz-adv-x="989" />
<glyph glyph-name="phone-circled" unicode="&#xe064;" d="M0 350q0 207 146.5 353.5t353.5 146.5 353.5-146.5 146.5-353.5-146.5-353.5-353.5-146.5-353.5 146.5-146.5 353.5z m199.2 162.1q-3.9-50.8 41-142.6 70.3-132.8 228.5-248 107.4-70.3 193.3-72.3 29.3 0 46.9 15.6l84 85.9q9.8 9.8 7.8 23.4t-15.6 23.4l-123 72.3q-19.5 11.7-44.9-5.9l-35.2-37.1q-5.9-5.9-17.6-2-11.7 2-24.4 7.8t-25.4 15.6-20.5 16.6-21.5 20.5-19.5 17.6q-64.4 60.5-80.1 119.1 0 3.9 3.9 9.8l31.2 31.2q17.6 17.6 7.8 43l-68.4 128.9q-11.7 17.6-27.3 15.6-9.8 0-19.5-7.8l-84-85.9q-17.6-15.6-17.6-44.9z" horiz-adv-x="1000" />
<glyph glyph-name="cog" unicode="&#xe109;" d="M0 271.8v156.2l150.4 15.6q13.7 44.9 37.1 87.9l-95.7 117.2 109.4 109.4 117.2-95.7q41 23.4 87.9 37.1l15.6 150.4h156.2l15.6-150.4q44.9-13.7 87.9-37.1l117.2 95.7 109.4-109.4-95.7-117.2q23.4-43 37.1-87.9l150.4-15.6v-156.2l-150.4-15.6q-13.7-46.9-37.1-87.9l95.7-117.2-109.4-109.4-117.2 95.7q-43-23.4-87.9-37.1l-15.6-150.4h-156.2l-15.6 150.4q-46.9 13.7-87.9 37.1l-117.2-95.7-109.4 109.4 95.7 117.2q-23.4 41-37.1 87.9z m355.4 78.1q0-60.5 42-102.5t102.5-42 102.5 42 42 102.5-42 102.5-102.5 42-102.5-42-42-102.5z" horiz-adv-x="1000" />
<glyph glyph-name="cog-circled" unicode="&#xe108;" d="M0 350q0 207 146.5 353.5t353.5 146.5 353.5-146.5 146.5-353.5-146.5-353.5-353.5-146.5-353.5 146.5-146.5 353.5z m195.3-46.9l91.8-9.8q7.8-29.3 21.5-52.7l-58.6-72.3 68.4-68.4 72.3 58.6q23.4-13.7 52.7-21.5l9.8-91.8h93.7l9.8 91.8q29.3 7.8 52.7 21.5l72.3-58.6 68.4 68.4-58.6 72.3q13.7 23.4 21.5 52.7l91.8 9.8v93.7l-91.8 9.8q-7.8 29.3-21.5 52.7l58.6 72.3-68.4 68.4-72.3-58.6q-23.4 13.7-52.7 21.5l-9.8 91.8h-93.7l-9.8-91.8q-29.3-7.8-52.7-21.5l-72.3 58.6-68.4-68.4 58.6-72.3q-13.7-23.4-21.5-52.7l-91.8-9.8v-93.7z m216.8 46.9q0 37.1 25.4 62.5t62.5 25.4 62.5-25.4 25.4-62.5-25.4-62.5-62.5-25.4-62.5 25.4-25.4 62.5z" horiz-adv-x="1000" />
<glyph glyph-name="cogs" unicode="&#xe107;" d="M0 244.5v97.7l93.7 7.8q7.8 29.3 23.4 54.7l-60.5 74.2 68.4 68.4 74.2-60.5q25.4 15.6 54.7 23.4l7.8 93.7h97.7l9.8-93.7q29.3-7.8 54.7-23.4l74.2 60.5 68.4-68.4-60.5-74.2q15.6-25.4 23.4-54.7l93.7-7.8v-97.7l-93.7-9.8q-7.8-29.3-23.4-54.7l60.5-72.3-68.4-70.3-74.2 60.5q-25.4-15.6-54.7-23.4l-9.8-93.7h-97.7l-7.8 93.7q-29.3 7.8-54.7 23.4l-74.2-60.5-68.4 70.3 60.5 72.3q-15.6 25.4-23.4 54.7z m220.7 48.8q0-37.1 26.4-63.5t63.5-26.4 63.5 26.4 26.4 63.5-26.4 63.5-63.5 26.4-63.5-26.4-26.4-63.5z m318.3 238.3l7.8 72.3 70.3-2q7.8 21.5 19.5 39.1l-37.1 56.6 54.7 44.9 48.8-48.8q19.5 9.8 41 13.7l13.7 66.4 72.3-7.8-2-68.4q21.5-7.8 39.1-21.5l56.6 39.1 44.9-54.7-48.8-48.8q9.8-19.5 11.7-43l68.4-13.7-7.8-70.3h-68.4q-7.8-19.5-21.5-37.1l39.1-58.6-56.6-44.9-46.9 48.8q-21.5-7.8-43-11.7l-13.7-66.4-70.3 5.9v70.3q-19.5 7.8-37.1 19.5l-58.6-37.1-44.9 54.7 48.8 48.8q-7.8 19.5-11.7 41z m31.2-445.3l5.9 50.8h48.8q5.9 15.6 13.7 27.3l-25.4 43 37.1 33.2 35.2-37.1q13.7 7.8 29.3 9.8l9.8 48.8 48.8-5.9v-48.8q15.6-5.9 27.3-15.6l41 27.3 31.2-41-35.2-35.2q5.9-13.7 9.8-29.3l46.9-11.7-5.9-50.8h-48.8q-3.9-15.6-13.7-27.3l27.3-43-39.1-33.2-35.2 37.1q-13.7-7.8-29.3-9.8l-9.8-48.8-48.8 5.9v50.8q-13.7 3.9-27.3 13.7l-41-27.3-31.2 41 35.2 35.2q-5.9 13.7-7.8 29.3z m117.2 13.7q-3.9-21.5 8.8-36.1t31.2-17.6 34.2 9.8 17.6 33.2-10.7 35.2-30.3 18.6h-5.9q-17.6 0-31.2-12.7t-13.7-30.3z m17.6 451.1q-3.9-27.3 13.7-48.8t44.9-24.4 47.8 14.6 23.4 44.9-13.7 47.8-43.9 24.4h-7.8q-25.4 0-43.9-16.6t-20.5-42z" horiz-adv-x="1036" />
<glyph glyph-name="wrench" unicode="&#xe004;" d="M0 29.7l462.9 462.9q-25.4 68.4-9.8 145.5t72.3 133.8 132.8 72.3 146.5-9.8l-162.1-162.1 44.9-117.2 115.2-44.9 164.1 164.1q25.4-70.3 8.8-147.5t-72.3-132.8-132.8-72.3-147.5 8.8l-462.9-462.9z m113.3-2q0-19.5 13.7-33.2t33.2-13.7 33.2 13.7 13.7 33.2-13.7 33.2-33.2 13.7-33.2-13.7-13.7-33.2z" horiz-adv-x="977" />
<glyph glyph-name="wrench-circled" unicode="&#xe003;" d="M0 350q0 207 146.5 353.5t353.5 146.5 353.5-146.5 146.5-353.5-146.5-353.5-353.5-146.5-353.5 146.5-146.5 353.5z m199.2-201.2l99.6-99.6 283.2 283.2q41-15.6 88.9-5.9t82 43.9 43.9 81-5.9 89.8l-99.6-99.6-72.3 27.3-27.3 72.3 99.6 99.6q-25.4 9.8-54.7 9.8-68.4 0-115.2-48.8-35.2-33.2-44.9-81t5.9-88.9z m77.1-22.5q-20.5 20.5 1 42 19.5 19.5 41 0 19.5-21.5-1-42t-41 0z" horiz-adv-x="1000" />
<glyph glyph-name="basket" unicode="&#xe03a;" d="M.6 795.3q7.8 19.5 26.4 29.3t38.1 3.9l150.4-48.8q31.2-9.8 35.2-43l9.8-84 685.5-76.2q23.4-5.9 35.2-22.5t9.8-38.1l-43-238.3q-7.8-43-48.8-43h-607.4l-11.7-68.4h578.1q21.5 0 36.1-14.6t14.6-36.1q-2-21.5-16.6-36.1t-34.2-14.6h-640.6q-25.4 2-39.1 19.5t-11.7 41l27.3 148.4-41 417.9-119.1 39.1q-44.9 17.6-33.2 64.4z m216.8-838.8q0 32.2 23.4 55.7t55.7 23.4 55.7-23.4 23.4-55.7-23.4-55.7-55.7-23.4-55.7 23.4-23.4 55.7z m468.7 0q0 32.2 23.4 55.7t55.7 23.4 55.7-23.4 23.4-55.7-23.4-55.7-55.7-23.4-55.7 23.4-23.4 55.7z" horiz-adv-x="992" />
<glyph glyph-name="basket-circled" unicode="&#xe039;" d="M0 350q0 207 146.5 353.5t353.5 146.5 353.5-146.5 146.5-353.5-146.5-353.5-353.5-146.5-353.5 146.5-146.5 353.5z m212.9 246.1q5.9-11.7 17.6-15.6l68.4-21.5 25.4-246.1-15.6-87.9q-2-13.7 6.8-23.4t22.5-11.7h376.9q11.7 0 20.5 8.8t8.8 20.5-8.8 20.5-20.5 10.7h-341.8l7.8 39.1h357.4q23.4 0 29.3 25.4l25.4 140.6q2 11.7-5.9 22.5t-21.5 12.7l-402.3 44.9-5.9 48.8q-2 19.5-19.5 27.3l-89.8 27.3q-11.7 3.9-23.4-2-25.4-15.6-11.7-41z m123-470.7q0-19.5 13.7-33.2t33.2-13.7 33.2 13.7 13.7 33.2-13.7 33.2-33.2 13.7-33.2-13.7-13.7-33.2z m275.4 0q0-19.5 13.7-33.2t33.2-13.7 33.2 13.7 13.7 33.2-13.7 33.2-33.2 13.7-33.2-13.7-13.7-33.2z" horiz-adv-x="1000" />
<glyph glyph-name="calendar" unicode="&#xe10b;" d="M0-148v648.4h892.5v-648.4h-892.5z m0 705v220.7h109.4v-140.6h199.2v140.6h275.4v-140.6h199.2v140.6h109.4v-220.7h-892.5z m168 138.7v156.2h82v-156.2h-82z m58.6-619.1q0-111.3 123-111.3 46.9 0 84 31.2 39.1 31.2 39.1 80.1 0 68.4-78.1 89.8 48.8 15.6 64.4 48.8 11.7 27.3-2 72.3-27.3 62.5-107.4 62.5-50.8 0-85.9-26.4t-37.1-77.1h72.3q0 44.9 48.8 46.9 43 0 44.9-52.7 0-48.8-84-46.9v-56.6q48.8 0 68.4-7.8 23.4-11.7 23.4-46.9 0-56.6-54.7-60.5-43 0-46.9 54.7h-72.3z m281.2 146.5q48.8 13.7 87.9 46.9v-296.9h70.3v371.1h-64.4q-37.1-37.1-93.7-58.6v-62.5z m134.8 472.6v156.2h82v-156.2h-82z" horiz-adv-x="893" />
<glyph glyph-name="calendar-circled" unicode="&#xe10a;" d="M0 350q0 207 146.5 353.5t353.5 146.5 353.5-146.5 146.5-353.5-146.5-353.5-353.5-146.5-353.5 146.5-146.5 353.5z m218.7-314.4h562.5v408.2h-562.5v-408.2z m0 443.3h562.5v138.7h-68.4v-87.9h-126.9v87.9h-171.9v-87.9h-126.9v87.9h-68.4v-138.7z m105.5 87.9h52.7v97.7h-52.7v-97.7z m37.1-390.6h46.9q2-35.2 29.3-35.2 33.2 2 33.2 39.1 0 23.4-15.6 29.3-11.7 5.9-43 5.9v35.2q52.7-2 52.7 29.3 0 33.2-27.3 33.2-31.2-2-31.2-29.3h-44.9q2 31.2 24.4 47.8t53.7 16.6q50.8 0 66.4-39.1 9.8-27.3 2-44.9-9.8-21.5-39.1-31.2 48.8-13.7 48.8-56.6-2-31.2-25.4-50.8t-52.7-19.5q-78.1 0-78.1 70.3z m177.7 91.8v39.1q35.2 15.6 58.6 37.1h41v-234.4h-44.9v189.4q-23.4-21.5-54.7-31.2z m84 298.8h52.7v97.7h-52.7v-97.7z" horiz-adv-x="1000" />
<glyph glyph-name="mic" unicode="&#xe078;" d="M0 131.2v281.2h64.4v-248q119.1-95.7 269.5-95.7t269.5 95.7v248h64.4v-281.2q-31.2-27.3-64.4-50.8-82-52.7-177.7-70.3v31.2h-183.6v-31.2q-95.7 17.6-177.7 70.3-33.2 23.4-64.4 50.8z m109.4 89.8v548.8q29.3 25.4 68.4 44.9v-113.3h54.7v134.8q37.1 11.7 74.2 13.7v-148.4h54.7v148.4q37.1-3.9 76.2-13.7v-134.8h54.7v111.3q37.1-17.6 66.4-43v-548.8q-97.7-80.1-224.6-80.1t-224.6 80.1z m25.4-302.7h107.4v91.8q44.9-7.8 91.8-7.8t91.8 7.8v-91.8h107.4v-68.4h-398.4v68.4z" horiz-adv-x="668" />
<glyph glyph-name="mic-circled" unicode="&#xe077;" d="M0 350q0 207 146.5 353.5t353.5 146.5 353.5-146.5 146.5-353.5-146.5-353.5-353.5-146.5-353.5 146.5-146.5 353.5z m283.2-142.6q19.5-17.6 43-31.2 52.7-35.2 115.2-46.9v21.5h117.2v-21.5q62.5 11.7 115.2 46.9 23.4 13.7 43 31.2v183.6h-43v-162.1q-76.2-62.5-173.8-62.5t-173.8 62.5v162.1h-43v-183.6z m70.3 58.6q64.4-52.7 146.5-52.7t146.5 52.7v357.4q-19.5 15.6-44.9 27.3v-72.3h-35.2v87.9q-23.4 5.9-48.8 7.8v-95.7h-35.2v95.7q-25.4 0-48.8-7.8v-87.9h-35.2v74.2q-25.4-13.7-44.9-29.3v-357.4z m15.6-240.2h261.7v43h-72.3v60.5q-29.3-5.9-58.6-5.9t-58.6 5.9v-60.5h-72.3v-43z" horiz-adv-x="1000" />
<glyph glyph-name="volume-off" unicode="&#xe00c;" d="M0 492.5h304.7l345.7 281.2v-964.8l-345.7 279.3h-228.5z m712.8-283.2q0 3.9 2 5.9l76.2 76.2-76.2 76.2q-2 2-2 5.9t2 5.9l52.7 52.7q2 2 5.9 2t5.9-2l76.2-76.2 76.2 76.2q3.9 2 6.8 2t4.9-2l54.7-52.7q2-2 2-5.9t-2-5.9l-76.2-76.2 76.2-76.2q2-3.9 2-6.8t-2-4.9l-54.7-54.7q-2-2-4.9-2t-6.8 2l-76.2 78.1-76.2-78.1q-2-2-4.9-2t-6.8 2l-52.7 54.7q-2 2-2 5.9z" horiz-adv-x="1077" />
<glyph glyph-name="volume-down" unicode="&#xe00d;" d="M0 62.9v417.9h236.3l357.4 291v-999.9l-357.4 291h-236.3z m656.2 37.1q74.2 74.2 74.2 173.8 0 103.5-74.2 179.7l72.3 74.2q103.5-105.5 107.4-255.8 0-144.5-107.4-246.1z" horiz-adv-x="836" />
<glyph glyph-name="volume" unicode="&#xe033;" d="M0 62.9v416h236.3l353.5 289v-994.1l-353.5 289h-236.3z m652.3 35.2q72.3 74.2 72.3 175.8t-72.3 177.7l70.3 74.2q105.5-105.5 107.4-253.9 0-144.5-107.4-246.1z m117.2-119.1q123 119.1 123 294.9t-123 298.8l76.2 74.2q154.3-154.3 154.3-372t-154.3-372z" horiz-adv-x="1071" />
<glyph glyph-name="volume-up" unicode="&#xe00b;" d="M0 166.4v359.4h203.1l306.6 250v-857.4l-306.6 248h-203.1z m562.5 33.2q62.5 62.5 62.5 150.4t-62.5 152.3l60.5 64.4q89.8-89.8 91.8-218.7 0-125-91.8-212.9z m101.6-105.5q105.5 105.5 105.5 255.8t-105.5 257.8l66.4 62.5q130.9-132.8 130.9-319.3t-130.9-321.3z m99.6-97.7q146.5 146.5 146.5 353.5t-146.5 353.5l62.5 64.4q82-82 127.9-189.4t45.9-227.5-45.9-228.5-127.9-190.4z" horiz-adv-x="1081" />
<glyph glyph-name="headphones" unicode="&#xe0b3;" d="M0 68.7v250q0 207 146.5 353.5t353.5 146.5 353.5-146.5 146.5-353.5v-250q-3.9-41-35.2-53.7t-60.5 4.9-29.3 48.8v250q0 156.2-109.4 265.6t-265.6 109.4-265.6-109.4-109.4-265.6v-250q-3.9-41-35.2-53.7t-60.5 4.9-29.3 48.8z m187.5-156.2v312.5q0 13.7 8.8 22.5t22.5 8.8h62.5q13.7 0 22.5-8.8t8.8-22.5v-312.5q0-13.7-8.8-22.5t-22.5-8.8h-62.5q-13.7 0-22.5 8.8t-8.8 22.5z m500 0v312.5q0 13.7 8.8 22.5t22.5 8.8h62.5q13.7 0 22.5-8.8t8.8-22.5v-312.5q0-13.7-8.8-22.5t-22.5-8.8h-62.5q-13.7 0-22.5 8.8t-8.8 22.5z" horiz-adv-x="1000" />
<glyph glyph-name="clock" unicode="&#xe01f;" d="M0 393.9q0 188.5 133.8 322.2t322.2 133.8 321.3-133.8 132.8-322.2-132.8-321.3-321.3-132.8-322.2 132.8-133.8 321.3z m119.1 0q0-139.6 98.6-238.3t238.3-98.6 238.3 98.6 98.6 238.3-98.6 238.3-238.3 98.6-238.3-98.6-98.6-238.3z m171.9-69.3v117.2h117.2v212.9h117.2v-330.1h-234.4z" horiz-adv-x="911" />
<glyph glyph-name="clock-circled" unicode="&#xe01e;" d="M0 350q0 207 146.5 353.5t353.5 146.5 353.5-146.5 146.5-353.5-146.5-353.5-353.5-146.5-353.5 146.5-146.5 353.5z m267.6 89.8l236.3-236.3 337.9 337.9-89.8 89.8-248-248-146.5 146.5-9.8-9.8-70.3-70.3z" horiz-adv-x="1000" />
<glyph glyph-name="lightbulb" unicode="&#xe0de;" d="M1 309q-2 11.7 6.8 21.5t22.5 11.7l89.8 15.6q13.7 2 25.4-4.9t13.7-19.5-6.8-23.4-24.4-12.7l-87.9-13.7q-13.7-2-25.4 4.9t-13.7 20.5z m2 251q-5.9 12.7 0 24.4t18.6 15.6 26.4-3.9l82-35.2q13.7-5.9 19.5-17.6t0-23.4-18.6-15.6-26.4 0l-82 39.1q-13.7 3.9-19.5 16.6z m160.1 207q2 12.7 13.7 20.5 9.8 5.9 22.5 2t20.5-15.6l48.8-76.2q7.8-11.7 5.9-25.4t-11.7-19.5-22.5-2.9-20.5 14.6l-50.8 76.2q-7.8 13.7-5.9 26.4z m56.6-241.2q17.6 39.1 48.8 66.4t75.2 41 94.7 13.7h3.9q50.8 0 93.7-13.7t75.2-41 49.8-66.4q43-103.5-15.6-226.5-21.5-43-46.9-91.8-13.7-25.4-24.4-73.2t-16.6-61.5q-3.9-11.7-15.6-13.7h-203.1q-11.7 2-17.6 13.7-29.3 111.3-39.1 134.8-25.4 48.8-46.9 91.8-58.6 130.9-15.6 226.5z m99.6-623q0 7.8 4.9 12.7t12.7 4.9h209q5.9 0 10.7-4.9t4.9-12.7v-35.2q0-7.8-4.9-12.7t-10.7-4.9h-209q-17.6 0-17.6 17.6v35.2z m0 68.4v35.2q0 17.6 17.6 17.6h209q5.9 0 10.7-4.9t4.9-12.7v-35.2q0-7.8-4.9-12.7t-10.7-4.9h-209q-7.8 0-12.7 4.9t-4.9 12.7z m93.7 753.9v89.8q0 15.6 7.8 25.4t21.5 9.8q11.7 0 20.5-9.8t8.8-25.4v-89.8q0-13.7-8.8-23.4t-20.5-9.8q-13.7 0-21.5 9.8t-7.8 23.4z m193.3-52.7q-2 13.7 5.9 25.4l48.8 76.2q9.8 11.7 21.5 15.6t23.4-2q9.8-7.8 11.7-20.5t-5.9-26.4l-48.8-76.2q-9.8-11.7-21.5-14.6t-22.5 2.9-12.7 19.5z m117.2-338.8q2 12.7 12.7 19.5t24.4 4.9l89.8-15.6q13.7-2 22.5-11.7t6.8-21.5q-2-13.7-12.7-20.5t-26.4-4.9l-89.8 13.7q-13.7 2-21.5 12.7t-5.9 23.4z m8.8 186.5q-4.9 11.7 1 23.4t17.6 17.6l84 35.2q11.7 7.8 24.4 3.9t18.6-15.6 0-24.4-19.5-16.6l-82-39.1q-13.7-3.9-26.4 0t-17.6 15.6z" horiz-adv-x="881" />
<glyph glyph-name="lightbulb-alt" unicode="&#xe0f9;" d="M0 350q0 207 146.5 353.5t353.5 146.5 353.5-146.5 146.5-353.5-146.5-353.5-353.5-146.5-353.5 146.5-146.5 353.5z m224.6-25.4q2-7.8 8.8-12.7t14.6-4.9l56.6 9.8q9.8 2 14.6 7.8t4.9 13.7q-2 7.8-9.8 13.7-3.9 2-11.7 2h-3.9l-56.6-9.8q-7.8 0-13.7-5.9t-3.9-13.7z m1 170.9q-2.9-6.8 1-14.6t11.7-11.7l50.8-21.5q9.8-3.9 17.6-2t9.8 9.8q3.9 7.8 0 14.6t-11.7 10.7l-50.8 23.4q-3.9 2-9.8 2h-5.9q-9.8-3.9-12.7-10.7z m100.6 114.3q-2-7.8 3.9-15.6l31.2-46.9q3.9-7.8 12.7-10.7t14.6 2.9q5.9 3.9 6.8 11.7t-2.9 15.6l-31.2 48.8q-3.9 7.8-11.7 9.8h-5.9q-5.9 0-9.8-2-5.9-5.9-7.8-13.7z m44.9-291q15.6-33.2 29.3-58.6 9.8-21.5 13.7-37.1 2-7.8 4.9-23.4t6.8-25.4q2-5.9 9.8-7.8h128.9q5.9 2 9.8 7.8 3.9 9.8 6.8 28.3t4.9 20.5q3.9 15.6 13.7 37.1l29.3 58.6q37.1 82 9.8 142.6-11.7 23.4-31.2 40t-47.8 25.4-59.6 8.8h-2q-62.5 0-105.5-33.2-74.2-74.2-21.5-183.6z m52.7-271.5q0-9.8 9.8-9.8h132.8q9.8 0 9.8 9.8v23.4q0 9.8-9.8 9.8h-132.8q-9.8 0-9.8-9.8v-23.4z m0 64.4q0-9.8 9.8-9.8h132.8q9.8 0 9.8 9.8v23.4q0 9.8-9.8 9.8h-132.8q-9.8 0-9.8-9.8v-23.4z m58.6 472.6q0-7.8 4.9-14.6t13.7-6.8 13.7 6.8 4.9 14.6v56.6q0 9.8-4.9 15.6t-12.7 5.9h-2q-7.8 0-11.7-5.9-5.9-5.9-5.9-15.6v-56.6z m122.1-33.2q1-7.8 6.8-11.7 5.9-5.9 14.6-2.9t12.7 10.7l31.2 46.9q9.8 17.6-3.9 29.3-3.9 2-9.8 2h-5.9q-7.8-2-11.7-9.8l-31.2-48.8q-3.9-7.8-2.9-15.6z m71.3-212.9q0-7.8 4.9-13.7t14.6-7.8l56.6-9.8q7.8 0 14.6 4.9t8.8 12.7-3.9 13.7-13.7 5.9l-56.6 9.8h-5.9q-5.9 0-9.8-2-7.8-5.9-9.8-13.7z m7.8 117.2q2-7.8 9.8-9.8t17.6 2l50.8 21.5q7.8 3.9 11.7 11.7t1 14.6-12.7 10.7h-5.9q-5.9 0-9.8-2l-50.8-23.4q-7.8-3.9-11.7-10.7t0-14.6z" horiz-adv-x="1000" />
<glyph glyph-name="block" unicode="&#xe0aa;" d="M0 393.9q0 188.5 133.8 322.2t322.2 133.8 321.3-133.8 132.8-322.2-132.8-321.3-321.3-132.8-322.2 132.8-133.8 321.3z m115.2 27.3q-9.8-126 62.5-225.6l476.5 476.5q-99.6 72.3-225.6 62.5t-214.8-98.6-98.6-214.8z m142.6-305.6q99.6-72.3 224.6-62.5t214.8 99.6 99.6 214.8-62.5 224.6z" horiz-adv-x="911" />
<glyph glyph-name="resize-full" unicode="&#xe049;" d="M0-150v441.4l148.4-148.4 201.2 201.2 144.5-144.5-201.2-201.2 148.4-148.4h-441.4z m505.8 650.3l201.2 201.2-148.4 148.4h441.4v-441.4l-148.4 148.4-201.2-201.2z" horiz-adv-x="1000" />
<glyph glyph-name="resize-full-alt" unicode="&#xe0b8;" d="M0-150v341.8l119.1-119.1 277.3 277.3-275.4 275.4-121.1-121.1v345.7h341.8l-119.1-119.1 277.3-277.3 275.4 275.4-121.1 121.1h345.7v-341.8l-119.1 119.1-277.3-277.3 275.4-275.4 121.1 121.1v-345.7h-341.8l119.1 119.1-277.3 277.3-275.4-275.4 121.1-121.1h-345.7z" horiz-adv-x="1000" />
<glyph glyph-name="resize-small" unicode="&#xe047;" d="M0-3.5l201.2 201.2-148.4 146.5h441.4v-441.4l-146.5 148.4-201.2-201.2z m505.8 359.4v441.4l146.5-148.4 201.2 201.2 146.5-146.5-201.2-201.2 148.4-146.5h-441.4z" horiz-adv-x="1000" />
<glyph glyph-name="resize-vertical" unicode="&#xe046;" d="M0 103.9h169.9v492.2h-169.9l253.9 253.9 253.9-253.9h-169.9v-492.2h169.9l-253.9-253.9z" horiz-adv-x="508" />
<glyph glyph-name="resize-horizontal" unicode="&#xe048;" d="M0 350l253.9 253.9v-169.9h492.2v169.9l253.9-253.9-253.9-253.9v169.9h-492.2v-169.9z" horiz-adv-x="1000" />
<glyph glyph-name="move" unicode="&#xe074;" d="M0 350l171.9 171.9v-119.1h275.4v275.4h-119.1l171.9 171.9 171.9-171.9h-119.1v-275.4h275.4v119.1l171.9-171.9-171.9-171.9v119.1h-275.4v-275.4h119.1l-171.9-171.9-171.9 171.9h119.1v275.4h-275.4v-119.1z" horiz-adv-x="1000" />
<glyph glyph-name="zoom-in" unicode="&#xe001;" d="M0 402.7q0 185.5 130.9 316.4t316.4 130.9 317.4-130.9 131.8-316.4q0-140.6-82-255.8l185.5-185.5-111.3-111.3-185.5 185.5q-115.2-82-255.8-82-185.5 0-316.4 131.8t-130.9 317.4z m126.9 0q0-132.8 93.7-226.5t226.5-93.7 226.5 93.7 93.7 226.5-93.7 225.6-226.5 92.8-226.5-92.8-93.7-225.6z m128.9-64.4v126.9h128.9v128.9h126.9v-128.9h128.9v-126.9h-128.9v-128.9h-126.9v128.9h-128.9z" horiz-adv-x="1000" />
<glyph glyph-name="zoom-out" unicode="&#xe000;" d="M0 402.7q0 185.5 130.9 316.4t316.4 130.9 317.4-130.9 131.8-316.4q0-140.6-82-255.8l185.5-185.5-111.3-111.3-185.5 185.5q-115.2-82-255.8-82-185.5 0-316.4 131.8t-130.9 317.4z m126.9 0q0-132.8 93.7-226.5t226.5-93.7 226.5 93.7 93.7 226.5-93.7 225.6-226.5 92.8-226.5-92.8-93.7-225.6z m128.9-64.4v126.9h384.7v-126.9h-384.7z" horiz-adv-x="1000" />
<glyph glyph-name="down-open" unicode="&#xe0a4;" d="M0 525.7l148.4 148.4 351.5-351.5 351.5 351.5 148.4-148.4-351.5-351.5-148.4-148.4-148.4 148.4z" horiz-adv-x="1000" />
<glyph glyph-name="left-open" unicode="&#xe0cd;" d="M0 350l148.4 148.4 351.5 351.5 148.4-148.4-351.5-351.5 351.5-351.5-148.4-148.4-351.5 351.5z" horiz-adv-x="649" />
<glyph glyph-name="right-open" unicode="&#xe0cc;" d="M0-1.6l351.5 351.5-351.5 351.5 148.4 148.4 351.5-351.5 148.4-148.4-148.4-148.4-351.5-351.5z" horiz-adv-x="649" />
<glyph glyph-name="up-open" unicode="&#xe0cb;" d="M0 174.2l351.5 351.5 148.4 148.4 148.4-148.4 351.5-351.5-148.4-148.4-351.5 351.5-351.5-351.5z" horiz-adv-x="1000" />
<glyph glyph-name="down" unicode="&#xe0d5;" d="M0 435.9h210.9v414h359.4v-414h210.9l-390.6-585.9z" horiz-adv-x="782" />
<glyph glyph-name="left" unicode="&#xe0d4;" d="M0 350l585.9 390.6v-210.9h414v-359.4h-414v-210.9z" horiz-adv-x="1000" />
<glyph glyph-name="right" unicode="&#xe0af;" d="M0 170.3v359.4h414v210.9l585.9-390.6-585.9-390.6v210.9h-414z" horiz-adv-x="1000" />
<glyph glyph-name="up" unicode="&#xe0ae;" d="M0 264l390.6 585.9 390.6-585.9h-210.9v-414h-359.4v414h-210.9z" horiz-adv-x="782" />
<glyph glyph-name="down-circled" unicode="&#xe0c9;" d="M0 350q0 207 146.5 353.5t353.5 146.5 353.5-146.5 146.5-353.5-146.5-353.5-353.5-146.5-353.5 146.5-146.5 353.5z m248 54.7l251.9-376.9 251.9 376.9h-134.8v267.6h-234.4v-267.6h-134.8z" horiz-adv-x="1000" />
<glyph glyph-name="left-circled" unicode="&#xe0c8;" d="M0 350q0 207 146.5 353.5t353.5 146.5 353.5-146.5 146.5-353.5-146.5-353.5-353.5-146.5-353.5 146.5-146.5 353.5z m177.7 0l376.9-251.9v134.8h267.6v234.4h-267.6v134.8z" horiz-adv-x="1000" />
<glyph glyph-name="right-circled" unicode="&#xe0f1;" d="M0 350q0 207 146.5 353.5t353.5 146.5 353.5-146.5 146.5-353.5-146.5-353.5-353.5-146.5-353.5 146.5-146.5 353.5z m177.7-117.2h267.6v-134.8l376.9 251.9-376.9 251.9v-134.8h-267.6v-234.4z" horiz-adv-x="1000" />
<glyph glyph-name="up-circled" unicode="&#xe0f0;" d="M0 350q0 207 146.5 353.5t353.5 146.5 353.5-146.5 146.5-353.5-146.5-353.5-353.5-146.5-353.5 146.5-146.5 353.5z m248-54.7h134.8v-267.6h234.4v267.6h134.8l-251.9 376.9z" horiz-adv-x="1000" />
<glyph glyph-name="down-hand" unicode="&#xe08e;" d="M.3 280.6q-2 59.6 7.8 117.2t24.4 124 14.6 93.7v169.9q2 27.3 20.5 45.9t43.9 18.6h347.6q25.4-2 43.9-20.5t18.6-43.9v-154.3q17.6-23.4 58.6-60.5t56.6-58.6q17.6-21.5 41-35.2 21.5-9.8 77.1-18.6t79.1-30.3q23.4-56.6-3.9-115.2t-82-78.1q-76.2-27.3-169.9 17.6 0-54.7-2-273.4-3.9-56.6-38.1-92.8t-88.9-36.1q-52.7 0-87.9 38.1t-37.1 90.8v107.4q-31.2 5.9-56.6 21.5-68.4-9.8-119.1 33.2-72.3 3.9-109.4 42t-39.1 97.7z m58.6 30.3q-2-54.7 26.4-83t90.8-18.6q13.7-27.3 46.9-36.1t58.6 6.8q58.6-58.6 107.4-9.8v-191.4q2-27.3 19.5-44.9t41-19.5q29.3 2 45.9 19.5t18.6 44.9v365.2q23.4-3.9 66.4-20.5t73.2-27.3 66.4-3.9 57.6 42q13.7 25.4 9.8 46.9-2 3.9-4.9 4.9t-6.8 1q-44.9 7.8-68.4 12.7t-55.7 20.5-53.7 41q-13.7 17.6-68.4 67.4t-70.3 86.9v3.9h-347.6q0-23.4-14.6-84t-25.4-115.2-12.7-109.4z" horiz-adv-x="846" />
<glyph glyph-name="left-hand" unicode="&#xe08d;" d="M0 377.3q0 54.7 36.1 88.9t92.8 38.1q218.7 2 273.4 2-44.9 93.7-17.6 169.9 19.5 54.7 78.1 82t115.2 3.9q21.5-23.4 30.3-79.1t18.6-77.1q13.7-23.4 35.2-41 21.5-15.6 58.6-56.6t60.5-58.6h154.3q25.4 0 43.9-18.6t20.5-43.9v-347.6q0-25.4-18.6-43.9t-45.9-20.5h-169.9q-27.3 0-93.7-14.6t-124-24.4-117.2-7.8-97.7 39.1-42 109.4q-43 50.8-33.2 119.1-15.6 25.4-21.5 56.6h-107.4q-52.7 2-90.8 37.1t-38.1 87.9z m64.4 0q2-23.4 19.5-41t44.9-19.5h191.4q-48.8-48.8 9.8-107.4-15.6-25.4-6.8-58.6t36.1-46.9q-9.8-62.5 18.6-90.8t83-26.4 109.4 12.7 115.2 25.4 84 14.6v347.6h-3.9q-37.1 15.6-86.9 70.3t-67.4 68.4q-25.4 21.5-41 53.7t-20.5 55.7-12.7 68.4q0 3.9-1 6.8t-4.9 4.9q-21.5 3.9-46.9-9.8-35.2-21.5-42-57.6t3.9-66.4 27.3-73.2 20.5-66.4h-365.2q-27.3-2-44.9-18.6t-19.5-45.9z" horiz-adv-x="1000" />
<glyph glyph-name="right-hand" unicode="&#xe08c;" d="M0 39.4v347.6q2 25.4 20.5 43.9t43.9 18.6h154.3q23.4 17.6 60.5 58.6t58.6 56.6q21.5 17.6 35.2 41 9.8 21.5 18.6 77.1t30.3 79.1q56.6 23.4 115.2-3.9t78.1-82q27.3-76.2-17.6-169.9 54.7 0 273.4-2 56.6-3.9 92.8-38.1t36.1-88.9q0-52.7-38.1-87.9t-90.8-37.1h-107.4q-5.9-31.2-21.5-56.6 9.8-68.4-33.2-119.1-3.9-72.3-42-109.4t-97.7-39.1-117.2 7.8-124 24.4-93.7 14.6h-169.9q-27.3 2-45.9 20.5t-18.6 43.9z m230.5 0q23.4 0 84-14.6t115.2-25.4 109.4-12.7 83 26.4 18.6 90.8q27.3 13.7 36.1 46.9t-6.8 58.6q58.6 58.6 9.8 107.4h191.4q27.3 2 44.9 19.5t19.5 41q-2 29.3-19.5 45.9t-44.9 18.6h-365.2q3.9 23.4 20.5 66.4t27.3 73.2 3.9 66.4-42 57.6q-25.4 13.7-46.9 9.8-3.9-2-4.9-4.9t-1-6.8q-7.8-44.9-12.7-68.4t-20.5-55.7-41-53.7q-17.6-13.7-67.4-68.4t-86.9-70.3h-3.9v-347.6z" horiz-adv-x="1000" />
<glyph glyph-name="up-hand" unicode="&#xe0b5;" d="M0 419.3q2 59.6 39.1 97.7t109.4 42q50.8 43 119.1 33.2 25.4 15.6 56.6 21.5v107.4q2 52.7 37.1 90.8t87.9 38.1q54.7 0 88.9-36.1t38.1-92.8q2-218.7 2-273.4 93.7 44.9 169.9 17.6 54.7-19.5 82-78.1t3.9-115.2q-23.4-21.5-79.1-30.3t-77.1-18.6q-23.4-13.7-41-35.2-15.6-21.5-56.6-58.6t-58.6-60.5v-154.3q0-25.4-18.6-43.9t-43.9-20.5h-347.6q-25.4 0-43.9 18.6t-20.5 45.9v169.9q0 27.3-14.6 93.7t-24.4 124-7.8 117.2z m58.6-30.3q2-54.7 12.7-109.4t25.4-115.2 14.6-84h347.6v3.9q15.6 37.1 70.3 86.9t68.4 67.4q21.5 25.4 53.7 41t55.7 20.5 68.4 12.7q3.9 0 6.8 1t4.9 4.9q3.9 21.5-9.8 46.9-21.5 35.2-57.6 42t-66.4-3.9-73.2-27.3-66.4-20.5v365.2q-2 27.3-18.6 44.9t-45.9 19.5q-23.4-2-41-19.5t-19.5-44.9v-191.4q-48.8 48.8-107.4-9.8-25.4 15.6-58.6 6.8t-46.9-36.1q-62.5 9.8-90.8-18.6t-26.4-83z" horiz-adv-x="836" />
<glyph glyph-name="cw" unicode="&#xe04b;" d="M0 350q0 207 146.5 353.5t353.5 146.5q209 0 355.4-148.4l144.5 103.5v-464.8l-445.3 148.4 130.9 93.7q-82 64.4-185.5 64.4-123 0-209.9-86.9t-86.9-209.9 86.9-209.9 209.9-86.9q82 0 150.4 40t107.4 108.4l175.8-101.6q-66.4-113.3-181.6-181.6t-251.9-68.4q-207 0-353.5 146.5t-146.5 353.5z" horiz-adv-x="1000" />
<glyph glyph-name="cw-circled" unicode="&#xe04a;" d="M0 350q0 207 146.5 353.5t353.5 146.5 353.5-146.5 146.5-353.5-146.5-353.5-353.5-146.5-353.5 146.5-146.5 353.5z m210.9 0q0-119.1 85-204.1t204.1-85q80.1 0 146.5 39.1t103.5 105.5l-101.6 58.6q-21.5-39.1-61.5-62.5t-86.9-23.4q-70.3 0-121.1 50.8t-50.8 121.1 50.8 121.1 121.1 50.8q60.5 0 107.4-37.1l-76.2-54.7 257.8-85.9v269.5l-84-60.5q-84 85.9-205.1 85.9-119.1 0-204.1-85t-85-204.1z" horiz-adv-x="1000" />
<glyph glyph-name="arrows-cw" unicode="&#xe04f;" d="M0-150v402.3h402.3l-160.1-160.1q107.4-107.4 257.8-107.4 125 0 221.7 75.2t129.9 192.4h138.7q-35.2-173.8-172.8-288.1t-317.4-114.3q-207 0-353.5 146.5z m9.8 597.6q35.2 173.8 172.8 288.1t317.4 114.3q207 0 353.5-146.5l146.5 146.5v-402.3h-402.3l160.1 160.1q-107.4 107.4-257.8 107.4-125 0-221.7-75.2t-129.9-192.4h-138.7z" horiz-adv-x="1000" />
<glyph glyph-name="shuffle" unicode="&#xe052;" d="M0 43.3v123h144.5q27.3 0 33.2 2.9t23.4 22.5q9.8 11.7 138.7 195.3 111.3 160.1 160.1 209 62.5 64.4 136.7 64.4h142.6v154.3l220.7-220.7-220.7-218.7v162.1h-142.6q-15.6 0-22.5-3.9t-28.3-25.4q-39.1-39.1-144.5-191.4-23.4-31.2-58.6-84t-53.7-78.1-36.1-44.9q-58.6-66.4-148.4-66.4h-144.5z m0 494.1v123h144.5q89.8 0 148.4-68.4 23.4-25.4 60.5-78.1-2-3.9-6.8-10.7t-6.8-10.7q-21.5-29.3-50.8-70.3-2-3.9-5.9-8.8t-5.9-6.8q-58.6 84-76.2 103.5-17.6 21.5-23.4 24.4t-33.2 2.9h-144.5z m429.7-345.7q43 64.4 60.5 89.8 3.9 3.9 7.8 9.8t5.9 7.8q56.6-76.2 82-103.5 21.5-21.5 28.3-25.4t22.5-3.9h142.6v158.2l220.7-218.7-220.7-220.7v158.2h-142.6q-74.2 0-136.7 64.4-29.3 29.3-70.3 84z" horiz-adv-x="1000" />
<glyph glyph-name="play" unicode="&#xe05d;" d="M0-25v750l625-375z" horiz-adv-x="625" />
<glyph glyph-name="play-circled" unicode="&#xe05c;" d="M0 350q0 207 146.5 353.5t353.5 146.5 353.5-146.5 146.5-353.5-146.5-353.5-353.5-146.5-353.5 146.5-146.5 353.5z m375-250l375 250-375 250v-500z" horiz-adv-x="1000" />
<glyph glyph-name="play-circled2" unicode="&#xe05b;" d="M0 350q0 207 146.5 353.5t353.5 146.5 353.5-146.5 146.5-353.5-146.5-353.5-353.5-146.5-353.5 146.5-146.5 353.5z m115.2 0q0-158.2 113.3-271.5t271.5-113.3 271.5 113.3 113.3 271.5-113.3 271.5-271.5 113.3-271.5-113.3-113.3-271.5z m259.7-250v500l375-250z" horiz-adv-x="1000" />
<glyph glyph-name="stop" unicode="&#xe02c;" d="M0-25v750h750v-750h-750z" horiz-adv-x="750" />
<glyph glyph-name="stop-circled" unicode="&#xe02b;" d="M0 350q0 207 146.5 353.5t353.5 146.5 353.5-146.5 146.5-353.5-146.5-353.5-353.5-146.5-353.5 146.5-146.5 353.5z m250-250h500v500h-500v-500z" horiz-adv-x="1000" />
<glyph glyph-name="pause" unicode="&#xe06a;" d="M0-25v750h312.5v-750h-312.5z m437.5 0v750h312.5v-750h-312.5z" horiz-adv-x="750" />
<glyph glyph-name="pause-circled" unicode="&#xe069;" d="M0 350q0 207 146.5 353.5t353.5 146.5 353.5-146.5 146.5-353.5-146.5-353.5-353.5-146.5-353.5 146.5-146.5 353.5z m275.4-259.7h152.3v519.5h-152.3v-519.5z m296.9 0h152.3v519.5h-152.3v-519.5z" horiz-adv-x="1000" />
<glyph glyph-name="record" unicode="&#xe051;" d="M0 350q0 207 146.5 353.5t353.5 146.5 353.5-146.5 146.5-353.5-146.5-353.5-353.5-146.5-353.5 146.5-146.5 353.5z m250 0q0-103.5 73.2-176.7t176.7-73.2 176.7 73.2 73.2 176.7-73.2 176.7-176.7 73.2-176.7-73.2-73.2-176.7z" horiz-adv-x="1000" />
<glyph glyph-name="eject" unicode="&#xe0ec;" d="M0-103.1v257.8h999.9v-257.8h-999.9z m0 353.5l500 539 500-539h-999.9z" horiz-adv-x="1000" />
<glyph glyph-name="backward" unicode="&#xe0ab;" d="M0 350l343.7 343.7v-312.5l312.5 312.5v-687.5l-312.5 312.5v-312.5z" horiz-adv-x="657" />
<glyph glyph-name="backward-circled" unicode="&#xe044;" d="M0 350q0 207 146.5 353.5t353.5 146.5 353.5-146.5 146.5-353.5-146.5-353.5-353.5-146.5-353.5 146.5-146.5 353.5z m187.5 0l250-187.5v375z m312.5 0l250-187.5v375z" horiz-adv-x="1000" />
<glyph glyph-name="fast-backward" unicode="&#xe09a;" d="M0-25v750h125v-343.7l312.5 312.5v-312.5l312.5 312.5v-687.5l-312.5 312.5v-312.5l-312.5 312.5v-343.7h-125z" horiz-adv-x="750" />
<glyph glyph-name="fast-forward" unicode="&#xe099;" d="M0 6.2v687.5l312.5-312.5v312.5l312.5-312.5v343.7h125v-750h-125v343.7l-312.5-312.5v312.5z" horiz-adv-x="750" />
<glyph glyph-name="forward" unicode="&#xe093;" d="M0 6.2v687.5l312.5-312.5v312.5l343.7-343.7-343.7-343.7v312.5z" horiz-adv-x="657" />
<glyph glyph-name="forward-circled" unicode="&#xe092;" d="M0 350q0 207 146.5 353.5t353.5 146.5 353.5-146.5 146.5-353.5-146.5-353.5-353.5-146.5-353.5 146.5-146.5 353.5z m250-187.5l250 187.5-250 187.5v-375z m312.5 0l250 187.5-250 187.5v-375z" horiz-adv-x="1000" />
<glyph glyph-name="step-backward" unicode="&#xe02e;" d="M0-25v750h125v-343.7l312.5 312.5v-687.5l-312.5 312.5v-343.7h-125z" horiz-adv-x="438" />
<glyph glyph-name="step-forward" unicode="&#xe02d;" d="M0 6.2v687.5l312.5-312.5v343.7h125v-750h-125v343.7z" horiz-adv-x="438" />
<glyph glyph-name="target" unicode="&#xe03f;" d="M0 273.8v152.3h130.9q21.5 109.4 102.5 190.4t190.4 102.5v130.9h152.3v-130.9q109.4-21.5 190.4-102.5t102.5-190.4h130.9v-152.3h-130.9q-21.5-109.4-102.5-190.4t-190.4-102.5v-130.9h-152.3v130.9q-109.4 21.5-190.4 102.5t-102.5 190.4h-130.9z m230.5 0q19.5-70.3 71.3-122.1t122.1-71.3v146.5h152.3v-146.5q70.3 19.5 122.1 71.3t71.3 122.1h-146.5v152.3h146.5q-19.5 70.3-71.3 122.1t-122.1 71.3v-146.5h-152.3v146.5q-70.3-19.5-122.1-71.3t-71.3-122.1h146.5v-152.3h-146.5z" horiz-adv-x="1000" />
<glyph glyph-name="signal" unicode="&#xe038;" d="M0-150v250h199.2v-250h-199.2z m267.6 0v500h199.2v-500h-199.2z m265.6 0v750h199.2v-750h-199.2z m267.6 0v999.9h199.2v-999.9h-199.2z" horiz-adv-x="1000" />
<glyph glyph-name="desktop" unicode="&#xe041;" d="M0 103.9v660.1h999.9v-660.1h-363.3v-95.7h87.9v-72.3h-449.2v72.3h87.9v95.7h-363.3z m123 125h753.9v410.1h-753.9v-410.1z" horiz-adv-x="1000" />
<glyph glyph-name="desktop-circled" unicode="&#xe040;" d="M0 350q0 207 146.5 353.5t353.5 146.5 353.5-146.5 146.5-353.5-146.5-353.5-353.5-146.5-353.5 146.5-146.5 353.5z m209-144.5h210.9v-54.7h-50.8v-43h261.7v43h-50.8v54.7h210.9v386.7h-582v-386.7z m70.3 74.2v238.3h441.4v-238.3h-441.4z" horiz-adv-x="1000" />
<glyph glyph-name="laptop" unicode="&#xe084;" d="M0 47.3v87.9h999.9v-87.9l-50.8-52.7h-898.4z m99.6 134.8v523.4h800.7v-523.4h-800.7z m99.6 95.7h601.5v334h-601.5v-334z m209-251.9h183.6v80.1h-183.6v-80.1z" horiz-adv-x="1000" />
<glyph glyph-name="laptop-circled" unicode="&#xe083;" d="M0 350q0 207 146.5 353.5t353.5 146.5 353.5-146.5 146.5-353.5-146.5-353.5-353.5-146.5-353.5 146.5-146.5 353.5z m177.7-195.3l31.2-35.2h582l31.2 35.2v56.6h-644.5v-56.6z m64.4 87.9h515.6v337.9h-515.6v-337.9z m64.4 60.5v214.8h386.7v-214.8h-386.7z m132.8-162.1v50.8h121.1v-50.8h-121.1z" horiz-adv-x="1000" />
<glyph glyph-name="network" unicode="&#xe072;" d="M0 383.2v3.9q232.4 19.5 367.2 115.2 43-19.5 85.9 2 91.8-91.8 191.4-123 11.7-29.3 37.1-46.9-31.2-76.2-85.9-134.8-41 29.3-86.9 13.7t-63.5-58.6q-130.9 0-250 54.7t-193.3 152.3q-2 5.9-2 21.5z m5.9 70.3q19.5 126.9 99.6 225.6t197.3 141.6q7.8-84 37.1-154.3-50.8-52.7-21.5-117.2-130.9-80.1-312.5-95.7z m13.7-207q87.9-76.2 199.2-118.2t224.6-42q-138.7-70.3-271.5-62.5-109.4 89.8-152.3 222.6z m251.9-285.1q113.3 15.6 212.9 72.3 46.9-25.4 93.7-3.9t58.6 70.3q156.2 33.2 263.7 121.1-37.1-91.8-106.4-161.1t-154.3-104.5-181.6-35.2-186.5 41z m97.7 878.9q87.9 19.5 179.7 2-29.3-84-91.8-162.1-41 17.6-54.7 11.7-33.2 80.1-33.2 148.4z m128.9-287.1q15.6 39.1 2 76.2 84 103.5 113.3 195.3 60.5-19.5 107.4-52.7 17.6-132.8 3.9-255.8-60.5-9.8-82-64.4-68.4 25.4-144.5 101.6z m164.1-378.9q52.7 62.5 84 144.5 46.9 5.9 72.3 41 76.2 5.9 111.3 11.7 0-5.9-1-14.6t-1-12.7q-95.7-125-265.6-169.9z m128.9 326.2q11.7 111.3 3.9 210.9 111.3-115.2 130.9-271.5-39.1-9.8-89.8-11.7-5.9 46.9-44.9 72.3z" horiz-adv-x="930" />
<glyph glyph-name="inbox" unicode="&#xe0f8;" d="M0-150v482.4h328.1q0-72.3 50.8-122.1t121.1-49.8 121.1 49.8 50.8 122.1h328.1v-482.4h-999.9z m279.3 767.5h119.1v232.4h203.1v-232.4h119.1l-220.7-332z" horiz-adv-x="1000" />
<glyph glyph-name="inbox-circled" unicode="&#xe0f7;" d="M0 350q0 207 146.5 353.5t353.5 146.5 353.5-146.5 146.5-353.5-146.5-353.5-353.5-146.5-353.5 146.5-146.5 353.5z m199.2-281.2h601.5v289h-197.3q0-41-30.3-71.3t-73.2-30.3-73.2 30.3-30.3 71.3h-197.3v-289z m168 460.9l132.8-199.2 132.8 199.2h-72.3v140.6h-121.1v-140.6h-72.3z" horiz-adv-x="1000" />
<glyph glyph-name="inbox-alt" unicode="&#xe0f6;" d="M0 6.2v312.5l273.4 375h453.1l273.4-375v-312.5h-999.9z m78.1 312.5h171.9l125-125h250l125 125h171.9l-232.4 312.5h-378.9z" horiz-adv-x="1000" />
<glyph glyph-name="globe" unicode="&#xe0e2;" d="M0 350q0 207 146.5 353.5t353.5 146.5 353.5-146.5 146.5-353.5-146.5-353.5-353.5-146.5-353.5 146.5-146.5 353.5z m118.2-39.1q4.9-54.7 26.4-107.4 29.3-72.3 84-126.9t125-84q2 17.6 5.9 67.4t7.8 77.1q-3.9 15.6-22.5 50.8t-20.5 56.6q0 19.5 1 29.3t1 15.6q-3.9 2-9.8 7.8l-7.8 7.8q-7.8 7.8-11.7 9.8-11.7 3.9-34.2 11.7t-33.2 11.7-28.3 11.7-30.3 17.6-26.4 22.5-23.4 28.3q-7.8-52.7-2.9-107.4z m141.6 339.8q17.6 2 35.2 0 17.6-7.8 38.1-31.2t34.2-31.2q3.9-3.9 11.7-3.9 3.9-9.8 23.4-12.7t23.4-6.8q23.4-13.7 37.1-33.2-23.4-33.2-37.1-39.1 0-2 2-2 3.9-7.8-3.9-11.7-5.9-2-23.4-5.9t-23.4-10.7-9.8-24.4q0-3.9-3.9-7.8 3.9-27.3 2-48.8t-13.7-23.4q-5.9 0-11.7 2-7.8 2-18.6 7.8t-24.4 17.6q0-5.9 3.9-14.6t3.9-12.7h5.9q7.8 2 11.7-2.9t0-8.8l-2-5.9-2-2 7.8-3.9q9.8-7.8 18.6-7.8t22.5 2q19.5 2 31.2 2t26.4-8.8 22.5-14.6 21.5-17.6 23.4-17.6q3.9-2 21.5-12.7t26.4-19.5 8.8-20.5q-2-70.3-25.4-95.7-7.8-7.8-22.5-18.6t-23.4-20.5-14.6-23.4q-5.9-11.7-5.9-27.3-5.9-11.7-15.6-33.2t-15.6-29.3q99.6-19.5 194.3 11.7t161.1 105.5q50.8 54.7 76.2 121.1t27.3 136.7l-37.1-21.5q-23.4 2-23.4-7.8l15.6-5.9q3.9-2 3.9-3.9 3.9-9.8-3.9-21.5-5.9-11.7-29.3-35.2-2-25.4-3.9-33.2-3.9-9.8-9.8-21.5v-13.7q-2-7.8-8.8-22.5t-8.8-24.4q-3.9-27.3-23.4-50.8-29.3-27.3-48.8-23.4-7.8 2-13.7 9.8-3.9 13.7-13.7 37.1t-11.7 29.3q-3.9 9.8-3.9 19.5t2 23.4 2 19.5q0 9.8-6.8 24.4t-6.8 20.5q-2 5.9 3.9 19.5l-8.8 2.9q-8.8 2.9-32.2 2.9h-11.7q-44.9 0-56.6 54.7-5.9 33.2 13.7 64.4 2 3.9 2 8.8v6.8q9.8 2 17.6 19.5 7.8 0 36.1 3.9t42 4.9 35.2-4.9q7.8-5.9 15.6-9.8 13.7-9.8 23.4-13.7l31.2 21.5q-9.8 15.6-19.5 25.4-27.3 31.2-56.6 0l-68.4 5.9q-15.6-9.8-39.1-11.7-2 11.7-5.9 19.5-5.9 11.7-6.8 18.6t2.9 10.7l7.8 7.8q7.8 5.9 10.7 16.6t4.9 24.4 3.9 19.5q5.9 13.7 17.6 31.2 5.9 13.7 22.5 21.5t35.2 13.7 39.1 7.8 38.1 3.9q-37.1 31.2-76.2 52.7-11.7 0-32.2 4.9t-28.3 4.9q-21.5 2-48.8-13.7-21.5-15.6-50.8-15.6-37.1 0-74.2 12.7t-64.4 28.3q-64.4-21.5-117.2-64.4z" horiz-adv-x="1000" />
<glyph glyph-name="globe-alt" unicode="&#xe0fd;" d="M0 350q0 207 146.5 353.5t353.5 146.5 353.5-146.5 146.5-353.5-146.5-353.5-353.5-146.5-353.5 146.5-146.5 353.5z m125 56.6q21.5-27.3 46.9-43t65.4-29.3 57.6-21.5q3.9-5.9 14.6-14.6t14.6-10.7q0-5.9-2-15.6-2-21.5 1-39.1t7.8-27.3 15.6-28.3 16.6-28.3q2-5.9 0-13.7-2-15.6-8.8-64.4t-6.8-76.2q39.1-23.4 76.2-25.4 3.9 7.8 7.8 17.6 3.9 7.8 8.8 20.5t12.7 28.3q0 13.7 4.9 25.4t10.7 17.6q5.9 7.8 13.7 13.7 19.5 15.6 35.2 31.2t17.6 25.4q7.8 31.2 9.8 68.4 0 11.7-8.8 19.5t-20.5 15.6q-17.6 7.8-45.9 34.2t-42 32.2q-17.6 7.8-34.2 8.8t-30.3-1q-13.7-3.9-33.2-2-3.9 5.9-7.8 7.8-7.8 3.9-2 9.8 3.9 7.8-2.9 10.7t-14.6 1q-7.8 23.4-7.8 37.1 13.7-11.7 23.4-17.6t17.6-7.8 13.7-2q9.8 3.9 11.7 19.5t-2 43q3.9 3.9 3.9 7.8 3.9 17.6 10.7 22.5t6.8 6.8q3.9 0 3.9 2 3.9 2 15.6 3.9 5.9 2 9.8 2.9t9.8 2.9q7.8 3.9 3.9 11.7h-2q17.6 9.8 35.2 41-11.7 19.5-35.2 31.2-7.8 9.8-19.5 5.9-5.9 0-14.6 5.9t-12.7 7.8-11.7 3.9q-13.7 7.8-26.4 20.5t-20.5 26.4q-3.9 9.8-17.6 13.7-9.8 2-19.5 2h-11.7q-54.7-43-92.8-103.5t-49.8-134.8z m255.8 296.9q25.4-13.7 60.5-25.4t68.4-11.7q23.4 0 50.8 15.6 27.3 19.5 76.2 9.8 7.8-2 13.7-2-35.2 15.6-74.2 23.4t-80.1 7.8q-60.5 0-115.2-17.6z m164.1-382.8q3.9-25.4 19.5-39.1 11.7-11.7 25.4-13.7t25.4 0 27.3-2q7.8-3.9 9.8-3.9-5.9-13.7-3.9-21.5 0-3.9 5.9-18.6t5.9-24.4q-3.9-48.8 0-60.5 5.9-11.7 13.7-33.2t13.7-33.2q3.9-7.8 13.7-9.8 19.5-3.9 46.9 23.4 19.5 23.4 23.4 50.8 2 9.8 7.8 21.5t9.8 25.4q2 5.9 0 13.7 13.7 21.5 13.7 39.1v13.7q2 3.9 9.8 10.7t11.7 10.7q5.9 23.4 2 31.2 0 2-3.9 3.9l-17.6 5.9q11.7 25.4 35.2 19.5l31.2 9.8v5.9q0 89.8-36.1 163.1t-98.6 126q-101.6-11.7-126.9-44.9-11.7-19.5-15.6-33.2-2-7.8-4.9-20.5t-3.9-16.6-4.9-11.7-11.7-17.6q-3.9-3.9-3.9-10.7t5.9-18.6q5.9-9.8 5.9-17.6 29.3 0 37.1 9.8l70.3-5.9q25.4 31.2 56.6 0 7.8-7.8 17.6-25.4l-29.3-19.5q-19.5 9.8-33.2 15.6t-28.3 7.8-22.5 1-30.3-3.9-36.1-2.9l-3.9-7.8-5.9-6.8-7.8-2.9q-2-3.9-2-9.8v-7.8q-21.5-27.3-13.7-64.4z" horiz-adv-x="1000" />
<glyph glyph-name="cloud" unicode="&#xe0ef;" d="M.3 302.1q3.9 69.3 33.2 125t86.9 85 124 13.7q52.7 85.9 127.9 114.3t144.5 5.9 126-81 78.1-136.7q48.8 5.9 88.9-21.5t56.6-68.4 8.8-89.8-46.9-82h-791q-41 66.4-37.1 135.7z" horiz-adv-x="876" />
<glyph glyph-name="cloud-circled" unicode="&#xe0ee;" d="M0 350q0 207 146.5 353.5t353.5 146.5 353.5-146.5 146.5-353.5-146.5-353.5-353.5-146.5-353.5 146.5-146.5 353.5z m159.2-34.2q-2.9-53.7 28.3-104.5h615.2q29.3 25.4 36.1 62.5t-6.8 69.3-44.9 53.7-68.4 17.6q-21.5 76.2-83 126.9t-131.8 48.8q-93.7-2-156.2-101.6-50.8 13.7-95.7-8.8t-67.4-66.4-25.4-97.7z" horiz-adv-x="1000" />
<glyph glyph-name="flight" unicode="&#xe05e;" d="M0 180.1l80.1 169.9-80.1 169.9h99.6l113.3-99.6h179.7l-125 400.4h99.6l224.6-400.4h257.8l37.1-2q39.1-2 76.2-19.5t37.1-48.8q0-19.5-16.6-34.2t-36.1-21.5-44.9-9.8-36.1-3.9-16.6-1h-257.8l-224.6-400.4h-99.6l125 400.4h-179.7l-113.3-99.6h-99.6z" horiz-adv-x="1000" />
<glyph glyph-name="leaf" unicode="&#xe082;" d="M2.1 121.5q8.8 27.3 31.2 47.8t43.9 41 19.5 32.2q-13.7 29.3-13.7 39.1-19.5 126.9 60.5 231.4t195.3 153.3q43 17.6 101.6 19.5t104.5-3.9 93.7 3.9 79.1 43q44.9 48.8 82 48.8 23.4 0 33.2-19.5 54.7-119.1 30.3-240.2t-96.7-220.7-168-150.4q-181.6-89.8-351.5-31.2-13.7 3.9-43 22.5t-46.9 18.6q-9.8-5.9-19.5-18.6t-21.5-32.2-15.6-25.4q-13.7-23.4-37.1-27.3t-43 15.6q-27.3 25.4-18.6 52.7z m181.6 174.8q1-14.6 12.7-24.4t26.4-7.8 24.4 11.7q144.5 173.8 376.9 168 15.6-2 26.4 8.8t10.7 24.4q0 15.6-9.8 26.4t-25.4 12.7q-126.9 5.9-239.2-44.9t-194.3-146.5q-9.8-13.7-8.8-28.3z" horiz-adv-x="871" />
<glyph glyph-name="font" unicode="&#xe095;" d="M0-73.8h85.9l353.5 917.9h111.3l351.5-917.9h97.7v-70.3h-359.4v70.3h109.4l-82 216.8h-416l-82-216.8h107.4v-70.3h-277.3v70.3z m279.3 287.1h363.3l-181.6 470.7z" horiz-adv-x="1000" />
<glyph glyph-name="fontsize" unicode="&#xe094;" d="M.7 19.9l209 685.5q3.9 11.7 15.6 11.7h138.7q11.7 0 15.6-11.7l207-681.6q2-5.9 2-7.8 0-15.6-15.6-15.6h-125q-11.7 0-15.6 11.7l-35.2 123h-205.1l-35.2-123q-3.9-11.7-15.6-11.7h-125q-19.5 0-15.6 19.5z m222.6 248h142.6l-72.3 251.9z m369.1-111.3q3.9 84 52.7 128.9 46.9 41 111.3 41 66.4 0 109.4-35.2v31.2q0 74.2-76.2 74.2-58.6 0-107.4-50.8-17.6-13.7-25.4 3.9l-41 68.4q-3.9 11.7 3.9 19.5 37.1 37.1 84 54.7 56.6 23.4 129.9 17.6t114.3-44.9q50.8-44.9 50.8-128.9v-324.2q0-15.6-15.6-15.6h-99.6q-15.6 0-17.6 15.6v9.8q-46.9-37.1-109.4-37.1-66.4 2-111.3 44.9-50.8 48.8-52.7 126.9z m132.8-2q0-29.3 17.6-50.8 29.3-23.4 67.4-16.6t55.7 34.2v68.4q-13.7 25.4-37.1 31.2-56.6 19.5-85.9-13.7-17.6-23.4-17.6-52.7z" horiz-adv-x="1069" />
<glyph glyph-name="bold" unicode="&#xe0ce;" d="M0-60.2h125v820.3h-125v80.1h582q179.7 0 269.5-60.5t89.8-181.6q0-87.9-62.5-138.7t-183.6-64.4q146.5-13.7 225.6-79.1t79.1-172.8q0-144.5-111.3-214.8-109.4-68.4-343.7-68.4h-544.9v80.1z m378.9 0h93.7q125 0 185.5 49.8t60.5 153.3q0 105.5-61.5 157.2t-184.6 51.8h-93.7v-412.1z m0 492.2h85.9q113.3 0 168 39.1 54.7 43 54.7 126.9 0 85.9-54.7 125-52.7 37.1-168 37.1h-85.9v-328.1z" horiz-adv-x="1000" />
<glyph glyph-name="italic" unicode="&#xe086;" d="M0-150l13.7 70.3h126.9l171.9 857.4h-126.9l13.7 72.3h390.6l-13.7-72.3h-126.9l-171.9-857.4h126.9l-13.7-70.3h-390.6z" horiz-adv-x="590" />
<glyph glyph-name="text-height" unicode="&#xe026;" d="M0 498.4l5.9 177.7h570.3l3.9-177.7h-60.5q0 91.8-19.5 107.4t-136.7 15.6v-490.2q0-44.9 10.7-51.8t73.2-6.8v-48.8h-314.4v48.8q62.5-2 73.2 5.9t10.7 52.7v490.2q-117.2 0-135.7-15.6t-18.6-107.4h-62.5z m652.3-474.6h117.2v652.3h-117.2l173.8 173.8 173.8-173.8h-115.2v-652.3h115.2l-173.8-173.8z" horiz-adv-x="1000" />
<glyph glyph-name="text-width" unicode="&#xe025;" d="M0 23.8l173.8 173.8v-117.2h652.3v117.2l173.8-173.8-173.8-173.8v115.2h-652.3v-115.2z m210.9 648.4l3.9 177.7h570.3l3.9-177.7h-60.5q0 91.8-19.5 106.4t-136.7 14.6v-488.3q0-44.9 10.7-52.7t75.2-7.8v-48.8h-316.4v48.8q64.4 0 75.2 6.8t10.7 53.7v488.3q-117.2 0-136.7-14.6t-19.5-106.4h-60.5z" horiz-adv-x="1000" />
<glyph glyph-name="align-left" unicode="&#xe0d7;" d="M0-89.5v156.2h999.9v-156.2h-999.9z m0 240.2v156.2h609.3v-156.2h-609.3z m0 242.2v156.2h789v-156.2h-789z m0 240.2v156.2h515.6v-156.2h-515.6z" horiz-adv-x="1000" />
<glyph glyph-name="align-center" unicode="&#xe0d9;" d="M0-89.5v156.2h999.9v-156.2h-999.9z m105.5 482.4v156.2h789v-156.2h-789z m89.8-242.2v156.2h609.3v-156.2h-609.3z m46.9 482.4v156.2h515.6v-156.2h-515.6z" horiz-adv-x="1000" />
<glyph glyph-name="align-right" unicode="&#xe0d6;" d="M0-89.5v156.2h999.9v-156.2h-999.9z m210.9 482.4v156.2h789v-156.2h-789z m179.7-242.2v156.2h609.3v-156.2h-609.3z m93.7 482.4v156.2h515.6v-156.2h-515.6z" horiz-adv-x="1000" />
<glyph glyph-name="align-justify" unicode="&#xe0d8;" d="M0-89.5v156.2h999.9v-156.2h-999.9z m0 240.2v156.2h999.9v-156.2h-999.9z m0 242.2v156.2h999.9v-156.2h-999.9z m0 240.2v156.2h999.9v-156.2h-999.9z" horiz-adv-x="1000" />
<glyph glyph-name="list" unicode="&#xe080;" d="M0 123.4v179.7h179.7v-179.7h-179.7z m0 273.4v179.7h179.7v-179.7h-179.7z m0 273.4v179.7h179.7v-179.7h-179.7z m265.6-546.8v179.7h734.3v-179.7h-734.3z m0 273.4v179.7h734.3v-179.7h-734.3z m0 273.4v179.7h734.3v-179.7h-734.3z" horiz-adv-x="1000" />
<glyph glyph-name="indent-left" unicode="&#xe08b;" d="M0-66v146.5h999.9v-146.5h-999.9z m0 228.5v375l281.2-187.5z m0 457v146.5h999.9v-146.5h-999.9z m421.8-457v146.5h578.1v-146.5h-578.1z m0 228.5v146.5h578.1v-146.5h-578.1z" horiz-adv-x="1000" />
<glyph glyph-name="indent-right" unicode="&#xe08a;" d="M0-66v146.5h999.9v-146.5h-999.9z m0 228.5v146.5h578.1v-146.5h-578.1z m0 228.5v146.5h578.1v-146.5h-578.1z m0 228.5v146.5h999.9v-146.5h-999.9z m718.7-269.5l281.2 187.5v-375z" horiz-adv-x="1000" />
<glyph glyph-name="briefcase" unicode="&#xe10d;" d="M0-89.5v253.9h451.1v-80.1h97.7v80.1h451.1v-253.9h-999.9z m0 332v406.2h265.6v140.6h468.7v-140.6h265.6v-406.2h-451.1v84h-97.7v-84h-451.1z m337.9 406.2h324.2v68.4h-324.2v-68.4z" horiz-adv-x="1000" />
<glyph glyph-name="off" unicode="&#xe071;" d="M0 350q0 207 146.5 353.5l101.6-101.6q-105.5-103.5-105.5-251.9t104.5-252.9 252.9-104.5 252.9 104.5 104.5 252.9-105.5 251.9l101.6 101.6q146.5-146.5 146.5-353.5t-146.5-353.5-353.5-146.5-353.5 146.5-146.5 353.5z m427.7-78.1v578.1h144.5v-578.1h-144.5z" horiz-adv-x="1000" />
<glyph glyph-name="road" unicode="&#xe043;" d="M0-150l201.2 999.9h250l-7.8-230.5h113.3l-7.8 230.5h250l201.2-999.9h-417.9l-9.8 287.1h-144.5l-9.8-287.1h-417.9z m429.7 373h140.6l-11.7 339.8h-117.2z" horiz-adv-x="1000" />
<glyph glyph-name="qrcode" unicode="&#xe057;" d="M0-150v455h455v-455h-455z m0 544.9v455h455v-455h-455z m89.8-455h273.4v273.4h-273.4v-273.4z m0 546.8h273.4v273.4h-273.4v-273.4z m91.8-455v91.8h91.8v-91.8h-91.8z m0 544.9v89.8h91.8v-89.8h-91.8z m363.3-726.5v455h271.5v-91.8h93.7v91.8h89.8v-273.4h-273.4v89.8h-89.8v-271.5h-91.8z m0 544.9v455h455v-455h-455z m91.8 91.8h273.4v273.4h-273.4v-273.4z m89.8-546.8h89.8v-89.8h-89.8v89.8z m0 636.7v89.8h89.8v-89.8h-89.8z m183.6-636.7h89.8v-89.8h-89.8v89.8z" horiz-adv-x="1000" />
<glyph glyph-name="barcode" unicode="&#xe0d3;" d="M0-81.6v863.2h84v-863.2h-84z m123 0v863.2h19.5v-863.2h-19.5z m70.3 0v863.2h62.5v-863.2h-62.5z m91.8 0v863.2h27.3v-863.2h-27.3z m103.5 0v863.2h41v-863.2h-41z m56.6 0v863.2h17.6v-863.2h-17.6z m60.5 0v863.2h19.5v-863.2h-19.5z m44.9 0v863.2h82v-863.2h-82z m111.3 0v863.2h43v-863.2h-43z m101.6 0v863.2h9.8v-863.2h-9.8z m25.4 0v863.2h27.3v-863.2h-27.3z m68.4 0v863.2h19.5v-863.2h-19.5z m60.5 0v863.2h82v-863.2h-82z" horiz-adv-x="1000" />
<glyph glyph-name="braille" unicode="&#xe0f2;" d="M0-26q0 51.8 36.1 87.9t86.9 36.1 87.9-36.1 37.1-87.9-37.1-87.9-87.9-36.1-86.9 36.1-36.1 87.9z m0 376q0 50.8 36.1 87.9t86.9 37.1 87.9-37.1 37.1-87.9-37.1-87.9-87.9-37.1-86.9 37.1-36.1 87.9z m0 376q0 51.8 36.1 87.9t86.9 36.1 87.9-36.1 37.1-87.9-37.1-87.9-87.9-36.1-86.9 36.1-36.1 87.9z m396.5-751.9q0 51.8 37.1 87.9t87.9 36.1 86.9-36.1 36.1-87.9-36.1-87.9-86.9-36.1-87.9 36.1-37.1 87.9z m0 376q0 50.8 37.1 87.9t87.9 37.1 86.9-37.1 36.1-87.9-36.1-87.9-86.9-37.1-87.9 37.1-37.1 87.9z m0 376q0 51.8 37.1 87.9t87.9 36.1 86.9-36.1 36.1-87.9-36.1-87.9-86.9-36.1-87.9 36.1-37.1 87.9z" horiz-adv-x="645" />
<glyph glyph-name="book" unicode="&#xe0f5;" d="M0 158.6v542.9q0 31.2 13.7 52.7 29.3 44.9 102.5 77.1t116.2 8.8l470.7-242.2v-589.8l-85.9-46.9v589.8l-419.9 224.6q-29.3 9.8-65.4-8.8t-57.6-47.8l468.7-269.5v-529.3l-85.9-46.9z" horiz-adv-x="704" />
<glyph glyph-name="adjust" unicode="&#xe0db;" d="M0 350q0 207 146.5 353.5t353.5 146.5 353.5-146.5 146.5-353.5-146.5-353.5-353.5-146.5-353.5 146.5-146.5 353.5z m146.5 0q0-146.5 103.5-250t250-103.5v707q-146.5 0-250-103.5t-103.5-250z" horiz-adv-x="1000" />
<glyph glyph-name="tint" unicode="&#xe01d;" d="M0 205.4q2 105.5 56.6 189.4 17.6 27.3 55.7 80.1t53.7 78.1q89.8 138.7 126.9 255.8 15.6 44.9 58.6 41 46.9 2 58.6-41 37.1-119.1 128.9-255.8 17.6-29.3 54.7-80.1t54.7-78.1q54.7-87.9 56.6-189.4-3.9-148.4-103.5-250-105.5-101.6-250-103.5-148.4 3.9-248 103.5-103.5 107.4-103.5 250z m154.3-78.1q2-37.1 27.3-62.5t60.5-25.4q37.1 2 62.5 27.3t25.4 60.5q0 27.3-13.7 46.9-17.6 23.4-27.3 41-25.4 41-33.2 62.5-2 13.7-13.7 11.7-11.7 2-15.6-11.7-7.8-27.3-29.3-62.5-5.9-9.8-15.6-22.5t-13.7-18.6q-13.7-19.5-13.7-46.9z" horiz-adv-x="706" />
<glyph glyph-name="check" unicode="&#xe0a6;" d="M0-150v999.9h646.4l-164.1-164.1h-318.3v-671.8h671.8v318.3l164.1 164.1v-646.4h-999.9z m234.4 623l132.8 130.9 128.9-128.9 361.3 363.3 132.8-132.8-361.3-363.3-132.8-132.8z" horiz-adv-x="1000" />
<glyph glyph-name="check-empty" unicode="&#xe0a5;" d="M0-150v999.9h999.9v-999.9h-999.9z m164.1 164.1h671.8v671.8h-671.8v-671.8z" horiz-adv-x="1000" />
<glyph glyph-name="asterisk" unicode="&#xe0ac;" d="M0 394.9l56.6 175.8 351.5-115.2v369.1h183.6v-369.1l351.5 115.2 56.6-175.8-351.5-113.3 216.8-298.8-148.4-107.4-216.8 298.8-216.8-298.8-148.4 107.4 216.8 298.8z" horiz-adv-x="1000" />
<glyph glyph-name="gift" unicode="&#xe0b7;" d="M0 289.4v250h357.4l-158.2 126.9 189.4 125 70.3-212.9 121.1 271.5 189.4-187.5-193.3-123h326.2v-250h-62.5v-439.4h-777.3v439.4h-62.5z m62.5 62.5h326.2v125h-326.2v-125z m62.5-439.4h263.7v396.5h-263.7v-396.5z m154.3 750l138.7-111.3-54.7 166z m214.8-121.1l201.2 126.9-99.6 99.6z m19.5-628.9h263.7v396.5h-263.7v-396.5z m0 439.4h326.2v125h-326.2v-125z" horiz-adv-x="903" />
<glyph glyph-name="fire" unicode="&#xe0e7;" d="M6.9 289.4q9.8 41 49.8 131.8t43.9 145.5q39.1-72.3 44.9-144.5 148.4 183.6 154.3 427.7 9.8-5.9 25.4-16.6t57.6-45.9 74.2-73.2 60.5-96.7 34.2-117.2q15.6 35.2 19.5 78.1t-9.8 80.1q15.6-11.7 41-39.1t56.6-74.2 55.7-99.6 31.2-118.2-8.8-126.9-72.3-126.9-152.3-120.1q64.4 128.9 25.4 278.3t-154.3 229.5q9.8-43-10.7-141.6t-65.4-149.4q7.8 62.5 3.9 101.6t-11.7 58.6l-9.8 17.6q-11.7-70.3-60.5-140.6-25.4-37.1-38.1-68.4t-9.8-80.1 30.3-105.5q-134.8 76.2-180.7 154.3t-24.4 181.6z" horiz-adv-x="747" />
<glyph glyph-name="magnet" unicode="&#xe07c;" d="M0 412.5q0 181.6 136.7 309.6t329.1 127.9 329.1-127.9 136.7-309.6q0-19.5-2-39.1l-9.8-191.4-292.9 23.4 7.8 193.3q2 5.9 2 13.7 0 66.4-49.8 113.3t-120.1 46.9-121.1-46.9-50.8-113.3q0-5.9 2-13.7l9.8-193.3-294.9-23.4-9.8 191.4q-2 19.5-2 39.1z m23.4-345.7l292.9 25.4 17.6-187.5q2-13.7-7.8-23.4t-23.4-11.7l-224.6-17.6q-15.6-2-26.4 6.8t-10.7 22.5z m574.2-162.1l17.6 187.5 294.9-25.4-17.6-185.5q-2-13.7-12.7-22.5t-24.4-6.8l-226.5 17.6q-13.7 2-22.5 11.7t-8.8 23.4z" horiz-adv-x="932" />
<glyph glyph-name="chart" unicode="&#xe0fb;" d="M0-28.9v757.8h999.9v-757.8h-999.9z m123 123h753.9v511.7h-753.9v-511.7z m27.3 162.1l125 103.5 35.2 29.3 31.2-33.2 43-46.9 105.5 166 46.9 72.3 39.1-78.1 60.5-125 126.9 222.6 85.9-48.8-175.8-304.7-44.9-80.1-41 84-62.5 130.9-91.8-142.6-33.2-52.7-43 44.9-54.7 56.6-89.8-74.2z" horiz-adv-x="1000" />
<glyph glyph-name="chart-circled" unicode="&#xe0fa;" d="M0 350q0 207 146.5 353.5t353.5 146.5 353.5-146.5 146.5-353.5-146.5-353.5-353.5-146.5-353.5 146.5-146.5 353.5z m209-220.7h582v441.4h-582v-441.4z m72.3 72.3v296.9h437.5v-296.9h-437.5z m15.6 93.7l37.1-43 50.8 43 31.2-33.2 25.4-27.3 19.5 31.2 54.7 82 35.2-74.2 23.4-48.8 27.3 46.9 101.6 175.8-48.8 27.3-76.2-128.9-33.2 72.3-23.4 46.9-27.3-43-60.5-95.7-25.4 27.3-19.5 17.6-19.5-15.6z" horiz-adv-x="1000" />
<glyph glyph-name="credit-card" unicode="&#xe0a0;" d="M0 18v664h999.9v-664h-999.9z m62.5 62.5h874.9v296.9h-874.9v-296.9z m0 439.4h874.9v99.6h-874.9v-99.6z m60.5-361.3q0 13.7 4.9 21.5t14.6 7.8 14.6-7.8 4.9-21.5-4.9-21.5-14.6-7.8-14.6 7.8-4.9 21.5z m7.8 0q0-11.7 2.9-17.6t8.8-5.9 8.8 5.9 2.9 17.6-2.9 17.6-8.8 5.9-8.8-5.9-2.9-17.6z m43 0q0 13.7 4.9 21.5t14.6 7.8 14.6-7.8 4.9-21.5-4.9-21.5-14.6-7.8-14.6 7.8-4.9 21.5z m7.8 0q0-11.7 2.9-17.6t8.8-5.9 8.8 5.9 2.9 17.6-2.9 17.6-8.8 5.9-8.8-5.9-2.9-17.6z m41 0q0 13.7 4.9 21.5t14.6 7.8 14.6-7.8 4.9-21.5-4.9-21.5-14.6-7.8-14.6 7.8-4.9 21.5z m7.8 0q0-11.7 2.9-17.6t8.8-5.9 8.8 5.9 2.9 17.6-2.9 17.6-8.8 5.9-8.8-5.9-2.9-17.6z m43 0q0 13.7 4.9 21.5t14.6 7.8 14.6-7.8 4.9-21.5-4.9-21.5-14.6-7.8-14.6 7.8-4.9 21.5z m7.8 0q0-11.7 2.9-17.6t8.8-5.9 8.8 5.9 2.9 17.6-2.9 17.6-8.8 5.9-8.8-5.9-2.9-17.6z m39.1-9.8v5.9h21.5v-5.9h-21.5z m31.2 9.8q0 13.7 4.9 21.5t14.6 7.8 14.6-7.8 4.9-21.5-4.9-21.5-14.6-7.8-14.6 7.8-4.9 21.5z m7.8 0q0-11.7 2.9-17.6t8.8-5.9 8.8 5.9 2.9 17.6-2.9 17.6-8.8 5.9-8.8-5.9-2.9-17.6z m41 0q0 13.7 4.9 21.5t14.6 7.8 14.6-7.8 4.9-21.5-4.9-21.5-14.6-7.8-14.6 7.8-4.9 21.5z m7.8 0q0-11.7 2.9-17.6t8.8-5.9 8.8 5.9 2.9 17.6-2.9 17.6-8.8 5.9-8.8-5.9-2.9-17.6z m41 0q0 13.7 5.9 21.5t14.6 7.8 14.6-7.8 5.9-21.5-5.9-21.5-14.6-7.8-14.6 7.8-5.9 21.5z m7.8 0q0-11.7 3.9-17.6t9.8-5.9 8.8 5.9 2.9 17.6-2.9 17.6-8.8 5.9-9.8-5.9-3.9-17.6z m43 0q0 13.7 4.9 21.5t14.6 7.8 14.6-7.8 4.9-21.5-4.9-21.5-14.6-7.8-14.6 7.8-4.9 21.5z m7.8 0q0-11.7 2.9-17.6t8.8-5.9 8.8 5.9 2.9 17.6-2.9 17.6-8.8 5.9-8.8-5.9-2.9-17.6z" horiz-adv-x="1000" />
<glyph glyph-name="megaphone" unicode="&#xe10c;" d="M0 344.1v123q2 35.2 26.4 59.6t57.6 24.4h269.5q138.7 7.8 272.4 64.4t229.5 152.3q35.2-2 58.6-26.4t23.4-57.6v-199.2q27.3-7.8 44.9-30.3t17.6-49.8q-2-29.3-18.6-50.8t-43.9-27.3v-201.2q-2-35.2-26.4-58.6t-55.7-23.4q-207 183.6-449.2 210.9-66.4-33.2-53.7-126.9t77.1-142.6q-27.3-46.9-95.7-51.8t-105.5 30.3q-15.6 44.9-24.4 75.2t-16.6 71.3-6.8 78.1 10.7 72.3h-107.4q-35.2 2-59.6 26.4t-24.4 57.6z m437.5-9.8q240.2-44.9 419.9-183.6v507.8q-203.1-150.4-419.9-181.6v-142.6z" horiz-adv-x="1000" />
<glyph glyph-name="clipboard" unicode="&#xe07f;" d="M0-150v904.2h224.6v-64.4h-160.1v-773.4h578.1v773.4h-160.1v64.4h224.6v-904.2h-707z m128.9 128.9v31.2h31.2v-31.2h-31.2z m0 121.1v31.2h31.2v-31.2h-31.2z m0 121.1v31.2h31.2v-31.2h-31.2z m0 121.1v31.2h31.2v-31.2h-31.2z m0 121.1v31.2h31.2v-31.2h-31.2z m0 95.7v93.7h128.9v97.7q0 41 27.3 70.3t68.4 29.3 69.3-30.3 28.3-69.3q0-56.6-2-97.7h128.9v-93.7h-449.2z m95.7-582v33.2h353.5v-33.2h-353.5z m0 121.1v33.2h353.5v-33.2h-353.5z m0 121.1v33.2h353.5v-33.2h-353.5z m0 121.1v33.2h353.5v-33.2h-353.5z m0 121.1v33.2h353.5v-33.2h-353.5z m97.7 259.7q0-13.7 8.8-22.5t22.5-8.8 22.5 8.8 8.8 22.5-8.8 23.4-22.5 9.8-22.5-9.8-8.8-23.4z" horiz-adv-x="707" />
<glyph glyph-name="hdd" unicode="&#xe0b4;" d="M0 238.6l199.2 537.1h601.5l199.2-537.1-80.1-314.4h-839.8z m78.1-50.8l54.7-212.9h734.3l54.7 212.9h-843.7z m654.3-106.4q0 16.6 11.7 28.3t28.3 11.7 28.3-11.7 11.7-28.3-11.7-28.3-28.3-11.7-28.3 11.7-11.7 28.3z" horiz-adv-x="1000" />
<glyph glyph-name="key" unicode="&#xe085;" d="M0 355.8q0 113.3 80.1 193.3t193.3 80.1q95.7 0 168.9-57.6t96.7-147.5h460.9v-117.2h-64.4v-218.7h-115.2v218.7h-54.7v-150.4h-117.2v150.4h-105.5q-17.6-95.7-93.7-160.1t-175.8-64.4q-113.3 0-193.3 80.1t-80.1 193.3z m126.9 0q0-60.5 43-103.5t103.5-43 103.5 43 43 103.5-43 103.5-103.5 43-103.5-43-43-103.5z" horiz-adv-x="1000" />
<glyph glyph-name="certificate" unicode="&#xe0a7;" d="M0 219.1l93.7 138.7-85.9 146.5 154.3 66.4 5.9 168 166-27.3 95.7 138.7 125-113.3 156.2 64.4 43-162.1 166-29.3-50.8-160.1 123-115.2-128.9-107.4 43-164.1-168-19.5-52.7-160.1-152.3 74.2-130.9-107.4-87.9 144.5-168-19.5 3.9 169.9z" horiz-adv-x="993" />
<glyph glyph-name="tasks" unicode="&#xe027;" d="M0-62.1v195.3h999.9v-195.3h-999.9z m0 292.9v195.3h999.9v-195.3h-999.9z m0 292.9v195.3h999.9v-195.3h-999.9z m406.2-244.1h542.9v99.6h-542.9v-99.6z m220.7 292.9h322.2v99.6h-322.2v-99.6z m119.1-585.9h203.1v99.6h-203.1v-99.6z" horiz-adv-x="1000" />
<glyph glyph-name="filter" unicode="&#xe0e8;" d="M0 849.9h999.9l-345.7-345.7v-402.3l-308.6-251.9v654.3z" horiz-adv-x="1000" />
<glyph glyph-name="gauge" unicode="&#xe09e;" d="M0 187.9q0 207 146.5 353.5t353.5 146.5 353.5-146.5 146.5-353.5q0-91.8-31.2-175.8h-136.7q43 82 43 175.8 0 154.3-109.4 264.6t-265.6 110.3-265.6-110.3-109.4-264.6q0-93.7 43-175.8h-136.7q-31.2 84-31.2 175.8z m250 179.7q0 25.4 18.6 43.9t43.9 18.6 43.9-18.6 18.6-43.9-18.6-43.9-43.9-18.6-43.9 18.6-18.6 43.9z m187.5 60.5q0 25.4 18.6 43.9t43.9 18.6 43.9-18.6 18.6-43.9-18.6-43.9-43.9-18.6-43.9 18.6-18.6 43.9z m13.7-416v48.8l48.8 246.1 48.8-246.1v-48.8h-97.7z m173.8 355.4q0 25.4 18.6 43.9t43.9 18.6 43.9-18.6 18.6-43.9-18.6-43.9-43.9-18.6-43.9 18.6-18.6 43.9z" horiz-adv-x="1000" />
<glyph glyph-name="smiley" unicode="&#xe035;" d="M0-150v999.9h999.9v-999.9h-999.9z m152.3 470.7q0-144.5 101.6-246.1t246.1-101.6 246.1 101.6 101.6 246.1h-695.3z m66.4 230.5q0-44.9 31.2-76.2t76.2-31.2 77.1 31.2 32.2 76.2-32.2 77.1-77.1 32.2-76.2-32.2-31.2-77.1z m335.9 0q0-44.9 32.2-76.2t77.1-31.2 76.2 31.2 31.2 76.2-31.2 77.1-76.2 32.2-77.1-32.2-32.2-77.1z" horiz-adv-x="1000" />
<glyph glyph-name="smiley-circled" unicode="&#xe034;" d="M0 350q0 207 146.5 353.5t353.5 146.5 353.5-146.5 146.5-353.5-146.5-353.5-353.5-146.5-353.5 146.5-146.5 353.5z m238.3-261.7h523.4v523.4h-523.4v-523.4z m80.1 246.1h363.3q0-76.2-52.7-128.9t-128.9-52.7-128.9 52.7-52.7 128.9z m35.2 121.1q0 23.4 16.6 40t40 16.6 40-16.6 16.6-40-16.6-40-40-16.6-40 16.6-16.6 40z m175.8 0q0 23.4 16.6 40t40 16.6 40-16.6 16.6-40-16.6-40-40-16.6-40 16.6-16.6 40z" horiz-adv-x="1000" />
<glyph glyph-name="address-book" unicode="&#xe0dd;" d="M0-150v999.9h999.9v-177.7h-109.4v-95.7h109.4v-177.7h-109.4v-97.7h109.4v-177.7h-109.4v-95.7h109.4v-177.7h-999.9z m193.3 285.1h503.9v154.3l-187.5 111.3q37.1 19.5 58.6 53.7t21.5 77.1q0 58.6-42 101.6t-102.5 43-102.5-43-42-101.6q0-43 22.5-77.1t57.6-53.7l-187.5-111.3v-154.3z" horiz-adv-x="1000" />
<glyph glyph-name="address-book-alt" unicode="&#xe0dc;" d="M0 350q0 207 146.5 353.5t353.5 146.5 353.5-146.5 146.5-353.5-146.5-353.5-353.5-146.5-353.5 146.5-146.5 353.5z m218.7-281.2h562.5v99.6h-62.5v54.7h62.5v99.6h-62.5v54.7h62.5v99.6h-62.5v54.7h62.5v99.6h-562.5v-562.5z m109.4 160.1v87.9h2l103.5 62.5q-44.9 21.5-44.9 72.3 0 33.2 23.4 56.6t57.6 23.4 57.6-23.4 23.4-56.6q0-50.8-44.9-72.3l103.5-62.5h2v-87.9h-283.2z" horiz-adv-x="1000" />
<glyph glyph-name="asl" unicode="&#xe0ad;" d="M.7 711.3q-3.9 37.1 15.6 52.7t44.9 4.9 35.2-38.1l52.7-183.6q-15.6-29.3-13.7-64.4 5.9-29.3 35.2-203.1 7.8-52.7 32.2-82t65.4-29.3q46.9 0 74.2 37.1 33.2-39.1 82-37.1t74.2 41q27.3-37.1 71.3-41t73.2 27.3q11.7 15.6 19.5 31.2t11.7 37.1 4.9 33.2 1 40v38.1q25.4-9.8 60.5 23.4 48.8 44.9 109.4 78.1t97.7 7.8q33.2-23.4 31.2-58.6t-35.2-54.7q-60.5-25.4-104.5-82t-66.4-112.3-57.6-117.2-78.1-92.8q-21.5-17.6-66.4-17.6h-349.6q-84 5.9-105.5 117.2z m181.6-234.4q-5.9 44.9 20.5 65.4t56.6 7.8 36.1-47.8l21.5-209q3.9-41-16.6-63.5t-46.9-14.6-36.1 44.9z m154.3 70.3q2 41 32.2 55.7t62.5-1 36.1-48.8l7.8-248q0-58.6-28.3-76.2t-56.6 4.9-30.3 61.5z m175.8 3.9q3.9 43 36.1 54.7t62.5-6.8 30.3-51.8l-5.9-253.9q-5.9-46.9-34.2-66.4t-54.7 1-28.3 67.4z" horiz-adv-x="980" />
<glyph glyph-name="glasses" unicode="&#xe0e3;" d="M.3 387.1q-2 13.7 7.8 25.4l359.4 185.5q29.3 11.7 41-15.6 11.7-33.2-13.7-44.9l-226.5-103.5h658.2l-228.5 103.5q-25.4 15.6-13.7 44.9 13.7 27.3 43 15.6l361.3-185.5q11.7-11.7 9.8-25.4l-27.3-255.8q-7.8-29.3-33.2-29.3h-312.5q-25.4 2-31.2 25.4l-48.8 222.6q-39.1 25.4-91.8 2l-50.8-224.6q-5.9-25.4-31.2-25.4h-312.5q-27.3 2-31.2 29.3z m66.4-29.3l19.5-189.4h259.7l43 189.4h-322.2z m542.9 0l41-189.4h259.7l19.5 189.4h-320.3z" horiz-adv-x="999" />
<glyph glyph-name="hearing-impaired" unicode="&#xe0b2;" d="M0-59.2q0 22.5 15.6 38.1l248 250q17.6 15.6 40 15.6t38.1-15.6q15.6-17.6 15.6-41t-15.6-39.1l-248-250q-41-35.2-78.1 0-15.6 19.5-15.6 42z m125 477.5q3.9 130.9 89.8 218.7 93.7 89.8 218.7 91.8 128.9-3.9 216.8-91.8 89.8-93.7 89.8-218.7 0-50.8-10.7-83t-36.1-75.2q-9.8-23.4-41-60.5t-41-52.7q-5.9-17.6-6.8-39.1t1-47.8 2-42q-2-89.8-54.7-132.8-52.7-29.3-113.3-29.3-21.5 2-35.2 15.6t-14.6 33.2 12.7 35.2q9.8 9.8 20.5 13.7t26.4 3.9 23.4 3.9q25.4 7.8 27.3 15.6 5.9 19.5 5.9 58.6 2 9.8 0 59.6t3.9 57.6q9.8 41 29.3 68.4 5.9 5.9 15.6 17.6t15.6 17.6l31.2 46.9q5.9 7.8 14.6 24.4t12.7 22.5q11.7 31.2 11.7 68.4-2 89.8-60.5 148.4-64.4 60.5-146.5 60.5-87.9-2-146.5-60.5-60.5-64.4-62.5-148.4 0-21.5-13.7-36.1t-35.2-14.6q-21.5 2-36.1 16.6t-14.6 34.2z m154.3-7.8q2 66.4 44.9 109.4 46.9 44.9 109.4 46.9 64.4-3.9 107.4-46.9 44.9-46.9 46.9-109.4-2-19.5-13.7-31.2t-29.3-11.7q-41 3.9-41 43-2 29.3-22.5 49.8t-47.8 20.5q-29.3-2-49.8-22.5t-20.5-47.8q-2-19.5-13.7-31.2t-29.3-11.7q-41 3.9-41 43z m433.6 249q0 22.5 17.6 38.1l134.8 136.7q19.5 15.6 41 15.6t37.1-15.6q17.6-17.6 16.6-40t-16.6-38.1l-134.8-136.7q-41-37.1-78.1 0-17.6 17.6-17.6 40z" horiz-adv-x="960" />
<glyph glyph-name="iphone-home" unicode="&#xe087;" d="M0 350q0 207 146.5 353.5t353.5 146.5 353.5-146.5 146.5-353.5-146.5-353.5-353.5-146.5-353.5 146.5-146.5 353.5z m285.1-173.8q0-15.6 11.7-27.3t29.3-13.7h347.6q15.6 0 27.3 11.7t13.7 29.3v347.6q0 15.6-11.7 27.3t-29.3 13.7h-347.6q-15.6 0-27.3-11.7t-13.7-29.3v-347.6z m80.1 60.5v228.5q0 19.5 19.5 19.5h230.5q19.5 0 19.5-19.5v-228.5q0-21.5-19.5-21.5h-230.5q-19.5 0-19.5 21.5z" horiz-adv-x="1000" />
<glyph glyph-name="person" unicode="&#xe066;" d="M0 248.4v275.4q0 70.3 46.9 95.7 17.6 7.8 41 7.8h207q23.4 0 43-7.8 58.6-29.3 58.6-95.7v-275.4q-3.9-31.2-30.3-28.3t-28.3 28.3v261.7q-2 9.8-17.6 7.8t-15.6-7.8v-599.6q-3.9-27.3-25.4-36.1t-42 3.9-20.5 34.2v365.2q-3.9 17.6-21.5 14.6t-17.6-14.6v-365.2q-2-29.3-24.4-38.1t-42 2.9-21.5 33.2v599.6q-3.9 9.8-17.6 7.8t-15.6-7.8v-261.7q-3.9-31.2-30.3-28.3t-26.4 28.3z m101.6 504.9q0 40 28.3 68.4t68.4 28.3 68.4-28.3 28.3-68.4-28.3-68.4-68.4-28.3-68.4 28.3-28.3 68.4z" horiz-adv-x="397" />
<glyph glyph-name="adult" unicode="&#xe0da;" d="M0-132.4v289q0 103.5 59.6 177.7t157.2 74.2h330.1q101.6-2 158.2-76.2t56.6-175.8v-289q0-17.6-17.6-17.6h-105.5q-15.6 0-15.6 17.6v251.9q-5.9 27.3-27.3 24.4t-21.5-24.4v-251.9q-2-17.6-19.5-17.6h-351.5q-17.6 0-17.6 17.6v251.9q-3.9 27.3-25.4 24.4t-23.4-24.4v-251.9q0-17.6-17.6-17.6h-101.6q-17.6 0-17.6 17.6z m185.5 783.2q0 82 59.6 140.6t139.6 58.6q85.9-3.9 142.6-60.5t58.6-138.7q-2-84-60.5-142.6t-140.6-58.6q-84 2-141.6 60.5t-57.6 140.6z" horiz-adv-x="762" />
<glyph glyph-name="child" unicode="&#xe0ca;" d="M.1-134.4v345.7q-2 91.8 44.9 142.6t128.9 52.7h314.4q89.8 0 129.9-55.7t42-139.6v-345.7q-2-15.6-13.7-15.6h-89.8q-15.6 2-15.6 15.6v308.6q-3.9 27.3-25.4 24.4t-23.4-24.4v-308.6q0-15.6-13.7-15.6h-292.9q-13.7 0-13.7 15.6v308.6q-3.9 27.3-25.4 24.4t-23.4-24.4v-308.6q0-15.6-13.7-15.6h-93.7q-13.7 2-15.6 15.6z m128.9 778.3q0 85 60.5 145.5t144.5 60.5 144.5-60.5 60.5-145.5-60.5-144.5-144.5-59.6-144.5 59.6-60.5 144.5z m87.9-34.2q0-46.9 34.2-81t82-34.2 82 34.2 34.2 81h-232.4z" horiz-adv-x="661" />
<glyph glyph-name="blind" unicode="&#xe0d0;" d="M5.3-81.6q-12.7 23.4 4.9 50.8l128.9 166 50.8 183.6v150.4l-27.3-37.1-9.8-107.4q-3.9-25.4-24.4-33.2t-37.1 4.9-14.6 36.1l13.7 115.2q0 9.8 5.9 17.6l103.5 140.6q19.5 31.2 56.6 35.2t64.4-21.5l113.3-142.6 111.3-23.4q21.5-3.9 29.3-29.3t-21.5-37.1l355.4-488.3q5.9-9.8-3.9-14.6t-15.6 2.9l-380.8 501.9-103.5 19.5q-13.7 3.9-21.5 13.7l-43 54.7v-158.2l111.3-126.9q5.9-5.9 7.8-17.6l54.7-244.1q3.9-27.3-17.6-43.9t-47.8-9.8-34.2 36.1l-48.8 232.4-91.8 103.5-41-144.5q-5.9-13.7-7.8-17.6l-134.8-173.8q-21.5-19.5-46.9-18.6t-38.1 24.4z m178.7 834.9q0 40 28.3 68.4t68.4 28.3 68.4-28.3 28.3-68.4-28.3-68.4-68.4-28.3-68.4 28.3-28.3 68.4z" horiz-adv-x="911" />
<glyph glyph-name="guidedog" unicode="&#xe08f;" d="M4.8 545.3q-13.7 29.3 11.7 43 13.7 5.9 26.4 2t18.6-13.7q19.5-31.2 57.6-50.8t69.3-19.5h314.4q-31.2-156.2-27.3-296.9-17.6 0-49.8 5.9t-47.8 5.9q-27.3 3.9-19.5-23.4l44.9-177.7q-2-48.8-39.1-54.7-15.6 0-31.2 10.7t-19.5 22.5l-56.6 222.6q-2 11.7-12.7 11.7t-14.6-11.7l-52.7-220.7q-9.8-35.2-43-35.2-21.5 0-35.2 17.6t-9.8 37.1l64.4 261.7 3.9 160.1q-44.9 11.7-88.9 39.1t-63.5 64.4z m394.5 164.1q-11.7 21.5 7.8 33.2 21.5 11.7 33.2-5.9l111.3-175.8q11.7-23.4-5.9-35.2-23.4-9.8-35.2 7.8z m89.8-689.4l39.1 160.1q2 7.8-2 15.6 2 185.5 25.4 292.9 78.1-101.6 210.9-128.9-3.9-11.7-12.7-34.2t-12.7-32.2q-3.9-13.7 3.9-41 29.3-113.3 60.5-230.5 3.9-29.3-15.6-41t-43-5.9-29.3 23.4l-44.9 171.9q-9.8 17.6-27.3 18.6t-23.4-18.6l-41-169.9q-9.8-25.4-33.2-27.3t-41 13.7-13.7 33.2z m95.7 507.8l134.8 138.7 23.4 85.9 52.7-62.5q5.9-2 26.4-5.9t31.2-7.8 23.4-12.7 18.6-20.5 11.7-44.9 13.7-41q11.7-11.7 25.4-21.5t33.2-33.2q17.6-35.2-48.8-70.3-27.3 2-51.8 5.9t-42 5.9q-23.4 3.9-41 7.8-3.9-9.8-6.8-21.5t-8.8-23.4q-58.6 11.7-113.3 43.9t-82 77.1z" horiz-adv-x="1091" />
<glyph glyph-name="accessibility" unicode="&#xe006;" d="M0 187.9q2 109.4 62.5 193.3 64.4 85.9 162.1 125 43 9.8 56.6-25.4 5.9-17.6-1-33.2t-24.4-19.5q-78.1-33.2-123-95.7-44.9-68.4-46.9-144.5 3.9-107.4 78.1-179.7 82-74.2 185.5-74.2 85.9 2 152.3 46.9 70.3 48.8 97.7 121.1 5.9 15.6 9.8 31.2 11.7 41 50.8 31.2 41-11.7 33.2-48.8-5.9-23.4-13.7-41-39.1-103.5-126.9-164.1-95.7-60.5-203.1-60.5-144.5 3.9-246.1 99.6-101.6 101.6-103.5 238.3z m263.7 562.5q2 43 30.3 71.3t69.3 28.3q43-2 71.3-30.3t28.3-69.3q-2-43-31.2-71.3t-68.4-28.3q-43 2-71.3 30.3t-28.3 69.3z m46.9-209h2q-7.8 35.2 21.5 64.4 23.4 21.5 58.6 21.5 27.3 0 46.9-15.6 9.8-7.8 16.6-15.6t10.7-19.5 4.9-17.6 3.9-22.5 4.9-22.5h166q31.2-2 41-31.2 3.9-23.4-9.8-39.1t-37.1-13.7h-142.6l21.5-105.5h181.6q46.9-2 64.4-39.1l162.1-283.2q15.6-33.2-9.8-58.6-21.5-19.5-47.8-14.6t-38.1 30.3l-140.6 244.1q-48.8 2-144.5 1t-109.4-1q-58.6 3.9-68.4 54.7z" horiz-adv-x="934" />
<glyph glyph-name="universal-access" unicode="&#xe017;" d="M0 350q0 207 146.5 353.5t353.5 146.5 353.5-146.5 146.5-353.5-146.5-353.5-353.5-146.5-353.5 146.5-146.5 353.5z m66.4 0q0-179.7 126.9-306.6t306.6-126.9 306.6 126.9 126.9 306.6-126.9 306.6-306.6 126.9-306.6-126.9-126.9-306.6z m162.1 2q-19.5 27.3 2 46.9l168 146.5q11.7 7.8 21.5 10.7t25.4 2.9h109.4q15.6 0 25.4-2.9t21.5-10.7q9.8-7.8 71.3-62.5t96.7-84q21.5-21.5 2-46.9-21.5-23.4-46.9-3.9-19.5 17.6-62.5 53.7t-64.4 57.6q0-2-2.9 0t-6.8 3.9-5.9 2q-5.9 0-5.9-13.7v-57.6l3.9-67.4q2-21.5 2-25.4l48.8-271.5q3.9-41-33.2-48.8-17.6-3.9-32.2 6.8t-16.6 26.4q-39.1 220.7-39.1 224.6-5.9 23.4-9.8 23.4-3.9-2-5.9-4.9t-2-6.8-1-7.8l-1-3.9q0-2-9.8-58.6t-19.5-111.3l-9.8-54.7q-5.9-17.6-18.6-26.4t-30.3-6.8q-39.1 9.8-33.2 48.8l48.8 273.4q5.9 37.1 5.9 146.5 0 15.6-5.9 15.6t-15.6-7.8l-126.9-109.4q-27.3-19.5-46.9 3.9z m199.2 299.8q0 30.3 21.5 51.8t51.8 21.5 51.8-21.5 21.5-51.8-21.5-51.8-51.8-21.5-51.8 21.5-21.5 51.8z" horiz-adv-x="1000" />
<glyph glyph-name="male" unicode="&#xe07b;" d="M0 209.4q0 148.4 104.5 253.9t254.9 105.5q105.5 0 195.3-56.6l199.2 199.2h-152.3v138.7h390.6v-390.6h-140.6v150.4l-195.3-197.3q62.5-91.8 62.5-203.1 0-148.4-105.5-253.9t-254.9-105.5-253.9 105.5-104.5 253.9z m144.5 1q0-88.9 62.5-152.3t151.4-63.5 152.3 63.5 63.5 152.3-63.5 151.4-152.3 62.5-151.4-62.5-62.5-151.4z" horiz-adv-x="993" />
<glyph glyph-name="female" unicode="&#xe098;" d="M0 537.5q0 132.8 93.7 227.5t226.5 94.7 227.5-94.7 94.7-227.5q0-115.2-74.2-204.1t-185.5-110.3v-103.5h136.7v-123h-136.7v-136.7h-123v136.7h-138.7v123h138.7v103.5q-111.3 21.5-185.5 110.3t-74.2 204.1z m126.9 0q0-80.1 56.6-136.7t136.7-56.6 136.7 56.6 56.6 136.7-56.6 136.7-136.7 56.6-136.7-56.6-56.6-136.7z" horiz-adv-x="643" />
<glyph glyph-name="behance" unicode="&#xe0d2;" d="M0-150v999.9h999.9v-999.9h-999.9z m156.2 158.2h255.8q48.8 2 80.1 31.2 31.2 33.2 31.2 84 0 46.9-21.5 74.2-17.6 23.4-50.8 31.2v3.9q29.3 9.8 44.9 29.3 19.5 27.3 19.5 70.3-2 44.9-31.2 74.2-31.2 29.3-74.2 29.3h-253.9v-427.7z m121.1 99.6v74.2h93.7q13.7-2 19.5-9.8 9.8-9.8 9.8-23.4v-7.8q0-13.7-9.8-23.4-7.8-9.8-19.5-9.8h-93.7z m0 162.1v72.3h85.9q11.7 0 19.5-9.8t7.8-23.4v-5.9q0-13.7-7.8-23.4t-19.5-9.8h-85.9z m250-97.7q0-43 11.7-76.2 11.7-31.2 34.2-52.7t53.7-32.2 72.3-10.7q78.1 2 117.2 35.2 41 33.2 41 91.8h-107.4q0-9.8-3.9-17.6-9.8-29.3-50.8-29.3-31.2 0-44.9 18.6t-13.7 53.7h220.7q0 62.5-11.7 97.7-9.8 31.2-31.2 52.7t-52.7 31.2-70.3 9.8q-37.1 0-67.4-10.7t-51.8-32.2-33.2-52.7-11.7-76.2z m74.2 193.3h189.4v70.3h-189.4v-70.3z m37.1-154.3q2 25.4 15.6 40t41 14.6q23.4 0 37.1-14.6t13.7-40h-107.4z" horiz-adv-x="1000" />
<glyph glyph-name="blogger" unicode="&#xe0cf;" d="M0-150v999.9h999.9v-999.9h-999.9z m187.5 376.9q0-195.3 218.7-191.4h234.4q160.1 23.4 173.8 189.4v87.9q-3.9 58.6-39.1 85t-84 28.3q9.8 35.2 2 93.7-5.9 60.5-46.9 100.6t-111.3 45.9h-191.4q-64.4-9.8-107.4-47.8t-48.8-98.6v-292.9z m96.7-29.3q-16.6 29.3 0 58.6t55.7 35.2h285.1q41-5.9 57.6-35.2t1-58.6-54.7-35.2h-285.1q-43 5.9-59.6 35.2z m35.2 264.6q-14.6 26.4 1 52.7t54.7 32.2h156.2q41-3.9 55.7-30.3t-1-52.7-54.7-34.2h-156.2q-41 5.9-55.7 32.2z" horiz-adv-x="1000" />
<glyph glyph-name="cc" unicode="&#xe0a8;" d="M0 29.7v640.6l500 97.7 500-97.7v-640.6l-500-97.7z m173.8 316.4q0-70.3 27.3-117.2 43-72.3 132.8-72.3 39.1 0 68.4 13.7 72.3 31.2 78.1 125h-56.6q-15.6-85.9-87.9-85.9-27.3 0-46.9 11.7-54.7 31.2-54.7 125 0 43 9.8 76.2 25.4 68.4 89.8 68.4l17.6-2q58.6-9.8 68.4-76.2h56.6q-3.9 48.8-23.4 78.1l-5.9 5.9q-39.1 46.9-113.3 46.9-56.6 0-97.7-33.2-62.5-52.7-62.5-164.1z m345.7 0q0-70.3 27.3-117.2 43-72.3 132.8-72.3 37.1 0 68.4 13.7 70.3 31.2 78.1 125h-56.6q-15.6-85.9-89.8-85.9-27.3 0-46.9 11.7-54.7 31.2-54.7 125 0 43 11.7 76.2 23.4 68.4 89.8 68.4l17.6-2q58.6-9.8 66.4-76.2h58.6q-3.9 48.8-23.4 78.1l-5.9 5.9q-41 46.9-113.3 46.9-56.6 0-97.7-33.2-62.5-52.7-62.5-164.1z" horiz-adv-x="1323" />
<glyph glyph-name="css" unicode="&#xe09f;" d="M0 57v773.4h999.9v-773.4l-500-187.5z m109.4 335.9q0-56.6 34.2-93.7t96.7-37.1q119.1 0 121.1 107.4h-76.2q0-44.9-46.9-46.9-23.4 0-35.2 16.6t-11.7 42q0 48.8 11.7 66.4 19.5 25.4 54.7 11.7 25.4-9.8 25.4-44.9h78.1q0 52.7-33.2 80.1t-87.9 29.3q-56.6 0-94.7-35.2t-36.1-95.7z m283.2-41q0-87.9 125-89.8 109.4 0 111.3 87.9-2 56.6-76.2 72.3-2 0-16.6 2.9t-25.4 4.9-20.5 7.8-9.8 13.7q0 15.6 33.2 17.6 31.2 0 33.2-25.4v-2h74.2v3.9q0 39.1-33.2 58.6t-78.1 19.5q-109.4 0-113.3-80.1 0-58.6 74.2-76.2 3.9-2 18.6-4.9t25.4-4.9 20.5-7.8 9.8-13.7q0-15.6-35.2-15.6-41 0-41 31.2h-76.2z m265.6 0q0-87.9 125-89.8 109.4 0 111.3 87.9 0 17.6-7.8 29.3-15.6 29.3-68.4 43-2 0-17.6 2.9t-25.4 4.9-19.5 7.8-11.7 13.7q2 15.6 35.2 17.6 33.2 0 31.2-27.3h76.2q0 41-32.2 61.5t-79.1 20.5q-109.4 0-113.3-80.1 0-58.6 74.2-76.2 3.9-2 18.6-4.9l24.4-4.9 20.5-7.8 10.7-13.7q0-19.5-52.7-15.6-23.4 5.9-23.4 31.2h-76.2z" horiz-adv-x="1387" />
<glyph glyph-name="delicious" unicode="&#xe0c7;" d="M0 350v500h500v-500h500v-500h-500v500h-500z" horiz-adv-x="1000" />
<glyph glyph-name="deviantart" unicode="&#xe0c6;" d="M0 143q2 48.8 18.6 93.7t52.7 91.8 111.3 81 178.7 47.8l2-43q-93.7-13.7-138.7-64.4t-64.4-132.8h207l-5.9 339.8h113.3v-84q248 3.9 386.7-79.1t134.8-251h-470.7l2 230.5q62.5 3.9 105.5-7.8v-144.5l210.9-2q-11.7 48.8-34.2 86.9t-50.8 59.6-63.5 36.1-72.3 18.6-75.2 6.8-73.2-1v-283.2h-474.6z" horiz-adv-x="997" />
<glyph glyph-name="digg" unicode="&#xe0c5;" d="M0 346.1v250h62.5v60.5h64.4v64.4h183.6v-64.4h-183.6v-60.5h-64.4v-250h310.5v250h-62.5v60.5h62.5v-60.5h126.9v187.5h373v-187.5h126.9v-314.4h-64.4v-365.2h-498v365.2h-187.5v-121.1h60.5v-62.5h-183.6v62.5h58.6v121.1h-123v64.4h-62.5z m62.5-429.7v181.6h64.4v-119.1h183.6v119.1h62.5v-181.6h-310.5z m375 429.7h62.5v-367.2h187.5v181.6h62.5v-181.6h121.1v367.2h64.4v191.4h-62.5v-125h-373v125h-62.5v-191.4z m126.9 128.9h244.1v246.1h-244.1v-246.1z" horiz-adv-x="1000" />
</font>
</defs>
</svg>
