<svg height="1000px" width="1000px" xmlns="http://www.w3.org/2000/svg">
  <g>
    <path d="M33.203125 662.109375c1.302 -72.917 22.135 -137.37 62.5 -193.359c42.969 -57.292 97.005 -98.959 162.109 -125c28.646 -6.511 47.526 1.953 56.641 25.39c3.906 11.719 3.581 22.787 -0.977 33.203c-4.557 10.417 -12.695 16.927 -24.414 19.532c-52.083 22.135 -93.099 54.036 -123.047 95.703c-29.947 45.573 -45.572 93.75 -46.875 144.531c2.605 71.615 28.646 131.51 78.125 179.688c54.688 49.479 116.537 74.218 185.547 74.218c57.292 -1.302 108.073 -16.927 152.344 -46.875c46.875 -32.552 79.427 -72.916 97.656 -121.093c3.907 -10.417 7.162 -20.834 9.766 -31.25c7.812 -27.344 24.74 -37.761 50.781 -31.25c27.344 7.812 38.412 24.088 33.203 48.828c-3.906 15.625 -8.463 29.297 -13.672 41.015c-26.041 69.011 -68.359 123.698 -126.953 164.063c-63.802 40.364 -131.51 60.547 -203.125 60.547c-96.354 -2.605 -178.385 -35.808 -246.093 -99.61c-67.709 -67.708 -102.214 -147.135 -103.516 -238.281c0 0 0 0 0 0m263.672 -562.5c1.302 -28.646 11.393 -52.409 30.273 -71.289c18.881 -18.88 41.992 -28.32 69.336 -28.32c28.646 1.302 52.409 11.393 71.289 30.273c18.881 18.88 28.321 41.992 28.321 69.336c-1.302 28.646 -11.719 52.409 -31.25 71.289c-19.532 18.88 -42.318 28.32 -68.36 28.32c-28.646 -1.302 -52.409 -11.393 -71.289 -30.273c-18.88 -18.88 -28.32 -41.992 -28.32 -69.336c0 0 0 0 0 0m46.875 208.984c0 0 1.953 0 1.953 0c-5.208 -23.437 1.953 -44.921 21.484 -64.453c15.625 -14.323 35.157 -21.484 58.594 -21.484c18.229 0 33.854 5.208 46.875 15.625c6.511 5.208 12.044 10.417 16.602 15.625c4.557 5.208 8.138 11.719 10.742 19.531c2.604 7.813 4.232 13.672 4.883 17.578c0.651 3.907 1.953 11.393 3.906 22.461c1.953 11.068 3.581 18.555 4.883 22.461c0 0 166.015 0 166.015 0c20.834 1.302 34.506 11.719 41.016 31.25c2.604 15.625 -0.651 28.646 -9.766 39.063c-9.114 10.416 -21.484 14.974 -37.109 13.672c0 0 -142.578 0 -142.578 0c0 0 21.484 105.468 21.484 105.468c0 0 181.641 0 181.641 0c31.25 1.302 52.734 14.323 64.453 39.063c0 0 162.109 283.203 162.109 283.203c10.417 22.135 7.162 41.667 -9.765 58.594c-14.323 13.02 -30.274 17.903 -47.852 14.648c-17.578 -3.255 -30.273 -13.346 -38.086 -30.273c0 0 -140.625 -244.141 -140.625 -244.141c-32.552 -1.302 -80.729 -1.628 -144.531 -0.977c-63.802 0.651 -100.26 0.977 -109.375 0.977c-39.063 -2.604 -61.849 -20.833 -68.359 -54.688c0 0 -58.594 -283.203 -58.594 -283.203" />
  </g>
</svg>