<svg height="1000" width="934" xmlns="http://www.w3.org/2000/svg"><path d="M.001 662.131q1.953-109.368 62.496-193.347 64.449-85.932 162.099-124.992 42.966-9.765 56.637 25.389 5.859 17.577-.977 33.201t-24.413 19.53q-78.12 33.201-123.039 95.697-44.919 68.355-46.872 144.522 3.906 107.415 78.12 179.676 82.026 74.214 185.535 74.214 85.932-1.953 152.334-46.872 70.308-48.825 97.65-121.086 5.859-15.624 9.765-31.248 11.718-41.013 50.778-31.248 41.013 11.718 33.201 48.825-5.859 23.436-13.671 41.013-39.06 103.509-126.945 164.052-95.697 60.543-203.112 60.543-144.522-3.906-246.078-99.603-101.556-101.556-103.509-238.266zm263.655-562.464q1.953-42.966 30.271-71.285t69.332-28.319q42.966 1.953 71.285 30.271t28.319 69.332q-1.953 42.966-31.248 71.285t-68.355 28.319q-42.966-1.953-71.285-30.271t-28.319-69.332zm46.872 208.971l1.953 0q-7.812-35.154 21.483-64.449 23.436-21.483 58.59-21.483 27.342 0 46.872 15.624 9.765 7.812 16.601 15.624t10.742 19.53 4.883 17.577 3.906 22.46 4.883 22.46l166.005 0q31.248 1.953 41.013 31.248 3.906 23.436-9.765 39.06t-37.107 13.671l-142.569 0l21.483 105.462l181.629 0q46.872 1.953 64.449 39.06l162.099 283.185q15.624 33.201-9.765 58.59-21.483 19.53-47.849 14.648t-38.084-30.271l-140.616-244.125q-48.825-1.953-144.522-.977t-109.368.977q-58.59-3.906-68.355-54.684z"/></svg>