<svg height="1000" width="1000" xmlns="http://www.w3.org/2000/svg"><path d="M0 499.968q0 -207.018 146.475 -353.493t353.493 -146.475 353.493 146.475 146.475 353.493 -146.475 353.493 -353.493 146.475 -353.493 -146.475 -146.475 -353.493zm218.736 281.232l562.464 0l0 -99.603l-62.496 0l0 -54.684l62.496 0l0 -99.603l-62.496 0l0 -54.684l62.496 0l0 -99.603l-62.496 0l0 -54.684l62.496 0l0 -99.603l-562.464 0l0 562.464zm109.368 -160.146l0 -87.885l1.953 0l103.509 -62.496q-44.919 -21.483 -44.919 -72.261 0 -33.201 23.436 -56.637t57.614 -23.436 57.614 23.436 23.436 56.637q0 50.778 -44.919 72.261l103.509 62.496l1.953 0l0 87.885l-283.185 0z"/></svg>