<svg height="1000px" width="1000px" xmlns="http://www.w3.org/2000/svg">
  <g>
    <path d="M0 1000c0 0 0 -1000 0 -1000c0 0 779.297 0 779.297 0c0 0 111.328 0 111.328 0c0 0 109.375 0 109.375 0c0 0 0 177.734 0 177.734c0 0 -109.375 0 -109.375 0c0 0 0 95.703 0 95.703c0 0 109.375 0 109.375 0c0 0 0 177.735 0 177.735c0 0 -109.375 0 -109.375 0c0 0 0 97.656 0 97.656c0 0 109.375 0 109.375 0c0 0 0 177.735 0 177.735c0 0 -109.375 0 -109.375 0c0 0 0 95.703 0 95.703c0 0 109.375 0 109.375 0c0 0 0 177.734 0 177.734c0 0 -109.375 0 -109.375 0c0 0 -111.328 0 -111.328 0c0 0 -779.297 0 -779.297 0c0 0 0 0 0 0m193.359 -285.156c0 0 503.907 0 503.907 0c0 0 0 -154.297 0 -154.297c0 0 -187.5 -111.328 -187.5 -111.328c24.739 -13.021 44.27 -30.925 58.593 -53.711c14.323 -22.787 21.485 -48.503 21.485 -77.149c0 -39.062 -13.998 -72.916 -41.992 -101.562c-27.995 -28.646 -62.175 -42.969 -102.539 -42.969c-40.365 0 -74.545 14.323 -102.54 42.969c-27.994 28.646 -41.992 62.5 -41.992 101.562c0 28.646 7.487 54.362 22.461 77.149c14.974 22.786 34.18 40.69 57.617 53.711c0 0 -187.5 111.328 -187.5 111.328c0 0 0 154.297 0 154.297c0 0 0 0 0 0" />
  </g>
</svg>