<svg height="1000px" width="1000px" xmlns="http://www.w3.org/2000/svg">
  <g>
    <path d="M0 500c0 -138.021 48.828 -255.859 146.484 -353.516c97.657 -97.656 215.495 -146.484 353.516 -146.484c138.021 0 255.859 48.828 353.516 146.484c97.656 97.657 146.484 215.495 146.484 353.516c0 138.021 -48.828 255.859 -146.484 353.516c-97.657 97.656 -215.495 146.484 -353.516 146.484c-138.021 0 -255.859 -48.828 -353.516 -146.484c-97.656 -97.657 -146.484 -215.495 -146.484 -353.516c0 0 0 0 0 0m218.75 281.25c0 0 437.5 0 437.5 0c0 0 62.5 0 62.5 0c0 0 62.5 0 62.5 0c0 0 0 -99.609 0 -99.609c0 0 -62.5 0 -62.5 0c0 0 0 -54.688 0 -54.688c0 0 62.5 0 62.5 0c0 0 0 -99.609 0 -99.609c0 0 -62.5 0 -62.5 0c0 0 0 -54.688 0 -54.688c0 0 62.5 0 62.5 0c0 0 0 -99.609 0 -99.609c0 0 -62.5 0 -62.5 0c0 0 0 -54.688 0 -54.688c0 0 62.5 0 62.5 0c0 0 0 -99.609 0 -99.609c0 0 -62.5 0 -62.5 0c0 0 -62.5 0 -62.5 0c0 0 -437.5 0 -437.5 0c0 0 0 562.5 0 562.5c0 0 0 0 0 0m109.375 -160.156c0 0 0 -87.891 0 -87.891c0 0 1.953 0 1.953 0c0 0 103.516 -62.5 103.516 -62.5c-29.948 -14.323 -44.922 -38.411 -44.922 -72.266c0 -22.135 7.812 -41.015 23.437 -56.64c15.625 -15.625 34.831 -23.438 57.618 -23.438c22.786 0 41.992 7.813 57.617 23.438c15.625 15.625 23.437 34.505 23.437 56.64c0 33.855 -14.974 57.943 -44.922 72.266c0 0 103.516 62.5 103.516 62.5c0 0 1.953 0 1.953 0c0 0 0 87.891 0 87.891c0 0 -283.203 0 -283.203 0c0 0 0 0 0 0" />
  </g>
</svg>