<svg height="1000px" width="1000px" xmlns="http://www.w3.org/2000/svg">
  <g>
    <path d="M0 500c0 -138.021 48.828 -255.859 146.484 -353.516c97.657 -97.656 215.495 -146.484 353.516 -146.484c138.021 0 255.859 48.828 353.516 146.484c97.656 97.657 146.484 215.495 146.484 353.516c0 138.021 -48.828 255.859 -146.484 353.516c-97.657 97.656 -215.495 146.484 -353.516 146.484c-138.021 0 -255.859 -48.828 -353.516 -146.484c-97.656 -97.657 -146.484 -215.495 -146.484 -353.516c0 0 0 0 0 0m146.484 0c0 97.656 34.506 180.99 103.516 250c69.01 69.01 152.344 103.516 250 103.516c0 0 0 -707.032 0 -707.032c-97.656 0 -180.99 34.506 -250 103.516c-69.01 69.01 -103.516 152.344 -103.516 250c0 0 0 0 0 0" />
  </g>
</svg>