<svg height="1000" width="762" xmlns="http://www.w3.org/2000/svg"><path d="M0 982.359l0 -289.044q0 -103.509 59.567 -177.723t157.216 -74.214l330.057 0q101.556 1.953 158.193 76.167t56.637 175.77l0 289.044q0 17.577 -17.577 17.577l-105.462 0q-15.624 0 -15.624 -17.577l0 -251.937q-5.859 -27.342 -27.342 -24.413t-21.483 24.413l0 251.937q-1.953 17.577 -19.53 17.577l-351.54 0q-17.577 0 -17.577 -17.577l0 -251.937q-3.906 -27.342 -25.389 -24.413t-23.436 24.413l0 251.937q0 17.577 -17.577 17.577l-101.556 0q-17.577 0 -17.577 -17.577zm185.535 -783.153q0 -82.026 59.567 -140.616t139.639 -58.59q85.932 3.906 142.569 60.543t58.59 138.663q-1.953 83.979 -60.543 142.569t-140.616 58.59q-83.979 -1.953 -141.593 -60.543t-57.614 -140.616z"/></svg>