<svg height="1000px" width="1000px" xmlns="http://www.w3.org/2000/svg">
  <g>
    <path d="M119.140625 982.421875c0 0 0 -289.063 0 -289.063c0 -69.01 19.857 -128.255 59.57 -177.734c39.714 -49.479 92.123 -74.219 157.227 -74.219c0 0 167.969 0 167.969 0c0 0 162.109 0 162.109 0c67.708 1.302 120.443 26.693 158.203 76.172c37.761 49.479 56.641 108.073 56.641 175.782c0 0 0 289.062 0 289.062c0 11.719 -5.86 17.578 -17.578 17.578c0 0 -105.469 0 -105.469 0c-10.417 0 -15.625 -5.859 -15.625 -17.578c0 0 0 -251.953 0 -251.953c-3.906 -18.229 -13.021 -26.367 -27.344 -24.414c-14.323 1.953 -21.484 10.091 -21.484 24.414c0 0 0 251.953 0 251.953c-1.302 11.719 -7.813 17.578 -19.531 17.578c0 0 -351.563 0 -351.563 0c-11.719 0 -17.578 -5.859 -17.578 -17.578c0 0 0 -251.953 0 -251.953c-2.604 -18.229 -11.068 -26.367 -25.391 -24.414c-14.323 1.953 -22.135 10.091 -23.437 24.414c0 0 0 251.953 0 251.953c0 11.719 -5.86 17.578 -17.578 17.578c0 0 -101.563 0 -101.563 0c-11.719 0 -17.578 -5.859 -17.578 -17.578c0 0 0 0 0 0m185.547 -783.203c0 -54.688 19.857 -101.563 59.57 -140.625c39.714 -39.063 86.263 -58.594 139.649 -58.594c57.291 2.604 104.817 22.787 142.578 60.547c37.76 37.76 57.291 83.984 58.594 138.672c-1.303 55.989 -21.485 103.515 -60.547 142.578c-39.063 39.063 -85.938 58.594 -140.625 58.594c-55.99 -1.302 -103.19 -21.485 -141.602 -60.547c-38.411 -39.063 -57.617 -85.938 -57.617 -140.625c0 0 0 0 0 0" />
  </g>
</svg>