<svg height="1000px" width="1000px" xmlns="http://www.w3.org/2000/svg">
  <g>
    <path d="M0 939.453125c0 0 0 -156.25 0 -156.25c0 0 1000 0 1000 0c0 0 0 156.25 0 156.25c0 0 -1000 0 -1000 0c0 0 0 0 0 0m105.469 -482.422c0 0 0 -156.25 0 -156.25c0 0 789.062 0 789.062 0c0 0 0 156.25 0 156.25c0 0 -789.062 0 -789.062 0c0 0 0 0 0 0m89.844 242.188c0 0 0 -156.25 0 -156.25c0 0 609.375 0 609.375 0c0 0 0 156.25 0 156.25c0 0 -609.375 0 -609.375 0c0 0 0 0 0 0m46.875 -482.422c0 0 0 -156.25 0 -156.25c0 0 515.625 0 515.625 0c0 0 0 156.25 0 156.25c0 0 -515.625 0 -515.625 0c0 0 0 0 0 0" />
  </g>
</svg>