<svg height="1000px" width="1000px" xmlns="http://www.w3.org/2000/svg">
  <g>
    <path d="M0 939.453125c0 0 0 -156.25 0 -156.25c0 0 1000 0 1000 0c0 0 0 156.25 0 156.25c0 0 -1000 0 -1000 0c0 0 0 0 0 0m0 -240.234c0 0 0 -156.25 0 -156.25c0 0 1000 0 1000 0c0 0 0 156.25 0 156.25c0 0 -1000 0 -1000 0c0 0 0 0 0 0m0 -242.188c0 0 0 -156.25 0 -156.25c0 0 1000 0 1000 0c0 0 0 156.25 0 156.25c0 0 -1000 0 -1000 0c0 0 0 0 0 0m0 -240.234c0 0 0 -156.25 0 -156.25c0 0 1000 0 1000 0c0 0 0 156.25 0 156.25c0 0 -1000 0 -1000 0c0 0 0 0 0 0" />
  </g>
</svg>