<svg height="1000px" width="1000px" xmlns="http://www.w3.org/2000/svg">
  <g>
    <path d="M0 1000c0 0 0 -402.344 0 -402.344c0 0 402.344 0 402.344 0c0 0 -160.156 160.157 -160.156 160.157c71.614 71.614 157.552 107.421 257.812 107.421c83.333 0 157.227 -25.065 221.68 -75.195c64.453 -50.13 107.747 -114.258 129.882 -192.383c0 0 138.672 0 138.672 0c-23.437 115.886 -81.054 211.914 -172.851 288.086c-91.797 76.172 -197.591 114.258 -317.383 114.258c-138.021 0 -255.859 -48.828 -353.516 -146.484c0 0 -146.484 146.484 -146.484 146.484m9.766 -597.656c23.437 -115.886 81.054 -211.914 172.851 -288.086c91.797 -76.172 197.591 -114.258 317.383 -114.258c138.021 0 255.859 48.828 353.516 146.484c0 0 146.484 -146.484 146.484 -146.484c0 0 0 402.344 0 402.344c0 0 -148.438 0 -148.438 0c0 0 -253.906 0 -253.906 0c0 0 160.156 -160.157 160.156 -160.157c-71.614 -71.614 -157.552 -107.421 -257.812 -107.421c-83.333 0 -157.227 25.065 -221.68 75.195c-64.453 50.13 -107.747 114.258 -129.883 192.383c0 0 -138.671 0 -138.671 0c0 0 0 0 0 0" />
  </g>
</svg>