<svg height="1000" width="1000" xmlns="http://www.w3.org/2000/svg"><path d="M0 1000l0-402.318l402.318 0l-160.146 160.146q107.415 107.415 257.796 107.415 124.992 0 221.666-75.191t129.875-192.37l138.663 0q-35.154 173.817-172.841 288.067t-317.363 114.251q-207.018 0-353.493-146.475zm9.765-597.618q35.154-173.817 172.841-288.067t317.363-114.251q207.018 0 353.493 146.475l146.475-146.475l0 402.318l-402.318 0l160.146-160.146q-107.415-107.415-257.796-107.415-124.992 0-221.666 75.191t-129.875 192.37l-138.663 0z"/></svg>