<svg height="1000px" width="1000px" xmlns="http://www.w3.org/2000/svg">
  <g>
    <path d="M0 138.671875c-2.604 -24.74 2.604 -42.318 15.625 -52.734c13.021 -10.417 27.995 -12.045 44.922 -4.883c16.927 7.161 28.646 19.857 35.156 38.086c0 0 52.734 183.594 52.734 183.594c-10.416 19.531 -14.973 41.015 -13.671 64.453c3.906 19.531 15.625 87.239 35.156 203.125c5.208 35.156 15.95 62.5 32.226 82.031c16.276 19.531 38.086 29.297 65.43 29.297c31.25 0 55.99 -12.37 74.219 -37.11c22.135 26.042 49.479 38.412 82.031 37.11c32.552 -1.302 57.292 -14.974 74.219 -41.016c18.229 24.74 41.992 38.412 71.289 41.016c29.297 2.604 53.711 -6.511 73.242 -27.344c7.813 -10.417 14.323 -20.833 19.531 -31.25c5.209 -10.417 9.115 -22.786 11.719 -37.109c2.604 -14.323 4.232 -25.391 4.883 -33.203c0.651 -7.813 0.976 -21.159 0.976 -40.04c0 0 0 -38.086 0 -38.086c16.928 6.511 37.11 -1.302 60.547 -23.437c32.552 -29.948 69.011 -55.99 109.375 -78.125c40.365 -22.135 72.917 -24.74 97.657 -7.813c22.135 15.625 32.552 35.157 31.25 58.594c-1.302 23.438 -13.021 41.667 -35.157 54.688c-40.364 16.927 -75.195 44.271 -104.492 82.031c-29.297 37.76 -51.432 75.195 -66.406 112.305c-14.974 37.109 -34.18 76.172 -57.617 117.187c-23.438 41.016 -49.479 71.94 -78.125 92.774c-14.323 11.718 -36.459 17.578 -66.407 17.578c0 0 -349.609 0 -349.609 0c-55.989 -3.907 -91.146 -42.969 -105.469 -117.188c0 0 -115.234 -644.531 -115.234 -644.531m181.641 234.375c-3.907 -29.948 2.929 -51.758 20.507 -65.43c17.579 -13.672 36.459 -16.276 56.641 -7.812c20.182 8.463 32.227 24.414 36.133 47.851c0 0 21.484 208.985 21.484 208.985c2.604 27.343 -2.929 48.502 -16.601 63.476c-13.672 14.974 -29.297 19.857 -46.875 14.649c-17.578 -5.209 -29.623 -20.183 -36.133 -44.922c0 0 -35.156 -216.797 -35.156 -216.797m154.297 -70.313c1.302 -27.343 12.044 -45.898 32.226 -55.664c20.182 -9.765 41.016 -9.44 62.5 0.977c21.484 10.417 33.529 26.693 36.133 48.828c0 0 7.812 248.047 7.812 248.047c0 39.063 -9.44 64.453 -28.32 76.172c-18.88 11.719 -37.76 10.091 -56.641 -4.883c-18.88 -14.974 -28.971 -35.482 -30.273 -61.523c0 0 -23.437 -251.953 -23.437 -251.953m175.781 -3.907c2.604 -28.646 14.648 -46.875 36.133 -54.687c21.484 -7.813 42.317 -5.534 62.5 6.836c20.182 12.369 30.273 29.622 30.273 51.757c0 0 -5.859 253.907 -5.859 253.907c-3.907 31.25 -15.3 53.385 -34.18 66.406c-18.88 13.021 -37.109 12.695 -54.688 -0.977c-17.578 -13.671 -27.018 -36.132 -28.32 -67.382c0 0 -5.859 -255.86 -5.859 -255.86" />
  </g>
</svg>