<svg height="1000" width="979" xmlns="http://www.w3.org/2000/svg"><path d="M.651 149.99q-3.906 -37.107 15.624 -52.731t44.919 -4.883 35.154 38.084l52.731 183.582q-15.624 29.295 -13.671 64.449 5.859 29.295 35.154 203.112 7.812 52.731 32.224 82.026t65.425 29.295q46.872 0 74.214 -37.107 33.201 39.06 82.026 37.107t74.214 -41.013q27.342 37.107 71.285 41.013t73.237 -27.342q11.718 -15.624 19.53 -31.248t11.718 -37.107 4.883 -33.201 .977 -40.037l0 -38.084q25.389 9.765 60.543 -23.436 48.825 -44.919 109.368 -78.12t97.65 -7.812q33.201 23.436 31.248 58.59t-35.154 54.684q-60.543 25.389 -104.486 82.026t-66.402 112.297 -57.614 117.18 -78.12 92.767q-21.483 17.577 -66.402 17.577l-349.587 0q-83.979 -5.859 -105.462 -117.18zm181.629 234.36q-5.859 -44.919 20.506 -65.425t56.637 -7.812 36.13 47.849l21.483 208.971q3.906 41.013 -16.601 63.473t-46.872 14.648 -36.13 -44.919zm154.287 -70.308q1.953 -41.013 32.224 -55.66t62.496 .977 36.13 48.825l7.812 248.031q0 58.59 -28.319 76.167t-56.637 -4.883 -30.271 -61.52zm175.77 -3.906q3.906 -42.966 36.13 -54.684t62.496 6.836 30.271 51.755l-5.859 253.89q-5.859 46.872 -34.178 66.402t-54.684 -.977 -28.319 -67.379z"/></svg>