<svg height="1000px" width="1000px" xmlns="http://www.w3.org/2000/svg">
  <g>
    <path d="M0 455.078125c0 0 56.641 -175.781 56.641 -175.781c0 0 351.562 115.234 351.562 115.234c0 0 0 -369.14 0 -369.14c0 0 183.594 0 183.594 0c0 0 0 369.14 0 369.14c0 0 351.562 -115.234 351.562 -115.234c0 0 56.641 175.781 56.641 175.781c0 0 -351.563 113.281 -351.563 113.281c0 0 216.797 298.828 216.797 298.828c0 0 -148.437 107.422 -148.437 107.422c0 0 -216.797 -298.828 -216.797 -298.828c0 0 -216.797 298.828 -216.797 298.828c0 0 -148.437 -107.422 -148.437 -107.422c0 0 216.797 -298.828 216.797 -298.828c0 0 -351.563 -113.281 -351.563 -113.281" />
  </g>
</svg>