<svg height="1000px" width="1000px" xmlns="http://www.w3.org/2000/svg">
  <g>
    <path d="M0 500c0 -138.021 48.828 -255.859 146.484 -353.516c97.657 -97.656 215.495 -146.484 353.516 -146.484c138.021 0 255.859 48.828 353.516 146.484c97.656 97.657 146.484 215.495 146.484 353.516c0 138.021 -48.828 255.859 -146.484 353.516c-97.657 97.656 -215.495 146.484 -353.516 146.484c-138.021 0 -255.859 -48.828 -353.516 -146.484c-97.656 -97.657 -146.484 -215.495 -146.484 -353.516c0 0 0 0 0 0m218.75 179.687c-2.604 35.157 11.068 67.709 41.016 97.657c23.437 23.437 49.479 35.156 78.125 35.156c33.854 -1.302 65.755 -16.276 95.703 -44.922c19.531 -20.833 62.825 -64.779 129.883 -131.836c67.057 -67.057 118.815 -118.164 155.273 -153.32c29.948 -32.552 49.479 -63.802 58.594 -93.75c13.021 -54.688 -2.604 -104.167 -46.875 -148.438c-35.157 -35.156 -72.266 -52.734 -111.328 -52.734c0 0 -7.813 0 -7.813 0c-41.667 1.302 -83.333 22.135 -125 62.5c0 0 -261.719 263.672 -261.719 263.672c0 0 42.969 42.969 42.969 42.969c0 0 261.719 -261.719 261.719 -261.719c35.156 -33.854 67.057 -49.479 95.703 -46.875c28.646 3.906 53.06 19.531 73.242 46.875c20.182 27.344 27.018 53.385 20.508 78.125c-2.604 3.906 -4.557 8.138 -5.859 12.695c-1.302 4.557 -3.256 8.789 -5.86 12.695c-2.604 3.907 -4.883 7.162 -6.836 9.766c-1.953 2.604 -4.557 5.859 -7.812 9.766c-3.255 3.906 -5.534 7.161 -6.836 9.765c-1.302 2.605 -4.232 5.86 -8.789 9.766c-4.557 3.906 -7.487 6.836 -8.789 8.789c-1.302 1.953 -4.558 5.208 -9.766 9.766c-5.208 4.557 -8.463 7.487 -9.766 8.789c0 0 -122.07 122.07 -122.07 122.07c0 0 -135.742 135.742 -135.742 135.742c-18.229 16.927 -33.529 26.367 -45.898 28.321c-12.37 1.953 -27.019 -3.581 -43.946 -16.602c-15.625 -16.927 -22.786 -33.203 -21.484 -48.828c1.302 -14.323 9.765 -28.646 25.39 -42.969c0 0 240.235 -240.234 240.235 -240.234c22.135 -22.136 37.109 -29.948 44.922 -23.438c5.208 11.719 -1.953 27.344 -21.485 46.875c0 0 -220.703 220.703 -220.703 220.703c0 0 42.969 42.969 42.969 42.969c0 0 220.703 -220.703 220.703 -220.703c49.479 -50.781 57.292 -94.401 23.438 -130.859c-40.365 -33.855 -84.636 -26.693 -132.813 21.484c0 0 -240.234 240.234 -240.234 240.234c-24.74 24.74 -39.063 51.433 -42.969 80.078c0 0 0 0 0 0" />
  </g>
</svg>