<svg height="1000px" width="1000px" xmlns="http://www.w3.org/2000/svg">
  <g>
    <path d="M52.734375 783.203125c5.208 -45.573 27.344 -87.891 66.406 -126.953c0 0 382.813 -382.813 382.813 -382.813c78.125 -76.823 148.437 -87.89 210.937 -33.203c55.99 57.292 44.271 126.953 -35.156 208.985c0 0 -353.516 351.562 -353.516 351.562c0 0 -66.406 -70.312 -66.406 -70.312c0 0 349.61 -349.61 349.61 -349.61c1.302 0 3.906 -1.953 7.812 -5.859c0 0 7.813 -7.813 7.813 -7.813c0 0 2.278 -2.929 6.835 -8.789c4.558 -5.859 6.836 -9.114 6.836 -9.765c0 -0.651 1.953 -3.907 5.86 -9.766c3.906 -5.859 5.208 -9.44 3.906 -10.742c0 0 0 -9.766 0 -9.766c0 0 -0.651 -3.906 -1.953 -11.719c-13.021 -11.718 -37.761 0.652 -74.219 37.11c0 0 -380.859 380.859 -380.859 380.859c-24.74 23.438 -38.412 46.224 -41.016 68.36c-2.604 26.041 9.115 52.083 35.156 78.125c27.344 22.135 50.456 31.575 69.336 28.32c18.881 -3.255 42.644 -18.555 71.289 -45.899c54.688 -53.385 127.279 -125 217.774 -214.843c90.495 -89.844 155.273 -154.948 194.336 -195.313c1.302 -1.302 7.161 -6.836 17.578 -16.601c10.417 -9.766 16.276 -15.625 17.578 -17.578c1.302 -1.954 6.185 -7.162 14.648 -15.625c8.464 -8.464 13.672 -14.323 15.625 -17.579c1.954 -3.255 5.86 -8.789 11.719 -16.601c5.86 -7.813 10.091 -14.323 12.695 -19.531c2.605 -5.209 6.185 -11.719 10.743 -19.532c4.557 -7.812 8.138 -16.276 10.742 -25.39c10.417 -37.761 -0.651 -78.776 -33.203 -123.047c-32.552 -44.271 -70.964 -69.011 -115.235 -74.219c-45.573 -5.208 -96.354 18.88 -152.343 72.266c0 0 -417.969 417.968 -417.969 417.968c0 0 -68.36 -66.406 -68.36 -66.406c0 0 417.969 -419.922 417.969 -419.922c65.104 -63.802 131.511 -97.33 199.219 -100.586c67.708 -3.255 130.859 24.414 189.453 83.008c70.313 71.615 95.052 150.391 74.219 236.328c-13.021 49.48 -44.271 99.61 -93.75 150.391c-57.292 55.99 -139.323 137.37 -246.094 244.141c0 0 -208.984 208.984 -208.984 208.984c-46.875 46.875 -97.005 70.964 -150.391 72.266c-45.573 0 -87.239 -18.881 -125 -56.641c-46.875 -46.875 -68.359 -98.958 -64.453 -156.25c0 0 0 0 0 0" />
  </g>
</svg>