<svg height="1000" width="1000" xmlns="http://www.w3.org/2000/svg"><path d="M0 499.968q0 -207.018 146.475 -353.493t353.493 -146.475 353.493 146.475 146.475 353.493 -146.475 353.493 -353.493 146.475 -353.493 -146.475 -146.475 -353.493zm218.736 179.676q-3.906 52.731 41.013 97.65 35.154 35.154 78.12 35.154 50.778 -1.953 95.697 -44.919 29.295 -31.248 129.875 -131.828t155.263 -153.311q44.919 -48.825 58.59 -93.744 19.53 -82.026 -46.872 -148.428 -52.731 -52.731 -111.321 -52.731l-7.812 0q-62.496 1.953 -124.992 62.496l-261.702 263.655 42.966 42.966 261.702 -261.702q52.731 -50.778 95.697 -46.872 42.966 5.859 73.237 46.872t20.506 78.12q-3.906 5.859 -5.859 12.694t-5.859 12.694 -6.836 9.765 -7.812 9.765 -6.836 9.765 -8.789 9.765 -8.789 8.789 -9.765 9.765 -9.765 8.789l-122.063 122.063 -135.733 135.733q-27.342 25.389 -45.895 28.319t-43.943 -16.601q-23.436 -25.389 -21.483 -48.825 1.953 -21.483 25.389 -42.966l240.219 -240.219q33.201 -33.201 44.919 -23.436 7.812 17.577 -21.483 46.872l-220.689 220.689 42.966 42.966 220.689 -220.689q74.214 -76.167 23.436 -130.851 -60.543 -50.778 -132.804 21.483l-240.219 240.219q-37.107 37.107 -42.966 80.073z"/></svg>