<svg height="1000px" width="1000px" xmlns="http://www.w3.org/2000/svg">
  <g>
    <path d="M0 931.640625c0 0 0 -863.281 0 -863.281c0 0 83.984 0 83.984 0c0 0 0 863.281 0 863.281c0 0 -83.984 0 -83.984 0c0 0 0 0 0 0m123.047 0c0 0 0 -863.281 0 -863.281c0 0 19.531 0 19.531 0c0 0 0 863.281 0 863.281c0 0 -19.531 0 -19.531 0c0 0 0 0 0 0m70.312 0c0 0 0 -863.281 0 -863.281c0 0 62.5 0 62.5 0c0 0 0 863.281 0 863.281c0 0 -62.5 0 -62.5 0c0 0 0 0 0 0m91.797 0c0 0 0 -863.281 0 -863.281c0 0 27.344 0 27.344 0c0 0 0 863.281 0 863.281c0 0 -27.344 0 -27.344 0c0 0 0 0 0 0m103.516 0c0 0 0 -863.281 0 -863.281c0 0 41.016 0 41.016 0c0 0 0 863.281 0 863.281c0 0 -41.016 0 -41.016 0c0 0 0 0 0 0m56.641 0c0 0 0 -863.281 0 -863.281c0 0 17.578 0 17.578 0c0 0 0 863.281 0 863.281c0 0 -17.578 0 -17.578 0c0 0 0 0 0 0m60.546 0c0 0 0 -863.281 0 -863.281c0 0 19.532 0 19.532 0c0 0 0 863.281 0 863.281c0 0 -19.532 0 -19.532 0c0 0 0 0 0 0m44.922 0c0 0 0 -863.281 0 -863.281c0 0 82.032 0 82.032 0c0 0 0 863.281 0 863.281c0 0 -82.032 0 -82.032 0c0 0 0 0 0 0m111.328 0c0 0 0 -863.281 0 -863.281c0 0 42.969 0 42.969 0c0 0 0 863.281 0 863.281c0 0 -42.969 0 -42.969 0c0 0 0 0 0 0m101.563 0c0 0 0 -863.281 0 -863.281c0 0 9.766 0 9.766 0c0 0 0 863.281 0 863.281c0 0 -9.766 0 -9.766 0c0 0 0 0 0 0m25.391 0c0 0 0 -863.281 0 -863.281c0 0 27.343 0 27.343 0c0 0 0 863.281 0 863.281c0 0 -27.343 0 -27.343 0c0 0 0 0 0 0m68.359 0c0 0 0 -863.281 0 -863.281c0 0 19.531 0 19.531 0c0 0 0 863.281 0 863.281c0 0 -19.531 0 -19.531 0c0 0 0 0 0 0m60.547 0c0 0 0 -863.281 0 -863.281c0 0 82.031 0 82.031 0c0 0 0 863.281 0 863.281c0 0 -82.031 0 -82.031 0c0 0 0 0 0 0" />
  </g>
</svg>