<svg height="1000" width="1000" xmlns="http://www.w3.org/2000/svg"><path d="M0 931.726l0 -863.226l83.979 0l0 863.226l-83.979 0zm123.039 0l0 -863.226l19.53 0l0 863.226l-19.53 0zm70.308 0l0 -863.226l62.496 0l0 863.226l-62.496 0zm91.791 0l0 -863.226l27.342 0l0 863.226l-27.342 0zm103.509 0l0 -863.226l41.013 0l0 863.226l-41.013 0zm56.637 0l0 -863.226l17.577 0l0 863.226l-17.577 0zm60.543 0l0 -863.226l19.53 0l0 863.226l-19.53 0zm44.919 0l0 -863.226l82.026 0l0 863.226l-82.026 0zm111.321 0l0 -863.226l42.966 0l0 863.226l-42.966 0zm101.556 0l0 -863.226l9.765 0l0 863.226l-9.765 0zm25.389 0l0 -863.226l27.342 0l0 863.226l-27.342 0zm68.355 0l0 -863.226l19.53 0l0 863.226l-19.53 0zm60.543 0l0 -863.226l82.026 0l0 863.226l-82.026 0z"/></svg>