<svg height="1000px" width="1000px" xmlns="http://www.w3.org/2000/svg">
  <g>
    <path d="M0 500c0 -138.021 48.828 -255.859 146.484 -353.516c97.657 -97.656 215.495 -146.484 353.516 -146.484c138.021 0 255.859 48.828 353.516 146.484c97.656 97.657 146.484 215.495 146.484 353.516c0 138.021 -48.828 255.859 -146.484 353.516c-97.657 97.656 -215.495 146.484 -353.516 146.484c-138.021 0 -255.859 -48.828 -353.516 -146.484c-97.656 -97.657 -146.484 -215.495 -146.484 -353.516c0 0 0 0 0 0m212.891 -246.094c3.906 7.813 9.765 13.021 17.578 15.625c0 0 68.359 21.485 68.359 21.485c0 0 25.391 246.093 25.391 246.093c0 0 -15.625 87.891 -15.625 87.891c-1.302 9.115 0.976 16.927 6.836 23.438c5.859 6.51 13.346 10.416 22.461 11.718c0 0 376.953 0 376.953 0c7.812 0 14.648 -2.929 20.508 -8.789c5.859 -5.859 8.789 -12.695 8.789 -20.508c0 -7.812 -2.93 -14.648 -8.789 -20.507c-5.86 -5.86 -12.696 -9.441 -20.508 -10.743c0 0 -341.797 0 -341.797 0c0 0 7.812 -39.062 7.812 -39.062c0 0 357.422 0 357.422 0c15.625 0 25.391 -8.464 29.297 -25.391c0 0 25.391 -140.625 25.391 -140.625c1.302 -7.812 -0.651 -15.299 -5.86 -22.461c-5.208 -7.161 -12.369 -11.393 -21.484 -12.695c0 0 -402.344 -44.922 -402.344 -44.922c0 0 -5.859 -48.828 -5.859 -48.828c-1.302 -13.021 -7.813 -22.135 -19.531 -27.344c0 0 -89.844 -27.344 -89.844 -27.344c-7.813 -2.604 -15.625 -1.953 -23.438 1.954c-16.927 10.416 -20.833 24.088 -11.718 41.015c0 0 0 0 0 0m123.046 470.703c0 13.021 4.558 24.089 13.672 33.204c9.115 9.114 20.183 13.671 33.203 13.671c13.021 0 24.089 -4.557 33.204 -13.671c9.114 -9.115 13.671 -20.183 13.671 -33.204c0 -13.02 -4.557 -24.088 -13.671 -33.203c-9.115 -9.114 -20.183 -13.672 -33.204 -13.672c-13.02 0 -24.088 4.558 -33.203 13.672c-9.114 9.115 -13.672 20.183 -13.672 33.203c0 0 0 0 0 0m275.391 0c0 13.021 4.557 24.089 13.672 33.204c9.115 9.114 20.182 13.671 33.203 13.671c13.021 0 24.089 -4.557 33.203 -13.671c9.115 -9.115 13.672 -20.183 13.672 -33.204c0 -13.02 -4.557 -24.088 -13.672 -33.203c-9.114 -9.114 -20.182 -13.672 -33.203 -13.672c-13.021 0 -24.088 4.558 -33.203 13.672c-9.115 9.115 -13.672 20.183 -13.672 33.203c0 0 0 0 0 0" />
  </g>
</svg>