<svg height="1000" width="993" xmlns="http://www.w3.org/2000/svg"><path d="M2.424 58.898q7.812 -19.53 26.366 -29.295t38.084 -3.906l150.381 48.825q31.248 9.765 35.154 42.966l9.765 83.979 685.503 76.167q23.436 5.859 35.154 22.46t9.765 38.084l-42.966 238.266q-7.812 42.966 -48.825 42.966l-607.383 0l-11.718 68.355l578.088 0q21.483 0 36.13 14.648t14.648 36.13q-1.953 21.483 -16.601 36.13t-34.178 14.648l-640.584 0q-25.389 -1.953 -39.06 -19.53t-11.718 -41.013l27.342 -148.428 -41.013 -417.942 -119.133 -39.06q-44.919 -17.577 -33.201 -64.449zm216.783 838.813q0 -32.224 23.436 -55.66t55.66 -23.436 55.66 23.436 23.436 55.66 -23.436 55.66 -55.66 23.436 -55.66 -23.436 -23.436 -55.66zm468.72 0q0 -32.224 23.436 -55.66t55.66 -23.436 55.66 23.436 23.436 55.66 -23.436 55.66 -55.66 23.436 -55.66 -23.436 -23.436 -55.66z"/></svg>