<svg height="1000px" width="1000px" xmlns="http://www.w3.org/2000/svg">
  <g>
    <path d="M1.953125 54.6875c5.208 -13.021 13.997 -22.786 26.367 -29.297c12.37 -6.51 25.065 -7.812 38.086 -3.906c0 0 150.391 48.828 150.391 48.828c20.833 6.51 32.552 20.833 35.156 42.969c0 0 9.766 83.984 9.766 83.984c0 0 685.546 76.172 685.546 76.172c15.625 3.906 27.344 11.393 35.157 22.461c7.812 11.068 11.067 23.763 9.765 38.086c0 0 -42.968 238.281 -42.968 238.281c-5.209 28.646 -21.485 42.969 -48.829 42.969c0 0 -607.421 0 -607.421 0c0 0 -11.719 68.359 -11.719 68.359c0 0 578.125 0 578.125 0c14.323 0 26.367 4.883 36.133 14.649c9.765 9.765 14.648 21.81 14.648 36.132c-1.302 14.323 -6.836 26.368 -16.601 36.133c-9.766 9.766 -21.159 14.649 -34.18 14.649c0 0 -640.625 0 -640.625 0c-16.927 -1.302 -29.948 -7.813 -39.063 -19.532c-9.114 -11.718 -13.02 -25.39 -11.718 -41.015c0 0 27.343 -148.438 27.343 -148.438c0 0 -41.015 -417.968 -41.015 -417.968c0 0 -119.141 -39.063 -119.141 -39.063c-29.948 -11.719 -41.016 -33.203 -33.203 -64.453c0 0 0 0 0 0m216.797 838.867c0 -21.484 7.812 -40.039 23.437 -55.664c15.625 -15.625 34.18 -23.437 55.664 -23.437c21.485 0 40.039 7.812 55.664 23.437c15.625 15.625 23.438 34.18 23.438 55.664c0 21.485 -7.813 40.039 -23.438 55.664c-15.625 15.625 -34.179 23.438 -55.664 23.438c-21.484 0 -40.039 -7.813 -55.664 -23.438c-15.625 -15.625 -23.437 -34.179 -23.437 -55.664c0 0 0 0 0 0m468.75 0c0 -21.484 7.812 -40.039 23.437 -55.664c15.625 -15.625 34.18 -23.437 55.664 -23.437c21.485 0 40.039 7.812 55.664 23.437c15.625 15.625 23.438 34.18 23.438 55.664c0 21.485 -7.813 40.039 -23.438 55.664c-15.625 15.625 -34.179 23.438 -55.664 23.438c-21.484 0 -40.039 -7.813 -55.664 -23.438c-15.625 -15.625 -23.437 -34.179 -23.437 -55.664c0 0 0 0 0 0" />
  </g>
</svg>