<svg height="1000" width="1000" xmlns="http://www.w3.org/2000/svg"><path d="M0 500.032q0-207.018 146.475-353.493t353.493-146.475 353.493 146.475 146.475 353.493-146.475 353.493-353.493 146.475-353.493-146.475-146.475-353.493zm212.877-246.078q5.859 11.718 17.577 15.624l68.355 21.483 25.389 246.078-15.624 87.885q-1.953 13.671 6.836 23.436t22.46 11.718l376.929 0q11.718 0 20.506-8.789t8.789-20.506-8.789-20.506-20.506-10.742l-341.775 0l7.812-39.06l357.399 0q23.436 0 29.295-25.389l25.389-140.616q1.953-11.718-5.859-22.46t-21.483-12.694l-402.318-44.919-5.859-48.825q-1.953-19.53-19.53-27.342l-89.838-27.342q-11.718-3.906-23.436 1.953-25.389 15.624-11.718 41.013zm123.039 470.673q0 19.53 13.671 33.201t33.201 13.671 33.201-13.671 13.671-33.201-13.671-33.201-33.201-13.671-33.201 13.671-13.671 33.201zm275.373 0q0 19.53 13.671 33.201t33.201 13.671 33.201-13.671 13.671-33.201-13.671-33.201-33.201-13.671-33.201 13.671-13.671 33.201z"/></svg>