<svg height="1000" width="1000" xmlns="http://www.w3.org/2000/svg"><path d="M0 1000l0-999.936l999.936 0l0 999.936l-999.936 0zm156.24-158.193l255.843 0q48.825-1.953 80.073-31.248 31.248-33.201 31.248-83.979 0-46.872-21.483-74.214-17.577-23.436-50.778-31.248l0-3.906q29.295-9.765 44.919-29.295 19.53-27.342 19.53-70.308-1.953-44.919-31.248-74.214-31.248-29.295-74.214-29.295l-253.89 0l0 427.707zm121.086-99.603l0-74.214l93.744 0q13.671 1.953 19.53 9.765 9.765 9.765 9.765 23.436l0 7.812q0 13.671-9.765 23.436-7.812 9.765-19.53 9.765l-93.744 0zm0-162.099l0-72.261l85.932 0q11.718 0 19.53 9.765t7.812 23.436l0 5.859q0 13.671-7.812 23.436t-19.53 9.765l-85.932 0zm249.984 97.65q0 42.966 11.718 76.167 11.718 31.248 34.178 52.731t53.708 32.224 72.261 10.742q78.12-1.953 117.18-35.154 41.013-33.201 41.013-91.791l-107.415 0q0 9.765-3.906 17.577-9.765 29.295-50.778 29.295-31.248 0-44.919-18.553t-13.671-53.708l220.689 0q0-62.496-11.718-97.65-9.765-31.248-31.248-52.731t-52.731-31.248-70.308-9.765q-37.107 0-67.379 10.742t-51.755 32.224-33.201 52.731-11.718 76.167zm74.214-193.347l189.441 0l0-70.308l-189.441 0l0 70.308zm37.107 154.287q1.953-25.389 15.624-40.037t41.013-14.648q23.436 0 37.107 14.648t13.671 40.037l-107.415 0z"/></svg>