<svg height="1000px" width="1000px" xmlns="http://www.w3.org/2000/svg">
  <g>
    <path d="M0 1000c0 0 0 -1000 0 -1000c0 0 1000 0 1000 0c0 0 0 1000 0 1000c0 0 -1000 0 -1000 0c0 0 0 0 0 0m156.25 -158.203c0 0 255.859 0 255.859 0c32.552 -1.302 59.245 -11.719 80.078 -31.25c20.834 -22.136 31.25 -50.13 31.25 -83.985c0 -31.25 -7.161 -55.989 -21.484 -74.218c-11.719 -15.625 -28.646 -26.042 -50.781 -31.25c0 0 0 -3.907 0 -3.907c19.531 -6.51 34.505 -16.276 44.922 -29.296c13.021 -18.23 19.531 -41.667 19.531 -70.313c-1.302 -29.948 -11.719 -54.687 -31.25 -74.219c-20.833 -19.531 -45.573 -29.296 -74.219 -29.296c0 0 -253.906 0 -253.906 0c0 0 0 427.734 0 427.734c0 0 0 0 0 0m121.094 -99.61c0 0 0 -74.218 0 -74.218c0 0 93.75 0 93.75 0c9.114 1.302 15.625 4.557 19.531 9.765c6.51 6.511 9.766 14.323 9.766 23.438c0 0 0 7.812 0 7.812c0 9.115 -3.256 16.927 -9.766 23.438c-5.208 6.51 -11.719 9.765 -19.531 9.765c0 0 -93.75 0 -93.75 0c0 0 0 0 0 0m0 -162.109c0 0 0 -72.265 0 -72.265c0 0 85.937 0 85.937 0c7.813 0 14.323 3.255 19.531 9.765c5.209 6.511 7.813 14.323 7.813 23.438c0 0 0 5.859 0 5.859c0 9.115 -2.604 16.927 -7.813 23.438c-5.208 6.51 -11.718 9.765 -19.531 9.765c0 0 -85.937 0 -85.937 0c0 0 0 0 0 0m250 97.656c0 28.646 3.906 54.037 11.718 76.172c7.813 20.834 19.206 38.412 34.18 52.735c14.974 14.323 32.878 25.065 53.711 32.226c20.833 7.162 44.922 10.742 72.266 10.742c52.083 -1.302 91.146 -13.02 117.187 -35.156c27.344 -22.135 41.016 -52.734 41.016 -91.797c0 0 -107.422 0 -107.422 0c0 6.511 -1.302 12.37 -3.906 17.578c-6.511 19.532 -23.438 29.297 -50.781 29.297c-20.834 0 -35.808 -6.185 -44.922 -18.554c-9.115 -12.37 -13.672 -30.274 -13.672 -53.711c0 0 220.703 0 220.703 0c0 -41.667 -3.906 -74.219 -11.719 -97.657c-6.51 -20.833 -16.927 -38.411 -31.25 -52.734c-14.323 -14.323 -31.901 -24.74 -52.734 -31.25c-20.834 -6.51 -44.271 -9.766 -70.313 -9.766c-24.739 0 -47.2 3.581 -67.383 10.743c-20.182 7.161 -37.434 17.903 -51.757 32.226c-14.323 14.323 -25.391 31.901 -33.203 52.735c-7.813 20.833 -11.719 46.223 -11.719 76.171c0 0 0 0 0 0m74.219 -193.359c0 0 189.453 0 189.453 0c0 0 0 -70.312 0 -70.312c0 0 -189.453 0 -189.453 0c0 0 0 70.312 0 70.312c0 0 0 0 0 0m37.109 154.297c1.302 -16.927 6.51 -30.274 15.625 -40.039c9.114 -9.766 22.786 -14.649 41.016 -14.649c15.625 0 27.994 4.883 37.109 14.649c9.114 9.765 13.672 23.112 13.672 40.039c0 0 -107.422 0 -107.422 0c0 0 0 0 0 0" />
  </g>
</svg>