<svg height="1000px" width="1000px" xmlns="http://www.w3.org/2000/svg">
  <g>
    <path d="M-1.953125 837.890625c0 0 0 -44.922 0 -44.922c0 0 197.266 -169.922 197.266 -169.922c0 0 0 -265.625 0 -265.625c0 -71.614 22.461 -135.091 67.382 -190.429c44.922 -55.339 101.888 -90.17 170.899 -104.493c0 0 0 -62.5 0 -62.5c0 0 130.859 0 130.859 0c0 0 0 62.5 0 62.5c67.709 14.323 124.349 49.154 169.922 104.493c45.573 55.338 68.359 118.815 68.359 190.429c0 0 0 265.625 0 265.625c0 0 195.313 169.922 195.313 169.922c0 0 0 44.922 0 44.922c0 0 -195.313 0 -195.313 0c0 0 -607.421 0 -607.421 0c0 0 -197.266 0 -197.266 0c0 0 0 0 0 0m427.734 86.914c0 -20.182 7.162 -37.435 21.485 -51.758c14.323 -14.323 31.575 -21.484 51.758 -21.484c20.182 0 37.434 7.161 51.757 21.484c14.323 14.323 21.485 31.576 21.485 51.758c0 20.182 -7.162 37.109 -21.485 50.781c-14.323 13.672 -31.575 20.508 -51.757 20.508c-20.183 0 -37.435 -6.836 -51.758 -20.508c-14.323 -13.672 -21.485 -30.599 -21.485 -50.781c0 0 0 0 0 0" />
  </g>
</svg>