<svg height="1000px" width="1000px" xmlns="http://www.w3.org/2000/svg">
  <g>
    <path d="M38.0859375 931.640625c-8.464 -15.625 -6.836 -32.552 4.883 -50.781c0 0 128.906 -166.016 128.906 -166.016c0 0 50.781 -183.594 50.781 -183.594c0 0 0 -150.39 0 -150.39c0 0 -27.343 37.109 -27.343 37.109c0 0 -9.766 107.422 -9.766 107.422c-2.604 16.927 -10.742 27.995 -24.414 33.203c-13.672 5.208 -26.042 3.581 -37.11 -4.883c-11.067 -8.463 -15.95 -20.508 -14.648 -36.133c0 0 13.672 -115.234 13.672 -115.234c0 -6.51 1.953 -12.37 5.859 -17.578c0 0 103.516 -140.625 103.516 -140.625c13.021 -20.833 31.901 -32.552 56.641 -35.156c24.739 -2.604 46.224 4.557 64.453 21.484c0 0 113.281 142.578 113.281 142.578c0 0 111.328 23.438 111.328 23.438c14.323 2.604 24.089 12.37 29.297 29.297c5.208 16.927 -1.953 29.296 -21.484 37.109c0 0 355.468 488.281 355.468 488.281c3.907 6.511 2.604 11.393 -3.906 14.649c-6.51 3.255 -11.719 2.278 -15.625 -2.93c0 0 -380.859 -501.953 -380.859 -501.953c0 0 -103.516 -19.531 -103.516 -19.531c-9.115 -2.605 -16.276 -7.162 -21.484 -13.672c0 0 -42.969 -54.688 -42.969 -54.688c0 0 0 46.875 0 46.875c0 0 0 111.328 0 111.328c0 0 111.328 126.953 111.328 126.953c3.906 3.907 6.51 9.766 7.813 17.579c0 0 54.687 244.14 54.687 244.14c2.604 18.229 -3.255 32.878 -17.578 43.946c-14.323 11.067 -30.274 14.322 -47.852 9.765c-17.578 -4.557 -28.971 -16.601 -34.179 -36.133c0 0 -48.828 -232.422 -48.828 -232.422c0 0 -91.797 -103.515 -91.797 -103.515c0 0 -41.016 144.531 -41.016 144.531c-3.906 9.115 -6.51 14.974 -7.812 17.578c0 0 -134.766 173.828 -134.766 173.828c-14.323 13.021 -29.948 19.206 -46.875 18.555c-16.927 -0.651 -29.622 -8.789 -38.086 -24.414c0 0 0 0 0 0m178.711 -834.961c0 -26.693 9.44 -49.479 28.32 -68.359c18.88 -18.881 41.667 -28.321 68.36 -28.321c26.692 0 49.479 9.44 68.359 28.321c18.88 18.88 28.32 41.666 28.32 68.359c0 26.693 -9.44 49.479 -28.32 68.359c-18.88 18.881 -41.667 28.321 -68.359 28.321c-26.693 0 -49.48 -9.44 -68.36 -28.321c-18.88 -18.88 -28.32 -41.666 -28.32 -68.359c0 0 0 0 0 0" />
  </g>
</svg>