<svg height="1000px" width="1000px" xmlns="http://www.w3.org/2000/svg">
  <g>
    <path d="M0 456.0546875c0 -125.651 44.596 -233.073 133.789 -322.266c89.193 -89.192 196.615 -133.789 322.266 -133.789c125.651 0 232.747 44.597 321.289 133.789c88.541 89.193 132.812 196.615 132.812 322.266c0 125.651 -44.271 232.747 -132.812 321.289c-88.542 88.542 -195.638 132.813 -321.289 132.813c-125.651 0 -233.073 -44.271 -322.266 -132.813c-89.193 -88.542 -133.789 -195.638 -133.789 -321.289c0 0 0 0 0 0m115.234 -27.344c-6.51 83.985 14.323 159.18 62.5 225.586c0 0 476.563 -476.562 476.563 -476.562c-66.406 -48.177 -141.602 -69.011 -225.586 -62.5c-83.984 6.51 -155.599 39.388 -214.844 98.633c-59.245 59.244 -92.122 130.859 -98.633 214.843c0 0 0 0 0 0m142.578 305.664c66.407 48.177 141.277 69.011 224.61 62.5c83.333 -6.51 154.948 -39.713 214.844 -99.609c59.895 -59.896 93.099 -131.51 99.609 -214.844c6.51 -83.333 -14.323 -158.203 -62.5 -224.609c0 0 -476.563 476.562 -476.563 476.562" />
  </g>
</svg>