<svg height="1000px" width="1000px" xmlns="http://www.w3.org/2000/svg">
  <g>
    <path d="M0 1000c0 0 0 -1000 0 -1000c0 0 1000 0 1000 0c0 0 0 1000 0 1000c0 0 -1000 0 -1000 0c0 0 0 0 0 0m187.5 -376.953c0 130.208 72.917 194.01 218.75 191.406c0 0 234.375 0 234.375 0c106.771 -15.625 164.714 -78.776 173.828 -189.453c0 0 0 -87.891 0 -87.891c-2.604 -39.062 -15.625 -67.382 -39.062 -84.961c-23.438 -17.578 -51.433 -27.018 -83.985 -28.32c6.511 -23.437 7.162 -54.687 1.953 -93.75c-3.906 -40.364 -19.531 -73.893 -46.875 -100.586c-27.343 -26.693 -64.453 -41.992 -111.328 -45.898c0 0 -191.406 0 -191.406 0c-42.969 6.51 -78.776 22.461 -107.422 47.851c-28.646 25.391 -44.922 58.269 -48.828 98.633c0 0 0 292.969 0 292.969c0 0 0 0 0 0m96.68 29.297c-11.068 -19.532 -11.068 -39.063 0 -58.594c11.067 -19.531 29.622 -31.25 55.664 -35.156c0 0 285.156 0 285.156 0c27.344 3.906 46.549 15.625 57.617 35.156c11.068 19.531 11.393 39.063 0.977 58.594c-10.417 19.531 -28.646 31.25 -54.688 35.156c0 0 -285.156 0 -285.156 0c-28.646 -3.906 -48.503 -15.625 -59.57 -35.156c0 0 0 0 0 0m35.156 -264.649c-9.766 -17.578 -9.44 -35.156 0.977 -52.734c10.416 -17.578 28.645 -28.32 54.687 -32.227c0 0 156.25 0 156.25 0c27.344 2.605 45.898 12.696 55.664 30.274c9.766 17.578 9.44 35.156 -0.976 52.734c-10.417 17.578 -28.646 28.972 -54.688 34.18c0 0 -156.25 0 -156.25 0c-27.344 -3.906 -45.898 -14.649 -55.664 -32.227c0 0 0 0 0 0" />
  </g>
</svg>