<svg height="1000" width="1000" xmlns="http://www.w3.org/2000/svg"><path d="M0 1000l0-999.936l999.936 0l0 999.936l-999.936 0zm187.488-376.929q0 195.3 218.736 191.394l234.36 0q160.146-23.436 173.817-189.441l0-87.885q-3.906-58.59-39.06-84.956t-83.979-28.319q9.765-35.154 1.953-93.744-5.859-60.543-46.872-100.58t-111.321-45.895l-191.394 0q-64.449 9.765-107.415 47.849t-48.825 98.627l0 292.95zm96.674 29.295q-16.601-29.295 0-58.59t55.66-35.154l285.138 0q41.013 5.859 57.614 35.154t.977 58.59-54.684 35.154l-285.138 0q-42.966-5.859-59.567-35.154zm35.154-264.632q-14.648-26.366.977-52.731t54.684-32.224l156.24 0q41.013 3.906 55.66 30.271t-.977 52.731-54.684 34.178l-156.24 0q-41.013-5.859-55.66-32.224z"/></svg>