<svg height="1000" width="1000" xmlns="http://www.w3.org/2000/svg"><path d="M0 910.162l124.992 0l0-820.26l-124.992 0l0-80.073l581.994 0q179.676 0 269.514 60.543t89.838 181.629q0 87.885-62.496 138.663t-183.582 64.449q146.475 13.671 225.572 79.097t79.097 172.841q0 144.522-111.321 214.83-109.368 68.355-343.728 68.355l-544.887 0l0-80.073zm378.882 0l93.744 0q124.992 0 185.535-49.802t60.543-153.311q0-105.462-61.52-157.216t-184.559-51.755l-93.744 0l0 412.083zm0-492.156l85.932 0q113.274 0 167.958-39.06 54.684-42.966 54.684-126.945 0-85.932-54.684-124.992-52.731-37.107-167.958-37.107l-85.932 0l0 328.104z"/></svg>