<svg height="1000px" width="1000px" xmlns="http://www.w3.org/2000/svg">
  <g>
    <path d="M0 910.15625c0 0 125 0 125 0c0 0 0 -820.313 0 -820.313c0 0 -125 0 -125 0c0 0 0 -80.078 0 -80.078c0 0 582.031 0 582.031 0c119.792 0 209.636 20.183 269.532 60.547c59.895 40.365 89.843 100.912 89.843 181.641c0 58.594 -20.833 104.818 -62.5 138.672c-41.666 33.854 -102.864 55.338 -183.593 64.453c97.656 9.114 172.851 35.482 225.585 79.101c52.735 43.62 79.102 101.237 79.102 172.852c0 96.354 -37.109 167.969 -111.328 214.844c-72.917 45.573 -187.5 68.359 -343.75 68.359c0 0 -544.922 0 -544.922 0c0 0 0 -80.078 0 -80.078c0 0 0 0 0 0m378.906 0c0 0 93.75 0 93.75 0c83.334 0 145.183 -16.602 185.547 -49.805c40.365 -33.203 60.547 -84.31 60.547 -153.32c0 -70.313 -20.508 -122.721 -61.523 -157.227c-41.016 -34.505 -102.539 -51.757 -184.571 -51.757c0 0 -93.75 0 -93.75 0c0 0 0 412.109 0 412.109c0 0 0 0 0 0m0 -492.188c0 0 85.938 0 85.938 0c75.521 0 131.51 -13.02 167.969 -39.062c36.458 -28.646 54.687 -70.964 54.687 -126.953c0 -57.292 -18.229 -98.958 -54.687 -125c-35.157 -24.74 -91.146 -37.11 -167.969 -37.11c0 0 -85.938 0 -85.938 0c0 0 0 328.125 0 328.125c0 0 0 0 0 0" />
  </g>
</svg>