<svg height="1000px" width="1000px" xmlns="http://www.w3.org/2000/svg">
  <g>
    <path d="M136.71875 691.40625c0 0 0 -542.969 0 -542.969c0 -20.833 4.557 -38.411 13.672 -52.734c19.531 -29.948 53.711 -55.664 102.539 -77.149c48.828 -21.484 87.565 -24.414 116.211 -8.789c0 0 470.703 242.188 470.703 242.188c0 0 0 589.844 0 589.844c0 0 -85.938 46.875 -85.938 46.875c0 0 0 -589.844 0 -589.844c0 0 -419.921 -224.609 -419.921 -224.609c-19.532 -6.511 -41.342 -3.581 -65.43 8.789c-24.089 12.369 -43.294 28.32 -57.617 47.851c0 0 468.75 269.531 468.75 269.531c0 0 0 529.297 0 529.297c0 0 -85.938 46.875 -85.938 46.875c0 0 -457.031 -285.156 -457.031 -285.156" />
  </g>
</svg>