<svg height="1000" width="645" xmlns="http://www.w3.org/2000/svg"><path d="M0 875.985q0-51.755 36.13-87.885t86.909-36.13 87.885 36.13 37.107 87.885-37.107 87.885-87.885 36.13-86.909-36.13-36.13-87.885zm0-375.952q0-50.778 36.13-87.885t86.909-37.107 87.885 37.107 37.107 87.885-37.107 87.885-87.885 37.107-86.909-37.107-36.13-87.885zm0-375.952q0-51.755 36.13-87.885t86.909-36.13 87.885 36.13 37.107 87.885-37.107 87.885-87.885 36.13-86.909-36.13-36.13-87.885zm396.459 751.905q0-51.755 37.107-87.885t87.885-36.13 86.909 36.13 36.13 87.885-36.13 87.885-86.909 36.13-87.885-36.13-37.107-87.885zm0-375.952q0-50.778 37.107-87.885t87.885-37.107 86.909 37.107 36.13 87.885-36.13 87.885-86.909 37.107-87.885-37.107-37.107-87.885zm0-375.952q0-51.755 37.107-87.885t87.885-36.13 86.909 36.13 36.13 87.885-36.13 87.885-86.909 36.13-87.885-36.13-37.107-87.885z"/></svg>