<svg height="1000px" width="1000px" xmlns="http://www.w3.org/2000/svg">
  <g>
    <path d="M177.734375 875.9765625c0 -34.505 12.044 -63.802 36.133 -87.891c24.088 -24.088 53.06 -36.132 86.914 -36.132c33.854 0 63.151 12.044 87.89 36.132c24.74 24.089 37.11 53.386 37.11 87.891c0 34.505 -12.37 63.802 -37.11 87.891c-24.739 24.088 -54.036 36.132 -87.89 36.132c-33.854 0 -62.826 -12.044 -86.914 -36.132c-24.089 -24.089 -36.133 -53.386 -36.133 -87.891c0 0 0 0 0 0m0 -375.977c0 -33.854 12.044 -63.151 36.133 -87.89c24.088 -24.74 53.06 -37.11 86.914 -37.11c33.854 0 63.151 12.37 87.89 37.11c24.74 24.739 37.11 54.036 37.11 87.89c0 33.855 -12.37 63.151 -37.11 87.891c-24.739 24.74 -54.036 37.109 -87.89 37.109c-33.854 0 -62.826 -12.369 -86.914 -37.109c-24.089 -24.74 -36.133 -54.036 -36.133 -87.891c0 0 0 0 0 0m0 -375.976c0 -34.505 12.044 -63.802 36.133 -87.891c24.088 -24.088 53.06 -36.133 86.914 -36.133c33.854 0 63.151 12.045 87.89 36.133c24.74 24.089 37.11 53.386 37.11 87.891c0 34.505 -12.37 63.802 -37.11 87.891c-24.739 24.088 -54.036 36.132 -87.89 36.132c-33.854 0 -62.826 -12.044 -86.914 -36.132c-24.089 -24.089 -36.133 -53.386 -36.133 -87.891c0 0 0 0 0 0m396.484 751.953c0 -34.505 12.37 -63.802 37.11 -87.891c24.739 -24.088 54.036 -36.132 87.89 -36.132c33.855 0 62.826 12.044 86.914 36.132c24.089 24.089 36.133 53.386 36.133 87.891c0 34.505 -12.044 63.802 -36.133 87.891c-24.088 24.088 -53.059 36.132 -86.914 36.132c-33.854 0 -63.151 -12.044 -87.89 -36.132c-24.74 -24.089 -37.11 -53.386 -37.11 -87.891c0 0 0 0 0 0m0 -375.977c0 -33.854 12.37 -63.151 37.11 -87.89c24.739 -24.74 54.036 -37.11 87.89 -37.11c33.855 0 62.826 12.37 86.914 37.11c24.089 24.739 36.133 54.036 36.133 87.89c0 33.855 -12.044 63.151 -36.133 87.891c-24.088 24.74 -53.059 37.109 -86.914 37.109c-33.854 0 -63.151 -12.369 -87.89 -37.109c-24.74 -24.74 -37.11 -54.036 -37.11 -87.891c0 0 0 0 0 0m0 -375.976c0 -34.505 12.37 -63.802 37.11 -87.891c24.739 -24.088 54.036 -36.133 87.89 -36.133c33.855 0 62.826 12.045 86.914 36.133c24.089 24.089 36.133 53.386 36.133 87.891c0 34.505 -12.044 63.802 -36.133 87.891c-24.088 24.088 -53.059 36.132 -86.914 36.132c-33.854 0 -63.151 -12.044 -87.89 -36.132c-24.74 -24.089 -37.11 -53.386 -37.11 -87.891c0 0 0 0 0 0" />
  </g>
</svg>