<svg height="1000px" width="1000px" xmlns="http://www.w3.org/2000/svg">
  <g>
    <path d="M0 939.453125c0 0 0 -253.906 0 -253.906c0 0 451.172 0 451.172 0c0 0 0 80.078 0 80.078c0 0 97.656 0 97.656 0c0 0 0 -80.078 0 -80.078c0 0 451.172 0 451.172 0c0 0 0 253.906 0 253.906c0 0 -1000 0 -1000 0c0 0 0 0 0 0m0 -332.031c0 0 0 -406.25 0 -406.25c0 0 265.625 0 265.625 0c0 0 0 -140.625 0 -140.625c0 0 468.75 0 468.75 0c0 0 0 140.625 0 140.625c0 0 265.625 0 265.625 0c0 0 0 406.25 0 406.25c0 0 -451.172 0 -451.172 0c0 0 0 -83.985 0 -83.985c0 0 -97.656 0 -97.656 0c0 0 0 83.985 0 83.985c0 0 -451.172 0 -451.172 0c0 0 0 0 0 0m337.891 -406.25c0 0 324.218 0 324.218 0c0 0 0 -68.36 0 -68.36c0 0 -324.218 0 -324.218 0c0 0 0 68.36 0 68.36c0 0 0 0 0 0" />
  </g>
</svg>