<svg height="1000" width="1000" xmlns="http://www.w3.org/2000/svg"><path d="M0 500.032q0-207.018 146.475-353.493t353.493-146.475 353.493 146.475 146.475 353.493-146.475 353.493-353.493 146.475-353.493-146.475-146.475-353.493zm218.736 314.433l562.464 0l0-408.177l-562.464 0l0 408.177zm0-443.331l562.464 0l0-138.663l-68.355 0l0 87.885l-126.945 0l0-87.885l-171.864 0l0 87.885l-126.945 0l0-87.885l-68.355 0l0 138.663zm105.462-87.885l52.731 0l0-97.65l-52.731 0l0 97.65zm37.107 390.6l46.872 0q1.953 35.154 29.295 35.154 33.201-1.953 33.201-39.06 0-23.436-15.624-29.295-11.718-5.859-42.966-5.859l0-35.154q52.731 1.953 52.731-29.295 0-33.201-27.342-33.201-31.248 1.953-31.248 29.295l-44.919 0q1.953-31.248 24.413-47.849t53.708-16.601q50.778 0 66.402 39.06 9.765 27.342 1.953 44.919-9.765 21.483-39.06 31.248 48.825 13.671 48.825 56.637-1.953 31.248-25.389 50.778t-52.731 19.53q-78.12 0-78.12-70.308zm177.723-91.791l0-39.06q35.154-15.624 58.59-37.107l41.013 0l0 234.36l-44.919 0l0-189.441q-23.436 21.483-54.684 31.248zm83.979-298.809l52.731 0l0-97.65l-52.731 0l0 97.65z"/></svg>