<svg height="1000px" width="1000px" xmlns="http://www.w3.org/2000/svg">
  <g>
    <path d="M0 500c0 -138.021 48.828 -255.859 146.484 -353.516c97.657 -97.656 215.495 -146.484 353.516 -146.484c138.021 0 255.859 48.828 353.516 146.484c97.656 97.657 146.484 215.495 146.484 353.516c0 138.021 -48.828 255.859 -146.484 353.516c-97.657 97.656 -215.495 146.484 -353.516 146.484c-138.021 0 -255.859 -48.828 -353.516 -146.484c-97.656 -97.657 -146.484 -215.495 -146.484 -353.516c0 0 0 0 0 0m218.75 314.453c0 0 562.5 0 562.5 0c0 0 0 -408.203 0 -408.203c0 0 -562.5 0 -562.5 0c0 0 0 408.203 0 408.203c0 0 0 0 0 0m0 -443.359c0 0 562.5 0 562.5 0c0 0 0 -138.672 0 -138.672c0 0 -68.359 0 -68.359 0c0 0 0 87.891 0 87.891c0 0 -126.953 0 -126.953 0c0 0 0 -87.891 0 -87.891c0 0 -171.875 0 -171.875 0c0 0 0 87.891 0 87.891c0 0 -126.954 0 -126.954 0c0 0 0 -87.891 0 -87.891c0 0 -68.359 0 -68.359 0c0 0 0 138.672 0 138.672c0 0 0 0 0 0m105.469 -87.891c0 0 52.734 0 52.734 0c0 0 0 -97.656 0 -97.656c0 0 -52.734 0 -52.734 0c0 0 0 97.656 0 97.656c0 0 0 0 0 0m37.109 390.625c0 0 46.875 0 46.875 0c1.302 23.438 11.068 35.156 29.297 35.156c22.135 -1.302 33.203 -14.323 33.203 -39.062c0 -15.625 -5.208 -25.391 -15.625 -29.297c-7.812 -3.906 -22.135 -5.859 -42.969 -5.859c0 0 0 -35.157 0 -35.157c35.157 1.302 52.735 -8.463 52.735 -29.296c0 -22.136 -9.115 -33.204 -27.344 -33.204c-20.833 1.302 -31.25 11.068 -31.25 29.297c0 0 -44.922 0 -44.922 0c1.302 -20.833 9.44 -36.784 24.414 -47.851c14.974 -11.068 32.878 -16.602 53.711 -16.602c33.854 0 55.99 13.021 66.406 39.063c6.511 18.229 7.162 33.203 1.954 44.922c-6.511 14.322 -19.532 24.739 -39.063 31.25c32.552 9.114 48.828 27.994 48.828 56.64c-1.302 20.833 -9.765 37.761 -25.39 50.781c-15.625 13.021 -33.204 19.532 -52.735 19.532c-52.083 0 -78.125 -23.438 -78.125 -70.313c0 0 0 0 0 0m177.735 -91.797c0 0 0 -39.062 0 -39.062c23.437 -10.417 42.968 -22.787 58.593 -37.11c0 0 41.016 0 41.016 0c0 0 0 234.375 0 234.375c0 0 -44.922 0 -44.922 0c0 0 0 -189.453 0 -189.453c-15.625 14.323 -33.854 24.74 -54.687 31.25c0 0 0 0 0 0m83.984 -298.828c0 0 52.734 0 52.734 0c0 0 0 -97.656 0 -97.656c0 0 -52.734 0 -52.734 0c0 0 0 97.656 0 97.656c0 0 0 0 0 0" />
  </g>
</svg>