<svg height="1000px" width="1000px" xmlns="http://www.w3.org/2000/svg">
  <g>
    <path d="M58.59375 998.046875c0 0 0 -648.438 0 -648.438c0 0 892.578 0 892.578 0c0 0 0 648.438 0 648.438c0 0 -892.578 0 -892.578 0c0 0 0 0 0 0m0 -705.078c0 0 0 -220.703 0 -220.703c0 0 109.375 0 109.375 0c0 0 0 140.625 0 140.625c0 0 199.219 0 199.219 0c0 0 0 -140.625 0 -140.625c0 0 275.39 0 275.39 0c0 0 0 140.625 0 140.625c0 0 199.219 0 199.219 0c0 0 0 -140.625 0 -140.625c0 0 109.375 0 109.375 0c0 0 0 220.703 0 220.703c0 0 -892.578 0 -892.578 0c0 0 0 0 0 0m167.969 -138.672c0 0 0 -156.25 0 -156.25c0 0 82.031 0 82.031 0c0 0 0 156.25 0 156.25c0 0 -82.031 0 -82.031 0c0 0 0 0 0 0m58.594 619.141c0 74.218 41.015 111.328 123.046 111.328c31.25 0 59.245 -10.417 83.985 -31.25c26.041 -20.834 39.062 -47.526 39.062 -80.078c0 -45.573 -26.041 -75.521 -78.125 -89.844c32.552 -10.417 54.037 -26.693 64.453 -48.828c7.813 -18.229 7.162 -42.318 -1.953 -72.266c-18.229 -41.667 -54.036 -62.5 -107.422 -62.5c-33.854 0 -62.5 8.789 -85.937 26.367c-23.438 17.578 -35.807 43.295 -37.109 77.149c0 0 72.265 0 72.265 0c0 -29.948 16.276 -45.573 48.828 -46.875c28.646 0 43.62 17.578 44.922 52.734c0 32.552 -27.995 48.177 -83.984 46.875c0 0 0 56.641 0 56.641c32.552 0 55.338 2.604 68.359 7.812c15.625 7.813 23.438 23.438 23.438 46.875c0 37.761 -18.23 57.943 -54.688 60.547c-28.646 0 -44.271 -18.229 -46.875 -54.687c0 0 -72.265 0 -72.265 0c0 0 0 0 0 0m281.25 -146.485c32.552 -9.114 61.848 -24.739 87.89 -46.875c0 0 0 296.875 0 296.875c0 0 70.313 0 70.313 0c0 0 0 -371.094 0 -371.094c0 0 -64.453 0 -64.453 0c-24.74 24.74 -55.99 44.271 -93.75 58.594c0 0 0 62.5 0 62.5c0 0 0 0 0 0m134.765 -472.656c0 0 0 -156.25 0 -156.25c0 0 82.031 0 82.031 0c0 0 0 156.25 0 156.25c0 0 -82.031 0 -82.031 0c0 0 0 0 0 0" />
  </g>
</svg>