<svg height="1000" width="893" xmlns="http://www.w3.org/2000/svg"><path d="M0 998.047l0-648.396l892.521 0l0 648.396l-892.521 0zm0-705.033l0-220.689l109.368 0l0 140.616l199.206 0l0-140.616l275.373 0l0 140.616l199.206 0l0-140.616l109.368 0l0 220.689l-892.521 0zm167.958-138.663l0-156.24l82.026 0l0 156.24l-82.026 0zm58.59 619.101q0 111.321 123.039 111.321 46.872 0 83.979-31.248 39.06-31.248 39.06-80.073 0-68.355-78.12-89.838 48.825-15.624 64.449-48.825 11.718-27.342-1.953-72.261-27.342-62.496-107.415-62.496-50.778 0-85.932 26.366t-37.107 77.144l72.261 0q0-44.919 48.825-46.872 42.966 0 44.919 52.731 0 48.825-83.979 46.872l0 56.637q48.825 0 68.355 7.812 23.436 11.718 23.436 46.872 0 56.637-54.684 60.543-42.966 0-46.872-54.684l-72.261 0zm281.232-146.475q48.825-13.671 87.885-46.872l0 296.856l70.308 0l0-371.07l-64.449 0q-37.107 37.107-93.744 58.59l0 62.496zm134.757-472.626l0-156.24l82.026 0l0 156.24l-82.026 0z"/></svg>