<svg height="1000px" width="1000px" xmlns="http://www.w3.org/2000/svg">
  <g>
    <path d="M0 876.953125c0 0 0 -626.953 0 -626.953c0 0 294.922 0 294.922 0c0 0 31.25 -126.953 31.25 -126.953c0 0 361.328 0 361.328 0c0 0 31.25 126.953 31.25 126.953c0 0 281.25 0 281.25 0c0 0 0 626.953 0 626.953c0 0 -1000 0 -1000 0c0 0 0 0 0 0m220.703 -345.703c0 78.125 27.669 144.531 83.008 199.219c55.338 54.687 121.745 82.031 199.219 82.031c77.474 0 143.554 -27.344 198.242 -82.031c54.687 -54.688 82.031 -121.094 82.031 -199.219c0 -78.125 -27.344 -144.531 -82.031 -199.219c-54.688 -54.687 -120.768 -82.031 -198.242 -82.031c-77.474 0 -143.881 27.344 -199.219 82.031c-55.339 54.688 -83.008 121.094 -83.008 199.219c0 0 0 0 0 0m83.984 0c0 -54.688 19.206 -101.563 57.618 -140.625c38.411 -39.063 84.961 -58.594 139.648 -58.594c54.688 0 101.563 19.531 140.625 58.594c39.063 39.062 58.594 85.937 58.594 140.625c0 54.687 -19.531 101.237 -58.594 139.648c-39.062 38.412 -85.937 57.617 -140.625 57.617c-54.687 0 -101.237 -19.205 -139.648 -57.617c-38.412 -38.411 -57.618 -84.961 -57.618 -139.648c0 0 0 0 0 0m527.344 -138.672c0 0 142.578 0 142.578 0c0 0 0 -82.031 0 -82.031c0 0 -142.578 0 -142.578 0c0 0 0 82.031 0 82.031c0 0 0 0 0 0" />
  </g>
</svg>