<svg height="1000px" width="1000px" xmlns="http://www.w3.org/2000/svg">
  <g>
    <path d="M0 779.296875c0 0 279.297 -279.297 279.297 -279.297c0 0 -279.297 -279.297 -279.297 -279.297c0 0 220.703 -220.703 220.703 -220.703c0 0 279.297 279.297 279.297 279.297c0 0 279.297 -279.297 279.297 -279.297c0 0 220.703 220.703 220.703 220.703c0 0 -279.297 279.297 -279.297 279.297c0 0 279.297 279.297 279.297 279.297c0 0 -220.703 220.703 -220.703 220.703c0 0 -279.297 -279.297 -279.297 -279.297c0 0 -279.297 279.297 -279.297 279.297c0 0 -220.703 -220.703 -220.703 -220.703" />
  </g>
</svg>