<svg height="1000px" width="1000px" xmlns="http://www.w3.org/2000/svg">
  <g>
    <path d="M0 500c0 -138.021 48.828 -255.859 146.484 -353.516c97.657 -97.656 215.495 -146.484 353.516 -146.484c138.021 0 255.859 48.828 353.516 146.484c97.656 97.657 146.484 215.495 146.484 353.516c0 138.021 -48.828 255.859 -146.484 353.516c-97.657 97.656 -215.495 146.484 -353.516 146.484c-138.021 0 -255.859 -48.828 -353.516 -146.484c-97.656 -97.657 -146.484 -215.495 -146.484 -353.516c0 0 0 0 0 0m218.75 156.25c0 0 125 125 125 125c0 0 156.25 -156.25 156.25 -156.25c0 0 156.25 156.25 156.25 156.25c0 0 125 -125 125 -125c0 0 -156.25 -156.25 -156.25 -156.25c0 0 156.25 -156.25 156.25 -156.25c0 0 -125 -125 -125 -125c0 0 -156.25 156.25 -156.25 156.25c0 0 -156.25 -156.25 -156.25 -156.25c0 0 -125 125 -125 125c0 0 156.25 156.25 156.25 156.25c0 0 -156.25 156.25 -156.25 156.25" />
  </g>
</svg>