<svg height="1000" width="1000" xmlns="http://www.w3.org/2000/svg"><path d="M0 820.234l0 -640.584l499.968 -97.65 499.968 97.65l0 640.584l-499.968 97.65zm173.817 -316.386q0 70.308 27.342 117.18 42.966 72.261 132.804 72.261 39.06 0 68.355 -13.671 72.261 -31.248 78.12 -124.992l-56.637 0q-15.624 85.932 -87.885 85.932 -27.342 0 -46.872 -11.718 -54.684 -31.248 -54.684 -124.992 0 -42.966 9.765 -76.167 25.389 -68.355 89.838 -68.355l17.577 1.953q58.59 9.765 68.355 76.167l56.637 0q-3.906 -48.825 -23.436 -78.12l-5.859 -5.859q-39.06 -46.872 -113.274 -46.872 -56.637 0 -97.65 33.201 -62.496 52.731 -62.496 164.052zm345.681 0q0 70.308 27.342 117.18 42.966 72.261 132.804 72.261 37.107 0 68.355 -13.671 70.308 -31.248 78.12 -124.992l-56.637 0q-15.624 85.932 -89.838 85.932 -27.342 0 -46.872 -11.718 -54.684 -31.248 -54.684 -124.992 0 -42.966 11.718 -76.167 23.436 -68.355 89.838 -68.355l17.577 1.953q58.59 9.765 66.402 76.167l58.59 0q-3.906 -48.825 -23.436 -78.12l-5.859 -5.859q-41.013 -46.872 -113.274 -46.872 -56.637 0 -97.65 33.201 -62.496 52.731 -62.496 164.052z"/></svg>