<svg height="1000px" width="1000px" xmlns="http://www.w3.org/2000/svg">
  <g>
    <path d="M0 820.3125c0 0 0 -640.625 0 -640.625c0 0 500 -97.656 500 -97.656c0 0 500 97.656 500 97.656c0 0 0 640.625 0 640.625c0 0 -500 97.656 -500 97.656c0 0 -500 -97.656 -500 -97.656m173.828 -316.406c0 46.875 9.115 85.937 27.344 117.187c28.646 48.177 72.917 72.266 132.812 72.266c26.042 0 48.828 -4.557 68.36 -13.672c48.177 -20.833 74.218 -62.5 78.125 -125c0 0 -56.641 0 -56.641 0c-10.417 57.292 -39.713 85.938 -87.891 85.938c-18.229 0 -33.854 -3.907 -46.875 -11.719c-36.458 -20.834 -54.687 -62.5 -54.687 -125c0 -28.646 3.255 -54.037 9.766 -76.172c16.927 -45.573 46.875 -68.359 89.843 -68.359c0 0 17.579 1.953 17.579 1.953c39.062 6.51 61.848 31.901 68.359 76.172c0 0 56.641 0 56.641 0c-2.605 -32.553 -10.417 -58.594 -23.438 -78.125c0 0 -5.859 -5.86 -5.859 -5.86c-26.042 -31.25 -63.802 -46.875 -113.282 -46.875c-37.76 0 -70.312 11.068 -97.656 33.203c-41.667 35.157 -62.5 89.844 -62.5 164.063c0 0 0 0 0 0m345.703 0c0 46.875 9.115 85.937 27.344 117.187c28.646 48.177 72.917 72.266 132.813 72.266c24.739 0 47.526 -4.557 68.359 -13.672c46.875 -20.833 72.917 -62.5 78.125 -125c0 0 -56.641 0 -56.641 0c-10.416 57.292 -40.364 85.938 -89.844 85.938c-18.229 0 -33.854 -3.907 -46.875 -11.719c-36.458 -20.834 -54.687 -62.5 -54.687 -125c0 -28.646 3.906 -54.037 11.719 -76.172c15.625 -45.573 45.573 -68.359 89.843 -68.359c0 0 17.579 1.953 17.579 1.953c39.062 6.51 61.198 31.901 66.406 76.172c0 0 58.594 0 58.594 0c-2.605 -32.553 -10.417 -58.594 -23.438 -78.125c0 0 -5.859 -5.86 -5.859 -5.86c-27.344 -31.25 -65.104 -46.875 -113.282 -46.875c-37.76 0 -70.312 11.068 -97.656 33.203c-41.666 35.157 -62.5 89.844 -62.5 164.063c0 0 0 0 0 0" />
  </g>
</svg>