<svg height="1000px" width="1000px" xmlns="http://www.w3.org/2000/svg">
  <g>
    <path d="M3.90625 630.859375c0 0 93.75 -138.672 93.75 -138.672c0 0 -85.938 -146.484 -85.938 -146.484c0.001 0 154.297 -66.406 154.297 -66.406c0 0 5.86 -167.969 5.86 -167.969c0 0 166.015 27.344 166.015 27.344c0 0 95.704 -138.672 95.704 -138.672c0 0 125 113.281 125 113.281c0 0 156.25 -64.453 156.25 -64.453c0 0 42.968 162.109 42.968 162.109c0 0 166.016 29.297 166.016 29.297c0 0 -50.781 160.156 -50.781 160.156c0 0 123.047 115.235 123.047 115.235c0 0 -128.907 107.422 -128.907 107.422c0 0 42.969 164.062 42.969 164.062c0 0 -167.969 19.531 -167.969 19.531c0 0 -52.734 160.157 -52.734 160.157c0 0 -152.344 -74.219 -152.344 -74.219c0 0 -130.859 107.422 -130.859 107.422c0 0 -87.891 -144.532 -87.891 -144.532c0 0 -167.969 19.532 -167.969 19.532c0 0 3.907 -169.922 3.907 -169.922c0 0 -150.391 -74.219 -150.391 -74.219" />
  </g>
</svg>