<svg height="1000" width="1000" xmlns="http://www.w3.org/2000/svg"><path d="M0 499.968q0 -207.018 146.475 -353.493t353.493 -146.475 353.493 146.475 146.475 353.493 -146.475 353.493 -353.493 146.475 -353.493 -146.475 -146.475 -353.493zm208.971 220.689l581.994 0l0 -441.378l-581.994 0l0 441.378zm72.261 -72.261l0 -296.856l437.472 0l0 296.856l-437.472 0zm15.624 -93.744l37.107 42.966 50.778 -42.966 31.248 33.201 25.389 27.342 19.53 -31.248 54.684 -82.026 35.154 74.214 23.436 48.825 27.342 -46.872 101.556 -175.77 -48.825 -27.342 -76.167 128.898 -33.201 -72.261 -23.436 -46.872 -27.342 42.966 -60.543 95.697 -25.389 -27.342 -19.53 -17.577 -19.53 15.624z"/></svg>