<svg height="1000px" width="1000px" xmlns="http://www.w3.org/2000/svg">
  <g>
    <path d="M0 878.90625c0 0 0 -757.813 0 -757.813c0 0 1000 0 1000 0c0 0 0 757.813 0 757.813c0 0 -1000 0 -1000 0c0 0 0 0 0 0m123.047 -123.047c0 0 753.906 0 753.906 0c0 0 0 -511.719 0 -511.719c0 0 -753.906 0 -753.906 0c0 0 0 511.719 0 511.719c0 0 0 0 0 0m27.344 -162.109c0 0 125 -103.516 125 -103.516c0 0 35.156 -29.297 35.156 -29.297c0 0 31.25 33.203 31.25 33.203c0 0 42.969 46.875 42.969 46.875c0 0 105.468 -166.015 105.468 -166.015c0 0 46.875 -72.266 46.875 -72.266c0 0 39.063 78.125 39.063 78.125c0 0 60.547 125 60.547 125c0 0 126.953 -222.656 126.953 -222.656c0 0 85.937 48.828 85.937 48.828c0 0 -175.781 304.688 -175.781 304.688c0 0 -44.922 80.078 -44.922 80.078c0 0 -41.015 -83.985 -41.015 -83.985c0 0 -62.5 -130.859 -62.5 -130.859c0 0 -91.797 142.578 -91.797 142.578c0 0 -33.203 52.734 -33.203 52.734c0 0 -42.969 -44.921 -42.969 -44.921c0 0 -54.688 -56.641 -54.688 -56.641c0 0 -89.843 74.219 -89.843 74.219c0 0 -62.5 -76.172 -62.5 -76.172" />
  </g>
</svg>