<svg height="1000px" width="1000px" xmlns="http://www.w3.org/2000/svg">
  <g>
    <path d="M0 500c0 -138.021 48.828 -255.859 146.484 -353.516c97.657 -97.656 215.495 -146.484 353.516 -146.484c138.021 0 255.859 48.828 353.516 146.484c97.656 97.657 146.484 215.495 146.484 353.516c0 138.021 -48.828 255.859 -146.484 353.516c-97.657 97.656 -215.495 146.484 -353.516 146.484c-138.021 0 -255.859 -48.828 -353.516 -146.484c-97.656 -97.657 -146.484 -215.495 -146.484 -353.516c0 0 0 0 0 0m208.984 220.703c0 0 582.032 0 582.032 0c0 0 0 -441.406 0 -441.406c0 0 -582.032 0 -582.032 0c0 0 0 441.406 0 441.406c0 0 0 0 0 0m72.266 -72.266c0 0 0 -296.875 0 -296.875c0 0 437.5 0 437.5 0c0 0 0 296.875 0 296.875c0 0 -437.5 0 -437.5 0c0 0 0 0 0 0m15.625 -93.75c0 0 37.109 42.969 37.109 42.969c0 0 50.782 -42.969 50.782 -42.969c0 0 31.25 33.204 31.25 33.204c0 0 25.39 27.343 25.39 27.343c0 0 19.532 -31.25 19.532 -31.25c0 0 54.687 -82.031 54.687 -82.031c0 0 35.156 74.219 35.156 74.219c0 0 23.438 48.828 23.438 48.828c0 0 27.344 -46.875 27.344 -46.875c0 0 101.562 -175.781 101.562 -175.781c0 0 -48.828 -27.344 -48.828 -27.344c0 0 -76.172 128.906 -76.172 128.906c0 0 -33.203 -72.265 -33.203 -72.265c0 0 -23.438 -46.875 -23.438 -46.875c0 0 -27.343 42.968 -27.343 42.968c0 0 -60.547 95.703 -60.547 95.703c0 0 -25.391 -27.343 -25.391 -27.343c0 0 -19.531 -17.578 -19.531 -17.578c0 0 -19.531 15.625 -19.531 15.625c0 0 -72.266 60.546 -72.266 60.546" />
  </g>
</svg>