<svg height="1000px" width="1000px" xmlns="http://www.w3.org/2000/svg">
  <g>
    <path d="M0 1000c0 0 0 -353.516 0 -353.516c0 0 0 -646.484 0 -646.484c0 0 646.484 0 646.484 0c0 0 -164.062 164.063 -164.062 164.063c0 0 -318.36 0 -318.36 0c0 0 0 318.359 0 318.359c0 0 0 353.516 0 353.516c0 0 353.516 0 353.516 0c0 0 318.36 0 318.36 0c0 0 0 -318.36 0 -318.36c0 0 164.062 -164.062 164.062 -164.062c0 0 0 646.484 0 646.484c0 0 -646.484 0 -646.484 0c0 0 -353.516 0 -353.516 0c0 0 0 0 0 0m234.375 -623.047c0 0 132.813 -130.859 132.813 -130.859c0 0 128.906 128.906 128.906 128.906c0 0 361.328 -363.281 361.328 -363.281c0 0 132.812 132.812 132.812 132.812c0 0 -361.328 363.282 -361.328 363.282c0 0 -132.812 132.812 -132.812 132.812c0 0 -261.719 -263.672 -261.719 -263.672" />
  </g>
</svg>