<svg height="1000" width="660" xmlns="http://www.w3.org/2000/svg"><path d="M.078 984.313l0 -345.681q-1.953 -91.791 44.919 -142.569t128.898 -52.731l314.433 0q89.838 0 129.875 55.66t41.989 139.639l0 345.681q-1.953 15.624 -13.671 15.624l-89.838 0q-15.624 -1.953 -15.624 -15.624l0 -308.574q-3.906 -27.342 -25.389 -24.413t-23.436 24.413l0 308.574q0 15.624 -13.671 15.624l-292.95 0q-13.671 0 -13.671 -15.624l0 -308.574q-3.906 -27.342 -25.389 -24.413t-23.436 24.413l0 308.574q0 15.624 -13.671 15.624l-93.744 0q-13.671 -1.953 -15.624 -15.624zm128.898 -778.271q0 -84.956 60.543 -145.499t144.522 -60.543 144.522 60.543 60.543 145.499 -60.543 144.522 -144.522 59.567 -144.522 -59.567 -60.543 -144.522zm87.885 34.178q0 46.872 34.178 81.05t82.026 34.178 82.026 -34.178 34.178 -81.05l-232.407 0z"/></svg>