<svg height="1000px" width="1000px" xmlns="http://www.w3.org/2000/svg">
  <g>
    <path d="M169.921875 984.375c0 0 0 -345.703 0 -345.703c-1.302 -61.198 13.672 -108.724 44.922 -142.578c31.25 -33.854 74.219 -51.433 128.906 -52.735c0 0 314.453 0 314.453 0c59.896 0 103.19 18.555 129.883 55.664c26.693 37.11 40.69 83.659 41.992 139.649c0 0 0 345.703 0 345.703c-1.302 10.417 -5.859 15.625 -13.672 15.625c0 0 -89.843 0 -89.843 0c-10.417 -1.302 -15.625 -6.51 -15.625 -15.625c0 0 0 -308.594 0 -308.594c-2.605 -18.229 -11.068 -26.367 -25.391 -24.414c-14.323 1.953 -22.135 10.091 -23.438 24.414c0 0 0 308.594 0 308.594c0 10.417 -4.557 15.625 -13.671 15.625c0 0 -292.969 0 -292.969 0c-9.115 0 -13.672 -5.208 -13.672 -15.625c0 0 0 -308.594 0 -308.594c-2.604 -18.229 -11.068 -26.367 -25.391 -24.414c-14.323 1.953 -22.135 10.091 -23.437 24.414c0 0 0 308.594 0 308.594c0 10.417 -4.557 15.625 -13.672 15.625c0 0 -93.75 0 -93.75 0c-9.115 -1.302 -14.323 -6.51 -15.625 -15.625c0 0 0 0 0 0m128.906 -778.32c0 -56.641 20.183 -105.144 60.547 -145.508c40.365 -40.365 88.542 -60.547 144.531 -60.547c55.99 0 104.167 20.182 144.532 60.547c40.364 40.364 60.547 88.867 60.547 145.508c0 56.64 -20.183 104.817 -60.547 144.531c-40.365 39.713 -88.542 59.57 -144.532 59.57c-55.989 0 -104.166 -19.857 -144.531 -59.57c-40.364 -39.714 -60.547 -87.891 -60.547 -144.531c0 0 0 0 0 0m87.891 34.179c0 31.25 11.393 58.269 34.18 81.055c22.786 22.787 50.13 34.18 82.031 34.18c31.901 0 59.245 -11.393 82.031 -34.18c22.787 -22.786 34.18 -49.805 34.18 -81.055c0 0 -232.422 0 -232.422 0c0 0 0 0 0 0" />
  </g>
</svg>