<svg height="1000px" width="1000px" xmlns="http://www.w3.org/2000/svg">
  <g>
    <path d="M146.484375 1000c0 0 0 -904.297 0 -904.297c0 0 224.609 0 224.609 0c0 0 0 64.453 0 64.453c0 0 -160.156 0 -160.156 0c0 0 0 773.438 0 773.438c0 0 578.125 0 578.125 0c0 0 0 -773.438 0 -773.438c0 0 -160.156 0 -160.156 0c0 0 0 -64.453 0 -64.453c0 0 224.609 0 224.609 0c0 0 0 904.297 0 904.297c0 0 -707.031 0 -707.031 0c0 0 0 0 0 0m128.906 -128.906c0 0 0 -31.25 0 -31.25c0 0 31.25 0 31.25 0c0 0 0 31.25 0 31.25c0 0 -31.25 0 -31.25 0c0 0 0 0 0 0m0 -121.094c0 0 0 -31.25 0 -31.25c0 0 31.25 0 31.25 0c0 0 0 31.25 0 31.25c0 0 -31.25 0 -31.25 0c0 0 0 0 0 0m0 -121.094c0 0 0 -31.25 0 -31.25c0 0 31.25 0 31.25 0c0 0 0 31.25 0 31.25c0 0 -31.25 0 -31.25 0c0 0 0 0 0 0m0 -121.093c0 0 0 -31.25 0 -31.25c0 0 31.25 0 31.25 0c0 0 0 31.25 0 31.25c0 0 -31.25 0 -31.25 0c0 0 0 0 0 0m0 -121.094c0 0 0 -31.25 0 -31.25c0 0 31.25 0 31.25 0c0 0 0 31.25 0 31.25c0 0 -31.25 0 -31.25 0c0 0 0 0 0 0m0 -95.703c0 0 0 -62.5 0 -62.5c0 0 0 -31.25 0 -31.25c0 0 25.391 0 25.391 0c0 0 5.859 0 5.859 0c0 0 97.656 0 97.656 0c0 0 0 -97.657 0 -97.657c0 -27.343 9.115 -50.781 27.344 -70.312c18.229 -19.531 41.016 -29.297 68.36 -29.297c27.343 0 50.455 10.091 69.336 30.273c18.88 20.183 28.32 43.295 28.32 69.336c0 37.761 -0.651 70.313 -1.953 97.657c0 0 97.656 0 97.656 0c0 0 5.859 0 5.859 0c0 0 25.391 0 25.391 0c0 0 0 31.25 0 31.25c0 0 0 62.5 0 62.5c0 0 -449.219 0 -449.219 0c0 0 0 0 0 0m95.703 582.031c0 0 0 -33.203 0 -33.203c0 0 353.516 0 353.516 0c0 0 0 33.203 0 33.203c0 0 -353.516 0 -353.516 0c0 0 0 0 0 0m0 -121.094c0 0 0 -33.203 0 -33.203c0 0 353.516 0 353.516 0c0 0 0 33.203 0 33.203c0 0 -353.516 0 -353.516 0c0 0 0 0 0 0m0 -121.094c0 0 0 -33.203 0 -33.203c0 0 353.516 0 353.516 0c0 0 0 33.203 0 33.203c0 0 -353.516 0 -353.516 0c0 0 0 0 0 0m0 -121.093c0 0 0 -33.203 0 -33.203c0 0 353.516 0 353.516 0c0 0 0 33.203 0 33.203c0 0 -353.516 0 -353.516 0c0 0 0 0 0 0m0 -121.094c0 0 0 -33.203 0 -33.203c0 0 353.516 0 353.516 0c0 0 0 33.203 0 33.203c0 0 -353.516 0 -353.516 0c0 0 0 0 0 0m97.657 -259.766c0 9.115 2.929 16.602 8.789 22.461c5.859 5.86 13.346 8.789 22.461 8.789c9.114 0 16.601 -2.929 22.461 -8.789c5.859 -5.859 8.789 -13.346 8.789 -22.461c0 -9.114 -2.93 -16.927 -8.789 -23.437c-5.86 -6.511 -13.347 -9.766 -22.461 -9.766c-9.115 0 -16.602 3.255 -22.461 9.766c-5.86 6.51 -8.789 14.323 -8.789 23.437c0 0 0 0 0 0" />
  </g>
</svg>