<svg height="1000px" width="1000px" xmlns="http://www.w3.org/2000/svg">
  <g>
    <path d="M0 500c0 -138.021 48.828 -255.859 146.484 -353.516c97.657 -97.656 215.495 -146.484 353.516 -146.484c138.021 0 255.859 48.828 353.516 146.484c97.656 97.657 146.484 215.495 146.484 353.516c0 138.021 -48.828 255.859 -146.484 353.516c-97.657 97.656 -215.495 146.484 -353.516 146.484c-138.021 0 -255.859 -48.828 -353.516 -146.484c-97.656 -97.657 -146.484 -215.495 -146.484 -353.516c0 0 0 0 0 0m267.578 -89.844c0 0 236.328 236.328 236.328 236.328c0 0 337.891 -337.89 337.891 -337.89c0 0 -89.844 -89.844 -89.844 -89.844c0 0 -248.047 248.047 -248.047 248.047c0 0 -146.484 -146.485 -146.484 -146.485c0 0 -9.766 9.766 -9.766 9.766c0 0 -70.312 70.313 -70.312 70.313c0 0 -9.766 9.765 -9.766 9.765" />
  </g>
</svg>