<svg height="1000px" width="1000px" xmlns="http://www.w3.org/2000/svg">
  <g>
    <path d="M0 456.0546875c0 -125.651 44.596 -233.073 133.789 -322.266c89.193 -89.192 196.615 -133.789 322.266 -133.789c125.651 0 232.747 44.597 321.289 133.789c88.541 89.193 132.812 196.615 132.812 322.266c0 125.651 -44.271 232.747 -132.812 321.289c-88.542 88.542 -195.638 132.813 -321.289 132.813c-125.651 0 -233.073 -44.271 -322.266 -132.813c-89.193 -88.542 -133.789 -195.638 -133.789 -321.289c0 0 0 0 0 0m119.141 0c0 93.099 32.877 172.526 98.632 238.281c65.756 65.755 145.183 98.633 238.282 98.633c93.099 0 172.526 -32.878 238.281 -98.633c65.755 -65.755 98.633 -145.182 98.633 -238.281c0 -93.099 -32.878 -172.526 -98.633 -238.281c-65.755 -65.755 -145.182 -98.633 -238.281 -98.633c-93.099 0 -172.526 32.878 -238.282 98.633c-65.755 65.755 -98.632 145.182 -98.632 238.281c0 0 0 0 0 0m171.875 69.336c0 0 0 -117.188 0 -117.188c0 0 117.187 0 117.187 0c0 0 0 -212.89 0 -212.89c0 0 117.188 0 117.188 0c0 0 0 212.89 0 212.89c0 0 0 117.188 0 117.188c0 0 -117.188 0 -117.188 0c0 0 -117.187 0 -117.187 0c0 0 0 0 0 0" />
  </g>
</svg>