<svg height="1000px" width="1000px" xmlns="http://www.w3.org/2000/svg">
  <g>
    <path d="M0 547.8515625c2.604 -46.224 13.672 -87.891 33.203 -125c19.531 -37.109 48.503 -65.43 86.914 -84.961c38.412 -19.531 79.753 -24.088 124.024 -13.672c35.156 -57.291 77.799 -95.377 127.929 -114.258c50.131 -18.88 98.308 -20.833 144.532 -5.859c46.224 14.974 88.216 41.992 125.976 81.055c37.761 39.062 63.802 84.635 78.125 136.718c32.552 -3.906 62.175 3.256 88.867 21.485c26.693 18.229 45.573 41.015 56.641 68.359c11.068 27.344 13.997 57.292 8.789 89.844c-5.208 32.552 -20.833 59.896 -46.875 82.031c0 0 -791.016 0 -791.016 0c-27.343 -44.271 -39.713 -89.518 -37.109 -135.742c0 0 0 0 0 0" />
  </g>
</svg>