<svg height="1000px" width="1000px" xmlns="http://www.w3.org/2000/svg">
  <g>
    <path d="M0 500c0 -138.021 48.828 -255.859 146.484 -353.516c97.657 -97.656 215.495 -146.484 353.516 -146.484c138.021 0 255.859 48.828 353.516 146.484c97.656 97.657 146.484 215.495 146.484 353.516c0 138.021 -48.828 255.859 -146.484 353.516c-97.657 97.656 -215.495 146.484 -353.516 146.484c-138.021 0 -255.859 -48.828 -353.516 -146.484c-97.656 -97.657 -146.484 -215.495 -146.484 -353.516c0 0 0 0 0 0m159.18 34.18c-1.953 35.807 7.487 70.638 28.32 104.492c0 0 615.234 0 615.234 0c19.532 -16.927 31.576 -37.761 36.133 -62.5c4.557 -24.74 2.279 -47.852 -6.836 -69.336c-9.114 -21.484 -24.088 -39.388 -44.922 -53.711c-20.833 -14.323 -43.619 -20.182 -68.359 -17.578c-14.323 -50.781 -41.992 -93.099 -83.008 -126.953c-41.015 -33.854 -84.961 -50.13 -131.836 -48.828c-62.5 1.302 -114.583 35.156 -156.25 101.562c-33.854 -9.114 -65.755 -6.185 -95.703 8.789c-29.948 14.974 -52.409 37.11 -67.383 66.406c-14.974 29.297 -23.437 61.849 -25.39 97.657c0 0 0 0 0 0" />
  </g>
</svg>