<svg height="1000px" width="1000px" xmlns="http://www.w3.org/2000/svg">
  <g>
    <path d="M0 500c0 -138.021 48.828 -255.859 146.484 -353.516c97.657 -97.656 215.495 -146.484 353.516 -146.484c138.021 0 255.859 48.828 353.516 146.484c97.656 97.657 146.484 215.495 146.484 353.516c0 138.021 -48.828 255.859 -146.484 353.516c-97.657 97.656 -215.495 146.484 -353.516 146.484c-138.021 0 -255.859 -48.828 -353.516 -146.484c-97.656 -97.657 -146.484 -215.495 -146.484 -353.516c0 0 0 0 0 0m195.312 46.875c0 0 91.797 9.766 91.797 9.766c5.209 19.531 12.37 37.109 21.485 52.734c0 0 -58.594 72.266 -58.594 72.266c0 0 68.359 68.359 68.359 68.359c0 0 72.266 -58.594 72.266 -58.594c15.625 9.115 33.203 16.276 52.734 21.485c0 0 9.766 91.797 9.766 91.797c0 0 93.75 0 93.75 0c0 0 9.766 -91.797 9.766 -91.797c19.531 -5.209 37.109 -12.37 52.734 -21.485c0 0 72.266 58.594 72.266 58.594c0 0 68.359 -68.359 68.359 -68.359c0 0 -58.594 -72.266 -58.594 -72.266c9.115 -15.625 16.276 -33.203 21.485 -52.734c0 0 91.797 -9.766 91.797 -9.766c0 0 0 -93.75 0 -93.75c0 0 -91.797 -9.766 -91.797 -9.766c-5.209 -19.531 -12.37 -37.109 -21.485 -52.734c0 0 58.594 -72.266 58.594 -72.266c0 0 -68.359 -68.359 -68.359 -68.359c0 0 -72.266 58.594 -72.266 58.594c-15.625 -9.115 -33.203 -16.276 -52.734 -21.485c0 0 -9.766 -91.796 -9.766 -91.796c0 0 -93.75 0 -93.75 0c0 0 -9.766 91.796 -9.766 91.796c-19.531 5.209 -37.109 12.37 -52.734 21.485c0 0 -72.266 -58.594 -72.266 -58.594c0 0 -68.359 68.359 -68.359 68.359c0 0 58.594 72.266 58.594 72.266c-9.115 15.625 -16.276 33.203 -21.485 52.734c0 0 -91.796 9.766 -91.796 9.766c0 0 0 93.75 0 93.75c0 0 0 0 0 0m216.796 -46.875c0 -24.74 8.464 -45.573 25.391 -62.5c16.927 -16.927 37.76 -25.391 62.5 -25.391c24.74 0 45.573 8.464 62.5 25.391c16.927 16.927 25.391 37.76 25.391 62.5c0 24.74 -8.464 45.573 -25.391 62.5c-16.927 16.927 -37.76 25.391 -62.5 25.391c-24.74 0 -45.573 -8.464 -62.5 -25.391c-16.927 -16.927 -25.391 -37.76 -25.391 -62.5c0 0 0 0 0 0" />
  </g>
</svg>