<svg height="1000px" width="1000px" xmlns="http://www.w3.org/2000/svg">
  <g>
    <path d="M0 578.125c0 0 0 -156.25 0 -156.25c0 0 150.391 -15.625 150.391 -15.625c9.114 -29.948 21.484 -59.245 37.109 -87.891c0 0 -95.703 -117.187 -95.703 -117.187c0 0 109.375 -109.375 109.375 -109.375c0 0 117.187 95.703 117.187 95.703c27.344 -15.625 56.641 -27.995 87.891 -37.109c0 0 15.625 -150.391 15.625 -150.391c0 0 156.25 0 156.25 0c0 0 15.625 150.391 15.625 150.391c29.948 9.114 59.245 21.484 87.891 37.109c0 0 117.187 -95.703 117.187 -95.703c0 0 109.375 109.375 109.375 109.375c0 0 -95.703 117.187 -95.703 117.187c15.625 28.646 27.995 57.943 37.109 87.891c0 0 150.391 15.625 150.391 15.625c0 0 0 156.25 0 156.25c0 0 -150.391 15.625 -150.391 15.625c-9.114 31.25 -21.484 60.547 -37.109 87.891c0 0 95.703 117.187 95.703 117.187c0 0 -109.375 109.375 -109.375 109.375c0 0 -117.187 -95.703 -117.187 -95.703c-28.646 15.625 -57.943 27.995 -87.891 37.109c0 0 -15.625 150.391 -15.625 150.391c0 0 -156.25 0 -156.25 0c0 0 -15.625 -150.391 -15.625 -150.391c-31.25 -9.114 -60.547 -21.484 -87.891 -37.109c0 0 -117.187 95.703 -117.187 95.703c0 0 -109.375 -109.375 -109.375 -109.375c0 0 95.703 -117.187 95.703 -117.187c-15.625 -27.344 -27.995 -56.641 -37.109 -87.891c0 0 -150.391 -15.625 -150.391 -15.625m355.469 -78.125c0 40.365 13.997 74.544 41.992 102.539c27.995 27.995 62.174 41.992 102.539 41.992c40.365 0 74.544 -13.997 102.539 -41.992c27.995 -27.995 41.992 -62.174 41.992 -102.539c0 -40.365 -13.997 -74.544 -41.992 -102.539c-27.995 -27.995 -62.174 -41.992 -102.539 -41.992c-40.365 0 -74.544 13.997 -102.539 41.992c-27.995 27.995 -41.992 62.174 -41.992 102.539c0 0 0 0 0 0" />
  </g>
</svg>