<svg height="1000px" width="1000px" xmlns="http://www.w3.org/2000/svg">
  <g>
    <path d="M0 605.46875c0 0 0 -97.656 0 -97.656c0 0 93.75 -7.813 93.75 -7.813c5.208 -19.531 13.021 -37.76 23.438 -54.687c-0.001 0 -60.547 -74.219 -60.547 -74.219c0 0 68.359 -68.359 68.359 -68.359c0 0 74.219 60.546 74.219 60.546c16.927 -10.416 35.156 -18.229 54.687 -23.437c0 0 7.813 -93.75 7.813 -93.75c0 0 97.656 0 97.656 0c0 0 9.766 93.75 9.766 93.75c19.531 5.208 37.76 13.021 54.687 23.438c0 0 74.219 -60.547 74.219 -60.547c0 0 68.359 68.359 68.359 68.359c0 0 -60.547 74.219 -60.547 74.219c10.417 16.927 18.23 35.156 23.438 54.687c0 0 93.75 7.813 93.75 7.813c0 0 0 97.656 0 97.656c0 0 -93.75 9.766 -93.75 9.766c-5.208 19.531 -13.021 37.76 -23.438 54.687c0 0 60.547 72.266 60.547 72.266c0 0 -68.359 70.312 -68.359 70.312c0 0 -74.219 -60.547 -74.219 -60.547c-16.927 10.417 -35.156 18.23 -54.687 23.438c0 0 -9.766 93.75 -9.766 93.75c0 0 -97.656 0 -97.656 0c0 0 -7.813 -93.75 -7.813 -93.75c-19.531 -5.208 -37.76 -13.021 -54.687 -23.438c0 0 -74.219 60.547 -74.219 60.547c0 0 -68.359 -70.312 -68.359 -70.312c0 0 60.546 -72.266 60.546 -72.266c-10.416 -16.927 -18.229 -35.156 -23.437 -54.687c0 0 -93.75 -9.766 -93.75 -9.766m220.703 -48.828c0 24.739 8.789 45.898 26.367 63.476c17.578 17.579 38.737 26.368 63.477 26.368c24.739 0 45.898 -8.789 63.476 -26.368c17.579 -17.578 26.368 -38.737 26.368 -63.476c0 -24.74 -8.789 -45.899 -26.368 -63.477c-17.578 -17.578 -38.737 -26.367 -63.476 -26.367c-24.74 0 -45.899 8.789 -63.477 26.367c-17.578 17.578 -26.367 38.737 -26.367 63.477c0 0 0 0 0 0m318.359 -238.281c0 0 7.813 -72.266 7.813 -72.266c0 0 70.312 1.953 70.312 1.953c5.209 -14.323 11.719 -27.344 19.532 -39.062c0 0 -37.11 -56.641 -37.11 -56.641c0 0 54.688 -44.922 54.688 -44.922c0 0 48.828 48.828 48.828 48.828c13.021 -6.51 26.693 -11.067 41.016 -13.672c0 0 13.671 -66.406 13.671 -66.406c0 0 72.266 7.813 72.266 7.813c0 0 -1.953 68.359 -1.953 68.359c14.323 5.208 27.344 12.37 39.062 21.484c0 0 56.641 -39.062 56.641 -39.062c0 0 44.922 54.687 44.922 54.687c0 0 -48.828 48.828 -48.828 48.828c6.51 13.021 10.417 27.344 11.719 42.969c0 0 68.359 13.672 68.359 13.672c0 0 -7.813 70.313 -7.813 70.313c0 0 -68.359 0 -68.359 0c-5.208 13.02 -12.37 25.39 -21.484 37.109c0 0 39.062 58.594 39.062 58.594c0 0 -56.64 44.922 -56.64 44.922c0 0 -46.875 -48.829 -46.875 -48.829c-14.323 5.209 -28.646 9.115 -42.969 11.719c0 0 -13.672 66.406 -13.672 66.406c0 0 -70.313 -5.859 -70.313 -5.859c0 0 0 -70.312 0 -70.312c-13.02 -5.209 -25.39 -11.719 -37.109 -19.532c0 0 -58.594 37.11 -58.594 37.11c0 0 -44.922 -54.688 -44.922 -54.688c0 0 48.829 -48.828 48.829 -48.828c-5.209 -13.021 -9.115 -26.693 -11.719 -41.016c0 0 -68.359 -13.671 -68.359 -13.671m31.25 445.312c0 0 5.859 -50.781 5.859 -50.781c0 0 48.828 0 48.828 0c3.906 -10.417 8.464 -19.531 13.672 -27.344c0 0 -25.391 -42.969 -25.391 -42.969c0 0 37.11 -33.203 37.11 -33.203c0 0 35.156 37.11 35.156 37.11c9.114 -5.209 18.88 -8.464 29.297 -9.766c0 0 9.765 -48.828 9.765 -48.828c0 0 48.829 5.859 48.829 5.859c0 0 0 48.828 0 48.828c10.416 3.907 19.531 9.115 27.343 15.625c0 0 41.016 -27.343 41.016 -27.343c0 0 31.25 41.015 31.25 41.015c0 0 -35.156 35.156 -35.156 35.156c3.906 9.115 7.161 18.881 9.765 29.297c0 0 46.875 11.719 46.875 11.719c0 0 -5.859 50.781 -5.859 50.781c0 0 -48.828 0 -48.828 0c-2.604 10.417 -7.162 19.532 -13.672 27.344c0 0 27.344 42.969 27.344 42.969c0 0 -39.063 33.203 -39.063 33.203c0 0 -35.156 -37.109 -35.156 -37.109c-9.115 5.208 -18.88 8.463 -29.297 9.765c0 0 -9.766 48.828 -9.766 48.828c0 0 -48.828 -5.859 -48.828 -5.859c0 0 0 -50.781 0 -50.781c-9.114 -2.604 -18.229 -7.162 -27.343 -13.672c0 0 -41.016 27.344 -41.016 27.344c0 0 -31.25 -41.016 -31.25 -41.016c0 0 35.156 -35.156 35.156 -35.156c-3.906 -9.115 -6.51 -18.88 -7.812 -29.297c0 0 -48.828 -11.719 -48.828 -11.719m117.187 -13.672c-2.604 14.323 0.326 26.367 8.789 36.133c8.464 9.766 18.88 15.625 31.25 17.578c12.37 1.953 23.763 -1.302 34.18 -9.765c10.416 -8.464 16.276 -19.532 17.578 -33.204c1.302 -13.671 -2.279 -25.39 -10.742 -35.156c-8.464 -9.765 -18.555 -15.95 -30.274 -18.555c0 0 -5.859 0 -5.859 0c-11.719 0 -22.136 4.232 -31.25 12.696c-9.115 8.463 -13.672 18.554 -13.672 30.273c0 0 0 0 0 0m17.578 -451.172c-2.604 18.23 1.953 34.506 13.672 48.828c11.719 14.323 26.693 22.461 44.922 24.415c18.229 1.953 34.18 -2.93 47.851 -14.649c13.672 -11.719 21.485 -26.693 23.438 -44.922c1.953 -18.229 -2.604 -34.179 -13.672 -47.851c-11.068 -13.672 -25.716 -21.81 -43.945 -24.414c0 0 -7.813 0 -7.813 0c-16.927 0 -31.575 5.533 -43.945 16.601c-12.37 11.068 -19.206 25.065 -20.508 41.992c0 0 0 0 0 0" />
  </g>
</svg>