<svg height="1000px" width="1000px" xmlns="http://www.w3.org/2000/svg">
  <g>
    <path d="M0 658.203125c0 0 0 -607.422 0 -607.422c0 0 853.516 0 853.516 0c0 0 0 607.422 0 607.422c0 0 -404.297 0 -404.297 0c0 0 -273.438 175.781 -273.438 175.781c0 0 0 -175.781 0 -175.781c0 0 -175.781 0 -175.781 0c0 0 0 0 0 0m347.656 111.328c0 0 119.141 -76.172 119.141 -76.172c0 0 117.187 0 117.187 0c0 0 11.719 0 11.719 0c0 0 9.766 5.86 9.766 5.86c0 0 169.922 111.328 169.922 111.328c0 0 0 -78.125 0 -78.125c0 0 0 -39.063 0 -39.063c0 0 39.062 0 39.062 0c0 0 109.375 0 109.375 0c0 0 0 -433.593 0 -433.593c0 0 -31.25 0 -31.25 0c0 0 0 -76.172 0 -76.172c0 0 68.36 0 68.36 0c0 0 39.062 0 39.062 0c0 0 0 39.062 0 39.062c0 0 0 509.766 0 509.766c0 0 0 37.109 0 37.109c0 0 -39.063 0 -39.063 0c0 0 -109.375 0 -109.375 0c0 0 0 109.375 0 109.375c0 0 0 70.313 0 70.313c0 0 -58.593 -37.11 -58.593 -37.11c0 0 -220.703 -142.578 -220.703 -142.578c0 0 -224.61 0 -224.61 0c0 0 0 0 0 0" />
  </g>
</svg>