<svg height="1000px" width="1000px" xmlns="http://www.w3.org/2000/svg">
  <g>
    <path d="M0 456.0546875c0 -125.651 44.596 -233.073 133.789 -322.266c89.193 -89.192 196.615 -133.789 322.266 -133.789c125.651 0 232.747 44.597 321.289 133.789c88.541 89.193 132.812 196.615 132.812 322.266c0 125.651 -44.271 232.747 -132.812 321.289c-88.542 88.542 -195.638 132.813 -321.289 132.813c-125.651 0 -233.073 -44.271 -322.266 -132.813c-89.193 -88.542 -133.789 -195.638 -133.789 -321.289c0 0 0 0 0 0m62.5 -0.977c0 108.073 38.411 200.521 115.234 277.344c76.823 76.823 169.271 115.235 277.344 115.235c108.073 0 200.521 -38.412 277.344 -115.235c76.823 -76.823 115.234 -169.271 115.234 -277.344c0 -108.072 -38.411 -200.52 -115.234 -277.343c-76.823 -76.823 -169.271 -115.235 -277.344 -115.235c-108.073 0 -200.521 38.412 -277.344 115.235c-76.823 76.823 -115.234 169.271 -115.234 277.343c0 0 0 0 0 0m138.672 234.375c0 0 185.547 -302.734 185.547 -302.734c0 0 302.734 -185.547 302.734 -185.547c0 0 19.531 21.485 19.531 21.485c0 0 -183.593 302.734 -183.593 302.734c0 0 -302.735 183.594 -302.735 183.594c0 0 -21.484 -19.532 -21.484 -19.532" />
  </g>
</svg>