<svg height="1000px" width="1000px" xmlns="http://www.w3.org/2000/svg">
  <g>
    <path d="M0 456.0546875c0 -125.651 44.596 -233.073 133.789 -322.266c89.193 -89.192 196.615 -133.789 322.266 -133.789c125.651 0 232.747 44.597 321.289 133.789c88.541 89.193 132.812 196.615 132.812 322.266c0 125.651 -44.271 232.747 -132.812 321.289c-88.542 88.542 -195.638 132.813 -321.289 132.813c-125.651 0 -233.073 -44.271 -322.266 -132.813c-89.193 -88.542 -133.789 -195.638 -133.789 -321.289c0 0 0 0 0 0m183.594 249.023c0 0 21.484 23.438 21.484 23.438c0 0 324.219 -199.219 324.219 -199.219c0 0 199.219 -324.219 199.219 -324.219c0 0 -23.438 -21.484 -23.438 -21.484c0 0 -324.219 197.266 -324.219 197.266c0 0 -197.265 324.218 -197.265 324.218" />
  </g>
</svg>