<svg height="1000px" width="1000px" xmlns="http://www.w3.org/2000/svg">
  <g>
    <path d="M0 832.03125c0 0 0 -664.063 0 -664.063c0 0 1000 0 1000 0c0 0 0 664.063 0 664.063c0 0 -1000 0 -1000 0c0 0 0 0 0 0m62.5 -62.5c0 0 875 0 875 0c0 0 0 -296.875 0 -296.875c0 0 -875 0 -875 0c0 0 0 296.875 0 296.875c0 0 0 0 0 0m0 -439.453c0 0 875 0 875 0c0 0 0 -99.61 0 -99.61c0 0 -875 0 -875 0c0 0 0 99.61 0 99.61c0 0 0 0 0 0m60.547 361.328c0 -9.115 1.627 -16.276 4.883 -21.484c3.255 -5.209 8.138 -7.813 14.648 -7.813c6.511 0 11.393 2.604 14.649 7.813c3.255 5.208 4.882 12.369 4.882 21.484c0 9.115 -1.627 16.276 -4.882 21.484c-3.256 5.209 -8.138 7.813 -14.649 7.813c-6.51 0 -11.393 -2.604 -14.648 -7.813c-3.256 -5.208 -4.883 -12.369 -4.883 -21.484c0 0 0 0 0 0m7.812 0c0 7.813 0.977 13.672 2.93 17.578c1.953 3.906 4.883 5.86 8.789 5.86c3.906 0 6.836 -1.954 8.789 -5.86c1.953 -3.906 2.93 -9.765 2.93 -17.578c0 -7.813 -0.977 -13.672 -2.93 -17.578c-1.953 -3.906 -4.883 -5.86 -8.789 -5.86c-3.906 0 -6.836 1.954 -8.789 5.86c-1.953 3.906 -2.93 9.765 -2.93 17.578c0 0 0 0 0 0m42.969 0c0 -9.115 1.628 -16.276 4.883 -21.484c3.255 -5.209 8.138 -7.813 14.648 -7.813c6.511 0 11.394 2.604 14.649 7.813c3.255 5.208 4.883 12.369 4.883 21.484c0 9.115 -1.628 16.276 -4.883 21.484c-3.255 5.209 -8.138 7.813 -14.649 7.813c-6.51 0 -11.393 -2.604 -14.648 -7.813c-3.255 -5.208 -4.883 -12.369 -4.883 -21.484c0 0 0 0 0 0m7.813 0c0 7.813 0.976 13.672 2.929 17.578c1.953 3.906 4.883 5.86 8.789 5.86c3.907 0 6.836 -1.954 8.789 -5.86c1.954 -3.906 2.93 -9.765 2.93 -17.578c0 -7.813 -0.976 -13.672 -2.93 -17.578c-1.953 -3.906 -4.882 -5.86 -8.789 -5.86c-3.906 0 -6.836 1.954 -8.789 5.86c-1.953 3.906 -2.929 9.765 -2.929 17.578c0 0 0 0 0 0m41.015 0c0 -9.115 1.628 -16.276 4.883 -21.484c3.255 -5.209 8.138 -7.813 14.648 -7.813c6.511 0 11.394 2.604 14.649 7.813c3.255 5.208 4.883 12.369 4.883 21.484c0 9.115 -1.628 16.276 -4.883 21.484c-3.255 5.209 -8.138 7.813 -14.649 7.813c-6.51 0 -11.393 -2.604 -14.648 -7.813c-3.255 -5.208 -4.883 -12.369 -4.883 -21.484c0 0 0 0 0 0m7.813 0c0 7.813 0.976 13.672 2.929 17.578c1.954 3.906 4.883 5.86 8.79 5.86c3.906 0 6.835 -1.954 8.789 -5.86c1.953 -3.906 2.929 -9.765 2.929 -17.578c0 -7.813 -0.976 -13.672 -2.929 -17.578c-1.954 -3.906 -4.883 -5.86 -8.789 -5.86c-3.907 0 -6.836 1.954 -8.79 5.86c-1.953 3.906 -2.929 9.765 -2.929 17.578c0 0 0 0 0 0m42.969 0c0 -9.115 1.627 -16.276 4.882 -21.484c3.256 -5.209 8.138 -7.813 14.649 -7.813c6.51 0 11.393 2.604 14.648 7.813c3.255 5.208 4.883 12.369 4.883 21.484c0 9.115 -1.628 16.276 -4.883 21.484c-3.255 5.209 -8.138 7.813 -14.648 7.813c-6.511 0 -11.393 -2.604 -14.649 -7.813c-3.255 -5.208 -4.882 -12.369 -4.882 -21.484c0 0 0 0 0 0m7.812 0c0 7.813 0.977 13.672 2.93 17.578c1.953 3.906 4.882 5.86 8.789 5.86c3.906 0 6.836 -1.954 8.789 -5.86c1.953 -3.906 2.93 -9.765 2.93 -17.578c0 -7.813 -0.977 -13.672 -2.93 -17.578c-1.953 -3.906 -4.883 -5.86 -8.789 -5.86c-3.906 0 -6.836 1.954 -8.789 5.86c-1.953 3.906 -2.93 9.765 -2.93 17.578c0 0 0 0 0 0m39.063 9.766c0 0 0 -5.86 0 -5.86c0 0 21.484 0 21.484 0c0 0 0 5.86 0 5.86c0 0 -21.484 0 -21.484 0c0 0 0 0 0 0m31.25 -9.766c0 -9.115 1.627 -16.276 4.882 -21.484c3.256 -5.209 8.138 -7.813 14.649 -7.813c6.51 0 11.393 2.604 14.648 7.813c3.255 5.208 4.883 12.369 4.883 21.484c0 9.115 -1.628 16.276 -4.883 21.484c-3.255 5.209 -8.138 7.813 -14.648 7.813c-6.511 0 -11.393 -2.604 -14.649 -7.813c-3.255 -5.208 -4.882 -12.369 -4.882 -21.484c0 0 0 0 0 0m7.812 0c0 7.813 0.977 13.672 2.93 17.578c1.953 3.906 4.882 5.86 8.789 5.86c3.906 0 6.836 -1.954 8.789 -5.86c1.953 -3.906 2.93 -9.765 2.93 -17.578c0 -7.813 -0.977 -13.672 -2.93 -17.578c-1.953 -3.906 -4.883 -5.86 -8.789 -5.86c-3.906 0 -6.836 1.954 -8.789 5.86c-1.953 3.906 -2.93 9.765 -2.93 17.578c0 0 0 0 0 0m41.016 0c0 -9.115 1.627 -16.276 4.882 -21.484c3.256 -5.209 8.138 -7.813 14.649 -7.813c6.51 0 11.393 2.604 14.648 7.813c3.256 5.208 4.883 12.369 4.883 21.484c0 9.115 -1.627 16.276 -4.883 21.484c-3.255 5.209 -8.138 7.813 -14.648 7.813c-6.511 0 -11.393 -2.604 -14.649 -7.813c-3.255 -5.208 -4.882 -12.369 -4.882 -21.484c0 0 0 0 0 0m7.812 0c0 7.813 0.977 13.672 2.93 17.578c1.953 3.906 4.883 5.86 8.789 5.86c3.906 0 6.836 -1.954 8.789 -5.86c1.953 -3.906 2.93 -9.765 2.93 -17.578c0 -7.813 -0.977 -13.672 -2.93 -17.578c-1.953 -3.906 -4.883 -5.86 -8.789 -5.86c-3.906 0 -6.836 1.954 -8.789 5.86c-1.953 3.906 -2.93 9.765 -2.93 17.578c0 0 0 0 0 0m41.016 0c0 -9.115 1.953 -16.276 5.859 -21.484c3.906 -5.209 8.789 -7.813 14.649 -7.813c5.859 0 10.742 2.604 14.648 7.813c3.906 5.208 5.859 12.369 5.859 21.484c0 9.115 -1.953 16.276 -5.859 21.484c-3.906 5.209 -8.789 7.813 -14.648 7.813c-5.86 0 -10.743 -2.604 -14.649 -7.813c-3.906 -5.208 -5.859 -12.369 -5.859 -21.484c0 0 0 0 0 0m7.812 0c0 7.813 1.302 13.672 3.906 17.578c2.605 3.906 5.86 5.86 9.766 5.86c3.906 0 6.836 -1.954 8.789 -5.86c1.953 -3.906 2.93 -9.765 2.93 -17.578c0 -7.813 -0.977 -13.672 -2.93 -17.578c-1.953 -3.906 -4.883 -5.86 -8.789 -5.86c-3.906 0 -7.161 1.954 -9.766 5.86c-2.604 3.906 -3.906 9.765 -3.906 17.578c0 0 0 0 0 0m42.969 0c0 -9.115 1.628 -16.276 4.883 -21.484c3.255 -5.209 8.138 -7.813 14.648 -7.813c6.511 0 11.393 2.604 14.649 7.813c3.255 5.208 4.882 12.369 4.882 21.484c0 9.115 -1.627 16.276 -4.882 21.484c-3.256 5.209 -8.138 7.813 -14.649 7.813c-6.51 0 -11.393 -2.604 -14.648 -7.813c-3.255 -5.208 -4.883 -12.369 -4.883 -21.484c0 0 0 0 0 0m7.812 0c0 7.813 0.977 13.672 2.93 17.578c1.953 3.906 4.883 5.86 8.789 5.86c3.906 0 6.836 -1.954 8.789 -5.86c1.953 -3.906 2.93 -9.765 2.93 -17.578c0 -7.813 -0.977 -13.672 -2.93 -17.578c-1.953 -3.906 -4.883 -5.86 -8.789 -5.86c-3.906 0 -6.836 1.954 -8.789 5.86c-1.953 3.906 -2.93 9.765 -2.93 17.578c0 0 0 0 0 0" />
  </g>
</svg>