<svg height="1000" width="1000" xmlns="http://www.w3.org/2000/svg"><path d="M0 832.02l0 -664.02l999.936 0l0 664.02l-999.936 0zm62.496 -62.496l874.944 0l0 -296.856l-874.944 0l0 296.856zm0 -439.425l874.944 0l0 -99.603l-874.944 0l0 99.603zm60.543 361.305q0 -13.671 4.883 -21.483t14.648 -7.812 14.648 7.812 4.883 21.483 -4.883 21.483 -14.648 7.812 -14.648 -7.812 -4.883 -21.483zm7.812 0q0 11.718 2.929 17.577t8.789 5.859 8.789 -5.859 2.929 -17.577 -2.929 -17.577 -8.789 -5.859 -8.789 5.859 -2.929 17.577zm42.966 0q0 -13.671 4.883 -21.483t14.648 -7.812 14.648 7.812 4.883 21.483 -4.883 21.483 -14.648 7.812 -14.648 -7.812 -4.883 -21.483zm7.812 0q0 11.718 2.929 17.577t8.789 5.859 8.789 -5.859 2.929 -17.577 -2.929 -17.577 -8.789 -5.859 -8.789 5.859 -2.929 17.577zm41.013 0q0 -13.671 4.883 -21.483t14.648 -7.812 14.648 7.812 4.883 21.483 -4.883 21.483 -14.648 7.812 -14.648 -7.812 -4.883 -21.483zm7.812 0q0 11.718 2.929 17.577t8.789 5.859 8.789 -5.859 2.929 -17.577 -2.929 -17.577 -8.789 -5.859 -8.789 5.859 -2.929 17.577zm42.966 0q0 -13.671 4.883 -21.483t14.648 -7.812 14.648 7.812 4.883 21.483 -4.883 21.483 -14.648 7.812 -14.648 -7.812 -4.883 -21.483zm7.812 0q0 11.718 2.929 17.577t8.789 5.859 8.789 -5.859 2.929 -17.577 -2.929 -17.577 -8.789 -5.859 -8.789 5.859 -2.929 17.577zm39.06 9.765l0 -5.859l21.483 0l0 5.859l-21.483 0zm31.248 -9.765q0 -13.671 4.883 -21.483t14.648 -7.812 14.648 7.812 4.883 21.483 -4.883 21.483 -14.648 7.812 -14.648 -7.812 -4.883 -21.483zm7.812 0q0 11.718 2.929 17.577t8.789 5.859 8.789 -5.859 2.929 -17.577 -2.929 -17.577 -8.789 -5.859 -8.789 5.859 -2.929 17.577zm41.013 0q0 -13.671 4.883 -21.483t14.648 -7.812 14.648 7.812 4.883 21.483 -4.883 21.483 -14.648 7.812 -14.648 -7.812 -4.883 -21.483zm7.812 0q0 11.718 2.929 17.577t8.789 5.859 8.789 -5.859 2.929 -17.577 -2.929 -17.577 -8.789 -5.859 -8.789 5.859 -2.929 17.577zm41.013 0q0 -13.671 5.859 -21.483t14.648 -7.812 14.648 7.812 5.859 21.483 -5.859 21.483 -14.648 7.812 -14.648 -7.812 -5.859 -21.483zm7.812 0q0 11.718 3.906 17.577t9.765 5.859 8.789 -5.859 2.929 -17.577 -2.929 -17.577 -8.789 -5.859 -9.765 5.859 -3.906 17.577zm42.966 0q0 -13.671 4.883 -21.483t14.648 -7.812 14.648 7.812 4.883 21.483 -4.883 21.483 -14.648 7.812 -14.648 -7.812 -4.883 -21.483zm7.812 0q0 11.718 2.929 17.577t8.789 5.859 8.789 -5.859 2.929 -17.577 -2.929 -17.577 -8.789 -5.859 -8.789 5.859 -2.929 17.577z"/></svg>