<svg height="1000px" width="1000px" xmlns="http://www.w3.org/2000/svg">
  <g>
    <path d="M0 792.96875c0 0 0 -773.438 0 -773.438c0 0 1000 0 1000 0c0 0 0 773.438 0 773.438c0 0 -500 187.5 -500 187.5c0 0 -500 -187.5 -500 -187.5m109.375 -335.938c0 37.761 11.393 69.011 34.18 93.75c22.786 24.74 55.013 37.11 96.679 37.11c79.427 0 119.792 -35.807 121.094 -107.422c0 0 -76.172 0 -76.172 0c0 29.948 -15.625 45.573 -46.875 46.875c-15.625 0 -27.343 -5.534 -35.156 -16.602c-7.812 -11.067 -11.719 -25.065 -11.719 -41.992c0 -32.552 3.907 -54.687 11.719 -66.406c13.021 -16.927 31.25 -20.833 54.688 -11.719c16.927 6.511 25.39 21.485 25.39 44.922c0 0 78.125 0 78.125 0c0 -35.156 -11.068 -61.849 -33.203 -80.078c-22.135 -18.229 -51.432 -27.995 -87.891 -29.297c-37.76 0 -69.336 11.719 -94.726 35.156c-25.391 23.438 -37.435 55.339 -36.133 95.704c0 0 0 0 0 0m283.203 41.015c0 58.594 41.667 88.542 125 89.844c72.917 0 110.026 -29.297 111.328 -87.891c-1.302 -37.76 -26.692 -61.849 -76.172 -72.265c-1.302 0 -6.836 -0.977 -16.601 -2.93c-9.766 -1.953 -18.229 -3.581 -25.391 -4.883c-7.161 -1.302 -13.997 -3.906 -20.508 -7.812c-6.51 -3.907 -9.765 -8.464 -9.765 -13.672c0 -10.417 11.067 -16.276 33.203 -17.578c20.833 0 31.901 8.463 33.203 25.39c0 0 0 1.953 0 1.953c0 0 74.219 0 74.219 0c0 0 0 -3.906 0 -3.906c0 -26.042 -11.068 -45.573 -33.203 -58.594c-22.136 -13.02 -48.177 -19.531 -78.125 -19.531c-72.917 0 -110.677 26.693 -113.282 80.078c0 39.063 24.74 64.453 74.219 76.172c2.604 1.302 8.789 2.93 18.555 4.883c9.765 1.953 18.229 3.581 25.39 4.883c7.162 1.302 13.998 3.906 20.508 7.812c6.511 3.907 9.766 8.464 9.766 13.672c0 10.417 -11.719 15.625 -35.156 15.625c-27.344 0 -41.016 -10.417 -41.016 -31.25c0 0 -76.172 0 -76.172 0c0 0 0 0 0 0m265.625 0c0 58.594 41.667 88.542 125 89.844c72.917 0 110.026 -29.297 111.328 -87.891c0 -11.718 -2.604 -21.484 -7.812 -29.297c-10.417 -19.531 -33.203 -33.854 -68.36 -42.968c-1.302 0 -7.161 -0.977 -17.578 -2.93c-10.416 -1.953 -18.88 -3.581 -25.39 -4.883c-6.511 -1.302 -13.021 -3.906 -19.532 -7.812c-6.51 -3.907 -10.416 -8.464 -11.718 -13.672c1.302 -10.417 13.02 -16.276 35.156 -17.578c22.135 0 32.552 9.114 31.25 27.343c0 0 76.172 0 76.172 0c0 -27.343 -10.742 -47.851 -32.227 -61.523c-21.484 -13.672 -47.851 -20.508 -79.101 -20.508c-72.917 0 -110.677 26.693 -113.282 80.078c0 39.063 24.74 64.453 74.219 76.172c2.604 1.302 8.789 2.93 18.555 4.883c0 0 24.414 4.883 24.414 4.883c0 0 6.836 2.604 20.508 7.812c13.672 5.209 17.252 9.766 10.742 13.672c0 13.021 -17.578 18.229 -52.734 15.625c-15.625 -3.906 -23.438 -14.323 -23.438 -31.25c0 0 -76.172 0 -76.172 0c0 0 0 0 0 0" />
  </g>
</svg>