<svg height="1000" width="1000" xmlns="http://www.w3.org/2000/svg"><path d="M0 792.888l0 -773.388l999.936 0l0 773.388l-499.968 187.488zm109.368 -335.916q0 56.637 34.178 93.744t96.674 37.107q119.133 0 121.086 -107.415l-76.167 0q0 44.919 -46.872 46.872 -23.436 0 -35.154 -16.601t-11.718 -41.989q0 -48.825 11.718 -66.402 19.53 -25.389 54.684 -11.718 25.389 9.765 25.389 44.919l78.12 0q0 -52.731 -33.201 -80.073t-87.885 -29.295q-56.637 0 -94.721 35.154t-36.13 95.697zm283.185 41.013q0 87.885 124.992 89.838 109.368 0 111.321 -87.885 -1.953 -56.637 -76.167 -72.261 -1.953 0 -16.601 -2.929t-25.389 -4.883 -20.506 -7.812 -9.765 -13.671q0 -15.624 33.201 -17.577 31.248 0 33.201 25.389l0 1.953l74.214 0l0 -3.906q0 -39.06 -33.201 -58.59t-78.12 -19.53q-109.368 0 -113.274 80.073 0 58.59 74.214 76.167 3.906 1.953 18.553 4.883t25.389 4.883 20.506 7.812 9.765 13.671q0 15.624 -35.154 15.624 -41.013 0 -41.013 -31.248l-76.167 0zm265.608 0q0 87.885 124.992 89.838 109.368 0 111.321 -87.885 0 -17.577 -7.812 -29.295 -15.624 -29.295 -68.355 -42.966 -1.953 0 -17.577 -2.929t-25.389 -4.883 -19.53 -7.812 -11.718 -13.671q1.953 -15.624 35.154 -17.577 33.201 0 31.248 27.342l76.167 0q0 -41.013 -32.224 -61.52t-79.097 -20.506q-109.368 0 -113.274 80.073 0 58.59 74.214 76.167 3.906 1.953 18.553 4.883l24.413 4.883t20.506 7.812 10.742 13.671q0 19.53 -52.731 15.624 -23.436 -5.859 -23.436 -31.248l-76.167 0z"/></svg>