<svg height="1000px" width="1000px" xmlns="http://www.w3.org/2000/svg">
  <g>
    <path d="M0 500c0 -138.021 48.828 -255.859 146.484 -353.516c97.657 -97.656 215.495 -146.484 353.516 -146.484c138.021 0 255.859 48.828 353.516 146.484c97.656 97.657 146.484 215.495 146.484 353.516c0 138.021 -48.828 255.859 -146.484 353.516c-97.657 97.656 -215.495 146.484 -353.516 146.484c-138.021 0 -255.859 -48.828 -353.516 -146.484c-97.656 -97.657 -146.484 -215.495 -146.484 -353.516c0 0 0 0 0 0m210.937 0c0 79.427 28.321 147.461 84.961 204.102c56.641 56.64 124.675 84.96 204.102 84.96c53.385 0 102.214 -13.02 146.484 -39.062c44.271 -26.042 78.776 -61.198 103.516 -105.469c0 0 -101.563 -58.594 -101.563 -58.594c-14.322 26.042 -34.83 46.875 -61.523 62.5c-26.693 15.625 -55.664 23.438 -86.914 23.438c-46.875 0 -87.24 -16.927 -121.094 -50.781c-33.854 -33.854 -50.781 -74.219 -50.781 -121.094c0 -46.875 16.927 -87.24 50.781 -121.094c33.854 -33.854 74.219 -50.781 121.094 -50.781c40.365 0 76.172 12.37 107.422 37.109c0 0 -76.172 54.688 -76.172 54.688c0 0 257.813 85.937 257.813 85.937c0 0 0 -269.531 0 -269.531c0 0 -83.985 60.547 -83.985 60.547c-55.989 -57.292 -124.349 -85.938 -205.078 -85.938c-79.427 0 -147.461 28.321 -204.102 84.961c-56.64 56.641 -84.961 124.675 -84.961 204.102c0 0 0 0 0 0" />
  </g>
</svg>