<svg height="1000" width="1000" xmlns="http://www.w3.org/2000/svg"><path d="M0 500.032q0-207.018 146.475-353.493t353.493-146.475 353.493 146.475 146.475 353.493-146.475 353.493-353.493 146.475-353.493-146.475-146.475-353.493zm210.924 0q0 119.133 84.956 204.089t204.089 84.956q80.073 0 146.475-39.06t103.509-105.462l-101.556-58.59q-21.483 39.06-61.52 62.496t-86.909 23.436q-70.308 0-121.086-50.778t-50.778-121.086 50.778-121.086 121.086-50.778q60.543 0 107.415 37.107l-76.167 54.684 257.796 85.932l0-269.514l-83.979 60.543q-83.979-85.932-205.065-85.932-119.133 0-204.089 84.956t-84.956 204.089z"/></svg>