<svg height="1000px" width="1000px" xmlns="http://www.w3.org/2000/svg">
  <g>
    <path d="M0 500c0 -138.021 48.828 -255.859 146.484 -353.516c97.657 -97.656 215.495 -146.484 353.516 -146.484c139.323 0 257.813 49.479 355.469 148.438c0 0 144.531 -103.516 144.531 -103.516c0 0 0 464.844 0 464.844c0 0 -445.313 -148.438 -445.313 -148.438c0 0 130.86 -93.75 130.86 -93.75c-54.688 -42.969 -116.537 -64.453 -185.547 -64.453c-82.031 0 -152.018 28.971 -209.961 86.914c-57.943 57.943 -86.914 127.93 -86.914 209.961c0 82.031 28.971 152.018 86.914 209.961c57.943 57.943 127.93 86.914 209.961 86.914c54.688 0 104.818 -13.346 150.391 -40.039c45.573 -26.693 81.38 -62.826 107.422 -108.399c0 0 175.781 101.563 175.781 101.563c-44.271 75.521 -104.818 136.068 -181.641 181.641c-76.823 45.573 -160.807 68.359 -251.953 68.359c-138.021 0 -255.859 -48.828 -353.516 -146.484c-97.656 -97.657 -146.484 -215.495 -146.484 -353.516c0 0 0 0 0 0" />
  </g>
</svg>