<svg height="1000px" width="1000px" xmlns="http://www.w3.org/2000/svg">
  <g>
    <path d="M0 500c0 -138.021 48.828 -255.859 146.484 -353.516c97.657 -97.656 215.495 -146.484 353.516 -146.484c138.021 0 255.859 48.828 353.516 146.484c97.656 97.657 146.484 215.495 146.484 353.516c0 138.021 -48.828 255.859 -146.484 353.516c-97.657 97.656 -215.495 146.484 -353.516 146.484c-138.021 0 -255.859 -48.828 -353.516 -146.484c-97.656 -97.657 -146.484 -215.495 -146.484 -353.516c0 0 0 0 0 0m208.984 144.531c0 0 210.938 0 210.938 0c0 0 0 54.688 0 54.688c0 0 -50.781 0 -50.781 0c0 0 0 42.968 0 42.968c0 0 261.718 0 261.718 0c0 0 0 -42.968 0 -42.968c0 0 -50.781 0 -50.781 0c0 0 0 -54.688 0 -54.688c0 0 210.938 0 210.938 0c0 0 0 -386.719 0 -386.719c0 0 -582.032 0 -582.032 0c0 0 0 386.719 0 386.719c0 0 0 0 0 0m70.313 -74.219c0 0 0 -238.281 0 -238.281c0 0 441.406 0 441.406 0c0 0 0 238.281 0 238.281c0 0 -441.406 0 -441.406 0c0 0 0 0 0 0" />
  </g>
</svg>