<svg height="1000px" width="1000px" xmlns="http://www.w3.org/2000/svg">
  <g>
    <path d="M0 746.09375c0 0 0 -660.156 0 -660.156c0 0 1000 0 1000 0c0 0 0 660.156 0 660.156c0 0 -363.281 0 -363.281 0c0 0 0 95.703 0 95.703c0 0 87.89 0 87.89 0c0 0 0 72.266 0 72.266c0 0 -449.218 0 -449.218 0c0 0 0 -72.266 0 -72.266c0 0 87.89 0 87.89 0c0 0 0 -95.703 0 -95.703c0 0 -363.281 0 -363.281 0c0 0 0 0 0 0m123.047 -125c0 0 753.906 0 753.906 0c0 0 0 -410.156 0 -410.156c0 0 -753.906 0 -753.906 0c0 0 0 410.156 0 410.156c0 0 0 0 0 0" />
  </g>
</svg>