<svg height="1000" width="997" xmlns="http://www.w3.org/2000/svg"><path d="M.001 707.05q1.953-48.825 18.553-93.744t52.731-91.791 111.321-81.05 178.7-47.849l1.953 42.966q-93.744 13.671-138.663 64.449t-64.449 132.804l207.018 0l-5.859-339.822l113.274 0l0 83.979q248.031-3.906 386.694 79.097t134.757 250.96l-470.673 0l1.953-230.454q62.496-3.906 105.462 7.812l0 144.522l210.924 1.953q-11.718-48.825-34.178-86.909t-50.778-59.567-63.473-36.13-72.261-18.553-75.191-6.836-73.237.977l0 283.185l-474.579 0z"/></svg>