<svg height="1000px" width="1000px" xmlns="http://www.w3.org/2000/svg">
  <g>
    <path d="M1.953125 707.03125c1.302 -32.552 7.487 -63.802 18.555 -93.75c11.067 -29.948 28.646 -60.547 52.734 -91.797c24.089 -31.25 61.198 -58.268 111.328 -81.055c50.13 -22.786 109.701 -38.737 178.711 -47.851c0 0 1.953 42.969 1.953 42.969c-62.5 9.114 -108.724 30.599 -138.672 64.453c-29.948 33.854 -51.432 78.125 -64.453 132.812c0 0 207.031 0 207.031 0c0 0 -5.859 -339.843 -5.859 -339.843c0 0 113.281 0 113.281 0c0 0 0 83.984 0 83.984c165.365 -2.604 294.271 23.763 386.719 79.101c92.448 55.339 137.37 138.998 134.766 250.977c0 0 -470.703 0 -470.703 0c0 0 1.953 -230.469 1.953 -230.469c41.666 -2.604 76.823 0 105.469 7.813c0 0 0 144.531 0 144.531c0 0 210.937 1.953 210.937 1.953c-7.813 -32.552 -19.206 -61.523 -34.18 -86.914c-14.974 -25.391 -31.901 -45.247 -50.781 -59.57c-18.88 -14.323 -40.039 -26.367 -63.476 -36.133c-23.438 -9.766 -47.527 -15.951 -72.266 -18.555c-24.74 -2.604 -49.805 -4.883 -75.195 -6.836c-25.391 -1.953 -49.805 -1.627 -73.243 0.977c0 0 0 283.203 0 283.203c0 0 -474.609 0 -474.609 0c0 0 0 0 0 0" />
  </g>
</svg>