<svg height="1000" width="1000" xmlns="http://www.w3.org/2000/svg"><path d="M0 503.938l0-249.984l62.496 0l0-60.543l64.449 0l0-64.449l183.582 0l0 64.449l-183.582 0l0 60.543l-64.449 0l0 249.984l310.527 0l0-249.984l-62.496 0l0-60.543l62.496 0l0 60.543l126.945 0l0-187.488l373.023 0l0 187.488l126.945 0l0 314.433l-64.449 0l0 365.211l-498.015 0l0-365.211l-187.488 0l0 121.086l60.543 0l0 62.496l-183.582 0l0-62.496l58.59 0l0-121.086l-123.039 0l0-64.449l-62.496 0zm62.496 429.66l0-181.629l64.449 0l0 119.133l183.582 0l0-119.133l62.496 0l0 181.629l-310.527 0zm374.976-429.66l62.496 0l0 367.164l187.488 0l0-181.629l62.496 0l0 181.629l121.086 0l0-367.164l64.449 0l0-191.394l-62.496 0l0 124.992l-373.023 0l0-124.992l-62.496 0l0 191.394zm126.945-128.898l244.125 0l0-246.078l-244.125 0l0 246.078z"/></svg>