<svg height="1000px" width="1000px" xmlns="http://www.w3.org/2000/svg">
  <g>
    <path d="M0 503.90625c0 0 0 -250 0 -250c0 0 62.5 0 62.5 0c0 0 0 -60.547 0 -60.547c0 0 64.453 0 64.453 0c0 0 0 -64.453 0 -64.453c0 0 183.594 0 183.594 0c0 0 0 64.453 0 64.453c0 0 -183.594 0 -183.594 0c0 0 0 60.547 0 60.547c0 0 -64.453 0 -64.453 0c0 0 0 250 0 250c0 0 310.547 0 310.547 0c0 0 0 -250 0 -250c0 0 -62.5 0 -62.5 0c0 0 0 -60.547 0 -60.547c0 0 62.5 0 62.5 0c0 0 0 60.547 0 60.547c0 0 126.953 0 126.953 0c0 0 0 -187.5 0 -187.5c0 0 373.047 0 373.047 0c0 0 0 187.5 0 187.5c0 0 126.953 0 126.953 0c0 0 0 314.453 0 314.453c0 0 -64.453 0 -64.453 0c0 0 0 365.235 0 365.235c0 0 -498.047 0 -498.047 0c0 0 0 -365.235 0 -365.235c0 0 -187.5 0 -187.5 0c0 0 0 121.094 0 121.094c0 0 60.547 0 60.547 0c0 0 0 62.5 0 62.5c0 0 -183.594 0 -183.594 0c0 0 0 -62.5 0 -62.5c0 0 58.594 0 58.594 0c0 0 0 -121.094 0 -121.094c0 0 -123.047 0 -123.047 0c0 0 0 -64.453 0 -64.453c0 0 -62.5 0 -62.5 0c0 0 0 0 0 0m62.5 429.688c0 0 0 -181.641 0 -181.641c0 0 64.453 0 64.453 0c0 0 0 119.14 0 119.14c0 0 183.594 0 183.594 0c0 0 0 -119.14 0 -119.14c0 0 62.5 0 62.5 0c0 0 0 181.64 0 181.64c0 0 -310.547 0 -310.547 0c0 0 0 0 0 0m375 -429.687c0 0 62.5 0 62.5 0c0 0 0 367.188 0 367.188c0 0 187.5 0 187.5 0c0 0 0 -181.641 0 -181.641c0 0 62.5 0 62.5 0c0 0 0 181.64 0 181.64c0 0 121.094 0 121.094 0c0 0 0 -367.187 0 -367.187c0 0 1.953 0 1.953 0c0 0 62.5 0 62.5 0c0 0 0 -191.406 0 -191.406c0 0 -62.5 0 -62.5 0c0 0 0 125 0 125c0 0 -64.453 0 -64.453 0c0 0 -244.141 0 -244.141 0c0 0 -64.453 0 -64.453 0c0 0 0 -125 0 -125c0 0 -62.5 0 -62.5 0c0 0 0 191.406 0 191.406c0 0 0 0 0 0m126.953 -128.906c0 0 244.141 0 244.141 0c0 0 0 -246.094 0 -246.094c0 0 -244.141 0 -244.141 0c0 0 0 246.094 0 246.094c0 0 0 0 0 0" />
  </g>
</svg>