<svg height="1000px" width="1000px" xmlns="http://www.w3.org/2000/svg">
  <g>
    <path d="M25.390625 1000c0 0 0 -818.359 0 -818.359c0 0 187.5 -181.641 187.5 -181.641c0 0 519.531 0 519.531 0c0 0 0 347.656 0 347.656c0 0 -85.937 0 -85.937 0c0 0 0 -259.765 0 -259.765c0 0 -369.141 0 -369.141 0c0 0 0 156.25 0 156.25c0 0 -166.015 0 -166.015 0c0 0 0 667.968 0 667.968c0 0 417.968 0 417.968 0c0 0 0 87.891 0 87.891c0 0 -503.906 0 -503.906 0c0 0 0 0 0 0m373.047 -207.031c0 0 0 -162.11 0 -162.11c0 0 208.984 0 208.984 0c0 0 0 -207.031 0 -207.031c0 0 160.157 0 160.157 0c0 0 0 207.031 0 207.031c0 0 207.031 0 207.031 0c0 0 0 162.11 0 162.11c0 0 -207.032 0 -207.032 0c0 0 0 207.031 0 207.031c0 0 -160.156 0 -160.156 0c0 0 0 -207.031 0 -207.031c0 0 -208.984 0 -208.984 0c0 0 0 0 0 0" />
  </g>
</svg>