<svg height="1000px" width="1000px" xmlns="http://www.w3.org/2000/svg">
  <g>
    <path d="M0 500c0 -138.021 48.828 -255.859 146.484 -353.516c97.657 -97.656 215.495 -146.484 353.516 -146.484c138.021 0 255.859 48.828 353.516 146.484c97.656 97.657 146.484 215.495 146.484 353.516c0 138.021 -48.828 255.859 -146.484 353.516c-97.657 97.656 -215.495 146.484 -353.516 146.484c-138.021 0 -255.859 -48.828 -353.516 -146.484c-97.656 -97.657 -146.484 -215.495 -146.484 -353.516c0 0 0 0 0 0m316.406 259.766c0 0 367.188 0 367.188 0c0 0 0 -519.532 0 -519.532c0 0 -191.407 0 -191.407 0c0 0 0 169.922 0 169.922c0 0 -175.781 0 -175.781 0c0 0 0 349.61 0 349.61c0 0 0 0 0 0m0 -392.579c0 0 130.86 0 130.86 0c0 0 0 -126.953 0 -126.953c0 0 -33.204 0 -33.204 0c0 0 -97.656 95.703 -97.656 95.703c0 0 0 31.25 0 31.25c0 0 0 0 0 0" />
  </g>
</svg>