<svg height="1000" width="1000" xmlns="http://www.w3.org/2000/svg"><path d="M0 500.032q0-207.018 146.475-353.493t353.493-146.475 353.493 146.475 146.475 353.493-146.475 353.493-353.493 146.475-353.493-146.475-146.475-353.493zm263.655 271.467l294.903 0l0-52.731l-244.125 0l0-390.6l97.65 0l0-91.791l214.83 0l0 152.334l52.731 0l0-203.112l-304.668 0l-111.321 105.462l0 480.438zm218.736-123.039l123.039 0l0 123.039l93.744 0l0-123.039l121.086 0l0-93.744l-121.086 0l0-121.086l-93.744 0l0 121.086l-123.039 0l0 93.744z"/></svg>