<svg height="1000px" width="1000px" xmlns="http://www.w3.org/2000/svg">
  <g>
    <path d="M0 500c0 -138.021 48.828 -255.859 146.484 -353.516c97.657 -97.656 215.495 -146.484 353.516 -146.484c138.021 0 255.859 48.828 353.516 146.484c97.656 97.657 146.484 215.495 146.484 353.516c0 138.021 -48.828 255.859 -146.484 353.516c-97.657 97.656 -215.495 146.484 -353.516 146.484c-138.021 0 -255.859 -48.828 -353.516 -146.484c-97.656 -97.657 -146.484 -215.495 -146.484 -353.516c0 0 0 0 0 0m263.672 271.484c0 0 294.922 0 294.922 0c0 0 0 -52.734 0 -52.734c0 0 -244.141 0 -244.141 0c0 0 0 -390.625 0 -390.625c0 0 97.656 0 97.656 0c0 0 0 -91.797 0 -91.797c0 0 214.844 0 214.844 0c0 0 0 152.344 0 152.344c0 0 52.734 0 52.734 0c0 0 0 -203.125 0 -203.125c0 0 -304.687 0 -304.687 0c0 0 -111.328 105.469 -111.328 105.469c0 0 0 480.468 0 480.468c0 0 0 0 0 0m218.75 -123.047c0 0 123.047 0 123.047 0c0 0 0 123.047 0 123.047c0 0 93.75 0 93.75 0c0 0 0 -123.047 0 -123.047c0 0 121.093 0 121.093 0c0 0 0 -93.75 0 -93.75c0 0 -121.093 0 -121.093 0c0 0 0 -121.093 0 -121.093c0 0 -93.75 0 -93.75 0c0 0 0 121.094 0 121.094c0 0 -123.047 0 -123.047 0c0 0 0 93.75 0 93.75c0 0 0 0 0 0" />
  </g>
</svg>