<svg height="1000" width="845" xmlns="http://www.w3.org/2000/svg"><path d="M.326 569.299q-1.953 -59.567 7.812 -117.18t24.413 -124.016 14.648 -93.744l0 -169.911q1.953 -27.342 20.506 -45.895t43.943 -18.553l347.634 0q25.389 1.953 43.943 20.506t18.553 43.943l0 154.287q17.577 23.436 58.59 60.543t56.637 58.59q17.577 21.483 41.013 35.154 21.483 9.765 77.144 18.553t79.097 30.271q23.436 56.637 -3.906 115.227t-82.026 78.12q-76.167 27.342 -169.911 -17.577 0 54.684 -1.953 273.42 -3.906 56.637 -38.084 92.767t-88.862 36.13q-52.731 0 -87.885 -38.084t-37.107 -90.815l0 -107.415q-31.248 -5.859 -56.637 -21.483 -68.355 9.765 -119.133 -33.201 -72.261 -3.906 -109.368 -41.989t-39.06 -97.65zm58.59 -30.271q-1.953 54.684 26.366 83.002t90.815 18.553q13.671 27.342 46.872 36.13t58.59 -6.836q58.59 58.59 107.415 9.765l0 191.395q1.953 27.342 19.53 44.919t41.013 19.53q29.295 -1.953 45.895 -19.53t18.553 -44.919l0 -365.212q23.436 3.906 66.402 20.506t73.237 27.342 66.402 3.906 57.614 -41.989q13.671 -25.389 9.765 -46.872 -1.953 -3.906 -4.883 -4.883t-6.836 -.977q-44.919 -7.812 -68.355 -12.694t-55.66 -20.506 -53.708 -41.013q-13.671 -17.577 -68.355 -67.379t-70.308 -86.909l0 -3.906l-347.634 0q0 23.436 -14.648 83.979t-25.389 115.227 -12.694 109.368z"/></svg>