<svg height="1000px" width="1000px" xmlns="http://www.w3.org/2000/svg">
  <g>
    <path d="M78.125 569.3359375c-1.302 -39.714 1.302 -78.776 7.813 -117.188c6.51 -38.411 14.648 -79.752 24.414 -124.023c9.765 -44.271 14.648 -75.521 14.648 -93.75c0 0 0 -169.922 0 -169.922c1.302 -18.229 8.138 -33.528 20.508 -45.898c12.37 -12.37 27.018 -18.555 43.945 -18.555c0 0 347.656 0 347.656 0c16.927 1.302 31.576 8.138 43.946 20.508c12.369 12.37 18.554 27.018 18.554 43.945c0 0 0 154.297 0 154.297c11.719 15.625 31.25 35.807 58.594 60.547c27.344 24.74 46.224 44.271 56.641 58.594c11.718 14.323 25.39 26.041 41.015 35.156c14.323 6.51 40.039 12.695 77.149 18.555c37.109 5.859 63.476 15.95 79.101 30.273c15.625 37.76 14.323 76.172 -3.906 115.234c-18.229 39.063 -45.573 65.105 -82.031 78.125c-50.781 18.23 -107.422 12.37 -169.922 -17.578c0 36.459 -0.651 127.604 -1.953 273.438c-2.604 37.76 -15.3 68.685 -38.086 92.773c-22.787 24.089 -52.409 36.133 -88.867 36.133c-35.157 0 -64.453 -12.695 -87.891 -38.086c-23.437 -25.391 -35.807 -55.664 -37.109 -90.82c0 0 0 -107.422 0 -107.422c-20.834 -3.906 -39.714 -11.068 -56.641 -21.484c-45.573 6.51 -85.286 -4.558 -119.141 -33.204c-48.177 -2.604 -84.635 -16.601 -109.375 -41.992c-24.739 -25.39 -37.76 -57.942 -39.062 -97.656c0 0 0 0 0 0m58.594 -30.273c-1.302 36.458 7.487 64.127 26.367 83.007c18.88 18.881 49.154 25.065 90.82 18.555c9.115 18.229 24.74 30.274 46.875 36.133c22.136 5.859 41.667 3.581 58.594 -6.836c39.063 39.062 74.87 42.318 107.422 9.766c0 0 0 96.679 0 96.679c0 0 0 94.727 0 94.727c1.302 18.229 7.812 33.203 19.531 44.922c11.719 11.718 25.391 18.229 41.016 19.531c19.531 -1.302 34.83 -7.813 45.898 -19.531c11.068 -11.719 17.253 -26.693 18.555 -44.922c0 0 0 -184.57 0 -184.57c0 0 0 -180.665 0 -180.665c15.625 2.605 37.76 9.441 66.406 20.508c28.646 11.068 53.06 20.183 73.242 27.344c20.183 7.161 42.318 8.464 66.407 3.906c24.088 -4.557 43.294 -18.554 57.617 -41.992c9.114 -16.927 12.37 -32.552 9.765 -46.875c-1.302 -2.604 -2.929 -4.232 -4.882 -4.883c-1.954 -0.651 -4.232 -0.976 -6.836 -0.976c-29.948 -5.209 -52.735 -9.44 -68.36 -12.696c-15.625 -3.255 -34.179 -10.091 -55.664 -20.507c-21.484 -10.417 -39.388 -24.089 -53.711 -41.016c-9.114 -11.719 -31.901 -34.18 -68.359 -67.383c-36.458 -33.203 -59.896 -62.174 -70.313 -86.914c0 0 0 -3.906 0 -3.906c0 0 -347.656 0 -347.656 0c0 15.625 -4.883 43.62 -14.648 83.984c-9.766 40.365 -18.229 78.776 -25.391 115.235c-7.161 36.458 -11.393 72.916 -12.695 109.375c0 0 0 0 0 0" />
  </g>
</svg>