<svg height="1000px" width="1000px" xmlns="http://www.w3.org/2000/svg">
  <g>
    <path d="M0 500c0 -138.021 48.828 -255.859 146.484 -353.516c97.657 -97.656 215.495 -146.484 353.516 -146.484c138.021 0 255.859 48.828 353.516 146.484c97.656 97.657 146.484 215.495 146.484 353.516c0 138.021 -48.828 255.859 -146.484 353.516c-97.657 97.656 -215.495 146.484 -353.516 146.484c-138.021 0 -255.859 -48.828 -353.516 -146.484c-97.656 -97.657 -146.484 -215.495 -146.484 -353.516c0 0 0 0 0 0m248.047 -54.688c0 0 251.953 376.954 251.953 376.954c0 0 251.953 -376.954 251.953 -376.954c0 0 -134.765 0 -134.765 0c0 0 0 -267.578 0 -267.578c0 0 -234.375 0 -234.375 0c0 0 0 267.578 0 267.578c0 0 -134.766 0 -134.766 0c0 0 0 0 0 0" />
  </g>
</svg>