<svg height="1000" width="1000" xmlns="http://www.w3.org/2000/svg"><path d="M0 499.968q0 -207.018 146.475 -353.493t353.493 -146.475 353.493 146.475 146.475 353.493 -146.475 353.493 -353.493 146.475 -353.493 -146.475 -146.475 -353.493zm72.261 0q0 164.052 109.368 287.091 52.731 -99.603 145.499 -166.005t219.713 -123.039l-17.577 -35.154 -17.577 -35.154q-207.018 58.59 -439.425 60.543l0 11.718zm9.765 -85.932q195.3 -1.953 394.506 -52.731 -37.107 -66.402 -158.193 -248.031 -91.791 42.966 -154.287 122.063t-82.026 178.7zm156.24 423.801q115.227 89.838 261.702 89.838 87.885 0 167.958 -33.201 -33.201 -173.817 -91.791 -324.198 -218.736 72.261 -337.869 267.561zm160.146 -753.858q89.838 119.133 162.099 251.937 150.381 -60.543 222.642 -156.24 -121.086 -107.415 -283.185 -107.415 -50.778 0 -101.556 11.718zm193.347 314.433q3.906 9.765 12.694 27.342t14.648 31.248 11.718 25.389q146.475 -15.624 296.856 15.624 -1.953 -152.334 -95.697 -267.561 -87.885 107.415 -240.219 167.958zm62.496 152.334q39.06 99.603 83.979 304.668 154.287 -105.462 183.582 -287.091 -91.791 -25.389 -183.582 -25.389 -44.919 1.953 -83.979 7.812z"/></svg>