<svg height="1000px" width="1000px" xmlns="http://www.w3.org/2000/svg">
  <g>
    <path d="M0 500c0 -138.021 48.828 -255.859 146.484 -353.516c97.657 -97.656 215.495 -146.484 353.516 -146.484c138.021 0 255.859 48.828 353.516 146.484c97.656 97.657 146.484 215.495 146.484 353.516c0 138.021 -48.828 255.859 -146.484 353.516c-97.657 97.656 -215.495 146.484 -353.516 146.484c-138.021 0 -255.859 -48.828 -353.516 -146.484c-97.656 -97.657 -146.484 -215.495 -146.484 -353.516c0 0 0 0 0 0m72.266 0c0 109.375 36.458 205.078 109.375 287.109c35.156 -66.406 83.658 -121.744 145.507 -166.015c61.849 -44.271 135.092 -85.287 219.727 -123.047c0 0 -17.578 -35.156 -17.578 -35.156c0 0 -17.578 -35.157 -17.578 -35.157c-138.021 39.063 -284.505 59.245 -439.453 60.547c0 0 0 11.719 0 11.719c0 0 0 0 0 0m9.765 -85.938c130.209 -1.302 261.719 -18.88 394.531 -52.734c-24.739 -44.271 -77.473 -126.953 -158.203 -248.047c-61.198 28.646 -112.63 69.336 -154.297 122.071c-41.666 52.734 -69.01 112.304 -82.031 178.71c0 0 0 0 0 0m156.25 423.829c76.823 59.895 164.063 89.843 261.719 89.843c58.594 0 114.583 -11.067 167.969 -33.203c-22.136 -115.885 -52.735 -223.958 -91.797 -324.219c-145.833 48.178 -258.464 137.37 -337.891 267.579c0 0 0 0 0 0m160.156 -753.907c59.896 79.427 113.933 163.412 162.11 251.953c100.26 -40.364 174.479 -92.447 222.656 -156.25c-80.729 -71.614 -175.13 -107.421 -283.203 -107.421c-33.854 0 -67.708 3.906 -101.563 11.718c0 0 0 0 0 0m193.36 314.453c2.604 6.511 6.836 15.625 12.695 27.344c5.86 11.719 10.742 22.136 14.649 31.25c3.906 9.115 7.812 17.578 11.718 25.391c97.657 -10.417 196.615 -5.208 296.875 15.625c-1.302 -101.563 -33.203 -190.755 -95.703 -267.578c-58.594 71.614 -138.672 127.604 -240.234 167.968c0 0 0 0 0 0m62.5 152.344c26.042 66.407 54.036 167.969 83.984 304.688c102.865 -70.313 164.063 -166.016 183.594 -287.11c-61.198 -16.927 -122.396 -25.39 -183.594 -25.39c-29.948 1.302 -57.942 3.906 -83.984 7.812c0 0 0 0 0 0" />
  </g>
</svg>