<svg height="1000px" width="1000px" xmlns="http://www.w3.org/2000/svg">
  <g>
    <path d="M48.828125 1000c0 0 0 -818.359 0 -818.359c0 0 187.5 -181.641 187.5 -181.641c0 0 521.484 0 521.484 0c0 0 0 226.563 0 226.563c0 0 31.25 -31.25 31.25 -31.25c0 0 162.11 160.156 162.11 160.156c0 0 -380.86 380.859 -380.86 380.859c0 0 -238.281 78.125 -238.281 78.125c0 0 76.172 -238.281 76.172 -238.281c0 0 261.719 -261.719 261.719 -261.719c0 0 0 -226.562 0 -226.562c0 0 -369.141 0 -369.141 0c0 0 0 156.25 0 156.25c0 0 -164.062 0 -164.062 0c0 0 0 667.968 0 667.968c0 0 533.203 0 533.203 0c0 0 0 -142.578 0 -142.578c0 0 87.89 -87.89 87.89 -87.89c0 0 0 318.359 0 318.359c0 0 -708.984 0 -708.984 0c0 0 0 0 0 0m361.328 -263.672c0 0 119.141 -39.062 119.141 -39.062c0 0 -80.078 -82.032 -80.078 -82.032c0 0 -39.063 121.094 -39.063 121.094" />
  </g>
</svg>