<svg height="1000px" width="1000px" xmlns="http://www.w3.org/2000/svg">
  <g>
    <path d="M0 500c0 -138.021 48.828 -255.859 146.484 -353.516c97.657 -97.656 215.495 -146.484 353.516 -146.484c138.021 0 255.859 48.828 353.516 146.484c97.656 97.657 146.484 215.495 146.484 353.516c0 138.021 -48.828 255.859 -146.484 353.516c-97.657 97.656 -215.495 146.484 -353.516 146.484c-138.021 0 -255.859 -48.828 -353.516 -146.484c-97.656 -97.657 -146.484 -215.495 -146.484 -353.516c0 0 0 0 0 0m261.719 316.406c0 0 447.265 0 447.265 0c0 0 0 -201.172 0 -201.172c0 0 -54.687 54.688 -54.687 54.688c0 0 0 91.797 0 91.797c0 0 -337.891 0 -337.891 0c0 0 0 -423.828 0 -423.828c0 0 105.469 0 105.469 0c0 0 0 -99.61 0 -99.61c0 0 232.422 0 232.422 0c0 0 0 144.531 0 144.531c0 0 -166.016 164.063 -166.016 164.063c0 0 -48.828 152.344 -48.828 152.344c0 0 152.344 -48.828 152.344 -48.828c0 0 240.234 -242.188 240.234 -242.188c0 0 -101.562 -101.562 -101.562 -101.562c0 0 -21.485 21.484 -21.485 21.484c0 0 0 -144.531 0 -144.531c0 0 -328.125 0 -328.125 0c0 0 -119.14 115.234 -119.14 115.234c0 0 0 517.578 0 517.578c0 0 0 0 0 0m228.515 -167.968c0 0 25.391 -74.219 25.391 -74.219c0 0 50.781 50.781 50.781 50.781c0 0 -76.172 23.438 -76.172 23.438" />
  </g>
</svg>