<svg height="1000px" width="1000px" xmlns="http://www.w3.org/2000/svg">
  <g>
    <path d="M0 1000c0 0 0 -353.516 0 -353.516c0 0 0 -646.484 0 -646.484c0 0 646.484 0 646.484 0c0 0 -164.062 164.063 -164.062 164.063c0 0 -318.36 0 -318.36 0c0 0 0 318.359 0 318.359c0 0 0 353.516 0 353.516c0 0 353.516 0 353.516 0c0 0 318.36 0 318.36 0c0 0 0 -318.36 0 -318.36c0 0 164.062 -164.062 164.062 -164.062c0 0 0 646.484 0 646.484c0 0 -646.484 0 -646.484 0c0 0 -353.516 0 -353.516 0c0 0 0 0 0 0m363.281 -363.281c0 0 0 -117.188 0 -117.188c0 0 5.86 0 5.86 0c26.041 -1.302 50.13 8.464 72.265 29.297c26.042 26.042 39.063 55.339 39.063 87.891c0 0 -117.188 0 -117.188 0c0 0 0 0 0 0m50.782 -175.781c0 0 367.187 -367.188 367.187 -367.188c0 0 125 125 125 125c0 0 -367.188 367.188 -367.188 367.188c0 0 -125 -125 -125 -125m396.485 -396.485c0 0 64.453 -64.453 64.453 -64.453c0 0 125 125 125 125c0 0 -64.453 64.453 -64.453 64.453c0 0 -125 -125 -125 -125" />
  </g>
</svg>