<svg height="1000px" width="1000px" xmlns="http://www.w3.org/2000/svg">
  <g>
    <path d="M0 500c0 -138.021 48.828 -255.859 146.484 -353.516c97.657 -97.656 215.495 -146.484 353.516 -146.484c138.021 0 255.859 48.828 353.516 146.484c97.656 97.657 146.484 215.495 146.484 353.516c0 138.021 -48.828 255.859 -146.484 353.516c-97.657 97.656 -215.495 146.484 -353.516 146.484c-138.021 0 -255.859 -48.828 -353.516 -146.484c-97.656 -97.657 -146.484 -215.495 -146.484 -353.516c0 0 0 0 0 0m136.719 0c0 100.26 35.482 185.872 106.445 256.836c70.964 70.963 156.576 106.445 256.836 106.445c100.26 0 185.872 -35.482 256.836 -106.445c70.963 -70.964 106.445 -156.576 106.445 -256.836c0 -100.26 -35.482 -185.872 -106.445 -256.836c-70.964 -70.963 -156.576 -106.445 -256.836 -106.445c-100.26 0 -185.872 35.482 -256.836 106.445c-70.963 70.964 -106.445 156.576 -106.445 256.836c0 0 0 0 0 0m97.656 97.656c0 0 0 -195.312 0 -195.312c0 0 531.25 0 531.25 0c0 0 0 195.312 0 195.312c0 0 -531.25 0 -531.25 0c0 0 0 0 0 0" />
  </g>
</svg>