<svg height="1000px" width="1000px" xmlns="http://www.w3.org/2000/svg">
  <g>
    <path d="M0 500c0 -138.021 48.828 -255.859 146.484 -353.516c97.657 -97.656 215.495 -146.484 353.516 -146.484c138.021 0 255.859 48.828 353.516 146.484c97.656 97.657 146.484 215.495 146.484 353.516c0 138.021 -48.828 255.859 -146.484 353.516c-97.657 97.656 -215.495 146.484 -353.516 146.484c-138.021 0 -255.859 -48.828 -353.516 -146.484c-97.656 -97.657 -146.484 -215.495 -146.484 -353.516c0 0 0 0 0 0m318.359 -402.344c0 0 78.125 550.781 78.125 550.781c0 0 207.032 0 207.032 0c0 0 78.125 -550.781 78.125 -550.781c0 0 -363.282 0 -363.282 0c0 0 0 0 0 0m76.172 696.289c0 29.297 10.417 54.688 31.25 76.172c20.834 21.485 46.224 32.227 76.172 32.227c29.948 0 55.339 -10.742 76.172 -32.227c20.833 -21.484 31.25 -46.875 31.25 -76.172c0 -29.297 -10.417 -54.687 -31.25 -76.172c-20.833 -21.484 -46.224 -32.226 -76.172 -32.226c-29.948 0 -55.338 10.742 -76.172 32.226c-20.833 21.485 -31.25 46.875 -31.25 76.172c0 0 0 0 0 0" />
  </g>
</svg>