<svg height="1000px" width="1000px" xmlns="http://www.w3.org/2000/svg">
  <g>
    <path d="M0 1000c0 0 0 -1000 0 -1000c0 0 494.141 0 494.141 0c0 0 0 164.063 0 164.063c0 0 -330.079 0 -330.079 0c0 0 0 671.875 0 671.875c0 0 671.875 0 671.875 0c0 0 0 -183.594 0 -183.594c0 0 164.063 -173.828 164.063 -173.828c0 0 0 521.484 0 521.484c0 0 -1000 0 -1000 0c0 0 0 0 0 0m232.422 -277.344c0 -57.291 3.906 -110.026 11.719 -158.203c7.812 -48.177 17.252 -89.518 28.32 -124.023c11.068 -34.506 26.693 -65.43 46.875 -92.774c20.182 -27.344 39.062 -49.804 56.641 -67.383c17.578 -17.578 40.039 -32.552 67.382 -44.921c27.344 -12.37 50.456 -21.485 69.336 -27.344c18.881 -5.86 42.969 -10.417 72.266 -13.672c29.297 -3.255 51.758 -5.208 67.383 -5.859c15.625 -0.651 36.458 -0.977 62.5 -0.977c0 0 0 -187.5 0 -187.5c0 0 285.156 285.156 285.156 285.156c0 0 -285.156 285.156 -285.156 285.156c0 0 0 -205.078 0 -205.078c-71.615 0 -124.675 0.977 -159.18 2.93c-34.505 1.953 -74.87 8.789 -121.094 20.508c-46.224 11.719 -80.078 29.948 -101.562 54.687c-21.485 24.74 -41.992 60.222 -61.524 106.446c-19.531 46.224 -32.552 103.841 -39.062 172.851c0 0 0 0 0 0" />
  </g>
</svg>