<svg height="1000px" width="1000px" xmlns="http://www.w3.org/2000/svg">
  <g>
    <path d="M0 500c3.906 -32.552 25.391 -69.01 64.453 -109.375c52.083 -53.385 110.677 -96.354 175.781 -128.906c85.938 -40.365 172.526 -60.547 259.766 -60.547c19.531 0 39.063 0.651 58.594 1.953c0 0 74.218 -128.906 74.218 -128.906c6.511 -10.417 14.323 -16.276 23.438 -17.578c2.604 0 5.208 0.651 7.813 1.953c0 0 50.781 31.25 50.781 31.25c11.719 5.208 12.37 16.276 1.953 33.203c0 0 -56.641 101.562 -56.641 101.562c0 0 -46.875 78.125 -46.875 78.125c0 0 -41.015 72.266 -41.015 72.266c0 0 -144.532 250 -144.532 250c0 0 -41.015 72.266 -41.015 72.266c0 0 -46.875 80.078 -46.875 80.078c0 0 -56.641 99.609 -56.641 99.609c-10.417 16.927 -20.833 22.136 -31.25 15.625c0 0 -52.734 -31.25 -52.734 -31.25c-10.417 -5.208 -10.417 -16.276 0 -33.203c0 0 48.828 -85.938 48.828 -85.938c0 0 -7.813 -3.906 -7.813 -3.906c-69.01 -35.156 -127.604 -78.125 -175.781 -128.906c-42.969 -48.177 -64.453 -84.635 -64.453 -109.375c0 0 0 0 0 0m263.672 0c0 49.479 15.625 93.75 46.875 132.813c0 0 48.828 -83.985 48.828 -83.985c-6.51 -15.625 -9.766 -31.901 -9.766 -48.828c0 -33.854 11.394 -64.128 34.18 -90.82c22.787 -26.693 51.107 -43.295 84.961 -49.805c0 0 48.828 -83.984 48.828 -83.984c0 0 -17.578 0 -17.578 0c-65.104 0 -120.768 21.81 -166.992 65.429c-46.224 43.62 -69.336 96.68 -69.336 159.18c0 0 0 0 0 0m177.734 294.922c0 0 41.016 -70.313 41.016 -70.313c0 0 17.578 0 17.578 0c65.104 0 120.768 -21.81 166.992 -65.429c46.224 -43.62 69.336 -96.68 69.336 -159.18c0 -49.479 -15.625 -93.75 -46.875 -132.813c0 0 62.5 -109.375 62.5 -109.375c1.302 1.303 2.604 2.279 3.906 2.93c1.302 0.651 2.605 0.977 3.907 0.977c69.01 35.156 127.604 78.125 175.781 128.906c42.969 48.177 64.453 84.635 64.453 109.375c-3.906 32.552 -25.391 69.01 -64.453 109.375c-52.083 53.385 -110.677 96.354 -175.781 128.906c-85.938 40.365 -172.526 60.547 -259.766 60.547c-16.927 0 -36.458 -1.302 -58.594 -3.906c0 0 0 0 0 0m89.844 -154.297c0 0 109.375 -189.453 109.375 -189.453c6.51 16.927 9.766 33.203 9.766 48.828c0 33.854 -11.394 63.802 -34.18 89.844c-22.787 26.041 -51.107 42.968 -84.961 50.781c0 0 0 0 0 0" />
  </g>
</svg>