<svg height="1000" width="1000" xmlns="http://www.w3.org/2000/svg"><path d="M0 523.831q5.859 -48.825 64.449 -109.368 78.12 -80.073 175.77 -128.898 128.898 -60.543 259.749 -60.543 29.295 0 58.59 1.953l74.214 -128.898q9.765 -15.624 23.436 -17.577 3.906 0 7.812 1.953l50.778 31.248q17.577 7.812 1.953 33.201l-56.637 101.556 -46.872 78.12 -41.013 72.261 -144.522 249.984 -41.013 72.261 -46.872 80.073 -56.637 99.603q-15.624 25.389 -31.248 15.624l-52.731 -31.248q-15.624 -7.812 0 -33.201l48.825 -85.932 -7.812 -3.906q-103.509 -52.731 -175.77 -128.898 -64.449 -72.261 -64.449 -109.368zm263.655 0q0 74.214 46.872 132.804l48.825 -83.979q-9.765 -23.436 -9.765 -48.825 0 -50.778 34.178 -90.815t84.956 -49.802l48.825 -83.979l-17.577 0q-97.65 0 -166.982 65.425t-69.332 159.169zm177.723 294.903l41.013 -70.308l17.577 0q97.65 0 166.982 -65.425t69.332 -159.169q0 -74.214 -46.872 -132.804l62.496 -109.368q1.953 1.953 3.906 2.929t3.906 .977q103.509 52.731 175.77 128.898 64.449 72.261 64.449 109.368 -5.859 48.825 -64.449 109.368 -78.12 80.073 -175.77 128.898 -128.898 60.543 -259.749 60.543 -25.389 0 -58.59 -3.906zm89.838 -154.287l109.368 -189.441q9.765 25.389 9.765 48.825 0 50.778 -34.178 89.838t-84.956 50.778z"/></svg>