<svg height="1000" width="1000" xmlns="http://www.w3.org/2000/svg"><path d="M0 499.809q5.859 -48.825 64.449 -109.368 78.12 -80.073 175.77 -128.898 128.898 -60.543 259.749 -60.543 136.71 1.953 259.749 60.543 103.509 52.731 175.77 128.898 64.449 72.261 64.449 109.368 -5.859 48.825 -64.449 109.368 -78.12 80.073 -175.77 128.898 -128.898 60.543 -259.749 60.543 -136.71 -1.953 -259.749 -60.543 -103.509 -52.731 -175.77 -128.898 -64.449 -72.261 -64.449 -109.368zm263.655 0q0 93.744 69.332 159.169t166.982 65.425 166.982 -65.425 69.332 -159.169 -69.332 -159.169 -166.982 -65.425 -166.982 65.425 -69.332 159.169zm85.932 -.977q0 -59.567 43.943 -101.556t106.439 -41.989 106.439 41.989 43.943 101.556 -43.943 102.532 -106.439 42.966 -106.439 -42.966 -43.943 -102.532z"/></svg>