<svg height="1000px" width="1000px" xmlns="http://www.w3.org/2000/svg">
  <g>
    <path d="M0 500c3.906 -32.552 25.391 -69.01 64.453 -109.375c52.083 -53.385 110.677 -96.354 175.781 -128.906c85.938 -40.365 172.526 -60.547 259.766 -60.547c91.146 1.302 177.734 21.484 259.766 60.547c69.01 35.156 127.604 78.125 175.781 128.906c42.969 48.177 64.453 84.635 64.453 109.375c-3.906 32.552 -25.391 69.01 -64.453 109.375c-52.083 53.385 -110.677 96.354 -175.781 128.906c-85.938 40.365 -172.526 60.547 -259.766 60.547c-91.146 -1.302 -177.734 -21.484 -259.766 -60.547c-69.01 -35.156 -127.604 -78.125 -175.781 -128.906c-42.969 -48.177 -64.453 -84.635 -64.453 -109.375c0 0 0 0 0 0m263.672 0c0 62.5 23.112 115.56 69.336 159.18c46.224 43.619 101.888 65.429 166.992 65.429c65.104 0 120.768 -21.81 166.992 -65.429c46.224 -43.62 69.336 -96.68 69.336 -159.18c0 -62.5 -23.112 -115.56 -69.336 -159.18c-46.224 -43.619 -101.888 -65.429 -166.992 -65.429c-65.104 0 -120.768 21.81 -166.992 65.429c-46.224 43.62 -69.336 96.68 -69.336 159.18c0 0 0 0 0 0m85.937 -0.977c0 -39.713 14.649 -73.567 43.946 -101.562c29.297 -27.995 64.778 -41.992 106.445 -41.992c41.667 0 77.148 13.997 106.445 41.992c29.297 27.995 43.946 61.849 43.946 101.562c0 39.714 -14.649 73.894 -43.946 102.539c-29.297 28.646 -64.778 42.969 -106.445 42.969c-41.667 0 -77.148 -14.323 -106.445 -42.969c-29.297 -28.645 -43.946 -62.825 -43.946 -102.539c0 0 0 0 0 0" />
  </g>
</svg>