<svg height="1000px" width="1000px" xmlns="http://www.w3.org/2000/svg">
  <g>
    <path d="M0 1000c0 0 0 -1000 0 -1000c0 0 1000 0 1000 0c0 0 0 1000 0 1000c0 0 -1000 0 -1000 0c0 0 0 0 0 0m470.703 -468.75c0 0 91.797 0 91.797 0c0 0 0 351.563 0 351.563c0 0 132.813 0 132.813 0c0 0 0 -351.563 0 -351.563c0 0 128.906 0 128.906 0c0 0 5.859 -126.953 5.859 -126.953c0 0 -134.766 0 -134.766 0c0 0 0 -93.75 0 -93.75c0 -20.833 3.907 -35.482 11.719 -43.945c7.813 -8.464 21.485 -12.696 41.016 -12.696c0 0 80.078 0 80.078 0c0 0 1.953 -117.187 1.953 -117.187c-39.062 -3.907 -68.359 -5.86 -87.891 -5.86c0 0 -23.437 0 -23.437 0c-20.833 0 -39.714 3.256 -56.641 9.766c-66.406 26.042 -99.609 77.474 -99.609 154.297c0 0 0 109.375 0 109.375c0 0 -91.797 0 -91.797 0c0 0 0 126.953 0 126.953c0 0 0 0 0 0" />
  </g>
</svg>