<svg height="1000px" width="1000px" xmlns="http://www.w3.org/2000/svg">
  <g>
    <path d="M183.59375 312.5c0 -88.542 31.25 -164.388 93.75 -227.539c62.5 -63.151 138.021 -94.727 226.563 -94.727c88.541 0 164.388 31.576 227.539 94.727c63.151 63.151 94.726 138.997 94.726 227.539c0 76.823 -24.739 144.857 -74.219 204.102c-49.479 59.244 -111.328 96.028 -185.546 110.351c0 0 0 103.516 0 103.516c0 0 136.718 0 136.718 0c0 0 0 123.047 0 123.047c0 0 -136.718 0 -136.718 0c0 0 0 136.718 0 136.718c0 0 -123.047 0 -123.047 0c0 0 0 -136.718 0 -136.718c0 0 -138.672 0 -138.672 0c0 0 0 -123.047 0 -123.047c0 0 138.672 0 138.672 0c0 0 0 -103.516 0 -103.516c-74.219 -14.323 -136.068 -51.107 -185.547 -110.351c-49.479 -59.245 -74.219 -127.279 -74.219 -204.102c0 0 0 0 0 0m126.953 0c0 53.385 18.88 98.958 56.641 136.719c37.76 37.76 83.333 56.64 136.719 56.64c53.385 0 98.958 -18.88 136.718 -56.64c37.761 -37.761 56.641 -83.334 56.641 -136.719c0 -53.385 -18.88 -98.958 -56.641 -136.719c-37.76 -37.76 -83.333 -56.64 -136.718 -56.64c-53.386 0 -98.959 18.88 -136.719 56.64c-37.761 37.761 -56.641 83.334 -56.641 136.719c0 0 0 0 0 0" />
  </g>
</svg>