<svg height="1000" width="643" xmlns="http://www.w3.org/2000/svg"><path d="M0 322.246q0 -132.804 93.744 -227.525t226.548 -94.721 227.525 94.721 94.721 227.525q0 115.227 -74.214 204.089t-185.535 110.345l0 103.509l136.71 0l0 123.039l-136.71 0l0 136.71l-123.039 0l0 -136.71l-138.663 0l0 -123.039l138.663 0l0 -103.509q-111.321 -21.483 -185.535 -110.345t-74.214 -204.089zm126.945 0q0 80.073 56.637 136.71t136.71 56.637 136.71 -56.637 56.637 -136.71 -56.637 -136.71 -136.71 -56.637 -136.71 56.637 -56.637 136.71z"/></svg>