<svg height="1000px" width="1000px" xmlns="http://www.w3.org/2000/svg">
  <g>
    <path d="M80.078125 560.546875c6.51 -27.344 23.112 -71.289 49.805 -131.836c26.692 -60.547 41.341 -109.049 43.945 -145.508c26.042 48.177 41.016 96.354 44.922 144.532c98.958 -122.396 150.391 -264.974 154.297 -427.735c6.51 3.906 14.974 9.44 25.39 16.602c10.417 7.161 29.623 22.461 57.618 45.898c27.994 23.438 52.734 47.852 74.218 73.242c21.485 25.391 41.667 57.618 60.547 96.68c18.88 39.063 30.274 78.125 34.18 117.188c10.417 -23.438 16.927 -49.48 19.531 -78.125c2.604 -28.646 -0.651 -55.339 -9.765 -80.079c10.416 7.813 24.088 20.834 41.015 39.063c16.927 18.229 35.807 42.969 56.641 74.219c20.833 31.25 39.388 64.453 55.664 99.609c16.276 35.156 26.693 74.544 31.25 118.164c4.557 43.62 1.627 85.938 -8.789 126.953c-10.417 41.016 -34.505 83.334 -72.266 126.953c-37.76 43.62 -88.542 83.659 -152.344 120.118c42.969 -85.938 51.433 -178.711 25.391 -278.321c-26.042 -99.609 -77.474 -176.107 -154.297 -229.492c6.511 28.646 2.93 75.846 -10.742 141.602c-13.672 65.755 -35.482 115.559 -65.43 149.414c5.209 -41.667 6.511 -75.521 3.907 -101.563c-2.605 -26.042 -6.511 -45.573 -11.719 -58.594c0 0 -9.766 -17.578 -9.766 -17.578c-7.812 46.875 -27.995 93.75 -60.547 140.625c-16.927 24.74 -29.622 47.526 -38.086 68.36c-8.463 20.833 -11.718 47.526 -9.765 80.078c1.953 32.552 12.044 67.708 30.273 105.469c-89.844 -50.782 -150.065 -102.214 -180.664 -154.297c-30.599 -52.084 -38.737 -112.631 -24.414 -181.641c0 0 0 0 0 0" />
  </g>
</svg>