<svg height="1000px" width="1000px" xmlns="http://www.w3.org/2000/svg">
  <g>
    <path d="M0 857.421875c0 0 0 -802.734 0 -802.734c45.573 -27.344 90.82 -44.271 135.742 -50.782c44.922 -6.51 86.263 -5.533 124.024 2.93c37.76 8.464 75.195 20.182 112.304 35.156c37.11 14.974 74.545 29.297 112.305 42.969c37.76 13.672 75.521 24.089 113.281 31.25c37.761 7.162 79.102 6.185 124.024 -2.93c44.922 -9.114 90.82 -28.645 137.695 -58.593c0 0 0 458.984 0 458.984c-35.156 35.156 -71.615 57.617 -109.375 67.383c-37.76 9.765 -74.544 9.44 -110.352 -0.977c-35.807 -10.416 -74.544 -23.763 -116.211 -40.039c-41.666 -16.276 -83.007 -33.528 -124.023 -51.758c-41.016 -18.229 -86.263 -29.622 -135.742 -34.179c-49.479 -4.558 -99.61 -0.977 -150.391 10.742c0 0 0 392.578 0 392.578c0 0 -113.281 0 -113.281 0c0 0 0 0 0 0" />
  </g>
</svg>