<svg height="1000px" width="1000px" xmlns="http://www.w3.org/2000/svg">
  <g>
    <path d="M0 500c0 -138.021 48.828 -255.859 146.484 -353.516c97.657 -97.656 215.495 -146.484 353.516 -146.484c138.021 0 255.859 48.828 353.516 146.484c97.656 97.657 146.484 215.495 146.484 353.516c0 138.021 -48.828 255.859 -146.484 353.516c-97.657 97.656 -215.495 146.484 -353.516 146.484c-138.021 0 -255.859 -48.828 -353.516 -146.484c-97.656 -97.657 -146.484 -215.495 -146.484 -353.516c0 0 0 0 0 0m216.797 281.25c0 0 76.172 0 76.172 0c0 0 0 -257.813 0 -257.813c42.968 -11.718 82.031 -13.346 117.187 -4.882c35.156 8.463 69.987 19.531 104.492 33.203c34.506 13.672 65.756 26.693 93.75 39.062c27.995 12.37 57.292 16.276 87.891 11.719c30.599 -4.557 59.57 -19.857 86.914 -45.898c0 0 0 -302.735 0 -302.735c-41.667 26.042 -83.008 40.039 -124.023 41.992c-41.016 1.954 -76.498 -3.58 -106.446 -16.601c-29.948 -13.021 -64.778 -26.367 -104.492 -40.039c-39.713 -13.672 -75.195 -20.508 -106.445 -20.508c-41.667 -1.302 -83.333 10.417 -125 35.156c0 0 0 527.344 0 527.344c0 0 0 0 0 0" />
  </g>
</svg>