<svg height="1000px" width="1000px" xmlns="http://www.w3.org/2000/svg">
  <g>
    <path d="M0 1000c0 0 0 -1000 0 -1000c0 0 1000 0 1000 0c0 0 0 1000 0 1000c0 0 -1000 0 -1000 0c0 0 0 0 0 0m107.422 -500c0 52.083 18.229 96.68 54.687 133.789c36.459 37.109 80.73 55.664 132.813 55.664c52.083 0 96.68 -18.555 133.789 -55.664c37.109 -37.109 55.664 -81.706 55.664 -133.789c0 -52.083 -18.555 -96.354 -55.664 -132.813c-37.109 -36.458 -81.706 -54.687 -133.789 -54.687c-52.083 0 -96.354 18.229 -132.813 54.688c-36.458 36.458 -54.687 80.729 -54.687 132.812c0 0 0 0 0 0m408.203 0c0 52.083 18.555 96.68 55.664 133.789c37.109 37.109 81.706 55.664 133.789 55.664c52.083 0 96.354 -18.555 132.813 -55.664c36.458 -37.109 54.687 -81.706 54.687 -133.789c0 -52.083 -18.229 -96.354 -54.687 -132.813c-36.459 -36.458 -80.73 -54.687 -132.813 -54.687c-52.083 0 -96.68 18.229 -133.789 54.688c-37.109 36.458 -55.664 80.729 -55.664 132.812c0 0 0 0 0 0" />
  </g>
</svg>