<svg height="1000px" width="1000px" xmlns="http://www.w3.org/2000/svg">
  <g>
    <path d="M0 669.921875c0 0 80.078 -169.922 80.078 -169.922c0 0 -80.078 -169.922 -80.078 -169.922c0 0 99.609 0 99.609 0c0 0 113.282 99.61 113.282 99.61c0 0 179.687 0 179.687 0c0 0 -125 -400.391 -125 -400.391c0 0 99.61 0 99.61 0c0 0 224.609 400.391 224.609 400.391c0 0 257.812 0 257.812 0c0 0 37.11 1.953 37.11 1.953c26.041 1.302 51.432 7.812 76.172 19.531c24.739 11.719 37.109 27.995 37.109 48.828c0 13.021 -5.534 24.414 -16.602 34.18c-11.067 9.765 -23.112 16.927 -36.132 21.484c-13.021 4.557 -27.995 7.813 -44.922 9.766c-16.927 1.953 -28.972 3.255 -36.133 3.906c-7.162 0.651 -12.695 0.977 -16.602 0.977c0 0 -257.812 0 -257.812 0c0 0 -224.61 400.39 -224.61 400.39c0 0 -99.609 0 -99.609 0c0 0 125 -400.39 125 -400.39c0 0 -179.687 0 -179.687 0c0 0 -113.282 99.609 -113.282 99.609c0 0 -99.609 0 -99.609 0c0 0 0 0 0 0" />
  </g>
</svg>