<svg height="1000px" width="1000px" xmlns="http://www.w3.org/2000/svg">
  <g>
    <path d="M0 902.34375c0 0 0 -54.688 0 -54.688c0 0 146.484 -505.859 146.484 -505.859c0 0 853.516 0 853.516 0c0 0 -171.875 560.547 -171.875 560.547c0 0 -828.125 0 -828.125 0c0 0 0 0 0 0m0 -205.078c0 0 0 -509.766 0 -509.766c0 0 138.672 0 138.672 0c0 0 68.359 -89.844 68.359 -89.844c0 0 216.797 0 216.797 0c0 0 68.36 89.844 68.36 89.844c0 0 335.937 0 335.937 0c0 0 0 121.094 0 121.094c0 0 -724.609 0 -724.609 0c0 0 -103.516 388.672 -103.516 388.672" />
  </g>
</svg>