<svg height="1000px" width="1000px" xmlns="http://www.w3.org/2000/svg">
  <g>
    <path d="M0 500c0 -138.021 48.828 -255.859 146.484 -353.516c97.657 -97.656 215.495 -146.484 353.516 -146.484c138.021 0 255.859 48.828 353.516 146.484c97.656 97.657 146.484 215.495 146.484 353.516c0 138.021 -48.828 255.859 -146.484 353.516c-97.657 97.656 -215.495 146.484 -353.516 146.484c-138.021 0 -255.859 -48.828 -353.516 -146.484c-97.656 -97.657 -146.484 -215.495 -146.484 -353.516c0 0 0 0 0 0m201.172 240.234c0 0 597.656 0 597.656 0c0 0 0 -425.781 0 -425.781c0 0 -302.734 0 -302.734 0c0 0 -41.016 -54.687 -41.016 -54.687c0 0 -128.906 0 -128.906 0c0 0 -42.969 54.687 -42.969 54.687c0 0 -82.031 0 -82.031 0c0 0 0 425.781 0 425.781c0 0 0 0 0 0" />
  </g>
</svg>