<svg height="1000px" width="1000px" xmlns="http://www.w3.org/2000/svg">
  <g>
    <path d="M0 830.078125c0 0 208.984 -685.547 208.984 -685.547c2.605 -7.812 7.813 -11.719 15.625 -11.719c0 0 138.672 0 138.672 0c7.813 0 13.021 3.907 15.625 11.719c0 0 207.031 681.641 207.031 681.641c1.303 3.906 1.954 6.51 1.954 7.812c0 10.417 -5.209 15.625 -15.625 15.625c0 0 -1.953 0 -1.953 0c0 0 -123.047 0 -123.047 0c-7.813 0 -13.021 -3.906 -15.625 -11.718c0 0 -35.157 -123.047 -35.157 -123.047c0 0 -205.078 0 -205.078 0c0 0 -35.156 123.047 -35.156 123.047c-2.604 7.812 -7.812 11.718 -15.625 11.718c0 0 -125 0 -125 0c-13.021 0 -18.229 -6.51 -15.625 -19.531c0 0 0 0 0 0m222.656 -248.047c0 0 142.578 0 142.578 0c0 0 -72.265 -251.953 -72.265 -251.953c0 0 -70.313 251.953 -70.313 251.953m369.141 111.328c2.604 -55.989 20.182 -98.958 52.734 -128.906c31.25 -27.344 68.36 -41.016 111.328 -41.016c44.271 0 80.73 11.719 109.375 35.157c0 0 0 -31.25 0 -31.25c0 -49.48 -25.39 -74.219 -76.172 -74.219c-39.062 0 -74.869 16.927 -107.421 50.781c-11.719 9.115 -20.183 7.813 -25.391 -3.906c0 0 -41.016 -68.36 -41.016 -68.36c-2.604 -7.812 -1.302 -14.322 3.907 -19.531c24.739 -24.739 52.734 -42.969 83.984 -54.687c37.76 -15.625 81.055 -21.485 129.883 -17.578c48.828 3.906 86.914 18.88 114.258 44.921c33.854 29.948 50.781 72.917 50.781 128.907c0 0 0 324.218 0 324.218c0 10.417 -5.208 15.625 -15.625 15.625c0 0 -99.61 0 -99.61 0c-10.416 0 -16.276 -5.208 -17.578 -15.625c0 0 0 -9.765 0 -9.765c-31.25 24.739 -67.708 37.109 -109.375 37.109c-44.27 -1.302 -81.38 -16.276 -111.328 -44.922c-33.854 -32.552 -51.432 -74.869 -52.734 -126.953c0 0 0 0 0 0m132.812 1.953c0 19.532 5.86 36.459 17.578 50.782c19.532 15.625 41.993 21.158 67.383 16.601c25.391 -4.557 43.946 -15.95 55.664 -34.18c0 0 0 -68.359 0 -68.359c-9.114 -16.927 -21.484 -27.344 -37.109 -31.25c-37.76 -13.021 -66.406 -8.463 -85.938 13.672c-11.718 15.625 -17.578 33.203 -17.578 52.734c0 0 0 0 0 0" />
  </g>
</svg>