<svg height="1000" width="998" xmlns="http://www.w3.org/2000/svg"><path d="M0 831.221l208.971 -685.503q3.906 -11.718 15.624 -11.718l138.663 0q11.718 0 15.624 11.718l207.018 681.597q1.953 5.859 1.953 7.812 0 15.624 -15.624 15.624l-124.992 0q-11.718 0 -15.624 -11.718l-35.154 -123.039l-205.065 0l-35.154 123.039q-3.906 11.718 -15.624 11.718l-124.992 0q-19.53 0 -15.624 -19.53zm222.642 -248.031l142.569 0l-72.261 -251.937zm369.117 111.321q3.906 -83.979 52.731 -128.898 46.872 -41.013 111.321 -41.013 66.402 0 109.368 35.154l0 -31.248q0 -74.214 -76.167 -74.214 -58.59 0 -107.415 50.778 -17.577 13.671 -25.389 -3.906l-41.013 -68.355q-3.906 -11.718 3.906 -19.53 37.107 -37.107 83.979 -54.684 56.637 -23.436 129.875 -17.577t114.251 44.919q50.778 44.919 50.778 128.898l0 324.198q0 15.624 -15.624 15.624l-99.603 0q-15.624 0 -17.577 -15.624l0 -9.765q-46.872 37.107 -109.368 37.107 -66.402 -1.953 -111.321 -44.919 -50.778 -48.825 -52.731 -126.945zm132.804 1.953q0 29.295 17.577 50.778 29.295 23.436 67.379 16.601t55.66 -34.178l0 -68.355q-13.671 -25.389 -37.107 -31.248 -56.637 -19.53 -85.932 13.671 -17.577 23.436 -17.577 52.731z"/></svg>