<svg height="1000px" width="1000px" xmlns="http://www.w3.org/2000/svg">
  <g>
    <path d="M0 923.828125c0 0 85.938 0 85.938 0c-0.001 0 353.515 -917.969 353.515 -917.969c0 0 111.328 0 111.328 0c0 0 351.563 917.969 351.563 917.969c0 0 97.656 0 97.656 0c0 0 0 70.313 0 70.313c0 0 -359.375 0 -359.375 0c0 0 0 -70.313 0 -70.313c0 0 109.375 0 109.375 0c0 0 -82.031 -216.797 -82.031 -216.797c0 0 -416.016 0 -416.016 0c0 0 -82.031 216.797 -82.031 216.797c0 0 107.422 0 107.422 0c0 0 0 70.313 0 70.313c0 0 -277.344 0 -277.344 0c0 0 0 -70.313 0 -70.313c0 0 0 0 0 0m279.297 -287.109c0 0 363.281 0 363.281 0c0 0 -181.641 -470.704 -181.641 -470.704c0 0 -181.64 470.704 -181.64 470.704" />
  </g>
</svg>