<svg height="1000px" width="1000px" xmlns="http://www.w3.org/2000/svg">
  <g>
    <path d="M0 1000c0 0 0 -1000 0 -1000c0 0 841.797 0 841.797 0c0 0 -228.516 312.5 -228.516 312.5c0 0 -68.359 -66.406 -68.359 -66.406c-23.438 -20.834 -45.573 -20.834 -66.406 0c0 0 -17.579 15.625 -17.579 15.625c-2.604 -3.906 -5.533 -8.138 -8.789 -12.696c-3.255 -4.557 -6.836 -8.789 -10.742 -12.695c-42.969 -46.875 -93.75 -70.963 -152.344 -72.266c-50.781 1.303 -94.401 17.579 -130.859 48.829c-41.667 39.062 -65.104 85.286 -70.312 138.671c-2.605 57.292 13.02 106.12 46.875 146.485c40.364 42.969 86.588 66.406 138.671 70.312c0 0 205.079 203.125 205.079 203.125c23.437 20.834 45.573 20.834 66.406 0c0 0 230.469 -230.468 230.469 -230.468c20.833 -22.136 20.833 -43.62 0 -64.454c0 0 224.609 -189.453 224.609 -189.453c0 0 0 712.891 0 712.891c0 0 -1000 0 -1000 0c0 0 0 0 0 0m126.953 -632.813c0 -44.27 15.625 -82.356 46.875 -114.257c31.25 -31.901 69.336 -47.852 114.258 -47.852c44.922 0 83.008 15.951 114.258 47.852c31.25 31.901 46.875 69.987 46.875 114.257c0 20.834 -3.907 41.016 -11.719 60.547c0 0 0 2.93 0 2.93c0 0 0 0.977 0 0.977c16.927 23.437 30.599 41.666 41.016 54.687c10.416 14.323 16.276 22.136 17.578 23.438c2.604 3.906 6.51 5.859 11.718 5.859c5.209 0 9.115 -2.604 11.719 -7.813c0 0 371.094 -507.812 371.094 -507.812c0 0 109.375 0 109.375 0c0 0 0 234.375 0 234.375c0 0 -482.422 408.203 -482.422 408.203c-2.604 1.302 -5.859 1.953 -9.766 1.953c0 0 -1.953 0 -1.953 0c-2.604 0 -5.208 -0.651 -7.812 -1.953c0 0 -152.344 -125 -152.344 -125c0 0 -1.953 0 -1.953 0c-18.229 6.511 -37.109 9.766 -56.641 9.766c-44.27 0 -82.031 -15.625 -113.281 -46.875c-31.25 -31.25 -46.875 -69.011 -46.875 -113.281c0 0 0 0 0 0" />
  </g>
</svg>