<svg height="1000" width="1000" xmlns="http://www.w3.org/2000/svg"><path d="M.001 1000l0-999.936l841.743 0l-228.501 312.48-68.355-66.402q-35.154-31.248-66.402 0l-17.577 15.624q-3.906-5.859-8.789-12.694t-10.742-12.694q-64.449-70.308-152.334-72.261-76.167 1.953-130.851 48.825-62.496 58.59-70.308 138.663-3.906 85.932 46.872 146.475 60.543 64.449 138.663 70.308l205.065 203.112q35.154 31.248 66.402 0l230.454-230.454q31.248-33.201 0-64.449l224.595-189.441l0 712.845l-999.936 0zm126.945-632.772q0-66.402 46.872-114.251t114.251-47.849 114.251 47.849 46.872 114.251q0 31.248-11.718 60.543l0 3.906q25.389 35.154 41.013 54.684 15.624 21.483 17.577 23.436 3.906 5.859 11.718 5.859t11.718-7.812l371.07-507.78l109.368 0l0 234.36l-482.391 408.177q-3.906 1.953-9.765 1.953l-1.953 0q-3.906 0-7.812-1.953l-152.334-124.992l-1.953 0q-27.342 9.765-56.637 9.765-66.402 0-113.274-46.872t-46.872-113.274z"/></svg>