<svg height="1000px" width="1000px" xmlns="http://www.w3.org/2000/svg">
  <g>
    <path d="M21.484375 378.90625c1.302 -33.854 6.185 -59.896 14.648 -78.125c8.464 -18.229 17.579 -29.622 27.344 -34.18c9.766 -4.557 23.112 -7.487 40.039 -8.789c11.719 -153.646 103.516 -238.281 275.391 -253.906c63.802 -5.208 132.161 5.208 205.078 31.25c44.271 -23.438 93.75 -35.156 148.438 -35.156c22.135 0 63.802 4.557 125 13.672c40.364 10.416 69.01 24.088 85.937 41.015c16.927 16.927 24.74 39.714 23.438 68.36c0 0 3.906 89.843 3.906 89.843c-2.604 19.532 -6.511 35.482 -11.719 47.852c-5.208 12.37 -12.695 21.484 -22.461 27.344c-9.766 5.859 -16.927 9.765 -21.484 11.718c-4.558 1.954 -13.347 4.232 -26.367 6.836c1.302 1.302 4.231 2.93 8.789 4.883c4.557 1.953 7.812 3.906 9.765 5.86c1.953 1.953 4.232 6.184 6.836 12.695c2.604 6.51 4.557 14.974 5.86 25.39c0 0 0 111.329 0 111.329c-6.511 18.229 -15.625 32.552 -27.344 42.968c-11.719 10.417 -22.136 16.927 -31.25 19.532c-9.115 2.604 -21.485 5.208 -37.11 7.812c0 0 -42.968 -3.906 -42.968 -3.906c0 0 -3.907 369.14 -3.907 369.14c0 9.115 -0.976 16.928 -2.929 23.438c-1.953 6.51 -3.907 12.37 -5.86 17.578c-1.953 5.208 -5.208 9.766 -9.765 13.672c-4.558 3.906 -8.138 6.836 -10.742 8.789c-2.605 1.953 -7.162 4.232 -13.672 6.836c-6.511 2.604 -10.743 4.232 -12.696 4.883c-1.953 0.651 -6.836 1.953 -14.648 3.906c-7.813 1.953 -12.37 2.93 -13.672 2.93c0 0 -166.016 0 -166.016 0c-49.479 -1.302 -77.474 -33.203 -83.984 -95.703c-19.531 74.218 -55.339 108.073 -107.422 101.562c0 0 -142.578 -1.953 -142.578 -1.953c-13.021 -1.302 -24.74 -3.255 -35.156 -5.859c-10.417 -2.605 -18.555 -6.511 -24.414 -11.719c-5.86 -5.208 -11.068 -9.44 -15.625 -12.695c-4.558 -3.256 -7.813 -8.789 -9.766 -16.602c-1.953 -7.813 -3.255 -13.346 -3.906 -16.602c-0.651 -3.255 -1.628 -9.44 -2.93 -18.554c-1.302 -9.115 -1.953 -14.974 -1.953 -17.578c0 0 -1.953 -355.469 -1.953 -355.469c-16.927 -5.208 -30.274 -11.393 -40.039 -18.555c-9.766 -7.161 -18.555 -22.135 -26.367 -44.922c-7.813 -22.786 -11.068 -53.06 -9.766 -90.82c0 0 0 0 0 0m97.656 -42.969c0 0 1.953 113.281 1.953 113.281c0 0 74.219 0 74.219 0c0 0 -5.859 449.219 -5.859 449.219c0 0 152.344 0 152.344 0c0 0 0 -449.219 0 -449.219c0 0 199.218 -3.906 199.218 -3.906c0 0 0 453.125 0 453.125c0 0 152.344 3.906 152.344 3.906c0 0 -1.953 -457.031 -1.953 -457.031c0 0 136.719 0 136.719 0c0 0 0 -101.562 0 -101.562c0 0 -136.719 0 -136.719 0c1.302 -14.323 1.302 -28.646 0 -42.969c-1.302 -14.323 -0.977 -28.32 0.976 -41.992c1.954 -13.672 5.209 -25.391 9.766 -35.156c4.557 -9.766 13.021 -17.253 25.391 -22.461c12.369 -5.209 28.32 -6.511 47.851 -3.907c45.573 6.511 78.125 17.579 97.657 33.204c0 0 1.953 -113.282 1.953 -113.282c-54.688 -23.437 -117.839 -30.599 -189.453 -21.484c-27.344 3.906 -50.456 11.068 -69.336 21.484c-18.881 10.417 -32.878 20.834 -41.993 31.25c-9.114 10.417 -16.601 25.716 -22.461 45.899c-5.859 20.182 -9.114 36.133 -9.765 47.851c-0.651 11.719 -0.977 30.274 -0.977 55.664c0 0 0 49.805 0 49.805c0 0 -191.406 -1.953 -191.406 -1.953c0 0 0 -76.172 0 -76.172c1.302 -11.719 2.93 -21.159 4.883 -28.32c1.953 -7.162 5.534 -14.974 10.742 -23.438c5.208 -8.463 13.672 -14.323 25.391 -17.578c11.718 -3.255 26.692 -4.883 44.922 -4.883c11.718 -1.302 41.015 6.511 87.89 23.438c0 0 -1.953 -107.422 -1.953 -107.422c-52.083 -16.927 -91.797 -25.391 -119.141 -25.391c-3.906 0 -11.393 0.651 -22.461 1.953c-11.067 1.302 -20.507 1.302 -28.32 0c-15.625 2.605 -29.948 5.86 -42.969 9.766c-13.02 3.906 -24.088 8.138 -33.203 12.695c-9.114 4.558 -17.578 11.394 -25.39 20.508c-7.813 9.115 -14.323 16.276 -19.532 21.484c-5.208 5.209 -9.765 13.998 -13.671 26.368c-3.907 12.369 -6.836 20.833 -8.79 25.39c-1.953 4.558 -3.906 13.998 -5.859 28.321c-1.953 14.323 -2.93 23.112 -2.93 26.367c0 3.255 -0.325 12.37 -0.976 27.344c0 0 -0.977 22.46 -0.977 22.46c0 0 1.953 31.25 1.953 31.25c0 0 -80.078 -3.906 -80.078 -3.906" />
  </g>
</svg>