<svg height="1000" width="1000" xmlns="http://www.w3.org/2000/svg"><path d="M0 1000l0-999.936l999.936 0l0 999.936l-999.936 0zm150.381-581.994q-1.953 41.013 6.836 66.402t19.53 33.201 28.319 13.671l1.953 261.702q0 1.953 1.953 15.624t2.929 16.601 5.859 12.694 10.742 13.671 18.553 8.789 30.271 6.836l105.462 1.953q56.637 7.812 78.12-76.167 7.812 70.308 62.496 72.261l123.039 0q1.953-1.953 9.765-3.906t10.742-2.929 9.765-2.929 9.765-4.883 7.812-6.836 6.836-9.765 3.906-12.694 3.906-16.601l1.953-273.42 31.248 1.953q27.342-3.906 42.966-12.694t29.295-38.084l0-82.026q-1.953-11.718-4.883-18.553t-5.859-8.789-6.836-4.883-5.859-4.883q17.577-3.906 25.389-6.836t18.553-18.553 14.648-42.966l-1.953-66.402q1.953-58.59-80.073-82.026-68.355-9.765-93.744-9.765-60.543 0-109.368 27.342-80.073-29.295-150.381-23.436-191.394 17.577-205.065 187.488-27.342 1.953-42.966 19.53t-15.624 70.308zm70.308-33.201l60.543 3.906-1.953-23.436 1.953-17.577l0-18.553l1.953-19.53 3.906-21.483 6.836-18.553 9.765-19.53 13.671-15.624 19.53-14.648 25.389-9.765 32.224-6.836q7.812 0 19.53-.977t15.624-.977q31.248 0 89.838 17.577l1.953 80.073q-52.731-19.53-66.402-17.577-25.389 0-40.037 8.789t-17.577 18.553-6.836 27.342l0 56.637l142.569 1.953l0-38.084l.977-41.013 6.836-35.154 16.601-34.178 31.248-22.46 51.755-14.648q78.12-11.718 140.616 15.624l-1.953 83.979q-23.436-19.53-72.261-25.389-23.436-1.953-37.107 2.929t-17.577 15.624-6.836 26.366-1.953 31.248.977 31.248l101.556 0l0 74.214l-101.556 0l0 337.869l-111.321-1.953l0-335.916l-146.475 3.906l0 332.01l-113.274 0l3.906-332.01l-54.684 0z"/></svg>