<svg height="1000px" width="1000px" xmlns="http://www.w3.org/2000/svg">
  <g>
    <path d="M0 1000c0 0 0 -1000 0 -1000c0 0 1000 0 1000 0c0 0 0 1000 0 1000c0 0 -1000 0 -1000 0c0 0 0 0 0 0m150.391 -582.031c-1.302 27.344 0.976 49.479 6.836 66.406c5.859 16.927 12.369 27.995 19.531 33.203c7.161 5.208 16.601 9.766 28.32 13.672c0 0 1.953 261.719 1.953 261.719c0 1.302 0.651 6.51 1.953 15.625c1.302 9.114 2.279 14.648 2.93 16.601c0.651 1.953 2.604 6.185 5.859 12.696c3.256 6.51 6.836 11.067 10.743 13.671c3.906 2.605 10.091 5.534 18.554 8.79c8.464 3.255 18.555 5.533 30.274 6.835c0 0 105.468 1.954 105.468 1.954c37.761 5.208 63.803 -20.183 78.125 -76.172c5.209 46.875 26.042 70.963 62.5 72.265c0 0 123.047 0 123.047 0c1.302 -1.302 4.558 -2.604 9.766 -3.906c5.208 -1.302 8.789 -2.279 10.742 -2.93c1.953 -0.651 5.209 -1.627 9.766 -2.929c4.557 -1.302 7.812 -2.93 9.765 -4.883c1.954 -1.953 4.558 -4.232 7.813 -6.836c3.255 -2.604 5.534 -5.859 6.836 -9.766c1.302 -3.906 2.604 -8.138 3.906 -12.695c1.302 -4.557 2.604 -10.091 3.906 -16.602c0 0 1.954 -273.437 1.954 -273.437c0 0 31.25 1.953 31.25 1.953c18.229 -2.604 32.552 -6.836 42.968 -12.695c10.417 -5.86 20.183 -18.555 29.297 -38.086c0 0 0 -82.031 0 -82.031c-1.302 -7.813 -2.93 -13.998 -4.883 -18.555c-1.953 -4.557 -3.906 -7.487 -5.859 -8.789c-1.953 -1.302 -4.232 -2.93 -6.836 -4.883c-2.604 -1.953 -4.557 -3.581 -5.859 -4.883c11.718 -2.604 20.182 -4.883 25.39 -6.836c5.209 -1.953 11.393 -8.138 18.555 -18.554c7.161 -10.417 12.044 -24.74 14.648 -42.969c0 0 -1.953 -66.406 -1.953 -66.406c1.302 -39.063 -25.39 -66.407 -80.078 -82.032c-45.573 -6.51 -76.823 -9.765 -93.75 -9.765c-40.364 0 -76.823 9.114 -109.375 27.343c-53.385 -19.531 -103.515 -27.343 -150.39 -23.437c-127.605 11.719 -195.964 74.219 -205.079 187.5c-18.229 1.302 -32.552 7.812 -42.968 19.531c-10.417 11.719 -15.625 35.156 -15.625 70.313c0 0 0 0 0 0m70.312 -33.203c0 0 60.547 3.906 60.547 3.906c0 0 -1.953 -23.438 -1.953 -23.438c0 0 1.953 -17.578 1.953 -17.578c0 0 0 -18.554 0 -18.554c0 0 0.651 -6.511 1.953 -19.532c1.302 -13.021 2.604 -20.182 3.906 -21.484c1.302 -1.302 3.581 -7.487 6.836 -18.555c3.256 -11.067 6.511 -17.578 9.766 -19.531c3.255 -1.953 7.812 -7.161 13.672 -15.625c5.859 -8.464 12.37 -13.346 19.531 -14.648c7.162 -1.303 15.625 -4.558 25.391 -9.766c9.765 -5.208 20.508 -7.487 32.226 -6.836c5.209 0 11.719 -0.326 19.532 -0.977c7.812 -0.651 13.02 -0.976 15.625 -0.976c20.833 0 50.781 5.859 89.843 17.578c0 0 1.953 80.078 1.953 80.078c-35.156 -13.021 -57.291 -18.88 -66.406 -17.578c-16.927 0 -30.273 2.93 -40.039 8.789c-9.766 5.859 -15.625 12.044 -17.578 18.555c-1.953 6.51 -4.232 15.625 -6.836 27.343c0 0 0 56.641 0 56.641c0 0 142.578 1.953 142.578 1.953c0 0 0 -38.086 0 -38.086c0 0 0.326 -13.672 0.977 -41.015c0.651 -27.344 2.929 -39.063 6.836 -35.157c3.906 3.907 9.44 -7.487 16.601 -34.179c7.162 -26.693 17.578 -34.18 31.25 -22.461c13.672 11.719 30.925 6.836 51.758 -14.649c52.083 -7.812 98.958 -2.604 140.625 15.625c0 0 -1.953 83.985 -1.953 83.985c-15.625 -13.021 -39.714 -21.485 -72.266 -25.391c-15.625 -1.302 -27.995 -0.325 -37.109 2.93c-9.115 3.255 -14.974 8.463 -17.578 15.625c-2.604 7.161 -4.883 15.95 -6.836 26.367c-1.953 10.417 -2.604 20.833 -1.953 31.25c0.651 10.417 0.976 20.833 0.976 31.25c0 0 101.563 0 101.563 0c0 0 0 74.219 0 74.219c0 0 -101.563 0 -101.563 0c0 0 0 337.89 0 337.89c0 0 -111.328 -1.953 -111.328 -1.953c0 0 0 -335.937 0 -335.937c0 0 -146.484 3.906 -146.484 3.906c0 0 0 332.031 0 332.031c0 0 -113.281 0 -113.281 0c0 0 3.906 -332.031 3.906 -332.031c0 0 -54.688 0 -54.688 0c0 0 -1.953 -83.984 -1.953 -83.984" />
  </g>
</svg>