<svg height="1000" width="950" xmlns="http://www.w3.org/2000/svg"><path d="M0 378.946q1.953-50.778 14.648-78.12t27.342-34.178 40.037-8.789q17.577-230.454 275.373-253.89 95.697-7.812 205.065 31.248 66.402-35.154 148.428-35.154 33.201 0 124.992 13.671 60.543 15.624 85.932 41.013t23.436 68.355l3.906 89.838q-3.906 29.295-11.718 47.849t-22.46 27.342-21.483 11.718-26.366 6.836q1.953 1.953 8.789 4.883t9.765 5.859 6.836 12.694 5.859 25.389l0 111.321q-9.765 27.342-27.342 42.966t-31.248 19.53-37.107 7.812l-42.966-3.906-3.906 369.117q0 13.671-2.929 23.436t-5.859 17.577-9.765 13.671-10.742 8.789-13.671 6.836-12.694 4.883-14.648 3.906-13.671 2.929l-166.005 0q-74.214-1.953-83.979-95.697-29.295 111.321-107.415 101.556l-142.569-1.953q-19.53-1.953-35.154-5.859t-24.413-11.718-15.624-12.694-9.765-16.601-3.906-16.601-2.929-18.553-1.953-17.577l-1.953-355.446q-25.389-7.812-40.037-18.553t-26.366-44.919-9.765-90.815zm97.65-42.966l1.953 113.274l74.214 0l-5.859 449.19l152.334 0l0-449.19l199.206-3.906l0 453.096l152.334 3.906-1.953-457.002l136.71 0l0-101.556l-136.71 0q1.953-21.483 0-42.966t.977-41.989 9.765-35.154 25.389-22.46 47.849-3.906q68.355 9.765 97.65 33.201l1.953-113.274q-82.026-35.154-189.441-21.483-41.013 5.859-69.332 21.483t-41.989 31.248-22.46 45.895-9.765 47.849-.977 55.66l0 49.802l-191.394-1.953l0-76.167q1.953-17.577 4.883-28.319t10.742-23.436 25.389-17.577 44.919-4.883q17.577-1.953 87.885 23.436l-1.953-107.415q-78.12-25.389-119.133-25.389-5.859 0-22.46 1.953t-28.319 0q-23.436 3.906-42.966 9.765t-33.201 12.694-25.389 20.506-19.53 21.483-13.671 26.366-8.789 25.389-5.859 28.319-2.929 26.366-.977 27.342l-.977 22.46 1.953 31.248z"/></svg>