<svg height="1000" width="1000" xmlns="http://www.w3.org/2000/svg"><path d="M0 661.968q0 -207.018 146.475 -353.493t353.493 -146.475 353.493 146.475 146.475 353.493q0 91.791 -31.248 175.77l-136.71 0q42.966 -82.026 42.966 -175.77 0 -154.287 -109.368 -264.632t-265.608 -110.345 -265.608 110.345 -109.368 264.632q0 93.744 42.966 175.77l-136.71 0q-31.248 -83.979 -31.248 -175.77zm249.984 -179.676q0 -25.389 18.553 -43.943t43.943 -18.553 43.943 18.553 18.553 43.943 -18.553 43.943 -43.943 18.553 -43.943 -18.553 -18.553 -43.943zm187.488 -60.543q0 -25.389 18.553 -43.943t43.943 -18.553 43.943 18.553 18.553 43.943 -18.553 43.943 -43.943 18.553 -43.943 -18.553 -18.553 -43.943zm13.671 415.989l0 -48.825l48.825 -246.078 48.825 246.078l0 48.825l-97.65 0zm173.817 -355.446q0 -25.389 18.553 -43.943t43.943 -18.553 43.943 18.553 18.553 43.943 -18.553 43.943 -43.943 18.553 -43.943 -18.553 -18.553 -43.943z"/></svg>