<svg height="1000px" width="1000px" xmlns="http://www.w3.org/2000/svg">
  <g>
    <path d="M0 662.109375c0 -138.021 48.828 -255.859 146.484 -353.516c97.657 -97.656 215.495 -146.484 353.516 -146.484c138.021 0 255.859 48.828 353.516 146.484c97.656 97.657 146.484 215.495 146.484 353.516c0 61.198 -10.417 119.792 -31.25 175.781c0 0 -136.719 0 -136.719 0c28.646 -54.687 42.969 -113.281 42.969 -175.781c0 -102.865 -36.458 -191.081 -109.375 -264.648c-72.917 -73.568 -161.458 -110.352 -265.625 -110.352c-104.167 0 -192.708 36.784 -265.625 110.352c-72.917 73.567 -109.375 161.783 -109.375 264.648c0 62.5 14.323 121.094 42.969 175.781c0 0 -136.719 0 -136.719 0c-20.833 -55.989 -31.25 -114.583 -31.25 -175.781c0 0 0 0 0 0m250 -179.688c0 -16.927 6.185 -31.575 18.555 -43.945c12.369 -12.37 27.018 -18.555 43.945 -18.555c16.927 0 31.576 6.185 43.945 18.555c12.37 12.37 18.555 27.018 18.555 43.945c0 16.928 -6.185 31.576 -18.555 43.946c-12.369 12.37 -27.018 18.554 -43.945 18.554c-16.927 0 -31.576 -6.184 -43.945 -18.554c-12.37 -12.37 -18.555 -27.018 -18.555 -43.946c0 0 0 0 0 0m187.5 -60.546c0 -16.927 6.185 -31.576 18.555 -43.946c12.369 -12.369 27.018 -18.554 43.945 -18.554c16.927 0 31.576 6.185 43.945 18.554c12.37 12.37 18.555 27.019 18.555 43.946c0 16.927 -6.185 31.575 -18.555 43.945c-12.369 12.37 -27.018 18.555 -43.945 18.555c-16.927 0 -31.576 -6.185 -43.945 -18.555c-12.37 -12.37 -18.555 -27.018 -18.555 -43.945c0 0 0 0 0 0m13.672 416.015c0 0 0 -48.828 0 -48.828c0 0 48.828 -246.094 48.828 -246.094c0 0 48.828 246.094 48.828 246.094c0 0 0 48.828 0 48.828c0 0 -97.656 0 -97.656 0c0 0 0 0 0 0m173.828 -355.469c0 -16.927 6.185 -31.575 18.555 -43.945c12.369 -12.37 27.018 -18.555 43.945 -18.555c16.927 0 31.576 6.185 43.945 18.555c12.37 12.37 18.555 27.018 18.555 43.945c0 16.928 -6.185 31.576 -18.555 43.946c-12.369 12.37 -27.018 18.554 -43.945 18.554c-16.927 0 -31.576 -6.184 -43.945 -18.554c-12.37 -12.37 -18.555 -27.018 -18.555 -43.946c0 0 0 0 0 0" />
  </g>
</svg>