<svg height="1000" width="903" xmlns="http://www.w3.org/2000/svg"><path d="M0 560.575l0-249.984l357.399 0l-158.193-126.945 189.441-124.992 70.308 212.877 121.086-271.467 189.441 187.488-193.347 123.039l326.151 0l0 249.984l-62.496 0l0 439.425l-777.294 0l0-439.425l-62.496 0zm62.496-62.496l326.151 0l0-124.992l-326.151 0l0 124.992zm62.496 439.425l263.655 0l0-396.459l-263.655 0l0 396.459zm154.287-749.952l138.663 111.321-54.684-166.005zm214.83 121.086l201.159-126.945-99.603-99.603zm19.53 628.866l263.655 0l0-396.459l-263.655 0l0 396.459zm0-439.425l326.151 0l0-124.992l-326.151 0l0 124.992z"/></svg>