<svg height="1000px" width="1000px" xmlns="http://www.w3.org/2000/svg">
  <g>
    <path d="M48.828125 560.546875c0 0 0 -250 0 -250c0 0 357.422 0 357.422 0c0 0 -158.203 -126.953 -158.203 -126.953c0 0 189.453 -125 189.453 -125c0 0 70.312 212.891 70.312 212.891c0 0 121.094 -271.485 121.094 -271.485c0 0 189.453 187.5 189.453 187.5c0 0 -193.359 123.047 -193.359 123.047c0 0 326.172 0 326.172 0c0 0 0 250 0 250c0 0 -62.5 0 -62.5 0c0 0 0 439.453 0 439.453c0 0 -777.344 0 -777.344 0c0 0 0 -439.453 0 -439.453c0 0 -62.5 0 -62.5 0c0 0 0 0 0 0m62.5 -62.5c0 0 326.172 0 326.172 0c0 0 0 -125 0 -125c0 0 -326.172 0 -326.172 0c0 0 0 125 0 125c0 0 0 0 0 0m62.5 439.453c0 0 263.672 0 263.672 0c0 0 0 -396.484 0 -396.484c0 0 -263.672 0 -263.672 0c0 0 0 396.484 0 396.484c0 0 0 0 0 0m154.297 -750c0 0 138.672 111.328 138.672 111.328c0 0 -54.688 -166.015 -54.688 -166.015c0 0 -83.984 54.687 -83.984 54.687m214.844 121.094c0 0 201.172 -126.953 201.172 -126.953c0 0 -99.61 -99.61 -99.61 -99.61c0 0 -101.562 226.563 -101.562 226.563m19.531 628.906c0 0 263.672 0 263.672 0c0 0 0 -396.484 0 -396.484c0 0 -263.672 0 -263.672 0c0 0 0 396.484 0 396.484c0 0 0 0 0 0m0 -439.453c0 0 326.172 0 326.172 0c0 0 0 -125 0 -125c0 0 -326.172 0 -326.172 0c0 0 0 125 0 125c0 0 0 0 0 0" />
  </g>
</svg>