<svg height="1000px" width="1000px" xmlns="http://www.w3.org/2000/svg">
  <g>
    <path d="M37.109375 853.515625c0 -61.198 33.854 -103.516 101.563 -126.953c0 0 0 -1.953 0 -1.953c-24.74 -14.323 -37.11 -37.761 -37.11 -70.313c0 -40.364 11.719 -65.755 35.156 -76.172c0 0 0 -1.953 0 -1.953c-23.437 -7.812 -44.27 -26.041 -62.5 -54.687c-19.531 -29.948 -29.296 -62.5 -29.296 -97.657c0 -53.385 18.229 -97.656 54.687 -132.812c36.458 -32.552 79.427 -48.828 128.906 -48.828c35.157 0 68.36 9.114 99.61 27.344c35.156 0 75.52 -9.115 121.093 -27.344c0 0 0 113.281 0 113.281c-10.416 3.906 -24.739 7.813 -42.968 11.719c5.208 16.927 7.812 32.552 7.812 46.875c0 46.875 -13.997 87.565 -41.992 122.07c-27.995 34.505 -64.128 55.013 -108.398 61.524c-29.948 5.208 -44.922 20.833 -44.922 46.875c0 10.416 5.208 20.182 15.625 29.296c11.718 14.323 29.948 22.787 54.687 25.391c104.167 16.927 156.25 60.547 156.25 130.859c0 113.282 -67.708 169.922 -203.125 169.922c-55.989 0 -101.562 -9.765 -136.719 -29.297c-45.573 -24.739 -68.359 -63.802 -68.359 -117.187c0 0 0 0 0 0m115.234 -5.859c0 37.76 31.901 56.64 95.704 56.64c55.989 0 83.984 -20.182 83.984 -60.547c0 -36.458 -30.599 -54.687 -91.797 -54.687c-58.594 0 -87.891 19.531 -87.891 58.594c0 0 0 0 0 0m11.719 -423.829c0 50.782 22.787 76.172 68.36 76.172c44.27 0 66.406 -25.39 66.406 -76.172c0 -22.135 -5.209 -40.364 -15.625 -54.687c-11.719 -16.927 -28.646 -25.391 -50.781 -25.391c-45.573 0 -68.36 26.693 -68.36 80.079c0 0 0 0 0 0m324.219 -342.774c0 -22.786 7.487 -41.992 22.461 -57.617c14.974 -15.625 32.877 -23.438 53.711 -23.438c20.833 0 38.737 7.813 53.711 23.438c14.974 15.625 22.461 34.831 22.461 57.617c0 22.787 -7.487 41.992 -22.461 57.617c-14.974 15.625 -32.878 23.438 -53.711 23.438c-20.834 0 -38.737 -7.813 -53.711 -23.438c-14.974 -15.625 -22.461 -34.83 -22.461 -57.617c0 0 0 0 0 0m13.672 653.32c2.604 -14.323 3.906 -39.062 3.906 -74.218c0 0 0 -341.797 0 -341.797c0 -33.854 -1.302 -57.292 -3.906 -70.313c0 0 125 0 125 0c-1.302 14.323 -1.953 37.11 -1.953 68.36c0 0 0 335.937 0 335.937c0 37.761 0.651 65.104 1.953 82.031c0 0 -125 0 -125 0c0 0 0 0 0 0m177.734 -380.859c0 0 0 -105.469 0 -105.469c0 0 52.735 0 52.735 0c0 0 0 -42.969 0 -42.969c0 -20.833 -1.303 -37.109 -3.907 -48.828c0 0 126.953 0 126.953 0c-1.302 14.323 -1.953 29.948 -1.953 46.875c0 0 0 44.922 0 44.922c0 0 93.75 0 93.75 0c0 0 0 105.469 0 105.469c-2.604 0 -8.789 -0.326 -18.554 -0.977c-9.766 -0.651 -19.206 -0.976 -28.321 -0.976c0 0 -46.875 0 -46.875 0c0 0 0 203.125 0 203.125c0 49.479 15.625 74.219 46.875 74.219c23.438 0 44.271 -6.511 62.5 -19.532c0 0 0 111.328 0 111.328c-27.344 14.323 -59.896 21.485 -97.656 21.485c-53.385 0 -90.495 -18.88 -111.328 -56.641c-14.323 -28.646 -21.485 -73.567 -21.485 -134.765c0 0 0 -197.266 0 -197.266c0 0 0 -1.953 0 -1.953c0 0 -15.625 0 -15.625 0c-10.416 0 -22.786 0.651 -37.109 1.953c0 0 0 0 0 0" />
  </g>
</svg>