<svg height="1000px" width="1000px" xmlns="http://www.w3.org/2000/svg">
  <g>
    <path d="M0 500c0 -138.021 48.828 -255.859 146.484 -353.516c97.657 -97.656 215.495 -146.484 353.516 -146.484c138.021 0 255.859 48.828 353.516 146.484c97.656 97.657 146.484 215.495 146.484 353.516c0 138.021 -48.828 255.859 -146.484 353.516c-97.657 97.656 -215.495 146.484 -353.516 146.484c-138.021 0 -255.859 -48.828 -353.516 -146.484c-97.656 -97.657 -146.484 -215.495 -146.484 -353.516c0 0 0 0 0 0m54.687 0c0 122.396 43.62 227.214 130.86 314.453c87.239 87.24 192.057 130.86 314.453 130.86c122.396 0 227.214 -43.62 314.453 -130.86c87.24 -87.239 130.859 -192.057 130.86 -314.453c-0.001 -122.396 -43.62 -227.214 -130.86 -314.453c-87.239 -87.24 -192.057 -130.86 -314.453 -130.86c-122.396 0 -227.214 43.62 -314.453 130.86c-87.24 87.239 -130.86 192.057 -130.86 314.453c0 0 0 0 0 0m140.625 107.422c-2.604 -2.604 -2.604 -5.208 0 -7.813c5.209 -5.208 11.719 -7.161 19.532 -5.859c7.812 1.302 12.37 2.604 13.672 3.906c9.114 3.907 19.205 12.696 30.273 26.367c11.068 13.672 19.857 23.112 26.367 28.321c31.25 26.041 63.151 27.995 95.703 5.859c2.605 -9.114 6.836 -16.927 12.696 -23.437c5.859 -6.511 11.393 -11.068 16.601 -13.672c5.209 -2.604 14.323 -6.511 27.344 -11.719c-42.969 -3.906 -77.799 -11.393 -104.492 -22.461c-26.693 -11.068 -47.852 -25.065 -63.477 -41.992c-20.833 -23.438 -33.528 -54.037 -38.086 -91.797c-4.557 -37.76 -1.627 -72.266 8.789 -103.516c7.813 -19.531 18.881 -37.109 33.203 -52.734c-10.416 -32.552 -8.463 -69.661 5.86 -111.328c41.667 2.604 79.427 16.927 113.281 42.969c65.104 -16.927 132.813 -17.578 203.125 -1.953c9.115 -6.511 23.112 -14.649 41.992 -24.415c18.881 -9.765 42.644 -15.299 71.289 -16.601c5.209 14.323 8.789 31.25 10.743 50.781c1.953 19.531 0.976 37.761 -2.93 54.688c29.948 31.25 45.573 72.916 46.875 125c0 41.666 -7.162 76.172 -21.485 103.515c-14.322 27.344 -39.713 50.13 -76.171 68.36c-24.74 11.718 -57.292 18.88 -97.657 21.484c18.23 9.115 31.576 18.555 40.039 28.32c8.464 9.766 13.998 25.065 16.602 45.899c0 0 0 61.523 0 61.523c0 0 0.651 19.857 1.953 59.57c3.906 6.511 8.464 12.045 13.672 16.602c5.208 4.557 9.766 7.813 13.672 9.766c3.906 1.953 5.208 4.882 3.906 8.789c-1.302 3.906 -6.51 5.859 -15.625 5.859c-22.135 0 -39.713 -7.812 -52.734 -23.437c-3.906 -6.511 -5.86 -14.323 -5.86 -23.438c0 0 0 -93.75 0 -93.75c0 -10.417 -2.604 -17.904 -7.812 -22.461c-5.208 -4.557 -10.417 -7.487 -15.625 -8.789c0 0 0 123.047 0 123.047c0 22.135 2.604 36.458 7.812 42.969c5.209 6.51 8.464 13.021 9.766 19.531c1.302 1.302 0.326 2.279 -2.93 2.93c-3.255 0.651 -8.789 -0.326 -16.601 -2.93c-16.927 -3.906 -28.646 -12.695 -35.156 -26.367c-6.511 -13.672 -9.766 -28.321 -9.766 -43.946c0 0 0 -121.093 0 -121.093c0 0 -25.391 0 -25.391 0c0 0 0 121.093 0 121.093c0 15.625 -3.255 30.599 -9.765 44.922c-9.115 18.23 -26.042 27.995 -50.782 29.297c-3.906 -1.302 -5.859 -2.604 -5.859 -3.906c1.302 -1.302 5.208 -7.813 11.719 -19.531c1.302 -2.604 2.929 -7.813 4.883 -15.625c1.953 -7.813 2.929 -16.927 2.929 -27.344c0 0 0 -123.047 0 -123.047c-5.208 1.302 -10.091 4.232 -14.648 8.789c-4.557 4.557 -6.836 12.044 -6.836 22.461c0 0 0 93.75 0 93.75c0 9.115 -1.953 16.927 -5.859 23.438c-11.719 15.625 -29.297 23.437 -52.735 23.437c-9.114 0 -14.323 -1.953 -15.625 -5.859c-1.302 -2.604 -0.976 -4.883 0.977 -6.836c1.953 -1.953 4.883 -4.232 8.789 -6.836c3.906 -2.604 6.51 -4.557 7.812 -5.86c5.209 -3.906 9.115 -9.114 11.719 -15.625c3.906 -5.208 4.883 -18.88 2.93 -41.015c-1.953 -22.136 -2.279 -36.458 -0.977 -42.969c-33.854 11.719 -68.359 5.859 -103.515 -17.578c-10.417 -10.417 -20.834 -25.391 -31.25 -44.922c-7.813 -14.323 -23.438 -31.25 -46.875 -50.781c0 0 0 0 0 0" />
  </g>
</svg>