<svg height="1000px" width="1000px" xmlns="http://www.w3.org/2000/svg">
  <g>
    <path d="M0 462.890625c-1.302 -9.115 1.302 -17.578 7.813 -25.391c0 0 359.375 -185.546 359.375 -185.546c19.531 -7.813 33.203 -2.605 41.015 15.625c7.813 22.135 3.255 37.109 -13.672 44.921c0 0 -226.562 103.516 -226.562 103.516c0 0 658.203 0 658.203 0c0 0 -228.516 -103.516 -228.516 -103.516c-16.927 -10.416 -21.484 -25.39 -13.672 -44.921c9.115 -18.23 23.438 -23.438 42.969 -15.625c0 0 361.328 185.546 361.328 185.546c7.813 7.813 11.068 16.276 9.766 25.391c0 0 -27.344 255.859 -27.344 255.859c-5.208 19.532 -16.276 29.297 -33.203 29.297c0 0 -312.5 0 -312.5 0c-16.927 -1.302 -27.344 -9.765 -31.25 -25.39c0 0 -48.828 -222.657 -48.828 -222.657c-26.042 -16.927 -56.641 -17.578 -91.797 -1.953c0 0 -50.781 224.61 -50.781 224.61c-3.906 16.927 -14.323 25.39 -31.25 25.39c0 0 -312.5 0 -312.5 0c-18.229 -1.302 -28.646 -11.067 -31.25 -29.297c0 0 -27.344 -255.859 -27.344 -255.859m66.406 29.297c0 0 19.532 189.453 19.532 189.453c0 0 259.765 0 259.765 0c0 0 42.969 -189.453 42.969 -189.453c0 0 -322.266 0 -322.266 0c0 0 0 0 0 0m542.969 0c0 0 41.016 189.453 41.016 189.453c0 0 259.765 0 259.765 0c0 0 19.532 -189.453 19.532 -189.453c0 0 -320.313 0 -320.313 0c0 0 0 0 0 0" />
  </g>
</svg>