<svg height="1000" width="1000" xmlns="http://www.w3.org/2000/svg"><path d="M0 500.032q0-207.018 146.475-353.493t353.493-146.475 353.493 146.475 146.475 353.493-146.475 353.493-353.493 146.475-353.493-146.475-146.475-353.493zm124.992-56.637q21.483 27.342 46.872 42.966t65.425 29.295 57.614 21.483q3.906 5.859 14.648 14.648t14.648 10.742q0 5.859-1.953 15.624-1.953 21.483.977 39.06t7.812 27.342 15.624 28.319 16.601 28.319q1.953 5.859 0 13.671-1.953 15.624-8.789 64.449t-6.836 76.167q39.06 23.436 76.167 25.389 3.906-7.812 7.812-17.577 3.906-7.812 8.789-20.506t12.694-28.319q0-13.671 4.883-25.389t10.742-17.577q5.859-7.812 13.671-13.671 19.53-15.624 35.154-31.248t17.577-25.389q7.812-31.248 9.765-68.355 0-11.718-8.789-19.53t-20.506-15.624q-17.577-7.812-45.895-34.178t-41.989-32.224q-17.577-7.812-34.178-8.789t-30.271.977q-13.671 3.906-33.201 1.953-3.906-5.859-7.812-7.812-7.812-3.906-1.953-9.765 3.906-7.812-2.929-10.742t-14.648-.977q-7.812-23.436-7.812-37.107 13.671 11.718 23.436 17.577t17.577 7.812 13.671 1.953q9.765-3.906 11.718-19.53t-1.953-42.966q3.906-3.906 3.906-7.812 3.906-17.577 10.742-22.46t6.836-6.836q3.906 0 3.906-1.953 3.906-1.953 15.624-3.906 5.859-1.953 9.765-2.929t9.765-2.929q7.812-3.906 3.906-11.718l-1.953 0q17.577-9.765 35.154-41.013-11.718-19.53-35.154-31.248-7.812-9.765-19.53-5.859-5.859 0-14.648-5.859t-12.694-7.812-11.718-3.906q-13.671-7.812-26.366-20.506t-20.506-26.366q-3.906-9.765-17.577-13.671-9.765-1.953-19.53-1.953l-11.718 0q-54.684 42.966-92.767 103.509t-49.802 134.757zm255.843-296.856q25.389 13.671 60.543 25.389t68.355 11.718q23.436 0 50.778-15.624 27.342-19.53 76.167-9.765 7.812 1.953 13.671 1.953-35.154-15.624-74.214-23.436t-80.073-7.812q-60.543 0-115.227 17.577zm164.052 382.788q3.906 25.389 19.53 39.06 11.718 11.718 25.389 13.671t25.389 0 27.342 1.953q7.812 3.906 9.765 3.906-5.859 13.671-3.906 21.483 0 3.906 5.859 18.553t5.859 24.413q-3.906 48.825 0 60.543 5.859 11.718 13.671 33.201t13.671 33.201q3.906 7.812 13.671 9.765 19.53 3.906 46.872-23.436 19.53-23.436 23.436-50.778 1.953-9.765 7.812-21.483t9.765-25.389q1.953-5.859 0-13.671 13.671-21.483 13.671-39.06l0-13.671q1.953-3.906 9.765-10.742t11.718-10.742q5.859-23.436 1.953-31.248 0-1.953-3.906-3.906l-17.577-5.859q11.718-25.389 35.154-19.53l31.248-9.765l0-5.859q0-89.838-36.13-163.076t-98.627-125.969q-101.556 11.718-126.945 44.919-11.718 19.53-15.624 33.201-1.953 7.812-4.883 20.506t-3.906 16.601-4.883 11.718-11.718 17.577q-3.906 3.906-3.906 10.742t5.859 18.553q5.859 9.765 5.859 17.577 29.295 0 37.107-9.765l70.308 5.859q25.389-31.248 56.637 0 7.812 7.812 17.577 25.389l-29.295 19.53q-19.53-9.765-33.201-15.624t-28.319-7.812-22.46-.977-30.271 3.906-36.13 2.929l-3.906 7.812-5.859 6.836-7.812 2.929q-1.953 3.906-1.953 9.765l0 7.812q-21.483 27.342-13.671 64.449z"/></svg>