<svg height="1000" width="1000" xmlns="http://www.w3.org/2000/svg"><path d="M0 499.968q0 -207.018 146.475 -353.493t353.493 -146.475 353.493 146.475 146.475 353.493 -146.475 353.493 -353.493 146.475 -353.493 -146.475 -146.475 -353.493zm118.157 39.06q4.883 54.684 26.366 107.415 29.295 72.261 83.979 126.945t124.992 83.979q1.953 -17.577 5.859 -67.379t7.812 -77.144q-3.906 -15.624 -22.46 -50.778t-20.506 -56.637q0 -19.53 .977 -29.295t.977 -15.624q-3.906 -1.953 -9.765 -7.812l-7.812 -7.812q-7.812 -7.812 -11.718 -9.765 -11.718 -3.906 -34.178 -11.718t-33.201 -11.718 -28.319 -11.718 -30.271 -17.577 -26.366 -22.46 -23.436 -28.319q-7.812 52.731 -2.929 107.415zm141.593 -339.822q17.577 -1.953 35.154 0 17.577 7.812 38.084 31.248t34.178 31.248q3.906 3.906 11.718 3.906 3.906 9.765 23.436 12.694t23.436 6.836q23.436 13.671 37.107 33.201 -23.436 33.201 -37.107 39.06 0 1.953 1.953 1.953 3.906 7.812 -3.906 11.718 -5.859 1.953 -23.436 5.859t-23.436 10.742 -9.765 24.413q0 3.906 -3.906 7.812 3.906 27.342 1.953 48.825t-13.671 23.436q-5.859 0 -11.718 -1.953 -7.812 -1.953 -18.553 -7.812t-24.413 -17.577q0 5.859 3.906 14.648t3.906 12.694l5.859 0q7.812 -1.953 11.718 2.929t0 8.789l-1.953 5.859 -1.953 1.953 7.812 3.906q9.765 7.812 18.553 7.812t22.46 -1.953q19.53 -1.953 31.248 -1.953t26.366 8.789 22.46 14.648 21.483 17.577 23.436 17.577q3.906 1.953 21.483 12.694t26.366 19.53 8.789 20.506q-1.953 70.308 -25.389 95.697 -7.812 7.812 -22.46 18.553t-23.436 20.506 -14.648 23.436q-5.859 11.718 -5.859 27.342 -5.859 11.718 -15.624 33.201t-15.624 29.295q99.603 19.53 194.323 -11.718t161.123 -105.462q50.778 -54.684 76.167 -121.086t27.342 -136.71l-37.107 21.483q-23.436 -1.953 -23.436 7.812l15.624 5.859q3.906 1.953 3.906 3.906 3.906 9.765 -3.906 21.483 -5.859 11.718 -29.295 35.154 -1.953 25.389 -3.906 33.201 -3.906 9.765 -9.765 21.483l0 13.671q-1.953 7.812 -8.789 22.46t-8.789 24.413q-3.906 27.342 -23.436 50.778 -29.295 27.342 -48.825 23.436 -7.812 -1.953 -13.671 -9.765 -3.906 -13.671 -13.671 -37.107t-11.718 -29.295q-3.906 -9.765 -3.906 -19.53t1.953 -23.436 1.953 -19.53q0 -9.765 -6.836 -24.413t-6.836 -20.506q-1.953 -5.859 3.906 -19.53l-8.789 -2.929q-8.789 -2.929 -32.224 -2.929l-11.718 0q-44.919 0 -56.637 -54.684 -5.859 -33.201 13.671 -64.449 1.953 -3.906 1.953 -8.789l0 -6.836q9.765 -1.953 17.577 -19.53 7.812 0 36.13 -3.906t41.989 -4.883 35.154 4.883q7.812 5.859 15.624 9.765 13.671 9.765 23.436 13.671l31.248 -21.483q-9.765 -15.624 -19.53 -25.389 -27.342 -31.248 -56.637 0l-68.355 -5.859q-15.624 9.765 -39.06 11.718 -1.953 -11.718 -5.859 -19.53 -5.859 -11.718 -6.836 -18.553t2.929 -10.742l7.812 -7.812q7.812 -5.859 10.742 -16.601t4.883 -24.413 3.906 -19.53q5.859 -13.671 17.577 -31.248 5.859 -13.671 22.46 -21.483t35.154 -13.671 39.06 -7.812 38.084 -3.906q-37.107 -31.248 -76.167 -52.731 -11.718 0 -32.224 -4.883t-28.319 -4.883q-21.483 -1.953 -48.825 13.671 -21.483 15.624 -50.778 15.624 -37.107 0 -74.214 -12.694t-64.449 -28.319q-64.449 21.483 -117.18 64.449z"/></svg>