<svg height="1000px" width="1000px" xmlns="http://www.w3.org/2000/svg">
  <g>
    <path d="M0 500c0 -138.021 48.828 -255.859 146.484 -353.516c97.657 -97.656 215.495 -146.484 353.516 -146.484c138.021 0 255.859 48.828 353.516 146.484c97.656 97.657 146.484 215.495 146.484 353.516c0 138.021 -48.828 255.859 -146.484 353.516c-97.657 97.656 -215.495 146.484 -353.516 146.484c-138.021 0 -255.859 -48.828 -353.516 -146.484c-97.656 -97.657 -146.484 -215.495 -146.484 -353.516c0 0 0 0 0 0m125 -56.641c14.323 18.23 29.948 32.552 46.875 42.969c16.927 10.417 38.737 20.182 65.43 29.297c26.692 9.115 45.898 16.276 57.617 21.484c2.604 3.907 7.487 8.789 14.648 14.649c7.162 5.859 12.045 9.44 14.649 10.742c0 3.906 -0.651 9.115 -1.953 15.625c-1.302 14.323 -0.977 27.344 0.976 39.063c1.953 11.718 4.557 20.833 7.813 27.343c3.255 6.511 8.463 15.951 15.625 28.321c7.161 12.369 12.695 21.809 16.601 28.32c1.302 3.906 1.302 8.463 0 13.672c-1.302 10.416 -4.232 31.901 -8.789 64.453c-4.557 32.552 -6.836 57.943 -6.836 76.172c26.042 15.625 51.433 24.088 76.172 25.39c2.604 -5.208 5.208 -11.067 7.813 -17.578c2.604 -5.208 5.533 -12.044 8.789 -20.508c3.255 -8.463 7.487 -17.903 12.695 -28.32c0 -9.114 1.628 -17.578 4.883 -25.39c3.255 -7.813 6.836 -13.672 10.742 -17.579c3.906 -5.208 8.464 -9.765 13.672 -13.672c13.021 -10.416 24.739 -20.833 35.156 -31.25c10.417 -10.416 16.276 -18.88 17.578 -25.39c5.209 -20.833 8.464 -43.62 9.766 -68.36c0 -7.812 -2.93 -14.322 -8.789 -19.531c-5.86 -5.208 -12.696 -10.416 -20.508 -15.625c-11.719 -5.208 -27.018 -16.601 -45.898 -34.179c-18.881 -17.579 -32.878 -28.321 -41.993 -32.227c-11.718 -5.208 -23.112 -8.138 -34.179 -8.789c-11.068 -0.651 -21.159 -0.326 -30.274 0.976c-9.114 2.605 -20.182 3.256 -33.203 1.954c-2.604 -3.907 -5.208 -6.511 -7.812 -7.813c-5.209 -2.604 -5.86 -5.859 -1.953 -9.766c2.604 -5.208 1.627 -8.789 -2.93 -10.742c-4.557 -1.953 -9.44 -2.278 -14.649 -0.976c-5.208 -15.625 -7.812 -27.995 -7.812 -37.11c9.114 7.813 16.927 13.672 23.437 17.578c6.511 3.907 12.37 6.511 17.579 7.813c5.208 1.302 9.765 1.953 13.671 1.953c6.511 -2.604 10.417 -9.114 11.719 -19.531c1.302 -10.417 0.651 -24.74 -1.953 -42.969c2.604 -2.604 3.906 -5.208 3.906 -7.812c2.604 -11.719 6.185 -19.206 10.742 -22.461c4.558 -3.256 6.836 -5.534 6.836 -6.836c2.605 0 3.907 -0.651 3.907 -1.953c2.604 -1.302 7.812 -2.605 15.625 -3.907c3.906 -1.302 7.161 -2.278 9.765 -2.929c2.604 -0.651 5.86 -1.628 9.766 -2.93c5.208 -2.604 6.51 -6.51 3.906 -11.719c0 0 -1.953 0 -1.953 0c11.719 -6.51 23.437 -20.182 35.156 -41.015c-7.812 -13.021 -19.531 -23.438 -35.156 -31.25c-5.208 -6.511 -11.719 -8.464 -19.531 -5.86c-3.907 0 -8.789 -1.953 -14.649 -5.859c-5.859 -3.906 -10.091 -6.511 -12.695 -7.813c-2.604 -1.302 -6.51 -2.604 -11.719 -3.906c-9.114 -5.208 -17.903 -12.044 -26.367 -20.508c-8.463 -8.463 -15.299 -17.252 -20.508 -26.367c-2.604 -6.51 -8.463 -11.068 -17.578 -13.672c-6.51 -1.302 -13.021 -1.953 -19.531 -1.953c0 0 -11.719 0 -11.719 0c-36.458 28.646 -67.383 63.151 -92.773 103.516c-25.391 40.364 -41.993 85.286 -49.805 134.765c0 0 0 0 0 0m255.859 -296.875c16.927 9.115 37.11 17.578 60.547 25.391c23.438 7.812 46.224 11.719 68.36 11.719c15.625 0 32.552 -5.209 50.781 -15.625c18.229 -13.021 43.62 -16.276 76.172 -9.766c5.208 1.302 9.765 1.953 13.672 1.953c-23.438 -10.416 -48.177 -18.229 -74.219 -23.437c-26.042 -5.209 -52.735 -7.813 -80.078 -7.813c-40.365 0 -78.776 5.86 -115.235 17.578c0 0 0 0 0 0m164.063 382.813c2.604 16.927 9.114 29.948 19.531 39.062c7.813 7.813 16.276 12.37 25.391 13.672c9.114 1.302 17.578 1.302 25.39 0c7.813 -1.302 16.927 -0.651 27.344 1.953c5.208 2.605 8.464 3.907 9.766 3.907c-3.906 9.114 -5.209 16.276 -3.906 21.484c0 2.604 1.953 8.789 5.859 18.555c3.906 9.765 5.859 17.903 5.859 24.414c-2.604 32.552 -2.604 52.734 0 60.547c3.906 7.812 8.464 18.88 13.672 33.203c5.208 14.323 9.766 25.39 13.672 33.203c2.604 5.208 7.161 8.463 13.672 9.765c13.021 2.605 28.646 -5.208 46.875 -23.437c13.021 -15.625 20.833 -32.552 23.437 -50.781c1.302 -6.511 3.907 -13.672 7.813 -21.485c3.906 -7.812 7.161 -16.276 9.765 -25.39c1.303 -3.907 1.303 -8.464 0 -13.672c9.115 -14.323 13.672 -27.344 13.672 -39.063c0 0 0 -13.672 0 -13.672c1.302 -2.604 4.558 -6.184 9.766 -10.742c5.208 -4.557 9.115 -8.138 11.719 -10.742c3.906 -15.625 4.557 -26.042 1.953 -31.25c0 -1.302 -1.302 -2.604 -3.906 -3.906c0 0 -17.579 -5.86 -17.579 -5.86c7.813 -16.927 19.532 -23.437 35.157 -19.531c0 0 31.25 -9.765 31.25 -9.765c0 0 0 -5.86 0 -5.86c0 -59.896 -12.045 -114.258 -36.133 -163.086c-24.089 -48.828 -56.966 -90.82 -98.633 -125.976c-67.708 7.812 -110.026 22.786 -126.953 44.922c-7.813 13.02 -13.021 24.088 -15.625 33.203c-1.302 5.208 -2.93 12.044 -4.883 20.508c-1.953 8.463 -3.255 13.997 -3.906 16.601c-0.651 2.604 -2.279 6.511 -4.883 11.719c-2.604 5.208 -6.51 11.068 -11.719 17.578c-2.604 2.604 -3.906 6.185 -3.906 10.742c0 4.557 1.953 10.742 5.859 18.555c3.907 6.51 5.86 12.37 5.86 17.578c19.531 0 31.901 -3.255 37.109 -9.766c0 0 70.313 5.86 70.313 5.86c16.927 -20.834 35.807 -20.834 56.64 0c5.209 5.208 11.068 13.672 17.578 25.39c0 0 -29.296 19.532 -29.296 19.532c-13.021 -6.511 -24.089 -11.719 -33.204 -15.625c-9.114 -3.907 -18.554 -6.511 -28.32 -7.813c-9.765 -1.302 -17.252 -1.627 -22.461 -0.976c-5.208 0.651 -15.299 1.953 -30.273 3.906c-14.974 1.953 -27.018 2.929 -36.133 2.929c0 0 -3.906 7.813 -3.906 7.813c0 0 -1.953 2.279 -5.86 6.836c-3.906 4.557 -6.51 5.534 -7.812 2.93c-1.302 2.604 -1.953 5.859 -1.953 9.765c0 0 0 7.813 0 7.813c-14.323 18.229 -18.88 39.713 -13.672 64.453c0 0 0 0 0 0" />
  </g>
</svg>