<svg height="1000px" width="1000px" xmlns="http://www.w3.org/2000/svg">
  <g>
    <path d="M0 500c0 -138.021 48.828 -255.859 146.484 -353.516c97.657 -97.656 215.495 -146.484 353.516 -146.484c138.021 0 255.859 48.828 353.516 146.484c97.656 97.657 146.484 215.495 146.484 353.516c0 138.021 -48.828 255.859 -146.484 353.516c-97.657 97.656 -215.495 146.484 -353.516 146.484c-138.021 0 -255.859 -48.828 -353.516 -146.484c-97.656 -97.657 -146.484 -215.495 -146.484 -353.516c0 0 0 0 0 0m118.164 39.062c3.255 36.459 12.044 72.266 26.367 107.422c19.531 48.177 47.526 90.495 83.985 126.953c36.458 36.459 78.125 64.454 125 83.985c1.302 -11.719 3.255 -34.18 5.859 -67.383c2.604 -33.203 5.208 -58.919 7.813 -77.148c-2.605 -10.417 -10.092 -27.344 -22.461 -50.782c-12.37 -23.437 -19.206 -42.317 -20.508 -56.64c0 -13.021 0.325 -22.787 0.976 -29.297c0.651 -6.511 0.977 -11.719 0.977 -15.625c-2.604 -1.302 -5.859 -3.906 -9.766 -7.813c0 0 -7.812 -7.812 -7.812 -7.812c-5.209 -5.208 -9.115 -8.464 -11.719 -9.766c-7.812 -2.604 -19.206 -6.51 -34.18 -11.718c-14.974 -5.209 -26.041 -9.115 -33.203 -11.719c-7.161 -2.604 -16.601 -6.511 -28.32 -11.719c-11.719 -5.208 -21.81 -11.068 -30.274 -17.578c-8.463 -6.511 -17.252 -13.998 -26.367 -22.461c-9.114 -8.464 -16.927 -17.904 -23.437 -28.32c-5.209 35.156 -6.185 70.963 -2.93 107.421c0 0 0 0 0 0m141.602 -339.843c11.718 -1.302 23.437 -1.302 35.156 0c11.719 5.208 24.414 15.625 38.086 31.25c13.672 15.625 25.065 26.041 34.18 31.25c2.604 2.604 6.51 3.906 11.718 3.906c2.604 6.51 10.417 10.742 23.438 12.695c13.021 1.953 20.833 4.232 23.437 6.836c15.625 9.115 27.995 20.183 37.11 33.203c-15.625 22.136 -27.995 35.157 -37.11 39.063c0 1.302 0.651 1.953 1.953 1.953c2.605 5.208 1.302 9.115 -3.906 11.719c-3.906 1.302 -11.719 3.255 -23.437 5.859c-11.719 2.604 -19.532 6.185 -23.438 10.742c-3.906 4.558 -7.161 12.696 -9.765 24.414c0 2.605 -1.303 5.209 -3.907 7.813c2.604 18.229 3.255 34.505 1.953 48.828c-1.302 14.323 -5.859 22.135 -13.671 23.438c-3.907 0 -7.813 -0.652 -11.719 -1.954c-5.209 -1.302 -11.393 -3.906 -18.555 -7.812c-7.161 -3.906 -15.299 -9.766 -24.414 -17.578c0 3.906 1.302 8.789 3.906 14.648c2.604 5.86 3.906 10.091 3.906 12.695c0 0 5.86 0 5.86 0c5.208 -1.302 9.114 -0.325 11.719 2.93c2.604 3.255 2.604 6.185 0 8.789c0 0 -1.954 5.86 -1.954 5.86c0 0 -1.953 1.953 -1.953 1.953c0 0 7.813 3.906 7.813 3.906c6.51 5.208 12.695 7.813 18.555 7.813c5.859 0 13.346 -0.652 22.46 -1.954c13.021 -1.302 23.438 -1.953 31.25 -1.953c7.813 0 16.602 2.93 26.368 8.789c9.765 5.86 17.252 10.742 22.461 14.649c5.208 3.906 12.369 9.765 21.484 17.578c9.115 7.812 16.927 13.672 23.438 17.578c2.604 1.302 9.765 5.534 21.484 12.695c11.719 7.162 20.508 13.672 26.367 19.532c5.859 5.859 8.789 12.695 8.789 20.507c-1.302 46.875 -9.765 78.776 -25.39 95.703c-5.209 5.209 -12.696 11.394 -22.461 18.555c-9.766 7.162 -17.579 13.998 -23.438 20.508c-5.859 6.51 -10.742 14.323 -14.648 23.438c-3.907 7.812 -5.86 16.927 -5.86 27.343c-3.906 7.813 -9.114 18.88 -15.625 33.203c-6.51 14.323 -11.719 24.089 -15.625 29.297c66.406 13.021 131.185 9.115 194.336 -11.718c63.151 -20.834 116.862 -55.99 161.133 -105.469c33.854 -36.459 59.245 -76.823 76.172 -121.094c16.927 -44.271 26.042 -89.844 27.344 -136.719c0 0 -37.11 21.485 -37.11 21.485c-15.625 -1.302 -23.437 1.302 -23.437 7.812c0 0 15.625 5.86 15.625 5.86c2.604 1.302 3.906 2.604 3.906 3.906c2.604 6.51 1.302 13.672 -3.906 21.484c-3.907 7.813 -13.672 19.531 -29.297 35.156c-1.302 16.927 -2.604 27.995 -3.906 33.204c-2.605 6.51 -5.86 13.671 -9.766 21.484c0 0 0 13.672 0 13.672c-1.302 5.208 -4.232 12.695 -8.789 22.461c-4.557 9.765 -7.487 17.903 -8.789 24.414c-2.604 18.229 -10.417 35.156 -23.438 50.781c-19.531 18.229 -35.807 26.042 -48.828 23.438c-5.208 -1.303 -9.765 -4.558 -13.672 -9.766c-2.604 -9.115 -7.161 -21.484 -13.672 -37.109c-6.51 -15.625 -10.416 -25.391 -11.718 -29.297c-2.604 -6.511 -3.907 -13.021 -3.907 -19.532c0 -6.51 0.652 -14.323 1.954 -23.437c1.302 -9.115 1.953 -15.625 1.953 -19.531c0 -6.511 -2.279 -14.649 -6.836 -24.414c-4.557 -9.766 -6.836 -16.602 -6.836 -20.508c-1.302 -3.906 0 -10.417 3.906 -19.531c0 0 -8.789 -2.93 -8.789 -2.93c-5.859 -1.953 -16.601 -2.93 -32.226 -2.93c0 0 -7.813 0 -7.813 0c0 0 -3.906 0 -3.906 0c-29.948 0 -48.828 -18.229 -56.641 -54.687c-3.906 -22.136 0.651 -43.62 13.672 -64.453c1.302 -2.605 1.953 -5.534 1.953 -8.79c0 0 0 -6.835 0 -6.835c6.511 -1.303 12.37 -7.813 17.578 -19.532c5.209 0 17.253 -1.302 36.133 -3.906c18.88 -2.604 32.878 -4.232 41.992 -4.883c9.115 -0.651 20.834 0.977 35.156 4.883c5.209 3.906 10.417 7.161 15.625 9.766c9.115 6.51 16.928 11.067 23.438 13.671c0 0 31.25 -21.484 31.25 -21.484c-6.51 -10.417 -13.021 -18.88 -19.531 -25.391c-18.229 -20.833 -37.11 -20.833 -56.641 0c0 0 -68.359 -5.859 -68.359 -5.859c-10.417 6.511 -23.438 10.417 -39.063 11.719c-1.302 -7.813 -3.255 -14.323 -5.859 -19.531c-3.906 -7.813 -6.185 -13.998 -6.836 -18.555c-0.651 -4.557 0.325 -8.138 2.93 -10.742c0 0 7.812 -7.813 7.812 -7.813c5.208 -3.906 8.789 -9.44 10.742 -16.601c1.953 -7.162 3.581 -15.3 4.883 -24.414c1.302 -9.115 2.604 -15.625 3.906 -19.532c3.907 -9.114 9.766 -19.531 17.579 -31.25c3.906 -9.114 11.393 -16.276 22.46 -21.484c11.068 -5.208 22.787 -9.766 35.157 -13.672c12.369 -3.906 25.39 -6.51 39.062 -7.812c13.672 -1.302 26.367 -2.605 38.086 -3.907c-24.739 -20.833 -50.13 -38.411 -76.172 -52.734c-7.812 0 -18.554 -1.628 -32.226 -4.883c-13.672 -3.255 -23.112 -4.883 -28.321 -4.883c-14.323 -1.302 -30.599 3.256 -48.828 13.672c-14.323 10.417 -31.25 15.625 -50.781 15.625c-24.74 0 -49.479 -4.232 -74.219 -12.695c-24.739 -8.464 -46.224 -17.904 -64.453 -28.32c-42.969 14.323 -82.031 35.807 -117.187 64.453c0 0 0 0 0 0" />
  </g>
</svg>