<svg height="1000" width="1000" xmlns="http://www.w3.org/2000/svg"><path d="M0 1000l0-124.992q50.778-58.59 142.569-76.167 82.026-11.718 105.462-11.718 17.577 0 35.154 1.953 13.671 11.718 62.496 44.919t72.261 54.684q54.684 46.872 54.684 95.697 0 9.765-1.953 15.624l-470.673 0zm0-207.018l0-253.89q89.838 66.402 203.112 50.778-27.342 68.355 1.953 115.227 13.671 21.483 29.295 42.966l-50.778 0q-130.851 3.906-183.582 44.919zm0-617.148l0-175.77l999.936 0l0 271.467l-183.582 0l0-185.535l-80.073 0l0 185.535l-185.535 0l0 76.167l185.535 0l0 187.488l80.073 0l0-187.488l183.582 0l0 652.302l-443.331 0q19.53-72.261-5.859-130.851-25.389-56.637-83.979-107.415-27.342-23.436-101.556-82.026-39.06-27.342-39.06-62.496 1.953-31.248 41.013-72.261 56.637-42.966 82.026-82.026 35.154-52.731 35.154-124.992 0-66.402-31.248-119.133-19.53-31.248-56.637-66.402l87.885 0l82.026-66.402l-306.621 0q-74.214 1.953-144.522 24.413t-115.227 65.425zm58.59 60.543q13.671-58.59 70.308-85.932 25.389-11.718 54.684-13.671 44.919 0 80.073 27.342 68.355 56.637 91.791 154.287 19.53 78.12 1.953 128.898-23.436 66.402-74.214 80.073-78.12 21.483-132.804-15.624-64.449-50.778-85.932-140.616-15.624-68.355-5.859-134.757z"/></svg>