<svg height="1000px" width="1000px" xmlns="http://www.w3.org/2000/svg">
  <g>
    <path d="M0 1000c0 0 0 -125 0 -125c33.854 -39.063 81.38 -64.453 142.578 -76.172c54.688 -7.812 89.844 -11.719 105.469 -11.719c11.719 0 23.437 0.651 35.156 1.954c9.115 7.812 29.948 22.786 62.5 44.921c32.552 22.136 56.641 40.365 72.266 54.688c36.458 31.25 54.687 63.151 54.687 95.703c0 6.51 -0.651 11.719 -1.953 15.625c0 0 -470.703 0 -470.703 0c0 0 0 0 0 0m0 -207.031c0 0 0 -253.906 0 -253.906c59.896 44.27 127.604 61.197 203.125 50.781c-18.229 45.573 -17.578 83.984 1.953 115.234c9.115 14.323 18.88 28.646 29.297 42.969c0 0 -50.781 0 -50.781 0c-87.24 2.604 -148.438 17.578 -183.594 44.922c0 0 0 0 0 0m0 -617.188c0 0 0 -175.781 0 -175.781c0 0 1000 0 1000 0c0 0 0 271.484 0 271.484c0 0 -183.594 0 -183.594 0c0 0 0 -185.546 0 -185.546c0 0 -80.078 0 -80.078 0c0 0 0 185.546 0 185.546c0 0 -185.547 0 -185.547 0c0 0 0 76.172 0 76.172c0 0 185.547 0 185.547 0c0 0 0 187.5 0 187.5c0 0 80.078 0 80.078 0c0 0 0 -187.5 0 -187.5c0 0 183.594 0 183.594 0c0 0 0 652.344 0 652.344c0 0 -443.359 0 -443.359 0c13.02 -48.177 11.067 -91.797 -5.86 -130.859c-16.927 -37.761 -44.922 -73.568 -83.984 -107.422c-18.229 -15.625 -52.083 -42.969 -101.563 -82.031c-26.041 -18.23 -39.062 -39.063 -39.062 -62.5c1.302 -20.834 14.974 -44.922 41.015 -72.266c37.761 -28.646 65.105 -55.99 82.032 -82.031c23.437 -35.157 35.156 -76.823 35.156 -125c0 -44.271 -10.417 -83.985 -31.25 -119.141c-13.021 -20.833 -31.901 -42.969 -56.641 -66.406c0 0 87.891 0 87.891 0c0 0 82.031 -66.406 82.031 -66.406c0 0 -306.64 0 -306.64 0c-49.48 1.302 -97.657 9.44 -144.532 24.414c-46.875 14.974 -85.286 36.783 -115.234 65.429c0 0 0 0 0 0m58.594 60.547c9.114 -39.062 32.552 -67.708 70.312 -85.937c16.927 -7.813 35.156 -12.37 54.688 -13.672c29.948 0 56.64 9.114 80.078 27.344c45.573 37.76 76.172 89.192 91.797 154.296c13.021 52.084 13.672 95.052 1.953 128.907c-15.625 44.27 -40.365 70.963 -74.219 80.078c-52.083 14.323 -96.354 9.114 -132.812 -15.625c-42.969 -33.854 -71.615 -80.729 -85.938 -140.625c-10.417 -45.573 -12.37 -90.495 -5.859 -134.766c0 0 0 0 0 0" />
  </g>
</svg>