<svg height="1000" width="1000" xmlns="http://www.w3.org/2000/svg"><path d="M0 499.968q0 -207.018 146.475 -353.493t353.493 -146.475 353.493 146.475 146.475 353.493 -146.475 353.493 -353.493 146.475 -353.493 -146.475 -146.475 -353.493zm177.723 158.193q0 21.483 17.577 21.483l72.261 0l0 -91.791q0 -17.577 8.789 -32.224t24.413 -22.46l74.214 -35.154q9.765 -5.859 15.624 -13.671 -11.718 -17.577 -19.53 -41.013t-7.812 -48.825q0 -15.624 3.906 -31.248t9.765 -29.295q-19.53 -13.671 -41.013 -13.671 -37.107 1.953 -58.59 30.271t-21.483 63.473q1.953 60.543 42.966 85.932l-111.321 50.778q-9.765 5.859 -9.765 19.53l0 87.885zm123.039 21.483q-1.953 41.013 23.436 42.966l349.587 0q11.718 -3.906 16.601 -11.718t4.883 -12.694l0 -110.344q0 -17.577 -13.671 -23.436l-93.744 -46.872 -41.013 -19.53q37.107 -21.483 48.825 -74.214 7.812 -29.295 0 -60.543 -9.765 -35.154 -36.13 -59.567t-61.52 -26.366q-35.154 1.953 -60.543 26.366t-35.154 57.614q-11.718 44.919 7.812 91.791 15.624 29.295 41.013 46.872l-37.107 17.577 -97.65 44.919q-15.624 7.812 -15.624 25.389l0 91.791zm306.621 -195.3q7.812 7.812 19.53 15.624t21.483 11.718 25.389 10.742 23.436 10.742q15.624 7.812 24.413 22.46t8.789 32.224l0 91.791l74.214 0q17.577 -1.953 17.577 -21.483l0 -87.885q0 -13.671 -9.765 -19.53l-109.368 -52.731q41.013 -29.295 41.013 -83.979 0 -37.107 -23.436 -65.425t-56.637 -28.319q-21.483 0 -42.966 13.671 11.718 29.295 11.718 60.543 0 48.825 -25.389 89.838z"/></svg>