<svg height="1000" width="1000" xmlns="http://www.w3.org/2000/svg"><path d="M0 744.354l0 -134.757q0 -25.389 17.577 -31.248l171.864 -80.073q-66.402 -39.06 -68.355 -130.851 0 -56.637 35.154 -103.509 37.107 -41.013 89.838 -42.966 31.248 0 62.496 19.53 -48.825 124.992 23.436 236.313 -11.718 11.718 -25.389 19.53l-113.274 54.684q-48.825 23.436 -52.731 83.979l0 142.569l-113.274 0q-25.389 0 -27.342 -33.201zm193.347 58.59l0 -167.958q0 -27.342 21.483 -37.107l152.334 -70.308 56.637 -27.342q-37.107 -23.436 -59.567 -66.402t-22.46 -93.744q0 -76.167 45.895 -129.875t110.345 -53.708 109.368 53.708 44.919 129.875q0 105.462 -78.12 158.193l60.543 29.295 146.475 70.308q23.436 9.765 23.436 37.107l0 167.958q-1.953 37.107 -37.107 41.013l-540.981 0q-13.671 -1.953 -23.436 -13.671t-9.765 -27.342zm472.626 -330.057q68.355 -105.462 21.483 -230.454 31.248 -19.53 66.402 -21.483 48.825 0 89.838 42.966 35.154 41.013 35.154 103.509 0 82.026 -64.449 130.851l167.958 80.073q17.577 9.765 17.577 31.248l0 134.757q0 31.248 -27.342 33.201l-117.18 0l0 -142.569q0 -56.637 -50.778 -83.979l-109.368 -52.731q-15.624 -7.812 -29.295 -25.389z"/></svg>