<svg height="1000px" width="1000px" xmlns="http://www.w3.org/2000/svg">
  <g>
    <path d="M0 744.140625c0 0 0 -134.766 0 -134.766c0 -16.927 5.859 -27.343 17.578 -31.25c0 0 171.875 -80.078 171.875 -80.078c-44.271 -26.041 -67.057 -69.661 -68.359 -130.859c0 -37.761 11.718 -72.266 35.156 -103.516c24.74 -27.344 54.688 -41.666 89.844 -42.969c20.833 0 41.666 6.511 62.5 19.532c-32.552 83.333 -24.74 162.109 23.437 236.328c-7.812 7.812 -16.276 14.323 -25.39 19.531c0 0 -113.282 54.688 -113.282 54.688c-32.552 15.625 -50.13 43.619 -52.734 83.984c0 0 0 142.578 0 142.578c0 0 -113.281 0 -113.281 0c-16.927 0 -26.042 -11.068 -27.344 -33.203c0 0 0 0 0 0m193.359 58.594c0 0 0 -167.969 0 -167.969c0 -18.229 7.162 -30.599 21.485 -37.109c0 0 152.343 -70.313 152.343 -70.313c0 0 56.641 -27.344 56.641 -27.344c-24.739 -15.625 -44.596 -37.76 -59.57 -66.406c-14.974 -28.646 -22.461 -59.896 -22.461 -93.75c0 -50.781 15.299 -94.075 45.898 -129.883c30.599 -35.807 67.383 -53.711 110.352 -53.711c42.969 0 79.427 17.904 109.375 53.711c29.948 35.808 44.922 79.102 44.922 129.883c0 70.313 -26.042 123.047 -78.125 158.203c0 0 60.547 29.297 60.547 29.297c0 0 146.484 70.313 146.484 70.313c15.625 6.51 23.437 18.88 23.437 37.109c0 0 0 167.969 0 167.969c-1.302 24.739 -13.671 38.411 -37.109 41.015c0 0 -541.016 0 -541.016 0c-9.114 -1.302 -16.927 -5.859 -23.437 -13.672c-6.51 -7.812 -9.766 -16.927 -9.766 -27.343c0 0 0 0 0 0m472.657 -330.078c45.573 -70.313 52.734 -147.136 21.484 -230.469c20.833 -13.021 42.969 -20.182 66.406 -21.485c32.552 0 62.5 14.323 89.844 42.969c23.437 27.344 35.156 61.849 35.156 103.516c0 54.687 -21.484 98.307 -64.453 130.859c0 0 167.969 80.078 167.969 80.078c11.719 6.511 17.578 16.927 17.578 31.25c0 0 0 134.766 0 134.766c0 20.833 -9.115 31.901 -27.344 33.203c0 0 -117.187 0 -117.187 0c0 0 0 -142.578 0 -142.578c0 -37.76 -16.927 -65.755 -50.782 -83.984c0 0 -109.375 -52.735 -109.375 -52.735c-10.416 -5.208 -20.182 -13.672 -29.296 -25.39c0 0 0 0 0 0" />
  </g>
</svg>