<svg height="1000px" width="1000px" xmlns="http://www.w3.org/2000/svg">
  <g>
    <path d="M0 500c0 -138.021 48.828 -255.859 146.484 -353.516c97.657 -97.656 215.495 -146.484 353.516 -146.484c138.021 0 255.859 48.828 353.516 146.484c97.656 97.657 146.484 215.495 146.484 353.516c0 138.021 -48.828 255.859 -146.484 353.516c-97.657 97.656 -215.495 146.484 -353.516 146.484c-138.021 0 -255.859 -48.828 -353.516 -146.484c-97.656 -97.657 -146.484 -215.495 -146.484 -353.516c0 0 0 0 0 0m177.734 158.203c0 14.323 5.86 21.484 17.578 21.484c0 0 72.266 0 72.266 0c0 0 0 -91.796 0 -91.796c0 -11.719 2.93 -22.461 8.789 -32.227c5.86 -9.766 13.998 -17.253 24.414 -22.461c0 0 74.219 -35.156 74.219 -35.156c6.51 -3.906 11.719 -8.464 15.625 -13.672c-7.813 -11.719 -14.323 -25.391 -19.531 -41.016c-5.209 -15.625 -7.813 -31.901 -7.813 -48.828c0 -10.416 1.302 -20.833 3.906 -31.25c2.605 -10.416 5.86 -20.182 9.766 -29.297c-13.021 -9.114 -26.693 -13.672 -41.016 -13.672c-24.739 1.303 -44.27 11.394 -58.593 30.274c-14.323 18.88 -21.485 40.039 -21.485 63.476c1.302 40.365 15.625 69.011 42.969 85.938c0 0 -111.328 50.781 -111.328 50.781c-6.51 3.907 -9.766 10.417 -9.766 19.532c0 0 0 87.89 0 87.89c0 0 0 0 0 0m123.047 21.485c-1.302 27.343 6.511 41.666 23.438 42.968c0 0 349.609 0 349.609 0c7.813 -2.604 13.346 -6.51 16.602 -11.718c3.255 -5.209 4.883 -9.441 4.883 -12.696c0 0 0 -18.554 0 -18.554c0 0 0 -91.797 0 -91.797c0 -11.719 -4.558 -19.532 -13.672 -23.438c0 0 -93.75 -46.875 -93.75 -46.875c0 0 -41.016 -19.531 -41.016 -19.531c24.74 -14.323 41.016 -39.063 48.828 -74.219c5.208 -19.531 5.208 -39.713 0 -60.547c-6.51 -23.437 -18.555 -43.294 -36.133 -59.57c-17.578 -16.276 -38.086 -25.065 -61.523 -26.367c-23.438 1.302 -43.62 10.091 -60.547 26.367c-16.927 16.276 -28.646 35.482 -35.156 57.617c-7.813 29.948 -5.209 60.547 7.812 91.797c10.417 19.531 24.089 35.156 41.016 46.875c0 0 -37.109 17.578 -37.109 17.578c0 0 -97.657 44.922 -97.657 44.922c-10.416 5.208 -15.625 13.672 -15.625 25.391c0 0 0 91.797 0 91.797c0 0 0 0 0 0m306.641 -195.313c5.208 5.208 11.719 10.417 19.531 15.625c7.813 5.208 14.974 9.115 21.485 11.719c6.51 2.604 14.973 6.185 25.39 10.742c10.417 4.557 18.229 8.138 23.438 10.742c10.416 5.208 18.554 12.695 24.414 22.461c5.859 9.766 8.789 20.508 8.789 32.227c0 0 0 91.797 0 91.797c0 0 74.219 0 74.219 0c11.718 -1.303 17.578 -8.464 17.578 -21.485c0 0 0 -87.89 0 -87.89c0 -9.115 -3.256 -15.625 -9.766 -19.532c0 0 -109.375 -52.734 -109.375 -52.734c27.344 -19.531 41.016 -47.526 41.016 -83.984c0 -24.74 -7.813 -46.55 -23.438 -65.43c-15.625 -18.88 -34.505 -28.32 -56.64 -28.32c-14.323 0 -28.646 4.557 -42.969 13.671c7.812 19.532 11.719 39.714 11.719 60.547c0 32.552 -8.464 62.5 -25.391 89.844c0 0 0 0 0 0" />
  </g>
</svg>