<svg height="1000" width="1091" xmlns="http://www.w3.org/2000/svg"><path d="M4.785 304.732q-13.671-29.295 11.718-42.966 13.671-5.859 26.366-1.953t18.553 13.671q19.53 31.248 57.614 50.778t69.332 19.53l314.433 0q-31.248 156.24-27.342 296.856-17.577 0-49.802-5.859t-47.849-5.859q-27.342-3.906-19.53 23.436l44.919 177.723q-1.953 48.825-39.06 54.684-15.624 0-31.248-10.742t-19.53-22.46l-56.637-222.642q-1.953-11.718-12.694-11.718t-14.648 11.718l-52.731 220.689q-9.765 35.154-42.966 35.154-21.483 0-35.154-17.577t-9.765-37.107l64.449-261.702 3.906-160.146q-44.919-11.718-88.862-39.06t-63.473-64.449zm394.506-164.052q-11.718-21.483 7.812-33.201 21.483-11.718 33.201 5.859l111.321 175.77q11.718 23.436-5.859 35.154-23.436 9.765-35.154-7.812zm89.838 689.409l39.06-160.146q1.953-7.812-1.953-15.624 1.953-185.535 25.389-292.95 78.12 101.556 210.924 128.898-3.906 11.718-12.694 34.178t-12.694 32.224q-3.906 13.671 3.906 41.013 29.295 113.274 60.543 230.454 3.906 29.295-15.624 41.013t-42.966 5.859-29.295-23.436l-44.919-171.864q-9.765-17.577-27.342-18.553t-23.436 18.553l-41.013 169.911q-9.765 25.389-33.201 27.342t-41.013-13.671-13.671-33.201zm95.697-507.78l134.757-138.663 23.436-85.932 52.731 62.496q5.859 1.953 26.366 5.859t31.248 7.812 23.436 12.694 18.553 20.506 11.718 44.919 13.671 41.013q11.718 11.718 25.389 21.483t33.201 33.201q17.577 35.154-48.825 70.308-27.342-1.953-51.755-5.859t-41.989-5.859q-23.436-3.906-41.013-7.812-3.906 9.765-6.836 21.483t-8.789 23.436q-58.59-11.718-113.274-43.943t-82.026-77.144z"/></svg>