<svg height="1000px" width="1000px" xmlns="http://www.w3.org/2000/svg">
  <g>
    <path d="M3.90625 304.6875c-9.115 -19.531 -5.208 -33.854 11.719 -42.969c9.114 -3.906 17.903 -4.557 26.367 -1.953c8.463 2.604 14.648 7.162 18.555 13.672c13.02 20.833 32.226 37.76 57.617 50.781c25.39 13.021 48.502 19.531 69.336 19.531c0 0 314.453 0 314.453 0c-20.833 104.167 -29.948 203.125 -27.344 296.875c-11.719 0 -28.32 -1.953 -49.805 -5.859c-21.484 -3.906 -37.434 -5.859 -47.851 -5.859c-18.229 -2.604 -24.74 5.208 -19.531 23.437c0 0 44.922 177.735 44.922 177.735c-1.303 32.552 -14.323 50.781 -39.063 54.687c-10.417 0 -20.833 -3.581 -31.25 -10.742c-10.417 -7.162 -16.927 -14.649 -19.531 -22.461c0 0 -56.641 -222.656 -56.641 -222.656c-1.302 -7.813 -5.534 -11.719 -12.695 -11.719c-7.162 0 -12.044 3.906 -14.649 11.719c0 0 -52.734 220.703 -52.734 220.703c-6.51 23.437 -20.833 35.156 -42.969 35.156c-14.323 0 -26.041 -5.859 -35.156 -17.578c-9.115 -11.719 -12.37 -24.089 -9.766 -37.109c0 0 64.454 -261.719 64.454 -261.719c0 0 3.906 -160.156 3.906 -160.156c-29.948 -7.813 -59.571 -20.834 -88.867 -39.063c-29.297 -18.229 -50.456 -39.713 -63.477 -64.453c0 0 0 0 0 0m394.531 -164.063c-7.812 -14.322 -5.208 -25.39 7.813 -33.203c14.323 -7.812 25.39 -5.859 33.203 5.86c0 0 111.328 175.781 111.328 175.781c7.813 15.625 5.859 27.344 -5.859 35.156c-15.625 6.511 -27.344 3.906 -35.157 -7.812c0 0 -111.328 -175.781 -111.328 -175.781m89.844 689.453c0 0 39.063 -160.157 39.063 -160.157c1.302 -5.208 0.651 -10.416 -1.954 -15.625c1.302 -123.698 9.766 -221.354 25.391 -292.968c52.083 67.708 122.396 110.677 210.938 128.906c-2.605 7.812 -6.836 19.206 -12.696 34.18c-5.859 14.974 -10.091 25.716 -12.695 32.226c-2.604 9.115 -1.302 22.787 3.906 41.016c19.531 75.521 39.714 152.344 60.547 230.469c2.604 19.531 -2.604 33.203 -15.625 41.015c-13.021 7.813 -27.344 9.766 -42.969 5.86c-15.625 -3.907 -25.39 -11.719 -29.297 -23.438c0 0 -44.921 -171.875 -44.921 -171.875c-6.511 -11.719 -15.625 -17.904 -27.344 -18.555c-11.719 -0.651 -19.531 5.534 -23.438 18.555c0 0 -41.015 169.922 -41.015 169.922c-6.511 16.927 -17.578 26.042 -33.203 27.344c-15.625 1.302 -29.297 -3.256 -41.016 -13.672c-11.719 -10.417 -16.276 -21.485 -13.672 -33.203c0 0 0 0 0 0m95.703 -507.813c0 0 134.766 -138.672 134.766 -138.672c0 0 23.437 -85.937 23.437 -85.937c0 0 52.735 62.5 52.735 62.5c3.906 1.302 12.695 3.255 26.367 5.859c13.672 2.604 24.088 5.208 31.25 7.813c7.161 2.604 14.974 6.836 23.437 12.695c8.464 5.859 14.649 12.695 18.555 20.508c3.906 7.812 7.813 22.786 11.719 44.922c3.906 22.135 8.463 35.807 13.672 41.015c7.812 7.813 16.276 14.974 25.39 21.485c9.115 6.51 20.183 17.578 33.203 33.203c11.719 23.437 -4.557 46.875 -48.828 70.312c-18.229 -1.302 -35.482 -3.255 -51.758 -5.859c-16.276 -2.604 -30.273 -4.557 -41.992 -5.86c-15.625 -2.604 -29.297 -5.208 -41.015 -7.812c-2.605 6.51 -4.883 13.672 -6.836 21.484c-1.953 7.813 -4.883 15.625 -8.789 23.438c-39.063 -7.813 -76.823 -22.461 -113.282 -43.945c-36.458 -21.485 -63.802 -47.201 -82.031 -77.149c0 0 0 0 0 0" />
  </g>
</svg>