<svg height="1000px" width="1000px" xmlns="http://www.w3.org/2000/svg">
  <g>
    <path d="M0 611.328125c0 0 199.219 -537.109 199.219 -537.109c0 0 601.562 0 601.562 0c0 0 199.219 537.109 199.219 537.109c0 0 -80.078 314.453 -80.078 314.453c0 0 -839.844 0 -839.844 0c0 0 -80.078 -314.453 -80.078 -314.453m78.125 50.781c0 0 54.688 212.891 54.688 212.891c0 0 734.375 0 734.375 0c0 0 54.687 -212.891 54.687 -212.891c0 0 -843.75 0 -843.75 0c0 0 0 0 0 0m654.297 106.446c0 -11.068 3.906 -20.508 11.719 -28.321c7.812 -7.812 17.252 -11.718 28.32 -11.718c11.068 0 20.508 3.906 28.32 11.718c7.813 7.813 11.719 17.253 11.719 28.321c0 11.067 -3.906 20.507 -11.719 28.32c-7.812 7.812 -17.252 11.719 -28.32 11.719c-11.068 0 -20.508 -3.907 -28.32 -11.719c-7.813 -7.813 -11.719 -17.253 -11.719 -28.32c0 0 0 0 0 0" />
  </g>
</svg>