<svg height="1000" width="1000" xmlns="http://www.w3.org/2000/svg"><path d="M0 781.264l0-249.984q0-207.018 146.475-353.493t353.493-146.475 353.493 146.475 146.475 353.493l0 249.984q-3.906 41.013-35.154 53.708t-60.543-4.883-29.295-48.825l0-249.984q0-156.24-109.368-265.608t-265.608-109.368-265.608 109.368-109.368 265.608l0 249.984q-3.906 41.013-35.154 53.708t-60.543-4.883-29.295-48.825zm187.488 156.24l0-312.48q0-13.671 8.789-22.46t22.46-8.789l62.496 0q13.671 0 22.46 8.789t8.789 22.46l0 312.48q0 13.671-8.789 22.46t-22.46 8.789l-62.496 0q-13.671 0-22.46-8.789t-8.789-22.46zm499.968 0l0-312.48q0-13.671 8.789-22.46t22.46-8.789l62.496 0q13.671 0 22.46 8.789t8.789 22.46l0 312.48q0 13.671-8.789 22.46t-22.46 8.789l-62.496 0q-13.671 0-22.46-8.789t-8.789-22.46z"/></svg>