<svg height="1000px" width="1000px" xmlns="http://www.w3.org/2000/svg">
  <g>
    <path d="M0 781.25c0 0 0 -250 0 -250c0 -138.021 48.828 -255.859 146.484 -353.516c97.657 -97.656 215.495 -146.484 353.516 -146.484c138.021 0 255.859 48.828 353.516 146.484c97.656 97.657 146.484 215.495 146.484 353.516c0 0 0 250 0 250c-2.604 27.344 -14.323 45.247 -35.156 53.711c-20.834 8.463 -41.016 6.836 -60.547 -4.883c-19.531 -11.719 -29.297 -27.995 -29.297 -48.828c0 0 0 -250 0 -250c0 -104.167 -36.458 -192.708 -109.375 -265.625c-72.917 -72.917 -161.458 -109.375 -265.625 -109.375c-104.167 0 -192.708 36.458 -265.625 109.375c-72.917 72.917 -109.375 161.458 -109.375 265.625c0 0 0 250 0 250c-2.604 27.344 -14.323 45.247 -35.156 53.711c-20.834 8.463 -41.016 6.836 -60.547 -4.883c-19.531 -11.719 -29.297 -27.995 -29.297 -48.828c0 0 0 0 0 0m187.5 156.25c0 0 0 -312.5 0 -312.5c0 -9.115 2.93 -16.602 8.789 -22.461c5.859 -5.859 13.346 -8.789 22.461 -8.789c0 0 62.5 0 62.5 0c9.115 0 16.602 2.93 22.461 8.789c5.859 5.859 8.789 13.346 8.789 22.461c0 0 0 312.5 0 312.5c0 9.115 -2.93 16.602 -8.789 22.461c-5.859 5.859 -13.346 8.789 -22.461 8.789c0 0 -62.5 0 -62.5 0c-9.115 0 -16.602 -2.93 -22.461 -8.789c-5.859 -5.859 -8.789 -13.346 -8.789 -22.461c0 0 0 0 0 0m500 0c0 0 0 -312.5 0 -312.5c0 -9.115 2.93 -16.602 8.789 -22.461c5.859 -5.859 13.346 -8.789 22.461 -8.789c0 0 62.5 0 62.5 0c9.115 0 16.602 2.93 22.461 8.789c5.859 5.859 8.789 13.346 8.789 22.461c0 0 0 312.5 0 312.5c0 9.115 -2.93 16.602 -8.789 22.461c-5.859 5.859 -13.346 8.789 -22.461 8.789c0 0 -62.5 0 -62.5 0c-9.115 0 -16.602 -2.93 -22.461 -8.789c-5.859 -5.859 -8.789 -13.346 -8.789 -22.461c0 0 0 0 0 0" />
  </g>
</svg>