<svg height="1000px" width="1000px" xmlns="http://www.w3.org/2000/svg">
  <g>
    <path d="M0.9765625 295.8984375c4.557 -73.568 29.622 -134.44 75.195 -182.617c62.5 -53.386 133.138 -76.823 211.914 -70.313c78.776 6.511 142.253 39.063 190.43 97.657c24.74 -32.553 55.339 -58.594 91.797 -78.125c75.521 -28.646 147.786 -29.948 216.797 -3.907c69.01 26.042 119.14 72.917 150.39 140.625c19.532 70.313 22.787 136.719 9.766 199.219c-13.021 62.5 -39.062 120.443 -78.125 173.828c-45.573 62.5 -103.516 123.698 -173.828 183.594c-35.156 32.552 -76.497 67.057 -124.024 103.516c-47.526 36.458 -78.45 55.338 -92.773 56.64c-9.115 -1.302 -18.555 -5.208 -28.32 -11.719c-9.766 -6.51 -21.485 -14.974 -35.156 -25.39c-13.672 -10.417 -21.81 -16.927 -24.415 -19.531c-175.781 -132.813 -291.666 -251.954 -347.656 -357.422c-32.552 -63.802 -46.549 -132.487 -41.992 -206.055c0 0 0 0 0 0" />
  </g>
</svg>