<svg height="1000px" width="1000px" xmlns="http://www.w3.org/2000/svg">
  <g>
    <path d="M0.9765625 306.640625c4.557 -76.823 30.924 -140.625 79.102 -191.406c0 0 1.953 0 1.953 0c0 0 1.953 -1.953 1.953 -1.953c58.594 -50.782 125 -76.172 199.219 -76.172c74.218 0 138.02 23.437 191.406 70.312c20.833 -18.229 42.969 -33.203 66.406 -44.922c0 0 1.953 -1.953 1.953 -1.953c0 0 1.953 0 1.953 0c37.761 -15.625 76.823 -23.437 117.188 -23.437c58.594 -1.302 112.305 13.346 161.133 43.945c48.828 30.599 85.612 71.94 110.351 124.024c0 0 0 1.953 0 1.953c0 0 1.953 3.906 1.953 3.906c19.532 70.312 22.787 137.37 9.766 201.172c-13.021 63.802 -39.714 122.396 -80.078 175.781c-41.667 58.594 -95.703 115.885 -162.11 171.875c0 1.302 -0.651 1.953 -1.953 1.953c-32.552 29.948 -68.359 59.896 -107.422 89.844c-22.135 16.927 -41.666 30.599 -58.593 41.015c-22.136 15.625 -40.365 23.438 -54.688 23.438c0 0 -5.859 1.953 -5.859 1.953c0 0 -5.86 -1.953 -5.86 -1.953c-18.229 -2.604 -37.76 -12.37 -58.593 -29.297c-6.511 -3.906 -13.672 -9.44 -21.485 -16.601c-7.812 -7.162 -13.021 -11.394 -15.625 -12.696c0 0 -1.953 0 -1.953 0c-164.062 -125 -273.437 -238.281 -328.125 -339.843c0 0 0 -1.954 0 -1.954c-32.552 -62.5 -46.549 -132.161 -41.992 -208.984c0 0 0 0 0 0m84.961 9.766c-3.906 57.291 7.161 111.328 33.203 162.109c49.479 89.844 150.391 193.359 302.734 310.547c0 0 1.954 0 1.954 0c3.906 3.906 10.091 9.114 18.554 15.625c8.464 6.51 14.649 11.068 18.555 13.672c5.208 3.906 10.417 7.161 15.625 9.765c5.208 -1.302 9.766 -3.255 13.672 -5.859c14.323 -9.115 31.25 -21.484 50.781 -37.109c39.063 -28.646 74.219 -57.943 105.469 -87.891c62.5 -53.385 112.63 -106.771 150.39 -160.156c71.615 -95.052 91.146 -194.662 58.594 -298.828c-18.229 -37.761 -44.271 -67.058 -78.125 -87.891c-33.854 -20.833 -71.614 -30.599 -113.281 -29.297c-28.646 0 -57.292 5.86 -85.938 17.578c-26.041 14.323 -48.828 33.203 -68.359 56.641c0 0 -31.25 42.969 -31.25 42.969c0 0 -35.156 -42.969 -35.156 -42.969c-35.156 -42.969 -82.357 -67.057 -141.602 -72.266c-59.245 -5.208 -112.955 12.37 -161.133 52.735c-32.552 36.458 -50.781 83.333 -54.687 140.625c0 0 0 0 0 0" />
  </g>
</svg>