<svg height="1000" width="1000" xmlns="http://www.w3.org/2000/svg"><path d="M0 499.968q0 -207.018 146.475 -353.493t353.493 -146.475 353.493 146.475 146.475 353.493 -146.475 353.493 -353.493 146.475 -353.493 -146.475 -146.475 -353.493zm242.172 -76.167q-3.906 60.543 21.483 111.321 46.872 85.932 189.441 195.3 1.953 1.953 12.694 10.742t18.553 13.671 15.624 4.883q27.342 -1.953 119.133 -85.932 56.637 -48.825 93.744 -99.603 70.308 -95.697 37.107 -203.112 -19.53 -41.013 -56.637 -63.473t-82.026 -22.46q-31.248 0 -60.543 11.718 -29.295 15.624 -50.778 42.966 -39.06 -48.825 -103.509 -53.708t-113.274 40.037q-37.107 37.107 -41.013 97.65z"/></svg>