<svg height="1000px" width="1000px" xmlns="http://www.w3.org/2000/svg">
  <g>
    <path d="M17.578125 909.1796875c0 -14.974 5.208 -27.669 15.625 -38.086c0 0 248.047 -250 248.047 -250c11.719 -10.417 25.065 -15.625 40.039 -15.625c14.974 0 27.669 5.208 38.086 15.625c10.417 11.719 15.625 25.391 15.625 41.016c0 15.625 -5.208 28.646 -15.625 39.062c0 0 -248.047 250 -248.047 250c-27.344 23.438 -53.385 23.438 -78.125 0c-10.417 -13.021 -15.625 -27.018 -15.625 -41.992c0 0 0 0 0 0m125 -477.539c2.604 -87.24 32.552 -160.156 89.844 -218.75c62.5 -59.896 135.416 -90.495 218.75 -91.797c85.937 2.604 158.203 33.203 216.797 91.797c59.895 62.5 89.843 135.417 89.843 218.75c0 33.854 -3.58 61.523 -10.742 83.008c-7.161 21.484 -19.206 46.549 -36.133 75.195c-6.51 15.625 -20.182 35.807 -41.015 60.547c-20.834 24.74 -34.505 42.318 -41.016 52.734c-3.906 11.719 -6.185 24.74 -6.836 39.063c-0.651 14.323 -0.325 30.273 0.977 47.851c1.302 17.578 1.953 31.576 1.953 41.993c-1.302 59.895 -19.531 104.166 -54.688 132.812c-35.156 19.531 -72.916 29.297 -113.281 29.297c-14.323 -1.302 -26.042 -6.51 -35.156 -15.625c-9.115 -9.115 -13.998 -20.182 -14.649 -33.203c-0.651 -13.021 3.581 -24.74 12.696 -35.156c6.51 -6.511 13.346 -11.068 20.508 -13.672c7.161 -2.604 15.95 -3.907 26.367 -3.907c10.416 0 18.229 -1.302 23.437 -3.906c16.927 -5.208 26.042 -10.416 27.344 -15.625c3.906 -13.021 5.859 -32.552 5.859 -58.594c1.302 -6.51 1.302 -26.367 0 -59.57c-1.302 -33.203 0 -52.409 3.907 -57.617c6.51 -27.344 16.276 -50.13 29.296 -68.359c3.907 -3.907 9.115 -9.766 15.625 -17.579c6.511 -7.812 11.719 -13.671 15.625 -17.578c0 0 31.25 -46.875 31.25 -46.875c3.907 -5.208 8.79 -13.346 14.649 -24.414c5.859 -11.067 10.091 -18.554 12.695 -22.461c7.813 -20.833 11.719 -43.619 11.719 -68.359c-1.302 -59.896 -21.484 -109.375 -60.547 -148.438c-42.969 -40.364 -91.797 -60.546 -146.484 -60.546c-58.594 1.302 -107.422 21.484 -146.485 60.546c-40.364 42.969 -61.198 92.448 -62.5 148.438c0 14.323 -4.557 26.367 -13.672 36.133c-9.114 9.765 -20.833 14.648 -35.156 14.648c-14.323 -1.302 -26.367 -6.836 -36.133 -16.601c-9.765 -9.766 -14.648 -21.159 -14.648 -34.18c0 0 0 0 0 0m154.297 7.812c1.302 -44.27 16.276 -80.729 44.922 -109.375c31.25 -29.947 67.708 -45.572 109.375 -46.875c42.968 2.605 78.776 18.23 107.422 46.875c29.948 31.25 45.573 67.709 46.875 109.375c-1.302 13.021 -5.86 23.438 -13.672 31.25c-7.813 7.813 -17.578 11.719 -29.297 11.719c-27.344 -2.604 -41.016 -16.927 -41.016 -42.969c-1.302 -19.531 -8.789 -36.132 -22.461 -49.804c-13.672 -13.672 -29.622 -20.508 -47.851 -20.508c-19.532 1.302 -36.133 8.789 -49.805 22.461c-13.672 13.672 -20.508 29.622 -20.508 47.851c-1.302 13.021 -5.859 23.438 -13.672 31.25c-7.812 7.813 -17.578 11.719 -29.297 11.719c-27.343 -2.604 -41.015 -16.927 -41.015 -42.969c0 0 0 0 0 0m433.594 -249.023c0 -14.974 5.859 -27.669 17.578 -38.086c0 0 134.765 -136.719 134.765 -136.719c13.021 -10.416 26.693 -15.625 41.016 -15.625c14.323 0 26.693 5.209 37.109 15.625c11.719 11.719 17.253 25.065 16.602 40.039c-0.651 14.974 -6.185 27.67 -16.602 38.086c0 0 -134.765 136.719 -134.765 136.719c-27.344 24.74 -53.386 24.74 -78.125 0c-11.719 -11.719 -17.578 -25.065 -17.578 -40.039c0 0 0 0 0 0" />
  </g>
</svg>