<svg height="1000" width="960" xmlns="http://www.w3.org/2000/svg"><path d="M0 909.186q0-22.46 15.624-38.084l248.031-249.984q17.577-15.624 40.037-15.624t38.084 15.624q15.624 17.577 15.624 41.013t-15.624 39.06l-248.031 249.984q-41.013 35.154-78.12 0-15.624-19.53-15.624-41.989zm124.992-477.509q3.906-130.851 89.838-218.736 93.744-89.838 218.736-91.791 128.898 3.906 216.783 91.791 89.838 93.744 89.838 218.736 0 50.778-10.742 83.002t-36.13 75.191q-9.765 23.436-41.013 60.543t-41.013 52.731q-5.859 17.577-6.836 39.06t.977 47.849 1.953 41.989q-1.953 89.838-54.684 132.804-52.731 29.295-113.274 29.295-21.483-1.953-35.154-15.624t-14.648-33.201 12.694-35.154q9.765-9.765 20.506-13.671t26.366-3.906 23.436-3.906q25.389-7.812 27.342-15.624 5.859-19.53 5.859-58.59 1.953-9.765 0-59.567t3.906-57.614q9.765-41.013 29.295-68.355 5.859-5.859 15.624-17.577t15.624-17.577l31.248-46.872q5.859-7.812 14.648-24.413t12.694-22.46q11.718-31.248 11.718-68.355-1.953-89.838-60.543-148.428-64.449-60.543-146.475-60.543-87.885 1.953-146.475 60.543-60.543 64.449-62.496 148.428 0 21.483-13.671 36.13t-35.154 14.648q-21.483-1.953-36.13-16.601t-14.648-34.178zm154.287 7.812q1.953-66.402 44.919-109.368 46.872-44.919 109.368-46.872 64.449 3.906 107.415 46.872 44.919 46.872 46.872 109.368-1.953 19.53-13.671 31.248t-29.295 11.718q-41.013-3.906-41.013-42.966-1.953-29.295-22.46-49.802t-47.849-20.506q-29.295 1.953-49.802 22.46t-20.506 47.849q-1.953 19.53-13.671 31.248t-29.295 11.718q-41.013-3.906-41.013-42.966zm433.566-249.008q0-22.46 17.577-38.084l134.757-136.71q19.53-15.624 41.013-15.624t37.107 15.624q17.577 17.577 16.601 40.037t-16.601 38.084l-134.757 136.71q-41.013 37.107-78.12 0-17.577-17.577-17.577-40.037z"/></svg>