<svg height="1000px" width="1000px" xmlns="http://www.w3.org/2000/svg">
  <g>
    <path d="M0 505.859375c0 -138.021 48.828 -255.859 146.484 -353.516c97.657 -97.656 215.495 -146.484 353.516 -146.484c138.021 0 255.859 48.828 353.516 146.484c97.656 97.657 146.484 215.495 146.484 353.516c0 138.021 -48.828 255.859 -146.484 353.516c-97.657 97.656 -215.495 146.484 -353.516 146.484c-138.021 0 -255.859 -48.828 -353.516 -146.484c-97.656 -97.657 -146.484 -215.495 -146.484 -353.516c0 0 0 0 0 0m242.187 -76.172c-2.604 40.365 4.558 77.474 21.485 111.328c31.25 57.292 94.401 122.396 189.453 195.313c1.302 1.302 5.534 4.883 12.695 10.742c7.162 5.859 13.347 10.417 18.555 13.672c5.208 3.255 10.417 4.883 15.625 4.883c18.229 -1.302 57.943 -29.948 119.141 -85.938c37.76 -32.552 69.01 -65.755 93.75 -99.609c46.875 -63.802 59.244 -131.511 37.109 -203.125c-13.021 -27.344 -31.901 -48.503 -56.641 -63.477c-24.739 -14.974 -52.083 -22.461 -82.031 -22.461c-20.833 0 -41.015 3.906 -60.547 11.719c-19.531 10.417 -36.458 24.74 -50.781 42.969c-26.042 -32.552 -60.547 -50.456 -103.516 -53.711c-42.968 -3.255 -80.729 10.091 -113.281 40.039c-24.739 24.739 -38.411 57.292 -41.015 97.656c0 0 0 0 0 0" />
  </g>
</svg>