<svg height="1000" width="1000" xmlns="http://www.w3.org/2000/svg"><path d="M0 499.968q0 -207.018 146.475 -353.493t353.493 -146.475 353.493 146.475 146.475 353.493 -146.475 353.493 -353.493 146.475 -353.493 -146.475 -146.475 -353.493zm316.386 -263.655q-3.906 48.825 11.718 56.637l56.637 0q21.483 -46.872 70.308 -44.919 33.201 0 57.614 32.224t10.742 65.425q-9.765 23.436 -29.295 55.66t-31.248 55.66q-19.53 41.013 -20.506 89.838t20.506 97.65l70.308 1.953q-7.812 -41.013 8.789 -79.097t57.614 -88.862 44.919 -56.637q25.389 -39.06 32.224 -61.52t6.836 -59.567q0 -70.308 -48.825 -121.086 -52.731 -54.684 -144.522 -54.684 -46.872 0 -109.368 37.107t-64.449 74.214zm93.744 552.699q0 35.154 24.413 60.543t59.567 25.389 60.543 -25.389 25.389 -60.543 -25.389 -59.567 -60.543 -24.413 -59.567 24.413 -24.413 59.567z"/></svg>