<svg height="1000px" width="1000px" xmlns="http://www.w3.org/2000/svg">
  <g>
    <path d="M0 500c0 -138.021 48.828 -255.859 146.484 -353.516c97.657 -97.656 215.495 -146.484 353.516 -146.484c138.021 0 255.859 48.828 353.516 146.484c97.656 97.657 146.484 215.495 146.484 353.516c0 138.021 -48.828 255.859 -146.484 353.516c-97.657 97.656 -215.495 146.484 -353.516 146.484c-138.021 0 -255.859 -48.828 -353.516 -146.484c-97.656 -97.657 -146.484 -215.495 -146.484 -353.516c0 0 0 0 0 0m316.406 -263.672c-2.604 32.552 1.302 51.432 11.719 56.641c0 0 56.641 0 56.641 0c14.323 -31.25 37.76 -46.224 70.312 -44.922c22.136 0 41.341 10.742 57.617 32.226c16.276 21.485 19.857 43.295 10.742 65.43c-6.51 15.625 -16.276 34.18 -29.296 55.664c-13.021 21.485 -23.438 40.039 -31.25 55.664c-13.021 27.344 -19.857 57.292 -20.508 89.844c-0.651 32.552 6.185 65.104 20.508 97.656c0 0 70.312 1.953 70.312 1.953c-5.208 -27.343 -2.279 -53.711 8.789 -79.101c11.068 -25.391 30.274 -55.013 57.617 -88.867c27.344 -33.855 42.318 -52.735 44.922 -56.641c16.927 -26.042 27.67 -46.549 32.227 -61.523c4.557 -14.974 6.836 -34.831 6.836 -59.571c0 -46.875 -16.276 -87.239 -48.828 -121.093c-35.157 -36.459 -83.334 -54.688 -144.532 -54.688c-31.25 0 -67.708 12.37 -109.375 37.109c-41.666 24.74 -63.151 49.48 -64.453 74.219c0 0 0 0 0 0m93.75 552.735c0 23.437 8.138 43.619 24.414 60.546c16.276 16.927 36.133 25.391 59.571 25.391c23.437 0 43.619 -8.464 60.547 -25.391c16.927 -16.927 25.39 -37.109 25.39 -60.546c0 -23.438 -8.463 -43.295 -25.39 -59.571c-16.928 -16.276 -37.11 -24.414 -60.547 -24.414c-23.438 0 -43.295 8.138 -59.571 24.414c-16.276 16.276 -24.414 36.133 -24.414 59.571c0 0 0 0 0 0" />
  </g>
</svg>