<svg height="1000px" width="1000px" xmlns="http://www.w3.org/2000/svg">
  <g>
    <path d="M255.859375 146.484375c1.302 -32.552 29.622 -65.104 84.961 -97.656c55.338 -32.552 104.492 -48.828 147.461 -48.828c80.729 0 144.531 24.088 191.406 72.265c44.271 45.573 66.406 99.61 66.406 162.11c0 32.552 -3.255 58.919 -9.765 79.101c-6.511 20.182 -21.485 47.852 -44.922 83.008c-2.604 5.208 -22.136 30.273 -58.594 75.195c-36.458 44.922 -62.174 84.636 -77.148 119.141c-14.974 34.505 -19.206 69.336 -12.696 104.492c0 0 -93.75 -1.953 -93.75 -1.953c-19.531 -44.271 -28.32 -87.891 -26.367 -130.859c1.953 -42.969 11.393 -82.683 28.321 -119.141c9.114 -20.833 22.46 -45.573 40.039 -74.219c17.578 -28.646 30.924 -53.385 40.039 -74.218c13.02 -29.948 8.463 -59.571 -13.672 -88.868c-22.136 -29.297 -47.526 -43.945 -76.172 -43.945c-26.042 0 -45.899 4.883 -59.57 14.648c-13.672 9.766 -25.066 25.717 -34.18 47.852c0 0 -76.172 0 -76.172 0c-14.323 -7.812 -19.531 -33.854 -15.625 -78.125c0 0 0 0 0 0m123.047 740.234c0 -31.25 11.068 -57.942 33.203 -80.078c22.135 -22.135 48.828 -33.203 80.078 -33.203c31.25 0 57.943 11.068 80.078 33.203c22.136 22.136 33.203 48.828 33.203 80.078c0 31.25 -11.067 57.943 -33.203 80.079c-22.135 22.135 -48.828 33.203 -80.078 33.203c-31.25 0 -57.943 -11.068 -80.078 -33.203c-22.135 -22.136 -33.203 -48.829 -33.203 -80.079c0 0 0 0 0 0" />
  </g>
</svg>