<svg height="1000px" width="1000px" xmlns="http://www.w3.org/2000/svg">
  <g>
    <path d="M0 500c0 -138.021 48.828 -255.859 146.484 -353.516c97.657 -97.656 215.495 -146.484 353.516 -146.484c138.021 0 255.859 48.828 353.516 146.484c97.656 97.657 146.484 215.495 146.484 353.516c0 138.021 -48.828 255.859 -146.484 353.516c-97.657 97.656 -215.495 146.484 -353.516 146.484c-138.021 0 -255.859 -48.828 -353.516 -146.484c-97.656 -97.657 -146.484 -215.495 -146.484 -353.516c0 0 0 0 0 0m199.219 281.25c0 0 601.562 0 601.562 0c0 0 0 -289.063 0 -289.063c0 0 -197.265 0 -197.265 0c0 27.344 -10.092 51.107 -30.274 71.29c-20.182 20.182 -44.596 30.273 -73.242 30.273c-28.646 0 -53.06 -10.091 -73.242 -30.273c-20.182 -20.183 -30.274 -43.946 -30.274 -71.289c0 0 -197.265 0 -197.265 0c0 0 0 289.062 0 289.062c0 0 0 0 0 0m167.968 -460.938c0 0 132.813 199.219 132.813 199.219c0 0 132.813 -199.218 132.813 -199.218c0 0 -72.266 0 -72.266 0c0 0 0 -140.625 0 -140.625c0 0 -121.094 0 -121.094 0c0 0 0 140.625 0 140.625c0 0 -72.266 0 -72.266 0c0 0 0 0 0 0" />
  </g>
</svg>