<svg height="1000px" width="1000px" xmlns="http://www.w3.org/2000/svg">
  <g>
    <path d="M0 1000c0 0 0 -482.422 0 -482.422c0 0 328.125 0 328.125 0c0 48.177 16.927 88.867 50.781 122.07c33.854 33.204 74.219 49.805 121.094 49.805c46.875 0 87.24 -16.601 121.094 -49.805c33.854 -33.203 50.781 -73.893 50.781 -122.07c0 0 328.125 0 328.125 0c0 0 0 482.422 0 482.422c0 0 -1000 0 -1000 0c0 0 0 0 0 0m279.297 -767.578c0 0 119.14 0 119.14 0c0 0 0 -232.422 0 -232.422c0 0 203.125 0 203.125 0c0 0 0 232.422 0 232.422c0 0 119.141 0 119.141 0c0 0 -220.703 332.031 -220.703 332.031c0 0 -220.703 -332.031 -220.703 -332.031" />
  </g>
</svg>