<svg height="1000px" width="1000px" xmlns="http://www.w3.org/2000/svg">
  <g>
    <path d="M0 916.015625c0 0 0 -146.484 0 -146.484c0 0 1000 0 1000 0c0 0 0 146.484 0 146.484c0 0 -1000 0 -1000 0c0 0 0 0 0 0m0 -228.516c0 0 0 -146.484 0 -146.484c0 0 578.125 0 578.125 0c0 0 0 146.484 0 146.484c0 0 -578.125 0 -578.125 0c0 0 0 0 0 0m0 -228.515c0 0 0 -146.485 0 -146.485c0 0 578.125 0 578.125 0c0 0 0 146.485 0 146.485c0 0 -578.125 0 -578.125 0c0 0 0 0 0 0m0 -228.516c0 0 0 -146.484 0 -146.484c0 0 1000 0 1000 0c0 0 0 146.484 0 146.484c0 0 -1000 0 -1000 0c0 0 0 0 0 0m718.75 269.531c0 0 281.25 -187.5 281.25 -187.5c0 0 0 375 0 375c0 0 -281.25 -187.5 -281.25 -187.5" />
  </g>
</svg>