<svg height="1000px" width="1000px" xmlns="http://www.w3.org/2000/svg">
  <g>
    <path d="M0 500c0 -138.021 48.828 -255.859 146.484 -353.516c97.657 -97.656 215.495 -146.484 353.516 -146.484c138.021 0 255.859 48.828 353.516 146.484c97.656 97.657 146.484 215.495 146.484 353.516c0 138.021 -48.828 255.859 -146.484 353.516c-97.657 97.656 -215.495 146.484 -353.516 146.484c-138.021 0 -255.859 -48.828 -353.516 -146.484c-97.656 -97.657 -146.484 -215.495 -146.484 -353.516c0 0 0 0 0 0m373.047 -66.406c0 0 7.812 39.062 7.812 39.062c0 0 35.157 -7.812 35.157 -7.812c16.927 0 25.39 11.719 25.39 35.156c0 0 0 244.141 0 244.141c0 13.02 -4.557 22.786 -13.672 29.296c-11.718 7.813 -29.296 14.323 -52.734 19.532c0 0 7.813 35.156 7.813 35.156c55.989 -5.208 95.377 -7.813 118.164 -7.813c22.786 0 62.174 2.605 118.164 7.813c0 0 7.812 -35.156 7.812 -35.156c-23.437 -6.511 -41.015 -13.021 -52.734 -19.532c-6.511 -3.906 -10.417 -7.812 -11.719 -11.718c-1.302 -2.604 -1.953 -8.464 -1.953 -17.578c0 0 0 -240.235 0 -240.235c0 -32.552 5.208 -62.5 15.625 -89.844c0 0 -19.531 -23.437 -19.531 -23.437c-20.834 0 -50.782 4.557 -89.844 13.672c-39.063 9.114 -70.313 18.88 -93.75 29.297c0 0 0 0 0 0m35.156 -194.336c0 20.182 6.511 36.784 19.531 49.804c14.323 11.719 33.203 17.579 56.641 17.579c23.438 0 42.318 -6.185 56.641 -18.555c14.323 -12.37 21.484 -28.646 21.484 -48.828c0 -20.182 -7.161 -36.459 -21.484 -48.828c-14.323 -12.37 -33.203 -18.555 -56.641 -18.555c-23.438 0 -42.318 5.859 -56.641 17.578c-13.02 13.021 -19.531 29.623 -19.531 49.805c0 0 0 0 0 0" />
  </g>
</svg>