<svg height="1000" width="1000" xmlns="http://www.w3.org/2000/svg"><path d="M0 500.032q0-207.018 146.475-353.493t353.493-146.475 353.493 146.475 146.475 353.493-146.475 353.493-353.493 146.475-353.493-146.475-146.475-353.493zm373.023-66.402l7.812 39.06 35.154-7.812q25.389 0 25.389 35.154l0 244.125q0 19.53-13.671 29.295-17.577 11.718-52.731 19.53l7.812 35.154q83.979-7.812 118.157-7.812t118.157 7.812l7.812-35.154q-35.154-9.765-52.731-19.53-9.765-5.859-11.718-11.718-1.953-3.906-1.953-17.577l0-240.219q0-48.825 15.624-89.838l-19.53-23.436q-31.248 0-89.838 13.671t-93.744 29.295zm35.154-194.323q0 30.271 19.53 49.802 21.483 17.577 56.637 17.577t56.637-18.553 21.483-48.825-21.483-48.825-56.637-18.553-56.637 17.577q-19.53 19.53-19.53 49.802z"/></svg>