<svg height="1000px" width="1000px" xmlns="http://www.w3.org/2000/svg">
  <g>
    <path d="M0 1000c0 0 0 -673.828 0 -673.828c0 0 269.531 0 269.531 0c-16.927 33.854 -25.39 70.312 -25.39 109.375c0 69.01 24.414 127.604 73.242 175.781c48.828 48.177 107.422 72.266 175.781 72.266c68.359 0 126.953 -24.089 175.781 -72.266c48.828 -48.177 73.242 -106.771 73.242 -175.781c0 -39.063 -8.463 -75.521 -25.39 -109.375c0 0 283.203 0 283.203 0c0 0 0 673.828 0 673.828c0 0 -1000 0 -1000 0c0 0 0 0 0 0m0 -714.844c0 0 0 -285.156 0 -285.156c0 0 1000 0 1000 0c0 0 0 285.156 0 285.156c0 0 -310.547 0 -310.547 0c-49.479 -63.802 -114.909 -95.703 -196.289 -95.703c-81.38 0 -146.81 31.901 -196.289 95.703c0 0 -296.875 0 -296.875 0c0 0 0 0 0 0m48.828 -44.922c0 0 35.156 0 35.156 0c0 0 0 -191.406 0 -191.406c-10.416 3.906 -18.88 10.742 -25.39 20.508c-6.511 9.766 -9.766 20.508 -9.766 32.227c0 0 0 138.671 0 138.671c0 0 0 0 0 0m60.547 0c0 0 35.156 0 35.156 0c0 0 0 -197.265 0 -197.265c0 0 -35.156 0 -35.156 0c0 0 0 197.265 0 197.265c0 0 0 0 0 0m58.594 0c0 0 35.156 0 35.156 0c0 0 0 -197.265 0 -197.265c0 0 -35.156 0 -35.156 0c0 0 0 197.265 0 197.265c0 0 0 0 0 0m60.547 0c0 0 33.203 0 33.203 0c0 0 0 -56.64 0 -56.64c0 0 0 -82.031 0 -82.031c0 0 0 -58.594 0 -58.594c0 0 -33.203 0 -33.203 0c0 0 0 197.265 0 197.265c0 0 0 0 0 0m44.922 196.289c0 -60.546 21.484 -112.304 64.453 -155.273c42.968 -42.969 94.726 -64.453 155.273 -64.453c60.547 0 112.305 21.484 155.274 64.453c42.968 42.969 64.453 94.727 64.453 155.273c0 60.547 -21.485 111.98 -64.453 154.297c-42.969 42.318 -94.727 63.477 -155.274 63.477c-60.547 0 -112.305 -21.159 -155.273 -63.477c-42.969 -42.317 -64.453 -93.75 -64.453 -154.297c0 0 0 0 0 0m44.921 -0.976c0 48.177 16.927 89.193 50.782 123.047c33.854 33.854 74.869 50.781 123.047 50.781c48.177 0 89.518 -16.927 124.023 -50.781c34.505 -33.854 51.758 -74.87 51.758 -123.047c0 -48.177 -17.253 -89.193 -51.758 -123.047c-34.505 -33.854 -75.846 -50.781 -124.024 -50.781c-48.177 0 -89.192 16.927 -123.046 50.781c-33.855 33.854 -50.782 74.87 -50.782 123.047c0 0 0 0 0 0m421.875 -253.906c0 15.625 5.86 29.297 17.578 41.015c11.719 11.719 26.042 17.578 42.969 17.578c0 0 93.75 0 93.75 0c15.625 0 29.297 -5.859 41.016 -17.578c11.719 -11.718 17.578 -25.39 17.578 -41.015c0 0 0 -80.078 0 -80.078c0 -15.625 -5.859 -29.297 -17.578 -41.016c-11.719 -11.719 -25.391 -17.578 -41.016 -17.578c0 0 -93.75 0 -93.75 0c-16.927 0 -31.25 5.859 -42.969 17.578c-11.718 11.719 -17.578 25.391 -17.578 41.016c0 0 0 80.078 0 80.078c0 0 0 0 0 0" />
  </g>
</svg>