<svg height="1000" width="1000" xmlns="http://www.w3.org/2000/svg"><path d="M.001 1000l0-673.785l269.514 0q-25.389 50.778-25.389 109.368 0 103.509 73.237 175.77t175.77 72.261 175.77-72.261 73.237-175.77q0-58.59-25.389-109.368l283.185 0l0 673.785l-999.936 0zm0-714.798l0-285.138l999.936 0l0 285.138l-310.527 0q-74.214-95.697-196.276-95.697t-196.276 95.697l-296.856 0zm48.825-44.919l35.154 0l0-191.394q-15.624 5.859-25.389 20.506t-9.765 32.224l0 138.663zm60.543 0l35.154 0l0-197.253l-35.154 0l0 197.253zm58.59 0l35.154 0l0-197.253l-35.154 0l0 197.253zm60.543 0l33.201 0l0-197.253l-33.201 0l0 197.253zm44.919 196.276q0-90.815 64.449-155.263t155.263-64.449 155.263 64.449 64.449 155.263-64.449 154.287-155.263 63.473-155.263-63.473-64.449-154.287zm44.919-.977q0 72.261 50.778 123.039t123.039 50.778 124.016-50.778 51.755-123.039-51.755-123.039-124.016-50.778-123.039 50.778-50.778 123.039zm421.848-253.89q0 23.436 17.577 41.013t42.966 17.577l93.744 0q23.436 0 41.013-17.577t17.577-41.013l0-80.073q0-23.436-17.577-41.013t-41.013-17.577l-93.744 0q-25.389 0-42.966 17.577t-17.577 41.013l0 80.073z"/></svg>