<svg height="1000px" width="1000px" xmlns="http://www.w3.org/2000/svg">
  <g>
    <path d="M0 500c0 -138.021 48.828 -255.859 146.484 -353.516c97.657 -97.656 215.495 -146.484 353.516 -146.484c138.021 0 255.859 48.828 353.516 146.484c97.656 97.657 146.484 215.495 146.484 353.516c0 138.021 -48.828 255.859 -146.484 353.516c-97.657 97.656 -215.495 146.484 -353.516 146.484c-138.021 0 -255.859 -48.828 -353.516 -146.484c-97.656 -97.657 -146.484 -215.495 -146.484 -353.516c0 0 0 0 0 0m285.156 173.828c0 10.417 3.906 19.531 11.719 27.344c7.812 7.812 17.578 12.37 29.297 13.672c0 0 347.656 0 347.656 0c10.417 0 19.531 -3.907 27.344 -11.719c7.812 -7.813 12.37 -17.578 13.672 -29.297c0 0 0 -347.656 0 -347.656c0 -10.417 -3.907 -19.531 -11.719 -27.344c-7.813 -7.812 -17.578 -12.37 -29.297 -13.672c0 0 -347.656 0 -347.656 0c-10.417 0 -19.531 3.906 -27.344 11.719c-7.812 7.812 -12.37 17.578 -13.672 29.297c0 0 0 347.656 0 347.656c0 0 0 0 0 0m80.078 -60.547c0 0 0 -228.515 0 -228.515c0 -13.021 6.511 -19.532 19.532 -19.532c0 0 230.468 0 230.468 0c13.021 0 19.532 6.511 19.532 19.532c0 0 0 228.515 0 228.515c0 14.323 -6.511 21.485 -19.532 21.485c0 0 -230.468 0 -230.468 0c-13.021 0 -19.532 -7.162 -19.532 -21.485c0 0 0 0 0 0" />
  </g>
</svg>