<svg height="1000" width="1000" xmlns="http://www.w3.org/2000/svg"><path d="M0 499.968q0 -207.018 146.475 -353.493t353.493 -146.475 353.493 146.475 146.475 353.493 -146.475 353.493 -353.493 146.475 -353.493 -146.475 -146.475 -353.493zm285.138 173.817q0 15.624 11.718 27.342t29.295 13.671l347.634 0q15.624 0 27.342 -11.718t13.671 -29.295l0 -347.634q0 -15.624 -11.718 -27.342t-29.295 -13.671l-347.634 0q-15.624 0 -27.342 11.718t-13.671 29.295l0 347.634zm80.073 -60.543l0 -228.501q0 -19.53 19.53 -19.53l230.454 0q19.53 0 19.53 19.53l0 228.501q0 21.483 -19.53 21.483l-230.454 0q-19.53 0 -19.53 -21.483z"/></svg>