<svg height="1000px" width="1000px" xmlns="http://www.w3.org/2000/svg">
  <g>
    <path d="M0 494.140625c0 -75.521 26.693 -139.974 80.078 -193.359c53.386 -53.386 117.839 -80.078 193.359 -80.078c63.803 0 120.118 19.205 168.946 57.617c48.828 38.411 81.054 87.565 96.679 147.461c0 0 460.938 0 460.938 0c0 0 0 117.187 0 117.187c0 0 -64.453 0 -64.453 0c0 0 0 218.75 0 218.75c0 0 -115.235 0 -115.235 0c0 0 0 -218.75 0 -218.75c0 0 -54.687 0 -54.687 0c0 0 0 150.391 0 150.391c0 0 -117.188 0 -117.188 0c0 0 0 -150.391 0 -150.391c0 0 -105.468 0 -105.468 0c-11.719 63.802 -42.969 117.188 -93.75 160.156c-50.782 42.969 -109.375 64.454 -175.782 64.454c-75.52 0 -139.973 -26.693 -193.359 -80.079c-53.385 -53.385 -80.078 -117.838 -80.078 -193.359c0 0 0 0 0 0m126.953 0c0 40.365 14.323 74.87 42.969 103.516c28.646 28.645 63.151 42.968 103.516 42.968c40.364 0 74.869 -14.323 103.515 -42.968c28.646 -28.646 42.969 -63.151 42.969 -103.516c0 -40.365 -14.323 -74.87 -42.969 -103.516c-28.646 -28.645 -63.151 -42.968 -103.515 -42.968c-40.365 0 -74.87 14.323 -103.516 42.968c-28.646 28.646 -42.969 63.151 -42.969 103.516c0 0 0 0 0 0" />
  </g>
</svg>