<svg height="1000" width="1000" xmlns="http://www.w3.org/2000/svg"><path d="M0 499.92q0 -113.274 80.073 -193.347t193.347 -80.073q95.697 0 168.935 57.614t96.674 147.452l460.908 0l0 117.18l-64.449 0l0 218.736l-115.227 0l0 -218.736l-54.684 0l0 150.381l-117.18 0l0 -150.381l-105.462 0q-17.577 95.697 -93.744 160.146t-175.77 64.449q-113.274 0 -193.347 -80.073t-80.073 -193.347zm126.945 0q0 60.543 42.966 103.509t103.509 42.966 103.509 -42.966 42.966 -103.509 -42.966 -103.509 -103.509 -42.966 -103.509 42.966 -42.966 103.509z"/></svg>