<svg height="1000px" width="1000px" xmlns="http://www.w3.org/2000/svg">
  <g>
    <path d="M0 500c0 -138.021 48.828 -255.859 146.484 -353.516c97.657 -97.656 215.495 -146.484 353.516 -146.484c138.021 0 255.859 48.828 353.516 146.484c97.656 97.657 146.484 215.495 146.484 353.516c0 138.021 -48.828 255.859 -146.484 353.516c-97.657 97.656 -215.495 146.484 -353.516 146.484c-138.021 0 -255.859 -48.828 -353.516 -146.484c-97.656 -97.657 -146.484 -215.495 -146.484 -353.516c0 0 0 0 0 0m177.734 195.312c0 0 31.25 35.157 31.25 35.157c0 0 582.032 0 582.032 0c0 0 31.25 -35.157 31.25 -35.157c0 0 0 -56.64 0 -56.64c0 0 -644.532 0 -644.532 0c0 0 0 56.64 0 56.64c0 0 0 0 0 0m64.453 -87.89c0 0 515.625 0 515.625 0c0 0 0 -337.891 0 -337.891c0 0 -515.625 0 -515.625 0c0 0 0 337.891 0 337.891c0 0 0 0 0 0m64.454 -60.547c0 0 0 -214.844 0 -214.844c0 0 386.718 0 386.718 0c0 0 0 214.844 0 214.844c0 0 -386.718 0 -386.718 0c0 0 0 0 0 0m132.812 162.109c0 0 0 -50.781 0 -50.781c0 0 121.094 0 121.094 0c0 0 0 50.781 0 50.781c0 0 -121.094 0 -121.094 0c0 0 0 0 0 0" />
  </g>
</svg>