<svg height="1000px" width="1000px" xmlns="http://www.w3.org/2000/svg">
  <g>
    <path d="M0 802.734375c0 0 0 -87.891 0 -87.891c0 0 1000 0 1000 0c0 0 0 87.891 0 87.891c0 0 -50.781 52.734 -50.781 52.734c0 0 -898.438 0 -898.438 0c0 0 -50.781 -52.734 -50.781 -52.734m99.609 -134.766c0 0 0 -523.437 0 -523.437c0 0 800.782 0 800.782 0c0 0 0 523.437 0 523.437c0 0 -800.782 0 -800.782 0c0 0 0 0 0 0m99.61 -95.703c0 0 601.562 0 601.562 0c0 0 0 -333.984 0 -333.984c0 0 -601.562 0 -601.562 0c0 0 0 333.984 0 333.984c0 0 0 0 0 0m208.984 251.953c0 0 183.594 0 183.594 0c0 0 0 -80.078 0 -80.078c0 0 -183.594 0 -183.594 0c0 0 0 80.078 0 80.078c0 0 0 0 0 0" />
  </g>
</svg>