<svg height="1000" width="871" xmlns="http://www.w3.org/2000/svg"><path d="M2.137 793.708q8.789 -27.342 31.248 -47.849t43.943 -41.013 19.53 -32.224q-13.671 -29.295 -13.671 -39.06 -19.53 -126.945 60.543 -231.43t195.3 -153.311q42.966 -17.577 101.556 -19.53t104.486 3.906 93.744 -3.906 79.097 -42.966q44.919 -48.825 82.026 -48.825 23.436 0 33.201 19.53 54.684 119.133 30.271 240.219t-96.674 220.689 -167.958 150.381q-181.629 89.838 -351.54 31.248 -13.671 -3.906 -42.966 -22.46t-46.872 -18.553q-9.765 5.859 -19.53 18.553t-21.483 32.224 -15.624 25.389q-13.671 23.436 -37.107 27.342t-42.966 -15.624q-27.342 -25.389 -18.553 -52.731zm181.629 -174.793q.977 14.648 12.694 24.413t26.366 7.812 24.413 -11.718q144.522 -173.817 376.929 -167.958 15.624 1.953 26.366 -8.789t10.742 -24.413q0 -15.624 -9.765 -26.366t-25.389 -12.694q-126.945 -5.859 -239.243 44.919t-194.323 146.475q-9.765 13.671 -8.789 28.319z"/></svg>