<svg height="1000px" width="1000px" xmlns="http://www.w3.org/2000/svg">
  <g>
    <path d="M0.9765625 728.515625c5.859 -18.229 16.276 -34.18 31.25 -47.852c14.974 -13.671 29.622 -27.343 43.945 -41.015c14.323 -13.672 20.834 -24.414 19.532 -32.227c-9.115 -19.531 -13.672 -32.552 -13.672 -39.062c-13.021 -84.636 7.161 -161.784 60.547 -231.446c53.385 -69.661 118.489 -120.768 195.312 -153.32c28.646 -11.719 62.5 -18.229 101.563 -19.531c39.062 -1.302 73.893 0 104.492 3.906c30.599 3.906 61.849 2.604 93.75 -3.906c31.901 -6.511 58.268 -20.833 79.101 -42.969c29.948 -32.552 57.292 -48.828 82.032 -48.828c15.625 0 26.692 6.51 33.203 19.531c36.458 79.427 46.549 159.505 30.273 240.235c-16.276 80.729 -48.502 154.296 -96.68 220.703c-48.177 66.406 -104.166 116.536 -167.968 150.39c-121.094 59.896 -238.282 70.313 -351.563 31.25c-9.114 -2.604 -23.437 -10.091 -42.969 -22.461c-19.531 -12.369 -35.156 -18.554 -46.875 -18.554c-6.51 3.906 -13.02 10.091 -19.531 18.554c-6.51 8.464 -13.672 19.206 -21.484 32.227c-7.813 13.021 -13.021 21.484 -15.625 25.391c-9.115 15.625 -21.485 24.739 -37.11 27.343c-15.625 2.605 -29.947 -2.604 -42.968 -15.625c-18.229 -16.927 -24.414 -34.505 -18.555 -52.734c0 0 0 0 0 0m181.641 -174.805c0.651 9.766 4.882 17.904 12.695 24.414c7.812 6.511 16.602 9.115 26.367 7.813c9.766 -1.302 17.904 -5.208 24.414 -11.719c96.354 -115.885 222.005 -171.875 376.953 -167.969c10.417 1.302 19.206 -1.627 26.368 -8.789c7.161 -7.161 10.742 -15.299 10.742 -24.414c0 -10.416 -3.256 -19.205 -9.766 -26.367c-6.51 -7.161 -14.974 -11.393 -25.391 -12.695c-84.635 -3.906 -164.388 11.067 -239.257 44.922c-74.87 33.854 -139.649 82.682 -194.336 146.484c-6.511 9.115 -9.44 18.555 -8.789 28.32c0 0 0 0 0 0" />
  </g>
</svg>