<svg height="1000" width="1000" xmlns="http://www.w3.org/2000/svg"><path d="M.002 473.059q0 -54.684 36.13 -88.862t92.767 -38.084q218.736 -1.953 273.42 -1.953 -44.919 -93.744 -17.577 -169.911 19.53 -54.684 78.12 -82.026t115.227 -3.906q21.483 23.436 30.271 79.097t18.553 77.144q13.671 23.436 35.154 41.013 21.483 15.624 58.59 56.637t60.543 58.59l154.287 0q25.389 0 43.943 18.553t20.506 43.943l0 347.634q0 25.389 -18.553 43.943t-45.895 20.506l-169.911 0q-27.342 0 -93.744 14.648t-124.016 24.413 -117.18 7.812 -97.65 -39.06 -41.989 -109.368q-42.966 -50.778 -33.201 -119.133 -15.624 -25.389 -21.483 -56.637l-107.415 0q-52.731 -1.953 -90.815 -37.107t-38.084 -87.885zm64.449 0q1.953 23.436 19.53 41.013t44.919 19.53l191.395 0q-48.825 48.825 9.765 107.415 -15.624 25.389 -6.836 58.59t36.13 46.872q-9.765 62.496 18.553 90.815t83.002 26.366 109.368 -12.694 115.227 -25.389 83.979 -14.648l0 -347.634l-3.906 0q-37.107 -15.624 -86.909 -70.308t-67.379 -68.355q-25.389 -21.483 -41.013 -53.708t-20.506 -55.66 -12.694 -68.355q0 -3.906 -.977 -6.836t-4.883 -4.883q-21.483 -3.906 -46.872 9.765 -35.154 21.483 -41.989 57.614t3.906 66.402 27.342 73.237 20.506 66.402l-365.212 0q-27.342 1.953 -44.919 18.553t-19.53 45.895z"/></svg>