<svg height="1000px" width="1000px" xmlns="http://www.w3.org/2000/svg">
  <g>
    <path d="M0 472.65625c0 -36.458 12.044 -66.081 36.133 -88.867c24.088 -22.787 55.013 -35.482 92.773 -38.086c145.834 -1.302 236.979 -1.953 273.438 -1.953c-29.948 -62.5 -35.808 -119.141 -17.578 -169.922c13.02 -36.458 39.062 -63.802 78.125 -82.031c39.062 -18.23 77.474 -19.532 115.234 -3.907c14.323 15.625 24.414 41.993 30.273 79.102c5.86 37.109 12.045 62.825 18.555 77.148c9.115 15.625 20.833 29.297 35.156 41.016c14.323 10.417 33.855 29.297 58.594 56.641c24.74 27.343 44.922 46.875 60.547 58.593c0 0 154.297 0 154.297 0c16.927 0 31.575 6.185 43.945 18.555c12.37 12.37 19.206 27.018 20.508 43.945c0 0 0 347.657 0 347.657c0 16.927 -6.185 31.575 -18.555 43.945c-12.369 12.37 -27.669 19.206 -45.898 20.508c0 0 -169.922 0 -169.922 0c-18.229 0 -49.479 4.883 -93.75 14.648c-44.271 9.766 -85.612 17.904 -124.023 24.414c-38.412 6.511 -77.474 9.115 -117.188 7.813c-39.713 -1.302 -72.266 -14.323 -97.656 -39.063c-25.391 -24.739 -39.388 -61.198 -41.992 -109.375c-28.646 -33.854 -39.714 -73.567 -33.204 -119.14c-10.416 -16.927 -17.578 -35.808 -21.484 -56.641c0 0 -107.422 0 -107.422 0c-35.156 -1.302 -65.429 -13.672 -90.82 -37.109c-25.391 -23.438 -38.086 -52.735 -38.086 -87.891c0 0 0 0 0 0m64.453 0c1.302 15.625 7.813 29.297 19.531 41.016c11.719 11.718 26.693 18.229 44.922 19.531c0 0 94.727 0 94.727 0c0 0 96.679 0 96.679 0c-32.552 32.552 -29.296 68.359 9.766 107.422c-10.417 16.927 -12.695 36.458 -6.836 58.593c5.86 22.136 17.904 37.761 36.133 46.875c-6.51 41.667 -0.326 71.941 18.555 90.821c18.88 18.88 46.549 27.669 83.007 26.367c36.459 -1.302 72.917 -5.534 109.375 -12.695c36.459 -7.162 74.87 -15.625 115.235 -25.391c40.364 -9.766 68.359 -14.648 83.984 -14.648c0 0 0 -347.657 0 -347.657c0 0 -3.906 0 -3.906 0c-24.74 -10.416 -53.711 -33.854 -86.914 -70.312c-33.203 -36.458 -55.664 -59.245 -67.383 -68.36c-16.927 -14.322 -30.599 -32.226 -41.016 -53.71c-10.416 -21.485 -17.252 -40.04 -20.507 -55.665c-3.256 -15.625 -7.487 -38.411 -12.696 -68.359c0 -2.604 -0.325 -4.883 -0.976 -6.836c-0.651 -1.953 -2.279 -3.581 -4.883 -4.883c-14.323 -2.604 -29.948 0.651 -46.875 9.766c-23.438 14.323 -37.435 33.529 -41.992 57.617c-4.557 24.089 -3.255 46.224 3.906 66.406c7.162 20.183 16.276 44.597 27.344 73.243c11.068 28.645 17.903 50.781 20.508 66.406c0 0 -180.664 0 -180.664 0c0 0 -184.571 0 -184.571 0c-18.229 1.302 -33.203 7.487 -44.922 18.555c-11.718 11.067 -18.229 26.367 -19.531 45.898c0 0 0 0 0 0" />
  </g>
</svg>