<svg height="1000" width="881" xmlns="http://www.w3.org/2000/svg"><path d="M.976 540.98q-1.953 -11.718 6.836 -21.483t22.46 -11.718l89.838 -15.624q13.671 -1.953 25.389 4.883t13.671 19.53 -6.836 23.436 -24.413 12.694l-87.885 13.671q-13.671 1.953 -25.389 -4.883t-13.671 -20.506zm1.953 -250.96q-5.859 -12.694 0 -24.413t18.553 -15.624 26.366 3.906l82.026 35.154q13.671 5.859 19.53 17.577t0 23.436 -18.553 15.624 -26.366 0l-82.026 -39.06q-13.671 -3.906 -19.53 -16.601zm160.146 -207.018q1.953 -12.694 13.671 -20.506 9.765 -5.859 22.46 -1.953t20.506 15.624l48.825 76.167q7.812 11.718 5.859 25.389t-11.718 19.53 -22.46 2.929 -20.506 -14.648l-50.778 -76.167q-7.812 -13.671 -5.859 -26.366zm56.637 241.196q17.577 -39.06 48.825 -66.402t75.191 -41.013 94.721 -13.671l3.906 0q50.778 0 93.744 13.671t75.191 41.013 49.802 66.402q42.966 103.509 -15.624 226.548 -21.483 42.966 -46.872 91.791 -13.671 25.389 -24.413 73.237t-16.601 61.52q-3.906 11.718 -15.624 13.671l-203.112 0q-11.718 -1.953 -17.577 -13.671 -29.295 -111.321 -39.06 -134.757 -25.389 -48.825 -46.872 -91.791 -58.59 -130.851 -15.624 -226.548zm99.603 623.007q0 -7.812 4.883 -12.694t12.694 -4.883l208.971 0q5.859 0 10.742 4.883t4.883 12.694l0 35.154q0 7.812 -4.883 12.694t-10.742 4.883l-208.971 0q-17.577 0 -17.577 -17.577l0 -35.154zm0 -68.355l0 -35.154q0 -17.577 17.577 -17.577l208.971 0q5.859 0 10.742 4.883t4.883 12.694l0 35.154q0 7.812 -4.883 12.694t-10.742 4.883l-208.971 0q-7.812 0 -12.694 -4.883t-4.883 -12.694zm93.744 -753.858l0 -89.838q0 -15.624 7.812 -25.389t21.483 -9.765q11.718 0 20.506 9.765t8.789 25.389l0 89.838q0 13.671 -8.789 23.436t-20.506 9.765q-13.671 0 -21.483 -9.765t-7.812 -23.436zm193.347 52.731q-1.953 -13.671 5.859 -25.389l48.825 -76.167q9.765 -11.718 21.483 -15.624t23.436 1.953q9.765 7.812 11.718 20.506t-5.859 26.366l-48.825 76.167q-9.765 11.718 -21.483 14.648t-22.46 -2.929 -12.694 -19.53zm117.18 338.846q1.953 -12.694 12.694 -19.53t24.413 -4.883l89.838 15.624q13.671 1.953 22.46 11.718t6.836 21.483q-1.953 13.671 -12.694 20.506t-26.366 4.883l-89.838 -13.671q-13.671 -1.953 -21.483 -12.694t-5.859 -23.436zm8.789 -186.512q-4.883 -11.718 .977 -23.436t17.577 -17.577l83.979 -35.154q11.718 -7.812 24.413 -3.906t18.553 15.624 0 24.413 -19.53 16.601l-82.026 39.06q-13.671 3.906 -26.366 0t-17.577 -15.624z"/></svg>