<svg height="1000" width="1000" xmlns="http://www.w3.org/2000/svg"><path d="M0 499.968q0 -207.018 146.475 -353.493t353.493 -146.475 353.493 146.475 146.475 353.493 -146.475 353.493 -353.493 146.475 -353.493 -146.475 -146.475 -353.493zm224.595 25.389q1.953 7.812 8.789 12.694t14.648 4.883l56.637 -9.765q9.765 -1.953 14.648 -7.812t4.883 -13.671q-1.953 -7.812 -9.765 -13.671 -3.906 -1.953 -11.718 -1.953l-3.906 0l-56.637 9.765q-7.812 0 -13.671 5.859t-3.906 13.671zm.977 -170.888q-2.929 6.836 .977 14.648t11.718 11.718l50.778 21.483q9.765 3.906 17.577 1.953t9.765 -9.765q3.906 -7.812 0 -14.648t-11.718 -10.742l-50.778 -23.436q-3.906 -1.953 -9.765 -1.953l-5.859 0q-9.765 3.906 -12.694 10.742zm100.58 -114.251q-1.953 7.812 3.906 15.624l31.248 46.872q3.906 7.812 12.694 10.742t14.648 -2.929q5.859 -3.906 6.836 -11.718t-2.929 -15.624l-31.248 -48.825q-3.906 -7.812 -11.718 -9.765l-5.859 0q-5.859 0 -9.765 1.953 -5.859 5.859 -7.812 13.671zm44.919 290.997q15.624 33.201 29.295 58.59 9.765 21.483 13.671 37.107 1.953 7.812 4.883 23.436t6.836 25.389q1.953 5.859 9.765 7.812l128.898 0q5.859 -1.953 9.765 -7.812 3.906 -9.765 6.836 -28.319t4.883 -20.506q3.906 -15.624 13.671 -37.107l29.295 -58.59q37.107 -82.026 9.765 -142.569 -11.718 -23.436 -31.248 -40.037t-47.849 -25.389 -59.567 -8.789l-1.953 0q-62.496 0 -105.462 33.201 -74.214 74.214 -21.483 183.582zm52.731 271.467q0 9.765 9.765 9.765l132.804 0q9.765 0 9.765 -9.765l0 -23.436q0 -9.765 -9.765 -9.765l-132.804 0q-9.765 0 -9.765 9.765l0 23.436zm0 -64.449q0 9.765 9.765 9.765l132.804 0q9.765 0 9.765 -9.765l0 -23.436q0 -9.765 -9.765 -9.765l-132.804 0q-9.765 0 -9.765 9.765l0 23.436zm58.59 -472.626q0 7.812 4.883 14.648t13.671 6.836 13.671 -6.836 4.883 -14.648l0 -56.637q0 -9.765 -4.883 -15.624t-12.694 -5.859l-1.953 0q-7.812 0 -11.718 5.859 -5.859 5.859 -5.859 15.624l0 56.637zm122.063 33.201q.977 7.812 6.836 11.718 5.859 5.859 14.648 2.929t12.694 -10.742l31.248 -46.872q9.765 -17.577 -3.906 -29.295 -3.906 -1.953 -9.765 -1.953l-5.859 0q-7.812 1.953 -11.718 9.765l-31.248 48.825q-3.906 7.812 -2.929 15.624zm71.285 212.877q0 7.812 4.883 13.671t14.648 7.812l56.637 9.765q7.812 0 14.648 -4.883t8.789 -12.694 -3.906 -13.671 -13.671 -5.859l-56.637 -9.765l-5.859 0q-5.859 0 -9.765 1.953 -7.812 5.859 -9.765 13.671zm7.812 -117.18q1.953 7.812 9.765 9.765t17.577 -1.953l50.778 -21.483q7.812 -3.906 11.718 -11.718t.977 -14.648 -12.694 -10.742l-5.859 0q-5.859 0 -9.765 1.953l-50.778 23.436q-7.812 3.906 -11.718 10.742t0 14.648z"/></svg>