<svg height="1000px" width="1000px" xmlns="http://www.w3.org/2000/svg">
  <g>
    <path d="M60.546875 541.015625c-1.302 -7.813 0.977 -14.974 6.836 -21.484c5.859 -6.511 13.346 -10.417 22.461 -11.719c0 0 89.844 -15.625 89.844 -15.625c9.114 -1.302 17.578 0.325 25.39 4.883c7.813 4.557 12.37 11.067 13.672 19.531c1.302 8.463 -0.976 16.276 -6.836 23.437c-5.859 7.162 -13.997 11.394 -24.414 12.696c0 0 -87.89 13.672 -87.89 13.672c-9.115 1.302 -17.579 -0.326 -25.391 -4.883c-7.813 -4.557 -12.37 -11.393 -13.672 -20.508c0 0 0 0 0 0m1.953 -250.977c-3.906 -8.463 -3.906 -16.601 0 -24.414c3.906 -7.812 10.091 -13.02 18.555 -15.625c8.463 -2.604 17.252 -1.302 26.367 3.907c0 0 82.031 35.156 82.031 35.156c9.115 3.906 15.625 9.766 19.531 17.578c3.907 7.813 3.907 15.625 0 23.438c-3.906 7.812 -10.091 13.02 -18.554 15.625c-8.464 2.604 -17.253 2.604 -26.367 0c0 0 -82.032 -39.063 -82.032 -39.063c-9.114 -2.604 -15.625 -8.138 -19.531 -16.602c0 0 0 0 0 0m160.156 -207.031c1.302 -8.463 5.86 -15.299 13.672 -20.508c6.511 -3.906 13.998 -4.557 22.461 -1.953c8.464 2.604 15.3 7.813 20.508 15.625c0 0 48.828 76.172 48.828 76.172c5.208 7.813 7.162 16.276 5.86 25.391c-1.303 9.114 -5.209 15.625 -11.719 19.531c-6.511 3.906 -13.998 4.883 -22.461 2.93c-8.464 -1.953 -15.3 -6.836 -20.508 -14.649c0 0 -50.781 -76.172 -50.781 -76.172c-5.209 -9.114 -7.162 -17.903 -5.86 -26.367c0 0 0 0 0 0m56.641 241.211c11.719 -26.042 27.995 -48.177 48.828 -66.406c20.833 -18.229 45.899 -31.901 75.195 -41.016c29.297 -9.114 60.873 -13.672 94.727 -13.672c0 0 1.953 0 1.953 0c0 0 1.953 0 1.953 0c33.854 0 65.104 4.558 93.75 13.672c28.646 9.115 53.711 22.787 75.196 41.016c21.484 18.229 38.086 40.364 49.804 66.406c28.646 69.011 23.438 144.531 -15.625 226.563c-14.323 28.645 -29.948 59.244 -46.875 91.797c-9.114 16.927 -17.252 41.341 -24.414 73.242c-7.161 31.901 -12.695 52.409 -16.601 61.523c-2.605 7.813 -7.813 12.37 -15.625 13.672c0 0 -203.125 0 -203.125 0c-7.813 -1.302 -13.672 -5.859 -17.578 -13.672c-19.532 -74.219 -32.553 -119.14 -39.063 -134.765c-16.927 -32.553 -32.552 -63.152 -46.875 -91.797c-39.063 -87.24 -44.271 -162.761 -15.625 -226.563c0 0 0 0 0 0m99.609 623.047c0 -5.208 1.628 -9.44 4.883 -12.695c3.255 -3.256 7.487 -4.883 12.696 -4.883c0 0 208.984 0 208.984 0c3.906 0 7.487 1.627 10.742 4.883c3.255 3.255 4.883 7.487 4.883 12.695c0 0 0 35.156 0 35.156c0 5.209 -1.628 9.44 -4.883 12.696c-3.255 3.255 -6.836 4.882 -10.742 4.882c0 0 -208.985 0 -208.985 0c-11.718 0 -17.578 -5.859 -17.578 -17.578c0 0 0 -35.156 0 -35.156c0 0 0 0 0 0m0 -68.359c0 0 0 -35.157 0 -35.157c0 -11.718 5.86 -17.578 17.578 -17.578c0 0 208.985 0 208.985 0c3.906 0 7.487 1.628 10.742 4.883c3.255 3.255 4.883 7.487 4.883 12.695c0 0 0 35.157 0 35.157c0 5.208 -1.628 9.44 -4.883 12.695c-3.255 3.255 -6.836 4.883 -10.742 4.883c0 0 -208.985 0 -208.985 0c-5.208 0 -9.44 -1.628 -12.695 -4.883c-3.255 -3.255 -4.883 -7.487 -4.883 -12.695c0 0 0 0 0 0m93.75 -753.907c0 0 0 -89.843 0 -89.843c0 -10.417 2.605 -18.881 7.813 -25.391c5.208 -6.51 12.37 -9.766 21.484 -9.766c7.813 0 14.649 3.256 20.508 9.766c5.859 6.51 8.789 14.974 8.789 25.391c0 0 0 89.843 0 89.843c0 9.115 -2.93 16.927 -8.789 23.438c-5.859 6.51 -12.695 9.766 -20.508 9.766c-9.114 0 -16.276 -3.256 -21.484 -9.766c-5.208 -6.511 -7.813 -14.323 -7.813 -23.438c0 0 0 0 0 0m193.36 52.735c-1.302 -9.115 0.651 -17.578 5.859 -25.391c0 0 48.828 -76.172 48.828 -76.172c6.511 -7.812 13.672 -13.021 21.485 -15.625c7.812 -2.604 15.625 -1.953 23.437 1.953c6.511 5.209 10.417 12.045 11.719 20.508c1.302 8.464 -0.651 17.253 -5.86 26.367c0 0 -48.828 76.172 -48.828 76.172c-6.51 7.813 -13.672 12.696 -21.484 14.649c-7.813 1.953 -15.299 0.976 -22.461 -2.93c-7.161 -3.906 -11.393 -10.417 -12.695 -19.531c0 0 0 0 0 0m117.187 338.867c1.302 -8.464 5.534 -14.974 12.696 -19.531c7.161 -4.558 15.299 -6.185 24.414 -4.883c0 0 89.843 15.625 89.843 15.625c9.115 1.302 16.602 5.208 22.461 11.719c5.86 6.51 8.138 13.672 6.836 21.484c-1.302 9.115 -5.534 15.951 -12.695 20.508c-7.162 4.557 -15.951 6.185 -26.367 4.883c0 0 -89.844 -13.672 -89.844 -13.672c-9.115 -1.302 -16.276 -5.534 -21.484 -12.696c-5.209 -7.161 -7.162 -14.974 -5.86 -23.437c0 0 0 0 0 0m8.789 -186.524c-3.255 -7.812 -2.929 -15.625 0.977 -23.437c3.906 -7.813 9.765 -13.672 17.578 -17.578c0 0 83.984 -35.156 83.984 -35.156c7.813 -5.209 15.951 -6.511 24.414 -3.907c8.464 2.605 14.649 7.813 18.555 15.625c3.906 7.813 3.906 15.951 0 24.414c-3.906 8.464 -10.417 13.998 -19.531 16.602c0 0 -82.031 39.063 -82.031 39.063c-9.115 2.604 -17.904 2.604 -26.368 0c-8.463 -2.605 -14.322 -7.813 -17.578 -15.625c0 0 0 0 0 0" />
  </g>
</svg>