<svg height="1000px" width="1000px" xmlns="http://www.w3.org/2000/svg">
  <g>
    <path d="M0 500c0 -138.021 48.828 -255.859 146.484 -353.516c97.657 -97.656 215.495 -146.484 353.516 -146.484c138.021 0 255.859 48.828 353.516 146.484c97.656 97.657 146.484 215.495 146.484 353.516c0 138.021 -48.828 255.859 -146.484 353.516c-97.657 97.656 -215.495 146.484 -353.516 146.484c-138.021 0 -255.859 -48.828 -353.516 -146.484c-97.656 -97.657 -146.484 -215.495 -146.484 -353.516c0 0 0 0 0 0m224.609 25.391c1.302 5.208 4.232 9.44 8.789 12.695c4.558 3.255 9.441 4.883 14.649 4.883c0 0 56.64 -9.766 56.64 -9.766c6.511 -1.302 11.394 -3.906 14.649 -7.812c3.255 -3.907 4.883 -8.464 4.883 -13.672c-1.302 -5.209 -4.558 -9.766 -9.766 -13.672c-2.604 -1.302 -6.51 -1.953 -11.719 -1.953c0 0 -3.906 0 -3.906 0c0 0 -56.64 9.765 -56.64 9.765c-5.209 0 -9.766 1.953 -13.672 5.86c-3.907 3.906 -5.209 8.463 -3.907 13.672c0 0 0 0 0 0m0.977 -170.899c-1.953 4.557 -1.628 9.44 0.977 14.649c2.604 5.208 6.51 9.114 11.718 11.718c0 0 50.782 21.485 50.782 21.485c6.51 2.604 12.369 3.255 17.578 1.953c5.208 -1.302 8.463 -4.557 9.765 -9.766c2.604 -5.208 2.604 -10.091 0 -14.648c-2.604 -4.557 -6.51 -8.138 -11.718 -10.742c0 0 -50.782 -23.438 -50.782 -23.438c-2.604 -1.302 -5.859 -1.953 -9.765 -1.953c0 0 -5.86 0 -5.86 0c-6.51 2.604 -10.742 6.185 -12.695 10.742c0 0 0 0 0 0m100.586 -114.258c-1.302 5.209 0 10.417 3.906 15.625c0 0 31.25 46.875 31.25 46.875c2.604 5.209 6.836 8.789 12.695 10.743c5.86 1.953 10.743 0.976 14.649 -2.93c3.906 -2.604 6.185 -6.511 6.836 -11.719c0.651 -5.208 -0.326 -10.417 -2.93 -15.625c0 0 -31.25 -48.828 -31.25 -48.828c-2.604 -5.208 -6.51 -8.464 -11.719 -9.766c0 0 -5.859 0 -5.859 0c-3.906 0 -7.161 0.651 -9.766 1.953c-3.906 3.907 -6.51 8.464 -7.812 13.672c0 0 0 0 0 0m44.922 291.016c10.416 22.135 20.182 41.667 29.297 58.594c6.51 14.323 11.067 26.692 13.672 37.109c1.302 5.208 2.929 13.021 4.882 23.438c1.953 10.416 4.232 18.88 6.836 25.39c1.302 3.906 4.558 6.511 9.766 7.813c0 0 128.906 0 128.906 0c3.906 -1.302 7.162 -3.907 9.766 -7.813c2.604 -6.51 4.883 -15.95 6.836 -28.32c1.953 -12.37 3.58 -19.206 4.883 -20.508c2.604 -10.417 7.161 -22.786 13.671 -37.109c0 0 29.297 -58.594 29.297 -58.594c24.74 -54.688 27.995 -102.214 9.766 -142.578c-7.813 -15.625 -18.229 -28.971 -31.25 -40.039c-13.021 -11.068 -28.971 -19.531 -47.852 -25.391c-18.88 -5.859 -38.737 -8.789 -59.57 -8.789c0 0 -1.953 0 -1.953 0c-41.667 0 -76.823 11.068 -105.469 33.203c-49.479 49.479 -56.641 110.677 -21.484 183.594c0 0 0 0 0 0m52.734 271.484c0 6.511 3.255 9.766 9.766 9.766c0 0 132.812 0 132.812 0c6.511 0 9.766 -3.255 9.766 -9.766c0 0 0 -23.437 0 -23.437c0 -6.511 -3.255 -9.766 -9.766 -9.766c0 0 -132.812 0 -132.812 0c-6.511 0 -9.766 3.255 -9.766 9.766c0 0 0 23.437 0 23.437c0 0 0 0 0 0m0 -64.453c0 6.511 3.255 9.766 9.766 9.766c0 0 132.812 0 132.812 0c6.511 0 9.766 -3.255 9.766 -9.766c0 0 0 -23.437 0 -23.437c0 -6.511 -3.255 -9.766 -9.766 -9.766c0 0 -132.812 0 -132.812 0c-6.511 0 -9.766 3.255 -9.766 9.766c0 0 0 23.437 0 23.437c0 0 0 0 0 0m58.594 -472.656c0 5.208 1.627 10.091 4.883 14.648c3.255 4.558 7.812 6.836 13.672 6.836c5.859 0 10.416 -2.278 13.671 -6.836c3.256 -4.557 4.883 -9.44 4.883 -14.648c0 0 0 -56.641 0 -56.641c0 -6.51 -1.627 -11.718 -4.883 -15.625c-3.255 -3.906 -7.487 -5.859 -12.695 -5.859c0 0 -1.953 0 -1.953 0c-5.208 0 -9.115 1.953 -11.719 5.859c-3.906 3.907 -5.859 9.115 -5.859 15.625c0 0 0 56.641 0 56.641c0 0 0 0 0 0m122.07 33.203c0.651 5.208 2.93 9.115 6.836 11.719c3.906 3.906 8.789 4.883 14.649 2.93c5.859 -1.954 10.091 -5.534 12.695 -10.743c0 0 31.25 -46.875 31.25 -46.875c6.51 -11.718 5.208 -21.484 -3.906 -29.297c-2.605 -1.302 -5.86 -1.953 -9.766 -1.953c0 0 -5.859 0 -5.859 0c-5.209 1.302 -9.115 4.558 -11.719 9.766c0 0 -31.25 48.828 -31.25 48.828c-2.604 5.208 -3.581 10.417 -2.93 15.625c0 0 0 0 0 0m71.289 212.891c0 5.208 1.628 9.765 4.883 13.672c3.255 3.906 8.138 6.51 14.648 7.812c0 0 56.641 9.766 56.641 9.766c5.208 0 10.091 -1.628 14.649 -4.883c4.557 -3.255 7.487 -7.487 8.789 -12.695c1.302 -5.209 0 -9.766 -3.907 -13.672c-3.906 -3.906 -8.463 -5.86 -13.672 -5.86c0 0 -56.64 -9.765 -56.64 -9.765c0 0 -5.86 0 -5.86 0c-3.906 0 -7.161 0.651 -9.765 1.953c-5.208 3.906 -8.464 8.463 -9.766 13.672c0 0 0 0 0 0m7.813 -117.188c1.302 5.209 4.557 8.464 9.765 9.766c5.209 1.302 11.068 0.651 17.578 -1.953c0 0 50.782 -21.485 50.782 -21.485c5.208 -2.604 9.114 -6.51 11.718 -11.718c2.605 -5.209 2.93 -10.092 0.977 -14.649c-1.953 -4.557 -6.185 -8.138 -12.695 -10.742c0 0 -5.86 0 -5.86 0c-3.906 0 -7.161 0.651 -9.765 1.953c0 0 -50.782 23.438 -50.782 23.438c-5.208 2.604 -9.114 6.185 -11.718 10.742c-2.604 4.557 -2.604 9.44 0 14.648c0 0 0 0 0 0" />
  </g>
</svg>