<svg height="1000px" width="1000px" xmlns="http://www.w3.org/2000/svg">
  <g>
    <path d="M0 1000c0 0 0 -1000 0 -1000c0 0 1000 0 1000 0c0 0 0 1000 0 1000c0 0 -1000 0 -1000 0c0 0 0 0 0 0m164.063 -728.516c1.302 22.136 9.765 40.039 25.39 53.711c15.625 13.672 33.203 21.159 52.735 22.461c0 0 1.953 0 1.953 0c23.437 -1.302 42.968 -9.114 58.593 -23.437c15.625 -14.323 23.438 -31.901 23.438 -52.735c-1.302 -22.135 -9.766 -40.039 -25.391 -53.711c-15.625 -13.671 -33.854 -20.507 -54.687 -20.507c-23.438 0 -42.969 7.161 -58.594 21.484c-15.625 14.323 -23.437 31.901 -23.437 52.734c0 0 0 0 0 0m7.812 568.36c0 0 144.531 0 144.531 0c0 0 0 -433.594 0 -433.594c0 0 -144.531 0 -144.531 0c0 0 0 433.594 0 433.594c0 0 0 0 0 0m224.609 0c0 0 144.532 0 144.532 0c0 0 0 -242.188 0 -242.188c0 -15.625 1.302 -27.344 3.906 -35.156c18.229 -35.156 42.969 -52.734 74.219 -52.734c48.177 1.302 72.265 33.854 72.265 97.656c0 0 0 232.422 0 232.422c0 0 144.532 0 144.532 0c0 0 0 -248.047 0 -248.047c-1.303 -65.104 -16.928 -114.583 -46.875 -148.438c-31.25 -31.25 -70.964 -47.526 -119.141 -48.828c-35.156 1.302 -63.802 9.766 -85.938 25.391c-14.323 10.417 -28.645 26.042 -42.968 46.875c0 0 0 -60.547 0 -60.547c0 0 -144.532 0 -144.532 0c1.302 11.719 1.954 35.156 1.954 70.312c0 59.896 -0.652 180.99 -1.954 363.282c0 0 0 0 0 0" />
  </g>
</svg>