<svg height="1000px" width="1000px" xmlns="http://www.w3.org/2000/svg">
  <g>
    <path d="M0 726.5625c0 0 0 -179.688 0 -179.688c0 0 179.688 0 179.688 0c0 0 0 179.688 0 179.688c0 0 -179.688 0 -179.688 0c0 0 0 0 0 0m0 -273.438c0 0 0 -179.687 0 -179.687c0 0 179.688 0 179.688 0c0 0 0 179.688 0 179.688c0 0 -179.688 0 -179.688 0c0 0 0 0 0 0m0 -273.438c0 0 0 -179.688 0 -179.688c0 0 179.688 0 179.688 0c0 0 0 179.688 0 179.688c0 0 -179.688 0 -179.688 0c0 0 0 0 0 0m265.625 546.875c0 0 0 -179.688 0 -179.688c0 0 734.375 0 734.375 0c0 0 0 179.688 0 179.688c0 0 -734.375 0 -734.375 0c0 0 0 0 0 0m0 -273.438c0 0 0 -179.687 0 -179.687c0 0 734.375 0 734.375 0c0 0 0 179.688 0 179.688c0 0 -734.375 0 -734.375 0c0 0 0 0 0 0m0 -273.438c0 0 0 -179.688 0 -179.688c0 0 734.375 0 734.375 0c0 0 0 179.688 0 179.688c0 0 -734.375 0 -734.375 0c0 0 0 0 0 0" />
  </g>
</svg>