<svg height="1000" width="1000" xmlns="http://www.w3.org/2000/svg"><path d="M0 499.968q0 -207.018 146.475 -353.493t353.493 -146.475 353.493 146.475 146.475 353.493 -146.475 353.493 -353.493 146.475 -353.493 -146.475 -146.475 -353.493zm249.984 -82.026q0 82.026 35.154 128.898l214.83 283.185 214.83 -283.185q35.154 -46.872 35.154 -128.898 0 -103.509 -73.237 -175.77t-176.746 -72.261 -176.746 72.261 -73.237 175.77zm144.522 .977q0 -43.943 31.248 -74.214t74.214 -30.271 74.214 30.271 31.248 74.214 -31.248 74.214 -74.214 30.271 -74.214 -30.271 -31.248 -74.214z"/></svg>