<svg height="1000px" width="1000px" xmlns="http://www.w3.org/2000/svg">
  <g>
    <path d="M123.046875 376.953125c0 -104.167 36.784 -193.034 110.352 -266.602c73.567 -73.567 162.434 -110.351 266.601 -110.351c104.167 0 193.034 36.784 266.602 110.351c73.567 73.568 110.351 162.435 110.351 266.602c0 82.031 -17.578 146.484 -52.734 193.359c0 0 -324.219 429.688 -324.219 429.688c0 0 -324.219 -429.688 -324.219 -429.688c-35.156 -46.875 -52.734 -111.328 -52.734 -193.359c0 0 0 0 0 0m218.75 0c0 44.271 15.299 81.706 45.898 112.305c30.599 30.599 68.034 45.898 112.305 45.898c44.271 0 81.706 -15.299 112.305 -45.898c30.599 -30.599 45.898 -68.034 45.898 -112.305c0 -44.271 -15.299 -81.706 -45.898 -112.305c-30.599 -30.599 -68.034 -45.898 -112.305 -45.898c-44.271 0 -81.706 15.299 -112.305 45.898c-30.599 30.599 -45.898 68.034 -45.898 112.305c0 0 0 0 0 0" />
  </g>
</svg>