<svg height="1000px" width="1000px" xmlns="http://www.w3.org/2000/svg">
  <g>
    <path d="M0 500c0 -138.021 48.828 -255.859 146.484 -353.516c97.657 -97.656 215.495 -146.484 353.516 -146.484c138.021 0 255.859 48.828 353.516 146.484c97.656 97.657 146.484 215.495 146.484 353.516c0 138.021 -48.828 255.859 -146.484 353.516c-97.657 97.656 -215.495 146.484 -353.516 146.484c-138.021 0 -255.859 -48.828 -353.516 -146.484c-97.656 -97.657 -146.484 -215.495 -146.484 -353.516c0 0 0 0 0 0m250 -82.031c0 54.687 11.719 97.656 35.156 128.906c0 0 214.844 283.203 214.844 283.203c0 0 214.844 -283.203 214.844 -283.203c23.437 -31.25 35.156 -74.219 35.156 -128.906c0 -69.011 -24.414 -127.604 -73.242 -175.781c-48.828 -48.178 -107.748 -72.266 -176.758 -72.266c-69.01 0 -127.93 24.088 -176.758 72.266c-48.828 48.177 -73.242 106.77 -73.242 175.781c0 0 0 0 0 0m144.531 0.976c0 -29.297 10.417 -54.036 31.25 -74.218c20.834 -20.183 45.573 -30.274 74.219 -30.274c28.646 0 53.385 10.091 74.219 30.274c20.833 20.182 31.25 44.921 31.25 74.218c0 29.297 -10.417 54.037 -31.25 74.219c-20.834 20.182 -45.573 30.274 -74.219 30.274c-28.646 0 -53.385 -10.092 -74.219 -30.274c-20.833 -20.182 -31.25 -44.922 -31.25 -74.219c0 0 0 0 0 0" />
  </g>
</svg>