<svg height="1000px" width="1000px" xmlns="http://www.w3.org/2000/svg">
  <g>
    <path d="M42.96875 1000c0 0 0 -578.125 0 -578.125c0 0 138.672 0 138.672 0c-1.302 -110.677 7.161 -187.5 25.391 -230.469c26.041 -58.593 64.778 -105.143 116.21 -139.648c51.433 -34.505 107.748 -51.758 168.946 -51.758c62.5 0 119.791 17.904 171.875 53.711c52.083 35.807 90.495 81.706 115.234 137.695c16.927 39.063 25.391 79.427 25.391 121.094c0 0 0 109.375 0 109.375c0 0 150.39 0 150.39 0c0 0 0 578.125 0 578.125c0 0 -912.109 0 -912.109 0c0 0 0 0 0 0m322.266 -578.125c0 0 255.859 0 255.859 0c0 0 0 -109.375 0 -109.375c0 0 0 -1.953 0 -1.953c-1.302 -35.156 -13.997 -64.779 -38.086 -88.867c-24.088 -24.089 -54.362 -36.784 -90.82 -38.086c-35.156 -1.302 -64.128 10.091 -86.914 34.179c-22.787 24.089 -36.133 55.665 -40.039 94.727c0 0 0 109.375 0 109.375c0 0 0 0 0 0" />
  </g>
</svg>