<svg height="1000" width="1000" xmlns="http://www.w3.org/2000/svg"><path d="M0 499.968q0 -207.018 146.475 -353.493t353.493 -146.475 353.493 146.475 146.475 353.493 -146.475 353.493 -353.493 146.475 -353.493 -146.475 -146.475 -353.493zm257.796 224.595l484.344 0l0 -304.668l-302.715 0l0 -78.12q0 -27.342 19.53 -46.872t48.825 -19.53q27.342 -1.953 45.895 16.601t20.506 47.849l97.65 0q-1.953 -66.402 -49.802 -116.204t-114.251 -45.895q-70.308 1.953 -115.227 47.849t-50.778 116.204l0 78.12l-83.979 0l0 304.668z"/></svg>