<svg height="1000px" width="1000px" xmlns="http://www.w3.org/2000/svg">
  <g>
    <path d="M0 500c0 -138.021 48.828 -255.859 146.484 -353.516c97.657 -97.656 215.495 -146.484 353.516 -146.484c138.021 0 255.859 48.828 353.516 146.484c97.656 97.657 146.484 215.495 146.484 353.516c0 138.021 -48.828 255.859 -146.484 353.516c-97.657 97.656 -215.495 146.484 -353.516 146.484c-138.021 0 -255.859 -48.828 -353.516 -146.484c-97.656 -97.657 -146.484 -215.495 -146.484 -353.516c0 0 0 0 0 0m257.813 224.609c0 0 484.375 0 484.375 0c0 0 0 -304.687 0 -304.687c0 0 -302.735 0 -302.735 0c0 0 0 -78.125 0 -78.125c0 -18.229 6.511 -33.854 19.531 -46.875c13.021 -13.021 29.297 -19.531 48.829 -19.531c18.229 -1.302 33.528 4.231 45.898 16.601c12.37 12.37 19.206 28.32 20.508 47.852c0 0 97.656 0 97.656 0c-1.302 -44.271 -17.904 -83.008 -49.805 -116.211c-31.901 -33.203 -69.987 -48.503 -114.258 -45.899c-46.875 1.302 -85.286 17.253 -115.234 47.852c-29.948 30.599 -46.875 69.336 -50.781 116.211c0 0 0 78.125 0 78.125c0 0 -83.985 0 -83.985 0c0 0 0 304.687 0 304.687c0 0 0 0 0 0" />
  </g>
</svg>