<svg height="1000px" width="1000px" xmlns="http://www.w3.org/2000/svg">
  <g>
    <path d="M58.59375 1000c0 0 0 -558.594 0 -558.594c0 0 152.344 0 152.344 0c0 0 0 -138.672 0 -138.672c1.302 -84.635 30.599 -156.25 87.89 -214.843c27.344 -26.042 59.245 -47.201 95.704 -63.477c36.458 -16.276 76.171 -24.414 119.14 -24.414c82.031 1.302 152.344 30.599 210.938 87.891c57.291 58.593 87.239 128.255 89.843 208.984c0 0 -177.734 0 -177.734 0c-1.302 -31.25 -13.672 -58.594 -37.109 -82.031c-24.74 -23.438 -53.386 -35.808 -85.938 -37.11c-35.156 1.302 -64.453 13.672 -87.89 37.11c-24.74 26.041 -37.11 55.338 -37.11 87.89c0 0 0 138.672 0 138.672c0 0 552.735 0 552.735 0c0 0 0 558.594 0 558.594c0 0 -882.813 0 -882.813 0c0 0 0 0 0 0" />
  </g>
</svg>