<svg height="1000" width="1000" xmlns="http://www.w3.org/2000/svg"><path d="M0 500.032q0-207.018 146.475-353.493t353.493-146.475 353.493 146.475 146.475 353.493-146.475 353.493-353.493 146.475-353.493-146.475-146.475-353.493zm251.937 271.467l496.062 0l0-314.433l-82.026 0l0-58.59q0-33.201-13.671-66.402-19.53-44.919-62.496-74.214t-93.744-29.295-91.791 28.319-62.496 75.191q-15.624 35.154-13.671 124.992l-76.167 0l0 314.433zm175.77-314.433l0-58.59q1.953-31.248 19.53-49.802t44.919-20.506l3.906 0q29.295 1.953 48.825 21.483t21.483 48.825l0 58.59l-138.663 0z"/></svg>