<svg height="1000px" width="1000px" xmlns="http://www.w3.org/2000/svg">
  <g>
    <path d="M0 500c0 -138.021 48.828 -255.859 146.484 -353.516c97.657 -97.656 215.495 -146.484 353.516 -146.484c138.021 0 255.859 48.828 353.516 146.484c97.656 97.657 146.484 215.495 146.484 353.516c0 138.021 -48.828 255.859 -146.484 353.516c-97.657 97.656 -215.495 146.484 -353.516 146.484c-138.021 0 -255.859 -48.828 -353.516 -146.484c-97.656 -97.657 -146.484 -215.495 -146.484 -353.516c0 0 0 0 0 0m251.953 271.484c0 0 496.094 0 496.094 0c0 0 0 -314.453 0 -314.453c0 0 -82.031 0 -82.031 0c0 0 0 -58.594 0 -58.594c0 -22.135 -4.558 -44.27 -13.672 -66.406c-13.021 -29.948 -33.854 -54.687 -62.5 -74.219c-28.646 -19.531 -59.896 -29.296 -93.75 -29.296c-33.854 0 -64.453 9.44 -91.797 28.32c-27.344 18.88 -48.177 43.945 -62.5 75.195c-10.417 23.438 -14.974 65.104 -13.672 125c0 0 -76.172 0 -76.172 0c0 0 0 314.453 0 314.453c0 0 0 0 0 0m175.781 -314.453c0 0 0 -58.594 0 -58.594c1.302 -20.833 7.813 -37.434 19.532 -49.804c11.718 -12.37 26.692 -19.206 44.921 -20.508c0 0 3.907 0 3.907 0c19.531 1.302 35.807 8.464 48.828 21.484c13.021 13.021 20.182 29.297 21.484 48.828c0 0 0 58.594 0 58.594c0 0 -138.672 0 -138.672 0c0 0 0 0 0 0" />
  </g>
</svg>