<svg height="1000px" width="1000px" xmlns="http://www.w3.org/2000/svg">
  <g>
    <path d="M33.203125 437.5c0 -121.094 45.573 -224.284 136.719 -309.57c91.146 -85.287 200.846 -127.93 329.101 -127.93c128.256 0 237.956 42.643 329.102 127.93c91.146 85.286 136.719 188.476 136.719 309.57c0 13.021 -0.651 26.042 -1.954 39.063c0 0 -9.765 191.406 -9.765 191.406c0 0 -292.969 -23.438 -292.969 -23.438c0 0 7.813 -193.359 7.813 -193.359c1.302 -3.906 1.953 -8.464 1.953 -13.672c0 -44.271 -16.602 -82.031 -49.805 -113.281c-33.203 -31.25 -73.242 -46.875 -120.117 -46.875c-46.875 0 -87.24 15.625 -121.094 46.875c-33.854 31.25 -50.781 69.01 -50.781 113.281c0 3.906 0.651 8.464 1.953 13.672c0 0 9.766 193.359 9.766 193.359c0 0 -294.922 23.438 -294.922 23.438c0 0 -9.766 -191.407 -9.766 -191.407c-1.302 -13.02 -1.953 -26.041 -1.953 -39.062c0 0 0 0 0 0m23.437 345.703c0 0 292.969 -25.39 292.969 -25.39c0 0 17.578 187.5 17.578 187.5c1.302 9.114 -1.302 16.927 -7.812 23.437c-6.511 6.51 -14.323 10.417 -23.438 11.719c0 0 -224.609 17.578 -224.609 17.578c-10.417 1.302 -19.206 -0.977 -26.367 -6.836c-7.162 -5.859 -10.742 -13.346 -10.742 -22.461c0 0 -17.579 -185.547 -17.579 -185.547m574.219 162.11c0 0 17.578 -187.5 17.578 -187.5c0 0 294.922 25.39 294.922 25.39c0 0 -17.578 185.547 -17.578 185.547c-1.302 9.115 -5.534 16.602 -12.695 22.461c-7.162 5.859 -15.3 8.138 -24.414 6.836c0 0 -226.563 -17.578 -226.563 -17.578c-9.114 -1.302 -16.601 -5.209 -22.461 -11.719c-5.859 -6.51 -8.789 -14.323 -8.789 -23.438c0 0 0 0 0 0" />
  </g>
</svg>