<svg height="1000" width="932" xmlns="http://www.w3.org/2000/svg"><path d="M0 438.472q0 -181.629 136.71 -309.55t329.081 -127.922 329.081 127.922 136.71 309.55q0 19.53 -1.953 39.06l-9.765 191.394 -292.95 -23.436 7.812 -193.347q1.953 -5.859 1.953 -13.671 0 -66.402 -49.802 -113.274t-120.11 -46.872 -121.086 46.872 -50.778 113.274q0 5.859 1.953 13.671l9.765 193.347 -294.903 23.436 -9.765 -191.394q-1.953 -19.53 -1.953 -39.06zm23.436 345.681l292.95 -25.389 17.577 187.488q1.953 13.671 -7.812 23.436t-23.436 11.718l-224.595 17.577q-15.624 1.953 -26.366 -6.836t-10.742 -22.46zm574.182 162.099l17.577 -187.488 294.903 25.389 -17.577 185.535q-1.953 13.671 -12.694 22.46t-24.413 6.836l-226.548 -17.577q-13.671 -1.953 -22.46 -11.718t-8.789 -23.436z"/></svg>