<svg height="1000px" width="1000px" xmlns="http://www.w3.org/2000/svg">
  <g>
    <path d="M0 878.90625c0 0 324.219 -341.797 324.219 -341.797c0 0 175.781 99.61 175.781 99.61c0 0 175.781 -99.61 175.781 -99.61c0 0 324.219 341.797 324.219 341.797c0 0 -1000 0 -1000 0c0 0 0 0 0 0m0 -113.281c0 0 0 -414.063 0 -414.063c0 0 253.906 146.485 253.906 146.485c0 0 -253.906 267.578 -253.906 267.578m0 -503.907c0 0 0 -140.625 0 -140.625c0 0 1000 0 1000 0c0 0 0 140.625 0 140.625c0 0 -500 285.157 -500 285.157c0 0 -500 -285.157 -500 -285.157m746.094 236.329c0 0 253.906 -146.485 253.906 -146.485c0 0 0 414.063 0 414.063c0 0 -253.906 -267.578 -253.906 -267.578" />
  </g>
</svg>