<svg height="1000px" width="1000px" xmlns="http://www.w3.org/2000/svg">
  <g>
    <path d="M0 500c0 -138.021 48.828 -255.859 146.484 -353.516c97.657 -97.656 215.495 -146.484 353.516 -146.484c138.021 0 255.859 48.828 353.516 146.484c97.656 97.657 146.484 215.495 146.484 353.516c0 138.021 -48.828 255.859 -146.484 353.516c-97.657 97.656 -215.495 146.484 -353.516 146.484c-138.021 0 -255.859 -48.828 -353.516 -146.484c-97.656 -97.657 -146.484 -215.495 -146.484 -353.516c0 0 0 0 0 0m244.141 193.359c0 0 511.718 0 511.718 0c0 0 -166.015 -173.828 -166.015 -173.828c0 0 -89.844 50.781 -89.844 50.781c0 0 -89.844 -50.781 -89.844 -50.781c0 0 -166.015 173.828 -166.015 173.828m0 -58.593c0 0 130.859 -136.719 130.859 -136.719c0 0 -130.859 -74.219 -130.859 -74.219c0 0 0 210.938 0 210.938c0 0 0 0 0 0m0 -255.86c0 0 255.859 144.531 255.859 144.531c0 0 255.859 -144.531 255.859 -144.531c0 0 0 -72.265 0 -72.265c0 0 -511.718 0 -511.718 0c0 0 0 72.265 0 72.265c0 0 0 0 0 0m380.859 119.141c0 0 130.859 136.719 130.859 136.719c0 0 0 -210.938 0 -210.938c0 0 -130.859 74.219 -130.859 74.219" />
  </g>
</svg>