<svg height="1000px" width="1000px" xmlns="http://www.w3.org/2000/svg">
  <g>
    <path d="M3.90625 640.625c0 -98.958 34.831 -183.594 104.492 -253.906c69.662 -70.313 154.623 -105.469 254.883 -105.469c70.313 0 135.417 18.88 195.313 56.641c0 0 199.218 -199.219 199.218 -199.219c0 0 -152.343 0 -152.343 0c0 0 0 -138.672 0 -138.672c0 0 390.625 0 390.625 0c0 0 0 195.312 0 195.312c0 0 0 195.313 0 195.313c0 0 -140.625 0 -140.625 0c0 0 0 -150.391 0 -150.391c0 0 -195.313 197.266 -195.313 197.266c41.667 61.198 62.5 128.906 62.5 203.125c0 98.958 -35.156 183.594 -105.469 253.906c-70.312 70.313 -155.273 105.469 -254.883 105.469c-99.609 0 -184.244 -35.156 -253.906 -105.469c-69.661 -70.312 -104.492 -154.948 -104.492 -253.906c0 0 0 0 0 0m144.531 -0.977c0 59.245 20.834 110.026 62.5 152.344c41.667 42.318 92.123 63.477 151.367 63.477c59.245 0 110.026 -21.159 152.344 -63.477c42.318 -42.318 63.477 -93.099 63.477 -152.344c0 -59.244 -21.159 -109.7 -63.477 -151.367c-42.318 -41.666 -93.099 -62.5 -152.344 -62.5c-59.244 0 -109.7 20.834 -151.367 62.5c-41.666 41.667 -62.5 92.123 -62.5 151.367c0 0 0 0 0 0" />
  </g>
</svg>