<svg height="1000" width="992" xmlns="http://www.w3.org/2000/svg"><path d="M0 640.584q0 -148.428 104.486 -253.89t254.867 -105.462q105.462 0 195.3 56.637l199.206 -199.206l-152.334 0l0 -138.663l390.6 0l0 390.6l-140.616 0l0 -150.381l-195.3 197.253q62.496 91.791 62.496 203.112 0 148.428 -105.462 253.89t-254.867 105.462 -253.89 -105.462 -104.486 -253.89zm144.522 -.977q0 88.862 62.496 152.334t151.358 63.473 152.334 -63.473 63.473 -152.334 -63.473 -151.358 -152.334 -62.496 -151.358 62.496 -62.496 151.358z"/></svg>