<svg height="1000px" width="1000px" xmlns="http://www.w3.org/2000/svg">
  <g>
    <path d="M0 505.859375c0 0 0 -123.047 0 -123.047c1.302 -23.437 10.091 -43.294 26.367 -59.57c16.276 -16.276 35.482 -24.414 57.617 -24.414c0 0 269.532 0 269.532 0c92.448 -5.209 183.268 -26.693 272.461 -64.453c89.192 -37.761 165.69 -88.542 229.492 -152.344c23.437 1.302 42.969 10.091 58.594 26.367c15.625 16.276 23.437 35.482 23.437 57.617c0 0 0 199.219 0 199.219c18.229 5.208 33.203 15.299 44.922 30.273c11.719 14.974 17.578 31.576 17.578 49.805c-1.302 19.531 -7.487 36.458 -18.555 50.781c-11.067 14.323 -25.716 23.438 -43.945 27.344c0 0 0 201.172 0 201.172c-1.302 23.437 -10.091 42.969 -26.367 58.594c-16.276 15.625 -34.831 23.437 -55.664 23.437c-138.021 -122.396 -287.761 -192.708 -449.219 -210.937c-44.271 22.135 -62.174 64.453 -53.711 126.953c8.464 62.5 34.18 110.026 77.148 142.578c-18.229 31.25 -50.13 48.503 -95.703 51.758c-45.573 3.255 -80.729 -6.836 -105.468 -30.274c-10.417 -29.948 -18.555 -55.013 -24.414 -75.195c-5.86 -20.182 -11.394 -43.945 -16.602 -71.289c-5.208 -27.344 -7.487 -53.385 -6.836 -78.125c0.651 -24.74 4.232 -48.828 10.742 -72.266c0 0 -107.422 0 -107.422 0c-23.437 -1.302 -43.294 -10.091 -59.57 -26.367c-16.276 -16.276 -24.414 -35.482 -24.414 -57.617c0 0 0 0 0 0m437.5 9.766c160.156 29.948 300.13 91.145 419.922 183.593c0 0 0 -507.812 0 -507.812c-135.417 100.26 -275.391 160.807 -419.922 181.64c0 0 0 142.579 0 142.579c0 0 0 0 0 0" />
  </g>
</svg>