<svg height="1000" width="1000" xmlns="http://www.w3.org/2000/svg"><path d="M0 505.802l0 -123.039q1.953 -35.154 26.366 -59.567t57.614 -24.413l269.514 0q138.663 -7.812 272.444 -64.449t229.478 -152.334q35.154 1.953 58.59 26.366t23.436 57.614l0 199.206q27.342 7.812 44.919 30.271t17.577 49.802q-1.953 29.295 -18.553 50.778t-43.943 27.342l0 201.159q-1.953 35.154 -26.366 58.59t-55.66 23.436q-207.018 -183.582 -449.19 -210.924 -66.402 33.201 -53.708 126.945t77.144 142.569q-27.342 46.872 -95.697 51.755t-105.462 -30.271q-15.624 -44.919 -24.413 -75.191t-16.601 -71.285 -6.836 -78.12 10.742 -72.261l-107.415 0q-35.154 -1.953 -59.567 -26.366t-24.413 -57.614zm437.472 9.765q240.219 44.919 419.895 183.582l0 -507.78q-203.112 150.381 -419.895 181.629l0 142.569z"/></svg>