<svg height="1000" width="1000" xmlns="http://www.w3.org/2000/svg"><path d="M0 500.032q0-207.018 146.475-353.493t353.493-146.475 353.493 146.475 146.475 353.493-146.475 353.493-353.493 146.475-353.493-146.475-146.475-353.493zm283.185 142.569q19.53 17.577 42.966 31.248 52.731 35.154 115.227 46.872l0-21.483l117.18 0l0 21.483q62.496-11.718 115.227-46.872 23.436-13.671 42.966-31.248l0-183.582l-42.966 0l0 162.099q-76.167 62.496-173.817 62.496t-173.817-62.496l0-162.099l-42.966 0l0 183.582zm70.308-58.59q64.449 52.731 146.475 52.731t146.475-52.731l0-357.399q-19.53-15.624-44.919-27.342l0 72.261l-35.154 0l0-87.885q-23.436-5.859-48.825-7.812l0 95.697l-35.154 0l0-95.697q-25.389 0-48.825 7.812l0 87.885l-35.154 0l0-74.214q-25.389 13.671-44.919 29.295l0 357.399zm15.624 240.219l261.702 0l0-42.966l-72.261 0l0-60.543q-29.295 5.859-58.59 5.859t-58.59-5.859l0 60.543l-72.261 0l0 42.966z"/></svg>