<svg height="1000" width="668" xmlns="http://www.w3.org/2000/svg"><path d="M0 718.704l0 -281.232l64.449 0l0 248.031q119.133 95.697 269.514 95.697t269.514 -95.697l0 -248.031l64.449 0l0 281.232q-31.248 27.342 -64.449 50.778 -82.026 52.731 -177.723 70.308l0 -31.248l-183.582 0l0 31.248q-95.697 -17.577 -177.723 -70.308 -33.201 -23.436 -64.449 -50.778zm109.368 -89.838l0 -548.793q29.295 -25.389 68.355 -44.919l0 113.274l54.684 0l0 -134.757q37.107 -11.718 74.214 -13.671l0 148.428l54.684 0l0 -148.428q37.107 3.906 76.167 13.671l0 134.757l54.684 0l0 -111.321q37.107 17.577 66.402 42.966l0 548.793q-97.65 80.073 -224.595 80.073t-224.595 -80.073zm25.389 302.715l107.415 0l0 -91.791q44.919 7.812 91.791 7.812t91.791 -7.812l0 91.791l107.415 0l0 68.355l-398.412 0l0 -68.355z"/></svg>