<svg height="1000px" width="1000px" xmlns="http://www.w3.org/2000/svg">
  <g>
    <path d="M166.015625 718.75c0 0 0 -281.25 0 -281.25c0 0 64.453 0 64.453 0c0 0 0 248.047 0 248.047c79.427 63.802 169.271 95.703 269.531 95.703c100.261 0 190.105 -31.901 269.532 -95.703c0 0 0 -248.047 0 -248.047c0 0 64.453 0 64.453 0c0 0 0 281.25 0 281.25c-20.834 18.229 -42.318 35.156 -64.453 50.781c-54.688 35.157 -113.933 58.594 -177.735 70.313c0 0 0 -31.25 0 -31.25c0 0 -183.594 0 -183.594 0c0 0 0 31.25 0 31.25c-63.802 -11.719 -123.046 -35.156 -177.734 -70.313c-22.135 -15.625 -43.62 -32.552 -64.453 -50.781c0 0 0 0 0 0m109.375 -89.844c0 0 0 -548.828 0 -548.828c19.531 -16.927 42.318 -31.901 68.359 -44.922c0 0 0 113.282 0 113.282c0 0 54.688 0 54.688 0c0 0 0 -134.766 0 -134.766c24.739 -7.813 49.479 -12.37 74.219 -13.672c0 0 0 148.438 0 148.438c0 0 54.687 0 54.687 0c0 0 0 -148.438 0 -148.438c24.74 2.604 50.13 7.161 76.172 13.672c0 0 0 134.766 0 134.766c0 0 54.688 0 54.688 0c0 0 0 -111.329 0 -111.329c24.739 11.719 46.875 26.042 66.406 42.969c0 0 0 548.828 0 548.828c-65.104 53.386 -139.974 80.078 -224.61 80.078c-84.635 0 -159.505 -26.692 -224.609 -80.078c0 0 0 0 0 0m25.391 302.735c0 0 107.421 0 107.421 0c0 0 0 -91.797 0 -91.797c29.948 5.208 60.547 7.812 91.797 7.812c31.25 0 61.849 -2.604 91.797 -7.812c0 0 0 91.797 0 91.797c0 0 107.422 0 107.422 0c0 0 0 68.359 0 68.359c0 0 -107.422 0 -107.422 0c0 0 -183.594 0 -183.594 0c0 0 -107.421 0 -107.421 0c0 0 0 -68.359 0 -68.359c0 0 0 0 0 0" />
  </g>
</svg>