<svg height="1000px" width="1000px" xmlns="http://www.w3.org/2000/svg">
  <g>
    <path d="M0 500c0 0 171.875 -171.875 171.875 -171.875c0 0 0 119.141 0 119.141c0 0 275.391 0 275.391 0c0 0 0 -275.391 0 -275.391c0 0 -119.141 0 -119.141 0c0 0 171.875 -171.875 171.875 -171.875c0 0 171.875 171.875 171.875 171.875c0 0 -119.141 0 -119.141 0c0 0 0 275.391 0 275.391c0 0 275.391 0 275.391 0c0 0 0 -119.141 0 -119.141c0 0 171.875 171.875 171.875 171.875c0 0 -171.875 171.875 -171.875 171.875c0 0 0 -119.141 0 -119.141c0 0 -275.391 0 -275.391 0c0 0 0 275.391 0 275.391c0 0 119.141 0 119.141 0c0 0 -171.875 171.875 -171.875 171.875c0 0 -171.875 -171.875 -171.875 -171.875c0 0 119.141 0 119.141 0c0 0 0 -275.391 0 -275.391c0 0 -275.391 0 -275.391 0c0 0 0 119.141 0 119.141c0 0 -171.875 -171.875 -171.875 -171.875" />
  </g>
</svg>