<svg height="1000px" width="1000px" xmlns="http://www.w3.org/2000/svg">
  <g>
    <path d="M0.9765625 861.328125c-5.859 -37.76 6.51 -72.266 37.109 -103.516c30.599 -31.25 69.987 -50.13 118.164 -56.64c42.969 -6.511 82.683 -0.651 119.141 17.578c0 0 25.391 -652.344 25.391 -652.344c0 0 689.453 -52.734 689.453 -52.734c-20.834 484.375 -31.901 736.328 -33.203 755.859c-1.302 33.854 -16.602 64.128 -45.899 90.82c-29.297 26.693 -65.429 43.295 -108.398 49.805c-48.177 6.511 -91.146 -0.976 -128.906 -22.461c-37.761 -21.484 -59.245 -51.107 -64.454 -88.867c-5.208 -37.76 7.162 -72.591 37.11 -104.492c29.948 -31.901 69.01 -51.107 117.187 -57.617c45.573 -6.511 87.24 0.651 125 21.484c0 0 25.391 -464.844 25.391 -464.844c0 0 -539.063 54.688 -539.063 54.688c0 0 -5.859 130.859 -5.859 130.859c-3.906 87.24 -7.812 179.688 -11.719 277.344c-3.906 97.656 -6.51 156.25 -7.812 175.781c0 0 0 5.86 0 5.86c-3.906 33.854 -20.182 63.476 -48.828 88.867c-28.646 25.39 -64.453 41.341 -107.422 47.851c-46.875 6.511 -89.193 -1.302 -126.953 -23.437c-37.761 -22.136 -59.571 -52.084 -65.43 -89.844c0 0 0 0 0 0" />
  </g>
</svg>