<svg height="1000" width="991" xmlns="http://www.w3.org/2000/svg"><path d="M1.413 866.102q-8.789 -56.637 37.107 -103.509t118.157 -56.637q64.449 -9.765 119.133 17.577l25.389 -652.302 689.409 -52.731q-31.248 726.516 -33.201 755.811 -1.953 50.778 -45.895 90.815t-108.392 49.802q-72.261 9.765 -128.898 -22.46t-64.449 -88.862 37.107 -104.486 117.18 -57.614q68.355 -9.765 124.992 21.483l25.389 -464.814 -539.028 54.684 -5.859 130.851q-5.859 130.851 -11.718 277.326t-7.812 175.77l0 5.859q-5.859 50.778 -48.825 88.862t-107.415 47.849q-70.308 9.765 -126.945 -23.436t-65.425 -89.838z"/></svg>