<svg height="1000" width="930" xmlns="http://www.w3.org/2000/svg"><path d="M.001 466.831l0-3.906q232.407-19.53 367.164-115.227 42.966 19.53 85.932-1.953 91.791 91.791 191.394 123.039 11.718 29.295 37.107 46.872-31.248 76.167-85.932 134.757-41.013-29.295-86.909-13.671t-63.473 58.59q-130.851 0-249.984-54.684t-193.347-152.334q-1.953-5.859-1.953-21.483zm5.859-70.308q19.53-126.945 99.603-225.572t197.253-141.593q7.812 83.979 37.107 154.287-50.778 52.731-21.483 117.18-130.851 80.073-312.48 95.697zm13.671 207.018q87.885 76.167 199.206 118.157t224.595 41.989q-138.663 70.308-271.467 62.496-109.368-89.838-152.334-222.642zm251.937 285.138q113.274-15.624 212.877-72.261 46.872 25.389 93.744 3.906t58.59-70.308q156.24-33.201 263.655-121.086-37.107 91.791-106.439 161.123t-154.287 104.486-181.629 35.154-186.512-41.013zm97.65-878.85q87.885-19.53 179.676-1.953-29.295 83.979-91.791 162.099-41.013-17.577-54.684-11.718-33.201-80.073-33.201-148.428zm128.898 287.091q15.624-39.06 1.953-76.167 83.979-103.509 113.274-195.3 60.543 19.53 107.415 52.731 17.577 132.804 3.906 255.843-60.543 9.765-82.026 64.449-68.355-25.389-144.522-101.556zm164.052 378.882q52.731-62.496 83.979-144.522 46.872-5.859 72.261-41.013 76.167-5.859 111.321-11.718 0 5.859-.977 14.648t-.977 12.694q-95.697 124.992-265.608 169.911zm128.898-326.151q11.718-111.321 3.906-210.924 111.321 115.227 130.851 271.467-39.06 9.765-89.838 11.718-5.859-46.872-44.919-72.261z"/></svg>