<svg height="1000px" width="1000px" xmlns="http://www.w3.org/2000/svg">
  <g>
    <path d="M0 466.796875c0 0 0 -3.906 0 -3.906c154.948 -13.021 277.344 -51.433 367.188 -115.235c28.645 13.021 57.291 12.37 85.937 -1.953c61.198 61.198 125 102.214 191.406 123.047c7.813 19.531 20.183 35.156 37.11 46.875c-20.834 50.781 -49.48 95.703 -85.938 134.766c-27.344 -19.531 -56.315 -24.089 -86.914 -13.672c-30.599 10.417 -51.758 29.948 -63.476 58.594c-87.24 0 -170.573 -18.23 -250 -54.688c-79.428 -36.458 -143.881 -87.239 -193.36 -152.344c-1.302 -3.906 -1.953 -11.067 -1.953 -21.484c0 0 0 0 0 0m5.859 -70.313c13.021 -84.635 46.224 -159.83 99.61 -225.585c53.385 -65.756 119.14 -112.956 197.265 -141.602c5.209 55.99 17.579 107.422 37.11 154.297c-33.854 35.156 -41.016 74.219 -21.485 117.187c-87.239 53.386 -191.406 85.287 -312.5 95.704c0 0 0 0 0 0m13.672 207.031c58.594 50.781 125 90.169 199.219 118.164c74.219 27.995 149.089 41.992 224.609 41.992c-92.448 46.875 -182.942 67.708 -271.484 62.5c-72.917 -59.896 -123.698 -134.115 -152.344 -222.656c0 0 0 0 0 0m251.953 285.156c75.521 -10.417 146.485 -34.505 212.891 -72.266c31.25 16.927 62.5 18.23 93.75 3.907c31.25 -14.323 50.781 -37.761 58.594 -70.313c104.166 -22.135 192.057 -62.5 263.672 -121.094c-24.74 61.198 -60.222 114.909 -106.446 161.133c-46.224 46.224 -97.656 81.055 -154.297 104.492c-56.64 23.438 -117.187 35.157 -181.64 35.157c-64.453 0 -126.628 -13.672 -186.524 -41.016c0 0 0 0 0 0m97.657 -878.906c58.593 -13.021 118.489 -13.672 179.687 -1.953c-19.531 55.989 -50.13 110.026 -91.797 162.109c-27.343 -11.719 -45.573 -15.625 -54.687 -11.719c-22.136 -53.385 -33.203 -102.864 -33.203 -148.437c0 0 0 0 0 0m128.906 287.109c10.417 -26.042 11.068 -51.432 1.953 -76.172c55.99 -69.01 93.75 -134.114 113.281 -195.312c40.365 13.021 76.172 30.599 107.422 52.734c11.719 88.542 13.021 173.828 3.906 255.859c-40.364 6.511 -67.708 27.995 -82.031 64.454c-45.573 -16.927 -93.75 -50.782 -144.531 -101.563c0 0 0 0 0 0m164.062 378.906c35.157 -41.666 63.151 -89.843 83.985 -144.531c31.25 -3.906 55.338 -17.578 72.265 -41.016c50.782 -3.906 87.891 -7.812 111.329 -11.718c0 3.906 -0.326 8.789 -0.977 14.648c-0.651 5.86 -0.977 10.091 -0.977 12.695c-63.802 83.334 -152.343 139.974 -265.625 169.922c0 0 0 0 0 0m128.907 -326.172c7.812 -74.218 9.114 -144.531 3.906 -210.937c74.219 76.823 117.838 167.318 130.859 271.484c-26.041 6.511 -55.989 10.417 -89.843 11.719c-3.907 -31.25 -18.881 -55.338 -44.922 -72.266c0 0 0 0 0 0" />
  </g>
</svg>