<svg height="1000px" width="1000px" xmlns="http://www.w3.org/2000/svg">
  <g>
    <path d="M0 500c0 -138.021 48.828 -255.859 146.484 -353.516c0 0 101.563 101.563 101.563 101.563c-70.313 69.01 -105.469 152.995 -105.469 251.953c0 98.958 34.831 183.268 104.492 252.93c69.662 69.661 153.972 104.492 252.93 104.492c98.958 0 183.268 -34.831 252.93 -104.492c69.661 -69.662 104.492 -153.972 104.492 -252.93c0 -98.958 -35.156 -182.943 -105.469 -251.953c0 0 101.563 -101.563 101.563 -101.563c97.656 97.657 146.484 215.495 146.484 353.516c0 138.021 -48.828 255.859 -146.484 353.516c-97.657 97.656 -215.495 146.484 -353.516 146.484c-138.021 0 -255.859 -48.828 -353.516 -146.484c-97.656 -97.657 -146.484 -215.495 -146.484 -353.516c0 0 0 0 0 0m427.734 78.125c0 0 0 -578.125 0 -578.125c0 0 144.532 0 144.532 0c0 0 0 578.125 0 578.125c0 0 -144.532 0 -144.532 0c0 0 0 0 0 0" />
  </g>
</svg>