<svg height="1000px" width="1000px" xmlns="http://www.w3.org/2000/svg">
  <g>
    <path d="M0 500c0 -138.021 48.828 -255.859 146.484 -353.516c97.657 -97.656 215.495 -146.484 353.516 -146.484c138.021 0 255.859 48.828 353.516 146.484c97.656 97.657 146.484 215.495 146.484 353.516c0 138.021 -48.828 255.859 -146.484 353.516c-97.657 97.656 -215.495 146.484 -353.516 146.484c-138.021 0 -255.859 -48.828 -353.516 -146.484c-97.656 -97.657 -146.484 -215.495 -146.484 -353.516c0 0 0 0 0 0m181.641 56.641c0 0 105.468 105.468 105.468 105.468c0 0 103.516 103.516 103.516 103.516c0 0 103.516 -103.516 103.516 -103.516c0 0 324.218 -324.218 324.218 -324.218c0 0 -103.515 -103.516 -103.515 -103.516c0 0 -324.219 324.219 -324.219 324.219c0 0 -105.469 -105.469 -105.469 -105.469c0 0 -103.515 103.516 -103.515 103.516" />
  </g>
</svg>