<svg height="1000px" width="1000px" xmlns="http://www.w3.org/2000/svg">
  <g>
    <path d="M35.15625 384.765625c2.604 -114.583 46.224 -207.031 130.859 -277.344c89.844 -70.312 201.172 -106.12 333.985 -107.422c139.323 2.605 251.302 37.761 335.937 105.469c41.667 35.156 73.242 77.474 94.727 126.953c21.484 49.479 32.877 100.261 34.179 152.344c-2.604 109.375 -44.27 197.266 -125 263.672c-84.635 66.406 -194.661 100.26 -330.078 101.562c0 0 0 60.547 0 60.547c-1.302 37.761 -12.369 72.266 -33.203 103.516c-20.833 31.25 -47.526 54.687 -80.078 70.312c-22.135 10.417 -46.224 15.625 -72.266 15.625c-31.25 0 -62.5 -7.812 -93.75 -23.437c0 0 0 -173.828 0 -173.828c27.344 19.531 52.735 26.041 76.172 19.531c22.136 -9.115 33.203 -25.391 33.203 -48.828c0 0 0 -480.469 0 -480.469c0 0 169.922 0 169.922 0c0 0 0 298.828 0 298.828c39.063 0 76.172 -3.906 111.328 -11.718c53.386 -13.021 95.053 -32.553 125 -58.594c39.063 -37.761 58.594 -83.334 58.594 -136.719c0 -76.823 -31.901 -135.417 -95.703 -175.781c-58.594 -33.854 -128.255 -50.781 -208.984 -50.781c-84.636 2.604 -154.948 20.833 -210.938 54.687c-29.948 19.531 -53.06 44.596 -69.336 75.195c-16.276 30.599 -24.414 62.826 -24.414 96.68c5.209 70.313 20.834 117.839 46.875 142.578c0 0 -107.422 115.235 -107.422 115.235c-31.25 -31.25 -55.989 -71.615 -74.218 -121.094c-15.625 -52.084 -24.089 -97.657 -25.391 -136.719c0 0 0 0 0 0" />
  </g>
</svg>