<svg height="1000" width="930" xmlns="http://www.w3.org/2000/svg"><path d="M0 384.805q3.906-171.864 130.851-277.326 134.757-105.462 333.963-107.415 208.971 3.906 335.916 105.462 62.496 52.731 94.721 126.945t34.178 152.334q-3.906 164.052-124.992 263.655-126.945 99.603-330.057 101.556l0 60.543q-1.953 56.637-33.201 103.509t-80.073 70.308q-33.201 15.624-72.261 15.624-46.872 0-93.744-23.436l0-173.817q41.013 29.295 76.167 19.53 33.201-13.671 33.201-48.825l0-480.438l169.911 0l0 298.809q58.59 0 111.321-11.718 80.073-19.53 124.992-58.59 58.59-56.637 58.59-136.71 0-115.227-95.697-175.77-87.885-50.778-208.971-50.778-126.945 3.906-210.924 54.684-44.919 29.295-69.332 75.191t-24.413 96.674q7.812 105.462 46.872 142.569l-107.415 115.227q-46.872-46.872-74.214-121.086-23.436-78.12-25.389-136.71z"/></svg>