<svg height="1000px" width="1000px" xmlns="http://www.w3.org/2000/svg">
  <g>
    <path d="M0 988.28125c0 0 68.359 -343.75 68.359 -343.75c0 0 273.438 273.438 273.438 273.438c0 0 -341.797 70.312 -341.797 70.312m136.719 -392.578c0 0 421.875 -421.875 421.875 -421.875c0 0 259.765 259.765 259.765 259.765c0 0 -421.875 421.875 -421.875 421.875c0 0 -259.765 -259.765 -259.765 -259.765m531.25 -494.141c1.302 -26.041 11.719 -48.828 31.25 -68.359c19.531 -19.531 42.317 -29.948 68.359 -31.25c26.042 -1.302 48.177 7.161 66.406 25.39c0 0 130.86 130.86 130.86 130.86c16.927 16.927 25.065 38.737 24.414 65.43c-0.651 26.692 -10.742 49.804 -30.274 69.335c-19.531 19.532 -42.643 29.623 -69.336 30.274c-26.692 0.651 -48.502 -7.487 -65.429 -24.414c0 0 -130.86 -130.86 -130.86 -130.86c-18.229 -18.229 -26.692 -40.364 -25.39 -66.406c0 0 0 0 0 0" />
  </g>
</svg>