<svg height="1000" width="1059" xmlns="http://www.w3.org/2000/svg"><path d="M0 500.032q0-207.018 146.475-353.493t353.493-146.475 353.493 146.475 146.475 353.493-146.475 353.493-353.493 146.475-353.493-146.475-146.475-353.493zm173.817 287.091l218.736-42.966-175.77-175.77zm85.932-249.984l167.958 166.005 269.514-271.467-166.005-166.005zm341.775-316.386q-1.953 25.389 15.624 41.013l83.979 83.979q17.577 17.577 42.966 16.601t43.943-19.53 19.53-43.943-16.601-42.966l-83.979-83.979q-15.624-15.624-39.06-15.624-27.342 0-46.872 19.53-17.577 19.53-19.53 44.919z"/></svg>