<svg height="1000px" width="1000px" xmlns="http://www.w3.org/2000/svg">
  <g>
    <path d="M0 500c0 -138.021 48.828 -255.859 146.484 -353.516c97.657 -97.656 215.495 -146.484 353.516 -146.484c138.021 0 255.859 48.828 353.516 146.484c97.656 97.657 146.484 215.495 146.484 353.516c0 138.021 -48.828 255.859 -146.484 353.516c-97.657 97.656 -215.495 146.484 -353.516 146.484c-138.021 0 -255.859 -48.828 -353.516 -146.484c-97.656 -97.657 -146.484 -215.495 -146.484 -353.516c0 0 0 0 0 0m173.828 287.109c0 0 218.75 -42.968 218.75 -42.968c0 0 -175.781 -175.782 -175.781 -175.782c0 0 -42.969 218.75 -42.969 218.75m85.938 -250c0 0 167.968 166.016 167.968 166.016c0 0 269.532 -271.484 269.532 -271.484c0 0 -166.016 -166.016 -166.016 -166.016c0 0 -271.484 271.484 -271.484 271.484m341.796 -316.406c-1.302 16.927 3.907 30.599 15.625 41.016c0 0 83.985 83.984 83.985 83.984c11.719 11.719 26.042 17.253 42.969 16.602c16.927 -0.651 31.575 -7.162 43.945 -19.532c12.37 -12.369 18.88 -27.018 19.531 -43.945c0.651 -16.927 -4.883 -31.25 -16.601 -42.969c0 0 -83.985 -83.984 -83.985 -83.984c-10.416 -10.417 -23.437 -15.625 -39.062 -15.625c-18.229 0 -33.854 6.51 -46.875 19.531c-11.719 13.021 -18.229 27.995 -19.532 44.922c0 0 0 0 0 0" />
  </g>
</svg>