<svg height="1000" width="396" xmlns="http://www.w3.org/2000/svg"><path d="M0 612.025l0 -275.373q0 -70.308 46.872 -95.697 17.577 -7.812 41.013 -7.812l207.018 0q23.436 0 42.966 7.812 58.59 29.295 58.59 95.697l0 275.373q-3.906 31.248 -30.271 28.319t-28.319 -28.319l0 -261.702q-1.953 -9.765 -17.577 -7.812t-15.624 7.812l0 599.571q-3.906 27.342 -25.389 36.13t-41.989 -3.906 -20.506 -34.178l0 -365.211q-3.906 -17.577 -21.483 -14.648t-17.577 14.648l0 365.211q-1.953 29.295 -24.413 38.084t-41.989 -2.929 -21.483 -33.201l0 -599.571q-3.906 -9.765 -17.577 -7.812t-15.624 7.812l0 261.702q-3.906 31.248 -30.271 28.319t-26.366 -28.319zm101.556 -504.851q0 -40.037 28.319 -68.355t68.355 -28.319 68.355 28.319 28.319 68.355 -28.319 68.355 -68.355 28.319 -68.355 -28.319 -28.319 -68.355z"/></svg>