<svg height="1000px" width="1000px" xmlns="http://www.w3.org/2000/svg">
  <g>
    <path d="M291.015625 601.5625c0 0 0 -275.391 0 -275.391c0 -46.875 15.625 -78.776 46.875 -95.703c11.719 -5.208 25.391 -7.812 41.016 -7.812c0 0 207.031 0 207.031 0c15.625 0 29.948 2.604 42.969 7.812c39.062 19.532 58.593 51.433 58.593 95.703c0 0 0 275.391 0 275.391c-2.604 20.833 -12.695 30.273 -30.273 28.32c-17.578 -1.953 -27.018 -11.393 -28.32 -28.32c0 0 0 -261.719 0 -261.719c-1.302 -6.51 -7.162 -9.114 -17.578 -7.812c-10.417 1.302 -15.625 3.906 -15.625 7.812c0 0 0 599.61 0 599.61c-2.605 18.229 -11.068 30.273 -25.391 36.132c-14.323 5.86 -28.32 4.558 -41.992 -3.906c-13.672 -8.463 -20.508 -19.857 -20.508 -34.18c0 0 0 -365.234 0 -365.234c-2.604 -11.719 -9.766 -16.601 -21.485 -14.648c-11.718 1.953 -17.578 6.836 -17.578 14.648c0 0 0 365.234 0 365.234c-1.302 19.532 -9.44 32.227 -24.414 38.086c-14.974 5.86 -28.971 4.883 -41.992 -2.929c-13.021 -7.813 -20.182 -18.88 -21.484 -33.203c0 0 0 -599.61 0 -599.61c-2.604 -6.51 -8.464 -9.114 -17.578 -7.812c-9.115 1.302 -14.323 3.906 -15.625 7.812c0 0 0 261.719 0 261.719c-2.605 20.833 -12.696 30.273 -30.274 28.32c-17.578 -1.953 -26.367 -11.393 -26.367 -28.32c0 0 0 0 0 0m101.562 -504.883c0 -26.693 9.441 -49.479 28.321 -68.359c18.88 -18.88 41.666 -28.321 68.359 -28.321c26.693 0 49.479 9.441 68.36 28.321c18.88 18.88 28.32 41.666 28.32 68.359c0 26.693 -9.44 49.479 -28.32 68.36c-18.881 18.88 -41.667 28.32 -68.36 28.32c-26.693 0 -49.479 -9.44 -68.359 -28.32c-18.88 -18.881 -28.321 -41.667 -28.321 -68.36c0 0 0 0 0 0" />
  </g>
</svg>