<svg height="1000px" width="1000px" xmlns="http://www.w3.org/2000/svg">
  <g>
    <path d="M1.953125 222.65625c0 -33.854 9.115 -59.245 27.344 -76.172c0 0 138.672 -138.672 138.672 -138.672c29.948 -24.739 55.338 -20.182 76.172 13.672c0 0 113.281 210.938 113.281 210.938c11.719 26.041 7.161 49.479 -13.672 70.312c0 0 -50.781 52.735 -50.781 52.735c-3.907 3.906 -5.86 8.463 -5.86 13.671c16.927 65.105 61.198 130.209 132.813 195.313c0 0 30.273 30.273 30.273 30.273c0 0 12.044 11.068 36.133 33.203c24.089 22.136 35.482 30.925 34.18 26.368c-1.302 -4.558 12.369 3.906 41.015 25.39c28.646 21.485 41.993 26.042 40.039 13.672c13.021 3.906 22.136 3.255 27.344 -1.953c0 0 60.547 -60.547 60.547 -60.547c26.042 -19.531 50.13 -23.437 72.266 -11.719c0 0 203.125 121.094 203.125 121.094c14.323 9.115 22.461 21.485 24.414 37.11c1.953 15.625 -2.279 28.645 -12.696 39.062c0 0 -140.625 138.672 -140.625 138.672c-18.229 18.229 -42.968 27.344 -74.218 27.344c-93.75 -2.605 -199.87 -42.969 -318.36 -121.094c-171.875 -123.698 -296.875 -259.115 -375 -406.25c-48.177 -100.261 -70.312 -177.735 -66.406 -232.422c0 0 0 0 0 0" />
  </g>
</svg>