<svg height="1000px" width="1000px" xmlns="http://www.w3.org/2000/svg">
  <g>
    <path d="M0 500c0 -138.021 48.828 -255.859 146.484 -353.516c97.657 -97.656 215.495 -146.484 353.516 -146.484c138.021 0 255.859 48.828 353.516 146.484c97.656 97.657 146.484 215.495 146.484 353.516c0 138.021 -48.828 255.859 -146.484 353.516c-97.657 97.656 -215.495 146.484 -353.516 146.484c-138.021 0 -255.859 -48.828 -353.516 -146.484c-97.656 -97.657 -146.484 -215.495 -146.484 -353.516c0 0 0 0 0 0m199.219 -162.109c-2.604 33.854 11.067 81.38 41.015 142.578c46.875 88.541 123.047 171.224 228.516 248.047c71.615 46.875 136.068 70.963 193.359 72.265c19.532 0 35.157 -5.208 46.875 -15.625c0 0 83.985 -85.937 83.985 -85.937c6.51 -6.511 9.114 -14.323 7.812 -23.438c-1.302 -9.114 -6.51 -16.927 -15.625 -23.437c0 0 -123.047 -72.266 -123.047 -72.266c-13.02 -7.812 -27.994 -5.859 -44.922 5.859c0 0 -35.156 37.11 -35.156 37.11c-3.906 3.906 -9.765 4.557 -17.578 1.953c-7.812 -1.302 -15.95 -3.906 -24.414 -7.813c-8.463 -3.906 -16.927 -9.114 -25.391 -15.625c-8.463 -6.51 -15.299 -12.044 -20.507 -16.601c-5.209 -4.557 -12.37 -11.393 -21.485 -20.508c-9.114 -9.114 -15.625 -14.974 -19.531 -17.578c-42.969 -40.365 -69.661 -80.078 -80.078 -119.141c0 -2.604 1.302 -5.859 3.906 -9.765c0 0 31.25 -31.25 31.25 -31.25c11.719 -11.719 14.323 -26.042 7.813 -42.969c0 0 -68.36 -128.906 -68.36 -128.906c-7.812 -11.719 -16.927 -16.927 -27.344 -15.625c-6.51 0 -13.02 2.604 -19.531 7.812c0 0 -83.984 85.938 -83.984 85.938c-11.719 10.416 -17.578 25.39 -17.578 44.922c0 0 0 0 0 0" />
  </g>
</svg>