<svg height="1000" width="1000" xmlns="http://www.w3.org/2000/svg"><path d="M0 499.968q0 -207.018 146.475 -353.493t353.493 -146.475 353.493 146.475 146.475 353.493 -146.475 353.493 -353.493 146.475 -353.493 -146.475 -146.475 -353.493zm199.206 -162.099q-3.906 50.778 41.013 142.569 70.308 132.804 228.501 248.031 107.415 70.308 193.347 72.261 29.295 0 46.872 -15.624l83.979 -85.932q9.765 -9.765 7.812 -23.436t-15.624 -23.436l-123.039 -72.261q-19.53 -11.718 -44.919 5.859l-35.154 37.107q-5.859 5.859 -17.577 1.953 -11.718 -1.953 -24.413 -7.812t-25.389 -15.624 -20.506 -16.601 -21.483 -20.506 -19.53 -17.577q-64.449 -60.543 -80.073 -119.133 0 -3.906 3.906 -9.765l31.248 -31.248q17.577 -17.577 7.812 -42.966l-68.355 -128.898q-11.718 -17.577 -27.342 -15.624 -9.765 0 -19.53 7.812l-83.979 85.932q-17.577 15.624 -17.577 44.919z"/></svg>