<svg height="1000px" width="1000px" xmlns="http://www.w3.org/2000/svg">
  <g>
    <path d="M0 500c1.302 -93.75 26.693 -180.013 76.172 -258.789c49.479 -78.776 114.583 -138.997 195.312 -180.664c0 0 189.453 169.922 189.453 169.922c0 0 -443.359 398.437 -443.359 398.437c-11.719 -44.271 -17.578 -87.239 -17.578 -128.906c0 0 0 0 0 0m35.156 183.594c0 0 207.031 -185.547 207.031 -185.547c0 0 0 425.781 0 425.781c-96.354 -61.198 -165.364 -141.276 -207.031 -240.234c0 0 0 0 0 0m259.766 267.578c0 0 0 -236.328 0 -236.328c0 0 654.297 0 654.297 0c-39.063 78.125 -94.727 141.927 -166.992 191.406c-72.266 49.479 -151.368 78.125 -237.305 85.938c-89.844 6.51 -173.177 -7.162 -250 -41.016c0 0 0 0 0 0m29.297 -914.063c62.5 -20.833 121.093 -31.25 175.781 -31.25c71.615 0 139.974 14.974 205.078 44.922c0 0 0 330.078 0 330.078c0 0 -380.859 -343.75 -380.859 -343.75m435.547 625c0 0 0 -583.984 0 -583.984c74.218 46.875 132.812 107.747 175.781 182.617c42.969 74.87 64.453 154.623 64.453 239.258c0 57.292 -9.766 111.328 -29.297 162.109c0 0 -210.937 0 -210.937 0c0 0 0 0 0 0" />
  </g>
</svg>