<svg height="1000" width="1381" xmlns="http://www.w3.org/2000/svg"><path d="M0 500.032q1.953-140.616 76.167-258.773t195.3-180.653l189.441 169.911-443.331 398.412q-17.577-66.402-17.577-128.898zm35.154 183.582l207.018-185.535l0 425.754q-144.522-91.791-207.018-240.219zm259.749 267.561l0-236.313l654.255 0q-58.59 117.18-166.982 191.394t-237.29 85.932q-134.757 9.765-249.984-41.013zm29.295-914.004q93.744-31.248 175.77-31.248 107.415 0 205.065 44.919l0 330.057zm435.519 624.96l0-583.947q111.321 70.308 175.77 182.606t64.449 239.243q0 85.932-29.295 162.099l-210.924 0z"/></svg>