<svg height="1000px" width="1000px" xmlns="http://www.w3.org/2000/svg">
  <g>
    <path d="M0 917.96875c0 0 0 -835.938 0 -835.938c0 0 1000 0 1000 0c0 0 0 835.938 0 835.938c0 0 -1000 0 -1000 0c0 0 0 0 0 0m76.172 -78.125c0 0 847.656 0 847.656 0c0 0 0 -679.688 0 -679.688c0 0 -847.656 0 -847.656 0c0 0 0 679.688 0 679.688c0 0 0 0 0 0m89.844 -80.078c0 0 0 -58.594 0 -58.594c0 0 150.39 -195.312 150.39 -195.312c0 0 101.563 85.937 101.563 85.937c0 0 193.359 -291.015 193.359 -291.015c0 0 222.656 228.515 222.656 228.515c0 0 0 230.469 0 230.469c0 0 -667.968 0 -667.968 0c0 0 0 0 0 0m0 -416.016c0 -24.739 8.138 -45.247 24.414 -61.523c16.276 -16.276 36.784 -24.414 61.523 -24.414c22.136 0 41.341 8.138 57.617 24.414c16.276 16.276 24.414 36.784 24.414 61.523c0 22.136 -8.138 41.341 -24.414 57.617c-16.276 16.276 -35.481 24.414 -57.617 24.414c-24.739 0 -45.247 -8.138 -61.523 -24.414c-16.276 -16.276 -24.414 -35.481 -24.414 -57.617c0 0 0 0 0 0" />
  </g>
</svg>