<svg height="1000px" width="1000px" xmlns="http://www.w3.org/2000/svg">
  <g>
    <path d="M0 500c2.604 -141.927 52.734 -260.417 150.391 -355.469c97.656 -95.052 214.192 -143.229 349.609 -144.531c145.833 2.604 265.299 52.409 358.398 149.414c93.099 97.005 140.3 213.867 141.602 350.586c-2.604 140.625 -52.734 258.789 -150.391 354.492c-97.656 95.703 -214.192 144.206 -349.609 145.508c-46.875 0 -93.75 -7.161 -140.625 -21.484c9.115 -14.323 18.229 -30.599 27.344 -48.828c10.416 -22.136 23.437 -63.803 39.062 -125c3.906 -16.928 9.766 -39.714 17.578 -68.36c9.115 15.625 24.74 29.948 46.875 42.969c58.594 27.344 120.443 24.739 185.547 -7.813c67.709 -39.062 114.584 -99.609 140.625 -181.64c23.438 -85.938 20.508 -165.69 -8.789 -239.258c-29.297 -73.568 -81.706 -126.628 -157.226 -159.18c-95.052 -27.343 -187.5 -24.414 -277.344 8.789c-89.844 33.203 -152.344 90.17 -187.5 170.899c-9.115 29.948 -14.649 59.57 -16.602 88.867c-1.953 29.297 -0.976 57.943 2.93 85.937c3.906 27.995 13.672 53.06 29.297 75.196c15.625 22.135 36.458 39.062 62.5 50.781c6.51 2.604 11.719 2.604 15.625 0c5.208 -2.604 10.417 -13.021 15.625 -31.25c5.208 -18.229 7.161 -30.599 5.859 -37.109c-1.302 -2.605 -3.906 -7.162 -7.812 -13.672c-27.344 -44.271 -36.459 -90.821 -27.344 -139.649c9.115 -48.828 29.297 -90.169 60.547 -124.023c48.177 -42.969 104.492 -66.406 168.945 -70.313c64.453 -3.906 119.466 13.672 165.039 52.735c24.74 28.646 40.69 63.151 47.852 103.515c7.161 40.365 7.161 79.102 0 116.211c-7.162 37.11 -19.857 71.94 -38.086 104.493c-32.552 50.781 -70.964 76.822 -115.234 78.125c-26.042 -1.303 -47.201 -11.394 -63.477 -30.274c-16.276 -18.88 -21.159 -40.69 -14.648 -65.43c2.604 -14.323 10.416 -42.317 23.437 -83.984c13.021 -41.667 20.182 -72.917 21.484 -93.75c-3.906 -49.479 -26.692 -74.87 -68.359 -76.172c-32.552 3.906 -56.641 18.555 -72.266 43.945c-15.625 25.391 -24.088 54.362 -25.39 86.915c3.906 37.76 9.765 63.802 17.578 78.125c-14.323 58.593 -25.391 105.468 -33.203 140.625c-2.604 9.114 -9.766 37.109 -21.485 83.984c-11.718 46.875 -18.229 82.682 -19.531 107.422c0 0 0 54.687 0 54.687c-92.448 -42.968 -165.364 -105.143 -218.75 -186.523c-53.385 -81.38 -80.078 -171.55 -80.078 -270.508c0 0 0 0 0 0" />
  </g>
</svg>