<svg height="1000" width="1000" xmlns="http://www.w3.org/2000/svg"><path d="M.001 499.968q3.906 -212.877 150.381 -355.446t349.587 -144.522q218.736 3.906 358.375 149.405t141.593 350.564q-3.906 210.924 -150.381 354.47t-349.587 145.499q-70.308 0 -140.616 -21.483 13.671 -21.483 27.342 -48.825 15.624 -33.201 39.06 -124.992 5.859 -25.389 17.577 -68.355 13.671 23.436 46.872 42.966 87.885 41.013 185.535 -7.812 101.556 -58.59 140.616 -181.629 35.154 -128.898 -8.789 -239.243t-157.216 -159.169q-142.569 -41.013 -277.326 8.789t-187.488 170.888q-13.671 44.919 -16.601 88.862t2.929 85.932 29.295 75.191 62.496 50.778q9.765 3.906 15.624 0 7.812 -3.906 15.624 -31.248t5.859 -37.107q-1.953 -3.906 -7.812 -13.671 -41.013 -66.402 -27.342 -139.639t60.543 -124.016q72.261 -64.449 168.935 -70.308t165.029 52.731q37.107 42.966 47.849 103.509t0 116.204 -38.084 104.486q-48.825 76.167 -115.227 78.12 -39.06 -1.953 -63.473 -30.271t-14.648 -65.425q3.906 -21.483 23.436 -83.979t21.483 -93.744q-5.859 -74.214 -68.355 -76.167 -48.825 5.859 -72.261 43.943t-25.389 86.909q5.859 56.637 17.577 78.12 -21.483 87.885 -33.201 140.616 -3.906 13.671 -21.483 83.979t-19.53 107.415l0 54.684q-138.663 -64.449 -218.736 -186.512t-80.073 -270.49z"/></svg>