<svg height="1000px" width="1000px" xmlns="http://www.w3.org/2000/svg">
  <g>
    <path d="M0 500c0 -138.021 48.828 -255.859 146.484 -353.516c97.657 -97.656 215.495 -146.484 353.516 -146.484c138.021 0 255.859 48.828 353.516 146.484c97.656 97.657 146.484 215.495 146.484 353.516c0 138.021 -48.828 255.859 -146.484 353.516c-97.657 97.656 -215.495 146.484 -353.516 146.484c-138.021 0 -255.859 -48.828 -353.516 -146.484c-97.656 -97.657 -146.484 -215.495 -146.484 -353.516c0 0 0 0 0 0m115.234 0c0 105.469 37.761 195.964 113.282 271.484c75.52 75.521 166.015 113.282 271.484 113.282c105.469 0 195.964 -37.761 271.484 -113.282c75.521 -75.52 113.282 -166.015 113.282 -271.484c0 -105.469 -37.761 -195.964 -113.282 -271.484c-75.52 -75.521 -166.015 -113.282 -271.484 -113.282c-105.469 0 -195.964 37.761 -271.484 113.282c-75.521 75.52 -113.282 166.015 -113.282 271.484c0 0 0 0 0 0m259.766 250c0 0 0 -500 0 -500c0 0 375 250 375 250c0 0 -375 250 -375 250" />
  </g>
</svg>