<svg height="1000px" width="1000px" xmlns="http://www.w3.org/2000/svg">
  <g>
    <path d="M0 681.640625c0 0 0 -304.688 0 -304.688c0 0 1000 0 1000 0c0 0 0 304.688 0 304.688c0 0 -154.297 0 -154.297 0c0 0 54.688 265.625 54.688 265.625c0 0 -800.782 0 -800.782 0c0 0 54.688 -265.625 54.688 -265.625c0 0 -154.297 0 -154.297 0c0 0 0 0 0 0m33.203 -361.328c0 0 234.375 -99.61 234.375 -99.61c0 0 39.063 0 39.063 0c0 0 0 -152.343 0 -152.343c0 0 386.718 0 386.718 0c0 0 0 152.343 0 152.343c0 0 39.063 0 39.063 0c0 0 234.375 99.61 234.375 99.61c0 0 -933.594 0 -933.594 0c0 0 0 0 0 0m130.86 552.734c0 0 671.875 0 671.875 0c0 0 -78.125 -380.859 -78.125 -380.859c0 0 -515.625 0 -515.625 0c0 0 -78.125 380.859 -78.125 380.859" />
  </g>
</svg>