<svg height="1000" width="1000" xmlns="http://www.w3.org/2000/svg"><path d="M0 1000l0-455.049l455.049 0l0 455.049l-455.049 0zm0-544.887l0-455.049l455.049 0l0 455.049l-455.049 0zm89.838 455.049l273.42 0l0-273.42l-273.42 0l0 273.42zm0-546.84l273.42 0l0-273.42l-273.42 0l0 273.42zm91.791 455.049l0-91.791l91.791 0l0 91.791l-91.791 0zm0-544.887l0-89.838l91.791 0l0 89.838l-91.791 0zm363.258 726.516l0-455.049l271.467 0l0 91.791l93.744 0l0-91.791l89.838 0l0 273.42l-273.42 0l0-89.838l-89.838 0l0 271.467l-91.791 0zm0-544.887l0-455.049l455.049 0l0 455.049l-455.049 0zm91.791-91.791l273.42 0l0-273.42l-273.42 0l0 273.42zm89.838 546.84l89.838 0l0 89.838l-89.838 0l0-89.838zm0-636.678l0-89.838l89.838 0l0 89.838l-89.838 0zm183.582 636.678l89.838 0l0 89.838l-89.838 0l0-89.838z"/></svg>