<svg height="1000px" width="1000px" xmlns="http://www.w3.org/2000/svg">
  <g>
    <path d="M0 1000c0 0 0 -455.078 0 -455.078c0 0 455.078 0 455.078 0c0 0 0 455.078 0 455.078c0 0 -455.078 0 -455.078 0c0 0 0 0 0 0m0 -544.922c0 0 0 -455.078 0 -455.078c0 0 455.078 0 455.078 0c0 0 0 455.078 0 455.078c0 0 -455.078 0 -455.078 0c0 0 0 0 0 0m89.844 455.078c0 0 273.437 0 273.437 0c0 0 0 -273.437 0 -273.437c0 0 -273.437 0 -273.437 0c0 0 0 273.437 0 273.437c0 0 0 0 0 0m0 -546.875c0 0 273.437 0 273.437 0c0 0 0 -273.437 0 -273.437c0 0 -273.437 0 -273.437 0c0 0 0 273.437 0 273.437c0 0 0 0 0 0m91.797 455.078c0 0 0 -91.796 0 -91.796c0 0 91.797 0 91.797 0c0 0 0 91.796 0 91.796c0 0 -91.797 0 -91.797 0c0 0 0 0 0 0m0 -544.921c0 0 0 -89.844 0 -89.844c0 0 91.797 0 91.797 0c0 0 0 89.844 0 89.844c0 0 -91.797 0 -91.797 0c0 0 0 0 0 0m363.281 726.562c0 0 0 -455.078 0 -455.078c0 0 271.484 0 271.484 0c0 0 0 91.797 0 91.797c0 0 93.75 0 93.75 0c0 0 0 -91.797 0 -91.797c0 0 89.844 0 89.844 0c0 0 0 273.437 0 273.437c0 0 -273.438 0 -273.438 0c0 0 0 -89.843 0 -89.843c0 0 -89.843 0 -89.843 0c0 0 0 271.484 0 271.484c0 0 -91.797 0 -91.797 0c0 0 0 0 0 0m0 -544.922c0 0 0 -455.078 0 -455.078c0 0 455.078 0 455.078 0c0 0 0 455.078 0 455.078c0 0 -455.078 0 -455.078 0c0 0 0 0 0 0m91.797 -91.797c0 0 273.437 0 273.437 0c0 0 0 -273.437 0 -273.437c0 0 -273.437 0 -273.437 0c0 0 0 273.437 0 273.437c0 0 0 0 0 0m89.843 546.875c0 0 89.844 0 89.844 0c0 0 0 89.844 0 89.844c0 0 -89.843 0 -89.843 0c0 0 0 -89.844 0 -89.844c0 0 0 0 0 0m0 -636.718c0 0 0 -89.844 0 -89.844c0 0 89.843 0 89.843 0c0 0 0 89.844 0 89.844c0 0 -89.843 0 -89.843 0c0 0 0 0 0 0m183.593 636.718c0 0 89.844 0 89.844 0c0 0 0 89.844 0 89.844c0 0 -89.844 0 -89.844 0c0 0 0 -89.844 0 -89.844c0 0 0 0 0 0" />
  </g>
</svg>