<svg height="1000" width="1000" xmlns="http://www.w3.org/2000/svg"><path d="M0 912.115l0-437.472q0-70.308 14.648-128.898t38.084-96.674 61.52-67.379 71.285-44.919 83.002-27.342 82.026-14.648 81.05-6.836l37.107 175.77q-48.825 9.765-81.05 20.506t-65.425 31.248-47.849 52.731-10.742 77.144l130.851 0l0 466.767l-394.506 0zm529.263 0l0-437.472q0-70.308 15.624-128.898t38.084-96.674 60.543-67.379 72.261-44.919 83.002-27.342 81.05-14.648 81.05-6.836l39.06 175.77q-50.778 9.765-83.002 20.506t-65.425 31.248-46.872 52.731-11.718 77.144l130.851 0l0 466.767l-394.506 0z"/></svg>