<svg height="1000" width="1000" xmlns="http://www.w3.org/2000/svg"><path d="M0 499.968q0 -207.018 146.475 -353.493t353.493 -146.475 353.493 146.475 146.475 353.493 -146.475 353.493 -353.493 146.475 -353.493 -146.475 -146.475 -353.493zm218.736 199.206l222.642 0l0 -261.702l-74.214 0q-3.906 -48.825 26.366 -69.332t88.862 -34.178l-21.483 -99.603q-39.06 3.906 -64.449 7.812t-62.496 17.577 -59.567 35.154 -39.06 62.496 -16.601 95.697l0 246.078zm298.809 0l222.642 0l0 -261.702l-74.214 0q-3.906 -48.825 26.366 -69.332t88.862 -34.178l-21.483 -99.603q-39.06 3.906 -64.449 7.812t-62.496 17.577 -59.567 35.154 -39.06 62.496 -16.601 95.697l0 246.078z"/></svg>