<svg height="1000px" width="1000px" xmlns="http://www.w3.org/2000/svg">
  <g>
    <path d="M3.90625 912.109375c0 0 0 -437.5 0 -437.5c0 -46.875 4.883 -89.844 14.648 -128.906c9.766 -39.063 22.461 -71.289 38.086 -96.68c15.625 -25.391 36.133 -47.851 61.524 -67.383c25.39 -19.531 49.153 -34.505 71.289 -44.922c22.135 -10.416 49.805 -19.531 83.008 -27.343c33.203 -7.813 60.547 -12.696 82.031 -14.649c21.484 -1.953 48.503 -4.232 81.055 -6.836c0 0 37.109 175.781 37.109 175.781c-32.552 6.511 -59.57 13.347 -81.055 20.508c-21.484 7.162 -43.294 17.578 -65.429 31.25c-22.136 13.672 -38.086 31.25 -47.852 52.735c-9.766 21.484 -13.346 47.2 -10.742 77.148c0 0 130.859 0 130.859 0c0 0 0 466.797 0 466.797c0 0 -394.531 0 -394.531 0c0 0 0 0 0 0m529.297 0c0 0 0 -437.5 0 -437.5c0 -46.875 5.208 -89.844 15.625 -128.906c10.417 -39.063 23.112 -71.289 38.086 -96.68c14.974 -25.391 35.156 -47.851 60.547 -67.383c25.39 -19.531 49.479 -34.505 72.265 -44.922c22.787 -10.416 50.456 -19.531 83.008 -27.343c32.552 -7.813 59.57 -12.696 81.055 -14.649c21.484 -1.953 48.502 -4.232 81.054 -6.836c0 0 39.063 175.781 39.063 175.781c-33.854 6.511 -61.523 13.347 -83.008 20.508c-21.484 7.162 -43.294 17.578 -65.429 31.25c-22.136 13.672 -37.761 31.25 -46.875 52.735c-9.115 21.484 -13.021 47.2 -11.719 77.148c0 0 130.859 0 130.859 0c0 0 0 466.797 0 466.797c0 0 -394.531 0 -394.531 0c0 0 0 0 0 0" />
  </g>
</svg>