<svg height="1000px" width="1000px" xmlns="http://www.w3.org/2000/svg">
  <g>
    <path d="M0 500c0 -138.021 48.828 -255.859 146.484 -353.516c97.657 -97.656 215.495 -146.484 353.516 -146.484c138.021 0 255.859 48.828 353.516 146.484c97.656 97.657 146.484 215.495 146.484 353.516c0 138.021 -48.828 255.859 -146.484 353.516c-97.657 97.656 -215.495 146.484 -353.516 146.484c-138.021 0 -255.859 -48.828 -353.516 -146.484c-97.656 -97.657 -146.484 -215.495 -146.484 -353.516c0 0 0 0 0 0m218.75 199.219c0 0 222.656 0 222.656 0c0 0 0 -261.719 0 -261.719c0 0 -74.219 0 -74.219 0c-2.604 -32.552 6.185 -55.664 26.368 -69.336c20.182 -13.672 49.804 -25.065 88.867 -34.18c0 0 -21.485 -99.609 -21.485 -99.609c-26.041 2.604 -47.526 5.208 -64.453 7.812c-16.927 2.605 -37.76 8.464 -62.5 17.579c-24.739 9.114 -44.596 20.833 -59.57 35.156c-14.974 14.323 -27.995 35.156 -39.062 62.5c-11.068 27.344 -16.602 59.245 -16.602 95.703c0 0 0 246.094 0 246.094c0 0 0 0 0 0m298.828 0c0 0 222.656 0 222.656 0c0 0 0 -261.719 0 -261.719c0 0 -74.218 0 -74.218 0c-2.605 -32.552 6.185 -55.664 26.367 -69.336c20.182 -13.672 49.805 -25.065 88.867 -34.18c0 0 -21.484 -99.609 -21.484 -99.609c-26.042 2.604 -47.526 5.208 -64.453 7.812c-16.928 2.605 -37.761 8.464 -62.5 17.579c-24.74 9.114 -44.597 20.833 -59.571 35.156c-14.974 14.323 -27.995 35.156 -39.062 62.5c-11.068 27.344 -16.602 59.245 -16.602 95.703c0 0 0 246.094 0 246.094c0 0 0 0 0 0" />
  </g>
</svg>