<svg height="1000px" width="1000px" xmlns="http://www.w3.org/2000/svg">
  <g>
    <path d="M0 500c0 -138.021 48.828 -255.859 146.484 -353.516c97.657 -97.656 215.495 -146.484 353.516 -146.484c138.021 0 255.859 48.828 353.516 146.484c97.656 97.657 146.484 215.495 146.484 353.516c0 138.021 -48.828 255.859 -146.484 353.516c-97.657 97.656 -215.495 146.484 -353.516 146.484c-138.021 0 -255.859 -48.828 -353.516 -146.484c-97.656 -97.657 -146.484 -215.495 -146.484 -353.516c0 0 0 0 0 0m250 0c0 69.01 24.414 127.93 73.242 176.758c48.828 48.828 107.748 73.242 176.758 73.242c69.01 0 127.93 -24.414 176.758 -73.242c48.828 -48.828 73.242 -107.748 73.242 -176.758c0 -69.01 -24.414 -127.93 -73.242 -176.758c-48.828 -48.828 -107.748 -73.242 -176.758 -73.242c-69.01 0 -127.93 24.414 -176.758 73.242c-48.828 48.828 -73.242 107.748 -73.242 176.758c0 0 0 0 0 0" />
  </g>
</svg>