<svg height="1000" width="1000" xmlns="http://www.w3.org/2000/svg"><path d="M.003 488.314q0-23.436 8.789-43.943t24.413-37.107 36.13-25.389 45.895-8.789q42.966 0 74.214 29.295 58.59-37.107 134.757-59.567t162.099-24.413l80.073-228.501 195.3 46.872q9.765-25.389 33.201-41.989t52.731-16.601q39.06 0 67.379 27.342t28.319 66.402-28.319 66.402-66.402 27.342-66.402-27.342-28.319-66.402l-164.052-39.06-66.402 185.535q83.979 3.906 156.24 26.366t128.898 57.614q33.201-29.295 76.167-29.295 23.436 0 44.919 8.789t37.107 25.389 24.413 37.107 8.789 43.943q0 31.248-14.648 56.637t-40.037 41.013q3.906 17.577 3.906 35.154 0 60.543-35.154 116.204t-96.674 96.674-143.546 64.449-175.77 23.436q-91.791 0-173.817-23.436t-143.546-64.449-96.674-96.674-35.154-116.204q0-9.765 1.953-19.53 0-9.765 1.953-17.577-23.436-15.624-38.084-40.037t-14.648-55.66zm85.932 132.804q0 54.684 32.224 102.532t87.885 83.979 131.828 56.637 161.123 20.506 160.146-20.506 131.828-56.637 88.862-83.979 32.224-102.532-32.224-103.509-88.862-84.956-131.828-56.637-160.146-20.506-161.123 20.506-131.828 56.637-87.885 84.956-32.224 103.509zm199.206-53.708q0-28.319 21.483-49.802t50.778-21.483 49.802 21.483 20.506 49.802-20.506 48.825-49.802 20.506-50.778-20.506-21.483-48.825zm52.731 165.029q11.718-9.765 33.201 7.812 5.859 5.859 12.694 9.765t14.648 6.836 12.694 4.883 13.671 3.906 12.694 2.929 14.648 2.929 13.671 1.953 15.624.977 16.601.977q76.167-3.906 132.804-35.154 21.483-19.53 35.154-7.812 9.765 17.577-11.718 35.154-58.59 44.919-156.24 44.919-105.462-1.953-152.334-44.919-25.389-19.53-7.812-35.154zm242.172-166.005q0-29.295 20.506-49.802t50.778-20.506 50.778 20.506 20.506 49.802-20.506 49.802-50.778 20.506-50.778-20.506-20.506-49.802z"/></svg>