<svg height="1000px" width="1000px" xmlns="http://www.w3.org/2000/svg">
  <g>
    <path d="M0 488.28125c0 -15.625 2.93 -30.273 8.789 -43.945c5.859 -13.672 13.997 -26.042 24.414 -37.11c10.417 -11.067 22.461 -19.531 36.133 -25.39c13.672 -5.86 28.971 -8.789 45.898 -8.789c28.646 0 53.386 9.765 74.219 29.296c39.063 -24.739 83.984 -44.596 134.766 -59.57c50.781 -14.974 104.817 -23.112 162.109 -24.414c0 0 80.078 -228.516 80.078 -228.516c0 0 195.313 46.875 195.313 46.875c6.51 -16.927 17.578 -30.924 33.203 -41.992c15.625 -11.067 33.203 -16.601 52.734 -16.601c26.042 0 48.503 9.114 67.383 27.343c18.88 18.23 28.32 40.365 28.32 66.407c0 26.041 -9.44 48.177 -28.32 66.406c-18.88 18.229 -41.016 27.344 -66.406 27.344c-25.391 0 -47.526 -9.115 -66.406 -27.344c-18.881 -18.229 -28.321 -40.365 -28.321 -66.406c0 0 -164.062 -39.063 -164.062 -39.063c0 0 -66.407 185.547 -66.407 185.547c55.99 2.604 108.073 11.393 156.25 26.367c48.178 14.974 91.146 34.18 128.907 57.617c22.135 -19.531 47.526 -29.296 76.172 -29.296c15.625 0 30.599 2.929 44.921 8.789c14.323 5.859 26.693 14.323 37.11 25.39c10.417 11.068 18.555 23.438 24.414 37.11c5.859 13.672 8.789 28.32 8.789 43.945c0 20.833 -4.883 39.714 -14.648 56.641c-9.766 16.927 -23.112 30.599 -40.04 41.015c2.605 11.719 3.907 23.438 3.907 35.156c0 40.365 -11.719 79.102 -35.157 116.211c-23.437 37.11 -55.664 69.336 -96.679 96.68c-41.016 27.344 -88.867 48.828 -143.555 64.453c-54.687 15.625 -113.281 23.438 -175.781 23.438c-61.198 0 -119.141 -7.813 -173.828 -23.438c-54.688 -15.625 -102.539 -37.109 -143.555 -64.453c-41.016 -27.344 -73.242 -59.57 -96.68 -96.68c-23.437 -37.109 -35.156 -75.846 -35.156 -116.21c0 -6.511 0.651 -13.021 1.953 -19.532c0 -6.51 0.651 -12.37 1.953 -17.578c-15.625 -10.417 -28.32 -23.763 -38.086 -40.039c-9.765 -16.276 -14.648 -34.831 -14.648 -55.664c0 0 0 0 0 0m85.937 132.813c0 36.458 10.743 70.638 32.227 102.539c21.484 31.901 50.781 59.895 87.891 83.984c37.109 24.088 81.054 42.969 131.836 56.641c50.781 13.671 104.492 20.507 161.132 20.507c56.641 0 110.026 -6.836 160.157 -20.507c50.13 -13.672 94.075 -32.553 131.836 -56.641c37.76 -24.089 67.382 -52.083 88.867 -83.984c21.484 -31.901 32.226 -66.081 32.226 -102.539c0 -36.459 -10.742 -70.964 -32.226 -103.516c-21.485 -32.552 -51.107 -60.873 -88.867 -84.961c-37.761 -24.089 -81.706 -42.969 -131.836 -56.641c-50.131 -13.672 -103.516 -20.507 -160.157 -20.507c-56.64 0 -110.351 6.835 -161.132 20.507c-50.782 13.672 -94.727 32.552 -131.836 56.641c-37.11 24.088 -66.407 52.409 -87.891 84.961c-21.484 32.552 -32.227 67.057 -32.227 103.516c0 0 0 0 0 0m199.219 -53.711c0 -18.881 7.162 -35.482 21.485 -49.805c14.323 -14.323 31.25 -21.484 50.781 -21.484c19.531 0 36.133 7.161 49.805 21.484c13.671 14.323 20.507 30.924 20.507 49.805c0 18.88 -6.836 35.156 -20.507 48.828c-13.672 13.672 -30.274 20.508 -49.805 20.508c-19.531 0 -36.458 -6.836 -50.781 -20.508c-14.323 -13.672 -21.485 -29.948 -21.485 -48.828c0 0 0 0 0 0m52.735 165.039c7.812 -6.511 18.88 -3.907 33.203 7.812c3.906 3.906 8.138 7.162 12.695 9.766c4.557 2.604 9.44 4.883 14.648 6.836c5.209 1.953 9.441 3.58 12.696 4.883c3.255 1.302 7.812 2.604 13.672 3.906c5.859 1.302 10.091 2.278 12.695 2.929c2.604 0.651 7.487 1.628 14.648 2.93c7.162 1.302 11.719 1.953 13.672 1.953c1.953 0 7.162 0.326 15.625 0.977c8.464 0.651 13.998 0.976 16.602 0.976c50.781 -2.604 95.052 -14.323 132.812 -35.156c14.323 -13.021 26.042 -15.625 35.157 -7.812c6.51 11.718 2.604 23.437 -11.719 35.156c-39.063 29.948 -91.146 44.922 -156.25 44.922c-70.313 -1.302 -121.094 -16.276 -152.344 -44.922c-16.927 -13.021 -19.531 -24.74 -7.812 -35.156c0 0 0 0 0 0m242.187 -166.016c0 -19.531 6.836 -36.133 20.508 -49.805c13.672 -13.672 30.599 -20.507 50.781 -20.507c20.182 0 37.11 6.835 50.781 20.507c13.672 13.672 20.508 30.274 20.508 49.805c0 19.531 -6.836 36.133 -20.508 49.805c-13.671 13.672 -30.599 20.508 -50.781 20.508c-20.182 0 -37.109 -6.836 -50.781 -20.508c-13.672 -13.672 -20.508 -30.274 -20.508 -49.805c0 0 0 0 0 0" />
  </g>
</svg>