<svg height="1000px" width="1000px" xmlns="http://www.w3.org/2000/svg">
  <g>
    <path d="M246.09375 746.09375c0 0 169.922 0 169.922 0c0 0 0 -199.219 0 -199.219c0 0 0 -31.25 0 -31.25c0 0 0 -261.718 0 -261.718c0 0 -169.922 0 -169.922 0c0 0 253.906 -253.907 253.906 -253.907c0 0 253.906 253.907 253.906 253.907c0 0 -169.921 0 -169.921 0c0 0 0 261.718 0 261.718c0 0 0 31.25 0 31.25c0 0 0 199.219 0 199.219c0 0 169.921 0 169.921 0c0 0 -253.906 253.906 -253.906 253.906c0 0 -253.906 -253.906 -253.906 -253.906" />
  </g>
</svg>