<svg height="1000px" width="1000px" xmlns="http://www.w3.org/2000/svg">
  <g>
    <path d="M0 1000c0 0 0 -341.797 0 -341.797c0 0 119.141 119.141 119.141 119.141c0 0 277.343 -277.344 277.343 -277.344c0 0 -275.39 -275.391 -275.39 -275.391c0 0 -121.094 121.094 -121.094 121.094c0 0 0 -345.703 0 -345.703c0 0 341.797 0 341.797 0c0 0 -119.141 119.141 -119.141 119.141c0 0 277.344 277.343 277.344 277.343c0 0 275.391 -275.39 275.391 -275.39c0 0 -121.094 -121.094 -121.094 -121.094c0 0 345.703 0 345.703 0c0 0 0 341.797 0 341.797c0 0 -119.141 -119.141 -119.141 -119.141c0 0 -277.343 277.344 -277.343 277.344c0 0 275.39 275.391 275.39 275.391c0 0 121.094 -121.094 121.094 -121.094c0 0 0 345.703 0 345.703c0 0 -341.797 0 -341.797 0c0 0 119.141 -119.141 119.141 -119.141c0 0 -277.344 -277.343 -277.344 -277.343c0 0 -275.391 275.39 -275.391 275.39c0 0 121.094 121.094 121.094 121.094c0 0 -345.703 0 -345.703 0c0 0 0 0 0 0" />
  </g>
</svg>