<svg height="1000px" width="1000px" xmlns="http://www.w3.org/2000/svg">
  <g>
    <path d="M0 1000c0 0 0 -441.406 0 -441.406c0 0 148.438 148.437 148.438 148.437c0 0 201.171 -201.172 201.171 -201.172c0 0 144.532 144.532 144.532 144.532c0 0 -201.172 201.171 -201.172 201.171c0 0 148.437 148.438 148.437 148.438c0 0 -441.406 0 -441.406 0c0 0 0 0 0 0m505.859 -650.391c0 0 201.172 -201.172 201.172 -201.172c0 0 -148.437 -148.437 -148.437 -148.437c0 0 441.406 0 441.406 0c0 0 0 441.406 0 441.406c0 0 -148.438 -148.437 -148.438 -148.437c0 0 -201.171 201.172 -201.171 201.172c0 0 -144.532 -144.532 -144.532 -144.532" />
  </g>
</svg>