<svg height="1000px" width="1000px" xmlns="http://www.w3.org/2000/svg">
  <g>
    <path d="M0 853.515625c0 0 201.172 -201.172 201.172 -201.172c0 0 -148.438 -146.484 -148.438 -146.484c0 0 441.407 0 441.407 0c0 0 0 441.406 0 441.406c0 0 -146.485 -148.438 -146.485 -148.438c0 0 -201.172 201.172 -201.172 201.172c0 0 -146.484 -146.484 -146.484 -146.484m505.859 -359.375c0 0 0 -441.406 0 -441.406c0 0 146.485 148.437 146.485 148.437c0 0 201.172 -201.172 201.172 -201.172c0 0 146.484 146.485 146.484 146.485c0 0 -201.172 201.172 -201.172 201.172c0 0 148.438 146.484 148.438 146.484c0 0 -441.407 0 -441.407 0c0 0 0 0 0 0" />
  </g>
</svg>