<svg height="1000px" width="1000px" xmlns="http://www.w3.org/2000/svg">
  <g>
    <path d="M0 437.5c0 0 250 -250 250 -250c0 0 250 250 250 250c0 0 -187.5 0 -187.5 0c0 0 0 187.5 0 187.5c0 0 125 0 125 0c0 0 125 125 125 125c0 0 -375 0 -375 0c0 0 0 -312.5 0 -312.5c0 0 -187.5 0 -187.5 0c0 0 0 0 0 0m437.5 -187.5c0 0 375 0 375 0c0 0 0 312.5 0 312.5c0 0 187.5 0 187.5 0c0 0 -250 250 -250 250c0 0 -250 -250 -250 -250c0 0 187.5 0 187.5 0c0 0 0 -187.5 0 -187.5c0 0 -125 0 -125 0c0 0 -125 -125 -125 -125" />
  </g>
</svg>