<svg height="1000" width="1000" xmlns="http://www.w3.org/2000/svg"><path d="M.002 810.928l0 -347.634q1.953 -25.389 20.506 -43.943t43.943 -18.553l154.287 0q23.436 -17.577 60.543 -58.59t58.59 -56.637q21.483 -17.577 35.154 -41.013 9.765 -21.483 18.553 -77.144t30.271 -79.097q56.637 -23.436 115.227 3.906t78.12 82.026q27.342 76.167 -17.577 169.911 54.684 0 273.42 1.953 56.637 3.906 92.767 38.084t36.13 88.862q0 52.731 -38.084 87.885t-90.815 37.107l-107.415 0q-5.859 31.248 -21.483 56.637 9.765 68.355 -33.201 119.133 -3.906 72.261 -41.989 109.368t-97.65 39.06 -117.18 -7.812 -124.016 -24.413 -93.744 -14.648l-169.911 0q-27.342 -1.953 -45.895 -20.506t-18.553 -43.943zm230.454 0q23.436 0 83.979 14.648t115.227 25.389 109.368 12.694 83.002 -26.366 18.553 -90.815q27.342 -13.671 36.13 -46.872t-6.836 -58.59q58.59 -58.59 9.765 -107.415l191.395 0q27.342 -1.953 44.919 -19.53t19.53 -41.013q-1.953 -29.295 -19.53 -45.895t-44.919 -18.553l-365.212 0q3.906 -23.436 20.506 -66.402t27.342 -73.237 3.906 -66.402 -41.989 -57.614q-25.389 -13.671 -46.872 -9.765 -3.906 1.953 -4.883 4.883t-.977 6.836q-7.812 44.919 -12.694 68.355t-20.506 55.66 -41.013 53.708q-17.577 13.671 -67.379 68.355t-86.909 70.308l-3.906 0l0 347.634z"/></svg>