<svg height="1000px" width="1000px" xmlns="http://www.w3.org/2000/svg">
  <g>
    <path d="M0 810.546875c0 0 0 -347.656 0 -347.656c1.302 -16.927 8.138 -31.576 20.508 -43.946c12.37 -12.369 27.018 -18.554 43.945 -18.554c0 0 154.297 0 154.297 0c15.625 -11.719 35.807 -31.25 60.547 -58.594c24.739 -27.344 44.271 -46.224 58.594 -56.641c14.323 -11.718 26.041 -25.39 35.156 -41.015c6.51 -14.323 12.695 -40.039 18.555 -77.149c5.859 -37.109 15.95 -63.476 30.273 -79.101c37.76 -15.625 76.172 -14.323 115.234 3.906c39.063 18.229 65.105 45.573 78.125 82.031c18.23 50.781 12.37 107.422 -17.578 169.922c36.459 0 127.604 0.651 273.438 1.953c37.76 2.604 68.685 15.3 92.773 38.086c24.089 22.787 36.133 52.409 36.133 88.867c0 35.157 -12.695 64.453 -38.086 87.891c-25.391 23.437 -55.664 35.807 -90.82 37.109c0 0 -107.422 0 -107.422 0c-3.906 20.834 -11.068 39.714 -21.485 56.641c6.511 45.573 -4.557 85.286 -33.203 119.141c-2.604 48.177 -16.601 84.635 -41.992 109.375c-25.39 24.739 -57.943 37.76 -97.656 39.062c-39.714 1.302 -78.776 -1.302 -117.188 -7.812c-38.411 -6.511 -79.752 -14.649 -124.023 -24.414c-44.271 -9.766 -75.521 -14.649 -93.75 -14.649c0 0 -169.922 0 -169.922 0c-18.229 -1.302 -33.529 -8.138 -45.898 -20.508c-12.37 -12.369 -18.555 -27.018 -18.555 -43.945c0 0 0 0 0 0m230.469 0c15.625 0 43.62 4.883 83.984 14.648c40.365 9.766 78.776 18.23 115.235 25.391c36.458 7.162 72.916 11.393 109.375 12.695c36.458 1.302 64.127 -7.487 83.007 -26.367c18.881 -18.88 25.065 -49.153 18.555 -90.82c18.229 -9.115 30.273 -24.74 36.133 -46.875c5.859 -22.136 3.581 -41.667 -6.836 -58.594c39.062 -39.062 42.318 -74.87 9.766 -107.422c0 0 96.679 0 96.679 0c0 0 94.727 0 94.727 0c18.229 -1.302 33.203 -7.812 44.922 -19.531c11.718 -11.719 18.229 -25.391 19.531 -41.016c-1.302 -19.531 -7.813 -34.83 -19.531 -45.898c-11.719 -11.068 -26.693 -17.253 -44.922 -18.555c0 0 -184.571 0 -184.571 0c0 0 -180.664 0 -180.664 0c2.605 -15.625 9.44 -37.76 20.508 -66.406c11.068 -28.646 20.182 -53.06 27.344 -73.242c7.161 -20.182 8.463 -42.318 3.906 -66.406c-4.557 -24.089 -18.554 -43.295 -41.992 -57.618c-16.927 -9.114 -32.552 -12.369 -46.875 -9.765c-2.604 1.302 -4.232 2.929 -4.883 4.883c-0.651 1.953 -0.976 4.231 -0.976 6.836c-5.209 29.947 -9.44 52.734 -12.696 68.359c-3.255 15.625 -10.091 34.18 -20.507 55.664c-10.417 21.484 -24.089 39.388 -41.016 53.711c-11.719 9.114 -34.18 31.901 -67.383 68.359c-33.203 36.459 -62.174 59.896 -86.914 70.313c0 0 -3.906 0 -3.906 0c0 0 0 347.656 0 347.656c0 0 0 0 0 0" />
  </g>
</svg>