<svg height="1000px" width="1000px" xmlns="http://www.w3.org/2000/svg">
  <g>
    <path d="M0 1000c0 0 201.172 -1000 201.172 -1000c0 0 250 0 250 0c0 0 -7.813 230.469 -7.813 230.469c0 0 113.282 0 113.282 0c0 0 -7.813 -230.469 -7.813 -230.469c0 0 250 0 250 0c0 0 201.172 1000 201.172 1000c0 0 -417.969 0 -417.969 0c0 0 -9.765 -287.109 -9.765 -287.109c0 0 -144.532 0 -144.532 0c0 0 -9.765 287.109 -9.765 287.109c0 0 -417.969 0 -417.969 0c0 0 0 0 0 0m429.687 -373.047c0 0 140.625 0 140.625 0c0 0 -11.718 -339.844 -11.718 -339.844c0 0 -117.188 0 -117.188 0c0 0 -11.719 339.844 -11.719 339.844" />
  </g>
</svg>