<svg height="1000px" width="1000px" xmlns="http://www.w3.org/2000/svg">
  <g>
    <path d="M0 1000c0 0 0 -199.219 0 -199.219c54.688 0 101.563 19.532 140.625 58.594c39.063 39.063 58.594 85.938 58.594 140.625c0 0 -199.219 0 -199.219 0c0 0 0 0 0 0m0 -400.391c0 0 0 -199.218 0 -199.218c165.365 0 306.641 58.593 423.828 175.781c117.188 117.187 175.781 258.463 175.781 423.828c0 0 -199.218 0 -199.218 0c0 -110.677 -39.063 -205.078 -117.188 -283.203c-78.125 -78.125 -172.526 -117.188 -283.203 -117.188c0 0 0 0 0 0m0 -400.39c0 0 0 -199.219 0 -199.219c135.417 0 264.974 26.367 388.672 79.102c123.698 52.734 230.143 123.697 319.336 212.89c89.193 89.193 160.156 195.638 212.89 319.336c52.735 123.698 79.102 253.255 79.102 388.672c0 0 -199.219 0 -199.219 0c0 -144.531 -35.807 -278.32 -107.422 -401.367c-71.614 -123.047 -168.945 -220.378 -291.992 -291.992c-123.047 -71.615 -256.836 -107.422 -401.367 -107.422c0 0 0 0 0 0" />
  </g>
</svg>