<svg height="1000px" width="1000px" xmlns="http://www.w3.org/2000/svg">
  <g>
    <path d="M0 500c0 -138.021 48.828 -255.859 146.484 -353.516c97.657 -97.656 215.495 -146.484 353.516 -146.484c138.021 0 255.859 48.828 353.516 146.484c97.656 97.657 146.484 215.495 146.484 353.516c0 138.021 -48.828 255.859 -146.484 353.516c-97.657 97.656 -215.495 146.484 -353.516 146.484c-138.021 0 -255.859 -48.828 -353.516 -146.484c-97.656 -97.657 -146.484 -215.495 -146.484 -353.516c0 0 0 0 0 0m222.656 193.359c0 0 89.844 89.844 89.844 89.844c0 0 109.375 -109.375 109.375 -109.375c35.156 18.229 72.917 27.344 113.281 27.344c66.407 0 123.373 -23.763 170.899 -71.289c47.526 -47.526 71.289 -104.492 71.289 -170.899c0 -66.406 -23.763 -123.372 -71.289 -170.898c-47.526 -47.526 -104.818 -71.289 -171.875 -71.289c-67.058 0 -124.024 23.763 -170.899 71.289c-46.875 47.526 -70.312 104.492 -70.312 170.898c0 46.875 12.37 89.844 37.109 128.907c0 0 -1.953 0 -1.953 0c0 0 -105.469 105.468 -105.469 105.468m177.735 -234.375c0 -37.76 13.02 -69.661 39.062 -95.703c26.042 -26.041 57.617 -39.062 94.727 -39.062c37.109 0 68.685 13.021 94.726 39.062c26.042 26.042 39.063 57.943 39.063 95.703c0 37.761 -13.021 69.662 -39.063 95.703c-26.041 26.042 -57.617 39.063 -94.726 39.063c-37.11 0 -68.685 -13.021 -94.727 -39.063c-26.042 -26.041 -39.062 -57.942 -39.062 -95.703c0 0 0 0 0 0" />
  </g>
</svg>