<svg height="1000" width="1000" xmlns="http://www.w3.org/2000/svg"><path d="M0 500.032q0-207.018 146.475-353.493t353.493-146.475 353.493 146.475 146.475 353.493-146.475 353.493-353.493 146.475-353.493-146.475-146.475-353.493zm222.642 193.347l89.838 89.838 109.368-109.368q52.731 27.342 113.274 27.342 99.603 0 170.888-71.285t71.285-170.888-71.285-170.888-171.864-71.285-170.888 71.285-70.308 170.888q0 70.308 37.107 128.898l-1.953 0zm177.723-234.36q0-56.637 39.06-95.697t94.721-39.06 94.721 39.06 39.06 95.697-39.06 95.697-94.721 39.06-94.721-39.06-39.06-95.697z"/></svg>