<svg height="1000px" width="1000px" xmlns="http://www.w3.org/2000/svg">
  <g>
    <path d="M11.71875 841.796875c0 0 185.547 -185.547 185.547 -185.547c0 0 1.953 0 1.953 0c-44.271 -70.312 -66.406 -146.484 -66.406 -228.515c0 -118.49 41.666 -219.402 125 -302.735c83.333 -83.333 184.245 -125 302.734 -125c118.49 0 219.401 41.667 302.735 125c83.333 83.333 125 184.245 125 302.735c0 118.489 -41.667 219.401 -125 302.734c-83.334 83.333 -184.245 125 -302.735 125c-70.312 0 -136.068 -16.276 -197.265 -48.828c0 0 -193.36 193.359 -193.36 193.359c0 0 -158.203 -158.203 -158.203 -158.203m310.547 -415.039c0 65.755 23.437 121.745 70.312 167.969c46.875 46.224 102.865 69.336 167.969 69.336c65.104 0 121.094 -23.112 167.969 -69.336c46.875 -46.224 70.312 -102.214 70.312 -167.969c0 -65.755 -23.437 -121.745 -70.312 -167.969c-46.875 -46.224 -102.865 -69.336 -167.969 -69.336c-65.104 0 -121.094 23.112 -167.969 69.336c-46.875 46.224 -70.312 102.214 -70.312 167.969c0 0 0 0 0 0" />
  </g>
</svg>