<svg height="1000px" width="1000px" xmlns="http://www.w3.org/2000/svg">
  <g>
    <path d="M0 970.703125c0 -95.052 8.138 -180.339 24.414 -255.859c16.276 -75.521 36.133 -137.37 59.57 -185.547c23.438 -48.177 55.013 -89.518 94.727 -124.024c39.713 -34.505 75.521 -59.896 107.422 -76.172c31.901 -16.276 72.591 -28.971 122.07 -38.085c49.479 -9.115 87.565 -14.323 114.258 -15.625c26.693 -1.303 62.174 -1.954 106.445 -1.954c0 0 0 -244.14 0 -244.14c0 0 371.094 371.094 371.094 371.094c0 0 -371.094 371.093 -371.094 371.093c0 0 0 -267.578 0 -267.578c-67.708 0 -118.164 0.326 -151.367 0.977c-33.203 0.651 -75.195 3.906 -125.976 9.765c-50.782 5.86 -88.542 14.649 -113.282 26.368c-24.739 11.718 -53.385 28.645 -85.937 50.781c-32.552 22.135 -57.292 49.804 -74.219 83.008c-16.927 33.203 -32.552 74.544 -46.875 124.023c-14.323 49.479 -24.74 106.771 -31.25 171.875c0 0 0 0 0 0" />
  </g>
</svg>