<svg height="1000" width="1000" xmlns="http://www.w3.org/2000/svg"><path d="M.001 806.435l0 -123.039l144.522 0q27.342 0 33.201 -2.929t23.436 -22.46q9.765 -11.718 138.663 -195.3 111.321 -160.146 160.146 -208.971 62.496 -64.449 136.71 -64.449l142.569 0l0 -154.287l220.689 220.689 -220.689 218.736l0 -162.099l-142.569 0q-15.624 0 -22.46 3.906t-28.319 25.389q-39.06 39.06 -144.522 191.394 -23.436 31.248 -58.59 83.979t-53.708 78.12 -36.13 44.919q-58.59 66.402 -148.428 66.402l-144.522 0zm0 -494.109l0 -123.039l144.522 0q89.838 0 148.428 68.355 23.436 25.389 60.543 78.12 -1.953 3.906 -6.836 10.742t-6.836 10.742q-21.483 29.295 -50.778 70.308 -1.953 3.906 -5.859 8.789t-5.859 6.836q-58.59 -83.979 -76.167 -103.509 -17.577 -21.483 -23.436 -24.413t-33.201 -2.929l-144.522 0zm429.66 345.681q42.966 -64.449 60.543 -89.838 3.906 -3.906 7.812 -9.765t5.859 -7.812q56.637 76.167 82.026 103.509 21.483 21.483 28.319 25.389t22.46 3.906l142.569 0l0 -158.193l220.689 218.736 -220.689 220.689l0 -158.193l-142.569 0q-74.214 0 -136.71 -64.449 -29.295 -29.295 -70.308 -83.979z"/></svg>