<svg height="1000px" width="1000px" xmlns="http://www.w3.org/2000/svg">
  <g>
    <path d="M0 806.640625c0 0 0 -123.047 0 -123.047c0 0 1.953 0 1.953 0c0 0 142.578 0 142.578 0c18.229 0 29.297 -0.976 33.203 -2.93c3.907 -1.953 11.719 -9.44 23.438 -22.461c6.51 -7.812 52.734 -72.916 138.672 -195.312c74.219 -106.771 127.604 -176.432 160.156 -208.984c41.667 -42.969 87.24 -64.453 136.719 -64.453c0 0 142.578 0 142.578 0c0 0 0 -154.297 0 -154.297c0 0 220.703 220.703 220.703 220.703c0 0 -220.703 218.75 -220.703 218.75c0 0 0 -162.11 0 -162.11c0 0 -142.578 0 -142.578 0c-10.417 0 -17.904 1.302 -22.461 3.907c-4.557 2.604 -13.998 11.067 -28.321 25.39c-26.041 26.042 -74.218 89.844 -144.531 191.407c-15.625 20.833 -35.156 48.828 -58.594 83.984c-23.437 35.156 -41.341 61.198 -53.71 78.125c-12.37 16.927 -24.415 31.901 -36.133 44.922c-39.063 44.271 -88.542 66.406 -148.438 66.406c0 0 -142.578 0 -142.578 0c0 0 -1.953 0 -1.953 0c0 0 0 0 0 0m0 -494.141c0 0 0 -123.046 0 -123.046c0 0 1.953 0 1.953 0c0 0 142.578 0 142.578 0c59.896 0 109.375 22.786 148.438 68.359c15.625 16.927 35.807 42.969 60.547 78.125c-1.302 2.604 -3.581 6.185 -6.836 10.742c-3.256 4.557 -5.534 8.138 -6.836 10.742c-14.323 19.531 -31.25 42.969 -50.782 70.313c-1.302 2.604 -3.255 5.534 -5.859 8.789c-2.604 3.255 -4.557 5.534 -5.859 6.836c-39.063 -55.99 -64.453 -90.495 -76.172 -103.516c-11.719 -14.323 -19.531 -22.461 -23.438 -24.414c-3.906 -1.953 -14.974 -2.93 -33.203 -2.93c0 0 -142.578 0 -142.578 0c0 0 -1.953 0 -1.953 0c0 0 0 0 0 0m429.687 345.704c28.646 -42.969 48.829 -72.917 60.547 -89.844c2.605 -2.604 5.209 -5.86 7.813 -9.766c2.604 -3.906 4.557 -6.51 5.859 -7.812c37.761 50.781 65.104 85.286 82.031 103.515c14.323 14.323 23.764 22.787 28.321 25.391c4.557 2.604 12.044 3.906 22.461 3.906c0 0 142.578 0 142.578 0c0 0 0 -158.203 0 -158.203c0 0 220.703 218.75 220.703 218.75c0 0 -220.703 220.703 -220.703 220.703c0 0 0 -158.203 0 -158.203c0 0 -142.578 0 -142.578 0c-49.479 0 -95.052 -21.484 -136.719 -64.453c-19.531 -19.531 -42.969 -47.526 -70.313 -83.985c0 0 0 0 0 0" />
  </g>
</svg>