<svg height="1000px" width="1000px" xmlns="http://www.w3.org/2000/svg">
  <g>
    <path d="M0 1000c0 0 0 -250 0 -250c0 0 199.219 0 199.219 0c0 0 0 250 0 250c0 0 -199.219 0 -199.219 0c0 0 0 0 0 0m267.578 0c0 0 0 -500 0 -500c0 0 199.219 0 199.219 0c0 0 0 500 0 500c0 0 -199.219 0 -199.219 0c0 0 0 0 0 0m265.625 0c0 0 0 -750 0 -750c0 0 199.219 0 199.219 0c0 0 0 750 0 750c0 0 -199.219 0 -199.219 0c0 0 0 0 0 0m267.578 0c0 0 0 -1000 0 -1000c0 0 199.219 0 199.219 0c0 0 0 1000 0 1000c0 0 -199.219 0 -199.219 0c0 0 0 0 0 0" />
  </g>
</svg>