<svg height="1000px" width="1000px" xmlns="http://www.w3.org/2000/svg">
  <g>
    <path d="M9.765625 229.4921875c7.813 -59.245 32.552 -110.352 74.219 -153.32c45.573 -42.969 98.958 -67.709 160.156 -74.219c61.198 -6.51 117.839 5.859 169.922 37.109c74.219 -11.718 147.461 -5.859 219.726 17.578c72.266 23.438 133.789 60.547 184.571 111.329c88.541 92.447 133.463 200.52 134.765 324.218c0 33.854 -3.255 67.058 -9.765 99.61c18.229 37.76 27.343 77.474 27.343 119.14c-2.604 74.219 -28.645 136.719 -78.125 187.5c-55.989 52.084 -119.14 78.125 -189.453 78.125c-45.573 0 -87.239 -10.416 -125 -31.25c-92.448 15.625 -180.338 5.86 -263.672 -29.297c-114.583 -50.781 -196.614 -132.161 -246.093 -244.14c-35.157 -93.75 -43.62 -184.245 -25.391 -271.485c-29.948 -54.687 -41.016 -111.653 -33.203 -170.898c0 0 0 0 0 0m210.937 393.555c2.605 32.552 13.998 62.174 34.18 88.867c20.182 26.693 43.945 47.2 71.289 61.523c110.677 45.573 213.542 48.828 308.594 9.766c37.76 -15.625 68.034 -39.063 90.82 -70.313c22.787 -31.25 34.18 -65.755 34.18 -103.515c1.302 -70.313 -33.854 -121.745 -105.469 -154.297c-31.25 -13.021 -61.198 -23.438 -89.843 -31.25c-10.417 -2.604 -28.972 -6.836 -55.665 -12.695c-26.692 -5.86 -47.851 -10.743 -63.476 -14.649c-16.927 -5.208 -33.203 -13.346 -48.828 -24.414c-15.625 -11.068 -23.438 -23.763 -23.438 -38.086c2.604 -23.437 14.974 -39.713 37.11 -48.828c22.135 -9.115 46.224 -14.323 72.265 -15.625c49.479 -1.302 88.542 22.135 117.188 70.313c10.416 16.927 20.182 29.296 29.297 37.109c9.114 7.812 21.484 11.719 37.109 11.719c18.229 -1.302 33.854 -8.138 46.875 -20.508c13.021 -12.37 19.531 -27.018 19.531 -43.945c-2.604 -35.157 -16.601 -64.454 -41.992 -87.891c-25.391 -23.438 -56.315 -41.016 -92.773 -52.734c-89.844 -22.136 -170.573 -19.532 -242.188 7.812c-36.458 13.021 -65.43 33.529 -86.914 61.524c-21.484 27.994 -32.878 58.919 -34.18 92.773c1.302 29.948 8.789 56.315 22.461 79.102c13.672 22.786 33.203 41.015 58.594 54.687c25.391 13.672 48.828 24.089 70.313 31.25c21.484 7.161 47.2 13.997 77.148 20.508c36.458 7.812 65.104 14.974 85.938 21.484c44.27 15.625 66.406 39.063 66.406 70.313c0 23.437 -11.719 42.968 -35.157 58.593c-61.197 29.948 -113.932 33.855 -158.203 11.719c-27.343 -13.021 -49.479 -38.411 -66.406 -76.172c-15.625 -35.156 -37.76 -53.385 -66.406 -54.687c-18.229 1.302 -33.854 7.812 -46.875 19.531c-13.021 11.719 -20.182 25.391 -21.485 41.016c0 0 0 0 0 0" />
  </g>
</svg>