<svg height="1000" width="964" xmlns="http://www.w3.org/2000/svg"><path d="M2.423 229.542q11.718-88.862 74.214-153.311 68.355-64.449 160.146-74.214t169.911 37.107q111.321-17.577 219.713 17.577t184.559 111.321q132.804 138.663 134.757 324.198 0 50.778-9.765 99.603 27.342 56.637 27.342 119.133-3.906 111.321-78.12 187.488-83.979 78.12-189.441 78.12-68.355 0-124.992-31.248-138.663 23.436-263.655-29.295-171.864-76.167-246.078-244.125-52.731-140.616-25.389-271.467-44.919-82.026-33.201-170.888zm210.924 393.53q3.906 48.825 34.178 88.862t71.285 61.52q166.005 68.355 308.574 9.765 56.637-23.436 90.815-70.308t34.178-103.509q1.953-105.462-105.462-154.287-46.872-19.53-89.838-31.248-15.624-3.906-55.66-12.694t-63.473-14.648q-25.389-7.812-48.825-24.413t-23.436-38.084q3.906-35.154 37.107-48.825t72.261-15.624q74.214-1.953 117.18 70.308 15.624 25.389 29.295 37.107t37.107 11.718q27.342-1.953 46.872-20.506t19.53-43.943q-3.906-52.731-41.989-87.885t-92.767-52.731q-134.757-33.201-242.172 7.812-54.684 19.53-86.909 61.52t-34.178 92.767q1.953 44.919 22.46 79.097t58.59 54.684 70.308 31.248 77.144 20.506q54.684 11.718 85.932 21.483 66.402 23.436 66.402 70.308 0 35.154-35.154 58.59-91.791 44.919-158.193 11.718-41.013-19.53-66.402-76.167-23.436-52.731-66.402-54.684-27.342 1.953-46.872 19.53t-21.483 41.013z"/></svg>