<svg height="1000px" width="1000px" xmlns="http://www.w3.org/2000/svg">
  <g>
    <path d="M9.765625 476.5625c10.417 -7.812 24.74 -5.859 42.969 5.859c0 0 0 -482.421 0 -482.421c0 0 892.578 0 892.578 0c0 0 0 482.421 0 482.421c10.417 -7.812 21.484 -11.718 33.203 -11.718c11.719 0 16.927 4.557 15.625 13.672c-3.906 11.718 -10.742 24.088 -20.508 37.109c-9.765 13.021 -19.531 24.088 -29.297 33.203c-9.765 9.115 -24.088 19.206 -42.968 30.273c-18.881 11.068 -32.878 19.206 -41.993 24.414c-9.114 5.209 -24.414 13.021 -45.898 23.438c-21.484 10.417 -34.18 16.276 -38.086 17.578c16.927 54.688 22.786 108.724 17.578 162.11c-6.51 50.781 -25.065 93.75 -55.664 128.906c-30.599 35.156 -70.638 53.385 -120.117 54.687c-37.761 0 -67.708 -15.625 -89.844 -46.875c-6.51 -10.416 -9.765 -22.786 -9.765 -37.109c0 0 0 -197.266 0 -197.266c-3.907 0 -10.417 -1.627 -19.532 -4.883c-9.114 -3.255 -14.323 -4.882 -15.625 -4.882c0 0 0 210.937 0 210.937c0 23.438 -10.416 43.294 -31.25 59.57c-20.833 16.276 -43.62 24.414 -68.359 24.414c-48.177 0 -87.891 -18.229 -119.141 -54.687c-31.25 -36.458 -50.13 -80.078 -56.64 -130.859c-5.209 -54.688 0.651 -108.073 17.578 -160.157c-79.427 -35.156 -147.787 -81.38 -205.078 -138.672c-11.719 -20.833 -14.974 -33.854 -9.766 -39.062c0 0 0 0 0 0m93.75 39.063c5.208 2.604 13.346 6.835 24.414 12.695c11.068 5.859 19.857 10.091 26.367 12.695c0 0 699.219 -7.812 699.219 -7.812c19.531 -9.115 32.552 -15.625 39.063 -19.532c0 0 0 -460.937 0 -460.937c0 0 -789.063 0 -789.063 0c0 0 0 462.89 0 462.89c0 0 0 0 0 0m142.578 -99.609c0 -32.552 11.719 -60.547 35.156 -83.984c23.438 -23.438 51.433 -35.157 83.985 -35.157c32.552 0 60.221 11.719 83.008 35.157c22.786 23.437 34.179 51.432 34.179 83.984c0 32.552 -11.393 60.221 -34.179 83.008c-22.787 22.786 -50.456 34.18 -83.008 34.18c-32.552 0 -60.547 -11.394 -83.985 -34.18c-23.437 -22.787 -35.156 -50.456 -35.156 -83.008c0 0 0 0 0 0m279.297 0c0 -32.552 11.719 -60.547 35.156 -83.984c23.438 -23.438 51.433 -35.156 83.985 -35.156c32.552 0 60.221 11.718 83.007 35.156c22.787 23.437 34.18 51.432 34.18 83.984c0 32.552 -11.393 60.221 -34.18 83.008c-22.786 22.786 -50.455 34.18 -83.007 34.18c-32.552 0 -60.547 -11.394 -83.985 -34.18c-23.437 -22.787 -35.156 -50.456 -35.156 -83.008c0 0 0 0 0 0" />
  </g>
</svg>