<svg height="1000px" width="1000px" xmlns="http://www.w3.org/2000/svg">
  <g>
    <path d="M0 500c0 -138.021 48.828 -255.859 146.484 -353.516c97.657 -97.656 215.495 -146.484 353.516 -146.484c138.021 0 255.859 48.828 353.516 146.484c97.656 97.657 146.484 215.495 146.484 353.516c0 138.021 -48.828 255.859 -146.484 353.516c-97.657 97.656 -215.495 146.484 -353.516 146.484c-138.021 0 -255.859 -48.828 -353.516 -146.484c-97.656 -97.657 -146.484 -215.495 -146.484 -353.516c0 0 0 0 0 0m238.281 261.719c0 0 523.438 0 523.438 0c0 0 0 -523.438 0 -523.438c0 0 -523.438 0 -523.438 0c0 0 0 523.438 0 523.438c0 0 0 0 0 0m80.078 -246.094c0 0 363.282 0 363.282 0c0 50.781 -17.579 93.75 -52.735 128.906c-35.156 35.157 -78.125 52.735 -128.906 52.735c-50.781 0 -93.75 -17.578 -128.906 -52.735c-35.157 -35.156 -52.735 -78.125 -52.735 -128.906c0 0 0 0 0 0m35.157 -121.094c0 -15.625 5.533 -28.971 16.601 -40.039c11.068 -11.068 24.414 -16.601 40.039 -16.601c15.625 0 28.972 5.533 40.039 16.601c11.068 11.068 16.602 24.414 16.602 40.039c0 15.625 -5.534 28.972 -16.602 40.039c-11.067 11.068 -24.414 16.602 -40.039 16.602c-15.625 0 -28.971 -5.534 -40.039 -16.602c-11.068 -11.067 -16.601 -24.414 -16.601 -40.039c0 0 0 0 0 0m175.781 0c0 -15.625 5.534 -28.971 16.601 -40.039c11.068 -11.068 24.414 -16.601 40.039 -16.601c15.625 0 28.972 5.533 40.04 16.601c11.067 11.068 16.601 24.414 16.601 40.039c0 15.625 -5.534 28.972 -16.601 40.039c-11.068 11.068 -24.414 16.602 -40.039 16.602c-15.625 0 -28.972 -5.534 -40.04 -16.602c-11.067 -11.067 -16.601 -24.414 -16.601 -40.039c0 0 0 0 0 0" />
  </g>
</svg>