<svg height="1000" width="1000" xmlns="http://www.w3.org/2000/svg"><path d="M0 1000l0-999.936l999.936 0l0 999.936l-999.936 0zm152.334-470.673q0 144.522 101.556 246.078t246.078 101.556 246.078-101.556 101.556-246.078l-695.268 0zm66.402-230.454q0 44.919 31.248 76.167t76.167 31.248 77.144-31.248 32.224-76.167-32.224-77.144-77.144-32.224-76.167 32.224-31.248 77.144zm335.916 0q0 44.919 32.224 76.167t77.144 31.248 76.167-31.248 31.248-76.167-31.248-77.144-76.167-32.224-77.144 32.224-32.224 77.144z"/></svg>