<svg height="1000" width="1000" xmlns="http://www.w3.org/2000/svg"><path d="M0 500.032q0-207.018 146.475-353.493t353.493-146.475 353.493 146.475 146.475 353.493-146.475 353.493-353.493 146.475-353.493-146.475-146.475-353.493zm238.266 261.702l523.404 0l0-523.404l-523.404 0l0 523.404zm80.073-246.078l363.258 0q0 76.167-52.731 128.898t-128.898 52.731-128.898-52.731-52.731-128.898zm35.154-121.086q0-23.436 16.601-40.037t40.037-16.601 40.037 16.601 16.601 40.037-16.601 40.037-40.037 16.601-40.037-16.601-16.601-40.037zm175.77 0q0-23.436 16.601-40.037t40.037-16.601 40.037 16.601 16.601 40.037-16.601 40.037-40.037 16.601-40.037-16.601-16.601-40.037z"/></svg>