<svg height="1000px" width="1000px" xmlns="http://www.w3.org/2000/svg">
  <g>
    <path d="M0 1000c0 0 0 -1000 0 -1000c0 0 1000 0 1000 0c0 0 0 1000 0 1000c0 0 -1000 0 -1000 0c0 0 0 0 0 0m152.344 -470.703c0 96.354 33.854 178.385 101.562 246.094c67.709 67.708 149.74 101.562 246.094 101.562c96.354 0 178.385 -33.854 246.094 -101.562c67.708 -67.709 101.562 -149.74 101.562 -246.094c0 0 -695.312 0 -695.312 0c0 0 0 0 0 0m66.406 -230.469c0 29.948 10.417 55.339 31.25 76.172c20.833 20.833 46.224 31.25 76.172 31.25c29.948 0 55.664 -10.417 77.148 -31.25c21.485 -20.833 32.227 -46.224 32.227 -76.172c0 -29.948 -10.742 -55.664 -32.227 -77.148c-21.484 -21.485 -47.2 -32.227 -77.148 -32.227c-29.948 0 -55.339 10.742 -76.172 32.227c-20.833 21.484 -31.25 47.2 -31.25 77.148c0 0 0 0 0 0m335.938 0c0 29.948 10.742 55.339 32.226 76.172c21.484 20.833 47.201 31.25 77.149 31.25c29.947 0 55.338 -10.417 76.171 -31.25c20.834 -20.833 31.25 -46.224 31.25 -76.172c0 -29.948 -10.416 -55.664 -31.25 -77.148c-20.833 -21.485 -46.224 -32.227 -76.172 -32.227c-29.947 0 -55.664 10.742 -77.148 32.227c-21.484 21.484 -32.226 47.2 -32.226 77.148c0 0 0 0 0 0" />
  </g>
</svg>