<svg height="1000px" width="1000px" xmlns="http://www.w3.org/2000/svg">
  <g>
    <path d="M123.046875 1000c0 0 0 -394.531 0 -394.531c0 0 64.453 0 64.453 0c0 0 0 328.125 0 328.125c0 0 492.188 0 492.188 0c0 0 0 -328.125 0 -328.125c0 0 66.406 0 66.406 0c0 0 0 394.531 0 394.531c0 0 -42.969 0 -42.969 0c0 0 -515.625 0 -515.625 0c0 0 -64.453 0 -64.453 0c0 0 0 0 0 0m113.281 -132.813c0 0 0 -80.078 0 -80.078c0 0 394.532 0 394.532 0c0 0 0 80.078 0 80.078c0 0 -394.532 0 -394.532 0c0 0 0 0 0 0m1.953 -146.484c0 0 5.86 -80.078 5.86 -80.078c0 0 392.578 27.344 392.578 27.344c0 0 -5.86 80.078 -5.86 80.078c0 0 -392.578 -27.344 -392.578 -27.344m15.625 -175.781c0 0 19.532 -78.125 19.532 -78.125c0 0 382.812 93.75 382.812 93.75c0 0 -19.531 80.078 -19.531 80.078c0 0 -382.813 -95.703 -382.813 -95.703m62.5 -205.078c0 0 41.016 -70.313 41.016 -70.313c0 0 339.844 199.219 339.844 199.219c0 0 -41.016 70.312 -41.016 70.312c0 0 -339.844 -199.218 -339.844 -199.218m181.641 -212.891c0 0 66.406 -44.922 66.406 -44.922c0 0 220.703 326.172 220.703 326.172c0 0 -68.359 44.922 -68.359 44.922c0 0 -218.75 -326.172 -218.75 -326.172m250 -117.187c0 0 82.031 -9.766 82.031 -9.766c0 0 46.875 390.625 46.875 390.625c0 0 -80.078 9.766 -80.078 9.766c0 0 -48.828 -390.625 -48.828 -390.625" />
  </g>
</svg>