<svg height="1000" width="754" xmlns="http://www.w3.org/2000/svg"><path d="M0 1000l0-394.506l64.449 0l0 328.104l492.156 0l0-328.104l66.402 0l0 394.506l-623.007 0zm113.274-132.804l0-80.073l394.506 0l0 80.073l-394.506 0zm1.953-146.475l5.859-80.073 392.553 27.342-5.859 80.073zm15.624-175.77l19.53-78.12 382.788 93.744-19.53 80.073zm62.496-205.065l41.013-70.308 339.822 199.206-41.013 70.308zm181.629-212.877l66.402-44.919 220.689 326.151-68.355 44.919zm249.984-117.18l82.026-9.765 46.872 390.6-80.073 9.765z"/></svg>