<svg height="1000px" width="1000px" xmlns="http://www.w3.org/2000/svg">
  <g>
    <path d="M0 500c0 -138.021 48.828 -255.859 146.484 -353.516c97.657 -97.656 215.495 -146.484 353.516 -146.484c138.021 0 255.859 48.828 353.516 146.484c97.656 97.657 146.484 215.495 146.484 353.516c0 138.021 -48.828 255.859 -146.484 353.516c-97.657 97.656 -215.495 146.484 -353.516 146.484c-138.021 0 -255.859 -48.828 -353.516 -146.484c-97.656 -97.657 -146.484 -215.495 -146.484 -353.516c0 0 0 0 0 0m160.156 -82.031c0 0 205.078 156.25 205.078 156.25c0 0 -80.078 246.093 -80.078 246.093c0 0 210.938 -148.437 210.938 -148.437c0 0 208.984 152.344 208.984 152.344c0 0 -74.219 -246.094 -74.219 -246.094c0 0 208.985 -152.344 208.985 -152.344c0 0 -257.813 -3.906 -257.813 -3.906c0 0 -78.125 -246.094 -78.125 -246.094c0 0 -85.937 242.188 -85.937 242.188c0 0 -257.813 0 -257.813 0c0 0 0 0 0 0" />
  </g>
</svg>