<svg height="1000px" width="1000px" xmlns="http://www.w3.org/2000/svg">
  <g>
    <path d="M0 378.90625c0 0 93.75 0 93.75 0c0 0 285.156 1.953 285.156 1.953c0 0 95.703 -269.531 95.703 -269.531c0 0 29.297 -89.844 29.297 -89.844c0 0 29.297 91.797 29.297 91.797c0 0 87.891 271.484 87.891 271.484c0 0 285.156 5.86 285.156 5.86c0 0 93.75 1.953 93.75 1.953c0 0 -76.172 54.687 -76.172 54.687c0 0 -232.422 166.016 -232.422 166.016c0 0 82.032 273.438 82.032 273.438c0 0 27.343 91.796 27.343 91.796c0 0 -76.172 -56.64 -76.172 -56.64c0 0 -230.468 -167.969 -230.468 -167.969c0 0 -232.422 162.109 -232.422 162.109c0 0 -78.125 52.735 -78.125 52.735c0 0 29.297 -89.844 29.297 -89.844c0 0 89.843 -269.531 89.843 -269.531c0 0 -226.562 -173.828 -226.562 -173.828c0 0 -76.172 -56.641 -76.172 -56.641m189.453 64.453c0 0 167.969 128.906 167.969 128.906c0 0 19.531 13.672 19.531 13.672c0 0 -7.812 21.485 -7.812 21.485c0 0 -66.407 203.125 -66.407 203.125c0 0 175.782 -123.047 175.782 -123.047c0 0 17.578 -11.719 17.578 -11.719c0 0 17.578 13.672 17.578 13.672c0 0 171.875 125 171.875 125c0 0 -60.547 -203.125 -60.547 -203.125c0 0 -5.859 -21.485 -5.859 -21.485c0 0 17.578 -13.671 17.578 -13.671c0 0 173.828 -125 173.828 -125c0 0 -214.844 -3.907 -214.844 -3.907c0 0 -21.484 -1.953 -21.484 -1.953c0 0 -7.813 -21.484 -7.813 -21.484c0 0 -64.453 -201.172 -64.453 -201.172c0 0 -70.312 199.219 -70.312 199.219c0 0 -7.813 21.484 -7.813 21.484c0 0 -21.484 0 -21.484 0c0 0 -212.891 0 -212.891 0c0 0 0 0 0 0" />
  </g>
</svg>