<svg height="1000px" width="1000px" xmlns="http://www.w3.org/2000/svg">
  <g>
    <path d="M0 486.328125c2.604 -135.417 51.758 -250 147.461 -343.75c95.703 -93.75 208.659 -141.276 338.867 -142.578c98.958 1.302 190.104 29.297 273.438 83.984c0 0 0 466.797 0 466.797c-1.302 16.927 -7.487 30.599 -18.555 41.016c-11.068 10.416 -24.414 15.625 -40.039 15.625c-16.927 -1.302 -30.925 -7.162 -41.992 -17.578c-11.068 -10.417 -17.253 -23.438 -18.555 -39.063c0 0 0 -140.625 0 -140.625c-1.302 -80.729 -27.344 -130.208 -78.125 -148.437c-15.625 -6.511 -32.552 -9.766 -50.781 -9.766c0 0 -238.282 0 -238.282 0c-45.572 1.302 -82.682 14.323 -111.328 39.063c-31.25 28.645 -46.875 63.151 -46.875 103.515c0 29.948 6.511 54.688 19.532 74.219c20.833 27.344 50.781 44.922 89.843 52.734c6.511 1.302 18.881 3.255 37.11 5.86c18.229 2.604 31.901 5.208 41.015 7.812c16.927 6.511 25.391 18.229 25.391 35.156c-1.302 16.927 -11.068 27.995 -29.297 33.204c-13.021 2.604 -37.109 3.906 -72.266 3.906c0 0 -210.937 0 -210.937 0c-10.417 -42.969 -15.625 -83.334 -15.625 -121.094c0 0 0 0 0 0m52.734 220.703c0 0 212.891 0 212.891 0c46.875 -1.302 86.914 -14.974 120.117 -41.015c33.203 -26.042 49.805 -59.896 49.805 -101.563c0 -52.083 -18.229 -89.193 -54.688 -111.328c-16.927 -10.417 -50.781 -20.182 -101.562 -29.297c-1.302 0 -3.906 -0.326 -7.813 -0.977c-3.906 -0.651 -6.51 -1.302 -7.812 -1.953c-1.302 -0.651 -3.906 -1.302 -7.813 -1.953c-3.906 -0.651 -6.836 -1.302 -8.789 -1.953c-1.953 -0.651 -4.231 -1.628 -6.836 -2.93c-2.604 -1.302 -4.557 -2.929 -5.859 -4.882c-1.302 -1.954 -2.93 -3.581 -4.883 -4.883c-1.953 -1.302 -3.255 -3.255 -3.906 -5.86c-0.651 -2.604 -0.977 -5.208 -0.977 -7.812c1.302 -28.646 24.74 -42.969 70.313 -42.969c0 0 146.484 0 146.484 0c27.344 1.302 47.526 4.557 60.547 9.766c19.531 9.114 29.297 22.786 29.297 41.015c0 0 0 146.485 0 146.485c2.604 52.083 20.182 92.448 52.734 121.093c32.552 26.042 71.615 39.714 117.188 41.016c48.177 -1.302 87.239 -14.974 117.187 -41.015c33.855 -31.25 50.782 -71.615 50.782 -121.094c0 0 0 -357.422 0 -357.422c53.385 71.614 85.937 151.042 97.656 238.281c11.719 87.24 0.651 169.922 -33.203 248.047c-40.365 89.844 -101.237 161.784 -182.617 215.82c-81.381 54.037 -169.597 81.055 -264.649 81.055c-92.448 -1.302 -177.409 -25.716 -254.883 -73.242c-77.474 -47.526 -137.044 -111.003 -178.711 -190.43c0 0 0 0 0 0" />
  </g>
</svg>