<svg height="1000" width="972" xmlns="http://www.w3.org/2000/svg"><path d="M0 486.361q3.906-203.112 147.452-343.728t338.846-142.569q148.428 1.953 273.42 83.979l0 466.767q-1.953 25.389-18.553 41.013t-40.037 15.624q-25.389-1.953-41.989-17.577t-18.553-39.06l0-140.616q-1.953-121.086-78.12-148.428-23.436-9.765-50.778-9.765l-238.266 0q-68.355 1.953-111.321 39.06-46.872 42.966-46.872 103.509 0 44.919 19.53 74.214 31.248 41.013 89.838 52.731 9.765 1.953 37.107 5.859t41.013 7.812q25.389 9.765 25.389 35.154-1.953 25.389-29.295 33.201-19.53 3.906-72.261 3.906l-210.924 0q-15.624-64.449-15.624-121.086zm52.731 220.689l212.877 0q70.308-1.953 120.11-41.013t49.802-101.556q0-78.12-54.684-111.321-25.389-15.624-101.556-29.295-1.953 0-7.812-.977t-7.812-1.953-7.812-1.953-8.789-1.953-6.836-2.929-5.859-4.883-4.883-4.883-3.906-5.859-.977-7.812q1.953-42.966 70.308-42.966l146.475 0q41.013 1.953 60.543 9.765 29.295 13.671 29.295 41.013l0 146.475q3.906 78.12 52.731 121.086 48.825 39.06 117.18 41.013 72.261-1.953 117.18-41.013 50.778-46.872 50.778-121.086l0-357.399q80.073 107.415 97.65 238.266t-33.201 248.031q-60.543 134.757-182.606 215.806t-264.632 81.05q-138.663-1.953-254.867-73.237t-178.7-190.418z"/></svg>