<svg height="1000px" width="1000px" xmlns="http://www.w3.org/2000/svg">
  <g>
    <path d="M25.390625 363.28125c0 0 0 -287.109 0 -287.109c1.302 -20.834 9.44 -38.737 24.414 -53.711c14.974 -14.974 32.227 -22.461 51.758 -22.461c0 0 287.109 0 287.109 0c58.594 3.906 102.865 22.135 132.813 54.687c0 0 425.781 472.656 425.781 472.656c13.021 18.23 19.531 37.435 19.531 57.618c0 20.182 -6.51 37.435 -19.531 51.757c0 0 -333.984 333.985 -333.984 333.985c-16.927 14.323 -35.808 21.484 -56.641 21.484c-20.833 0 -38.411 -7.161 -52.734 -21.484c0 0 -423.829 -474.61 -423.829 -474.61c-36.458 -42.968 -54.687 -87.239 -54.687 -132.812c0 0 0 0 0 0m125 -164.063c1.302 20.834 9.115 38.086 23.437 51.758c14.323 13.672 31.25 20.508 50.782 20.508c20.833 0 38.086 -7.487 51.758 -22.461c13.671 -14.974 20.507 -31.575 20.507 -49.805c0 -22.135 -7.487 -40.039 -22.461 -53.71c-14.974 -13.672 -31.575 -20.508 -49.804 -20.508c-22.136 1.302 -40.039 9.114 -53.711 23.437c-13.672 14.323 -20.508 31.25 -20.508 50.781c0 0 0 0 0 0" />
  </g>
</svg>