<svg height="1000" width="941" xmlns="http://www.w3.org/2000/svg"><path d="M0 367.259l0 -287.091q1.953 -31.248 24.413 -53.708t51.755 -22.46l287.091 0q87.885 5.859 132.804 54.684l425.754 472.626q19.53 27.342 19.53 57.614t-19.53 51.755l-333.963 333.963q-25.389 21.483 -56.637 21.483t-52.731 -21.483l-423.801 -474.579q-54.684 -64.449 -54.684 -132.804zm124.992 -164.052q1.953 31.248 23.436 51.755t50.778 20.506q31.248 0 51.755 -22.46t20.506 -49.802q0 -33.201 -22.46 -53.708t-49.802 -20.506q-33.201 1.953 -53.708 23.436t-20.506 50.778z"/></svg>