<svg height="1000px" width="1000px" xmlns="http://www.w3.org/2000/svg">
  <g>
    <path d="M0 386.71875c0 0 0 -240.234 0 -240.234c1.302 -18.23 8.138 -33.529 20.508 -45.899c12.37 -12.37 27.018 -18.554 43.945 -18.554c0 0 240.234 0 240.234 0c28.646 0 57.943 9.114 87.891 27.343c0 0 376.953 414.063 376.953 414.063c11.719 15.625 17.578 31.575 17.578 47.851c0 16.276 -5.859 30.925 -17.578 43.946c0 0 -279.297 277.343 -279.297 277.343c-14.323 11.719 -29.948 17.904 -46.875 18.555c-16.927 0.651 -31.25 -5.534 -42.968 -18.555c0 0 -355.469 -396.484 -355.469 -396.484c-29.948 -36.458 -44.922 -72.917 -44.922 -109.375c0 0 0 0 0 0m103.516 -137.695c0 16.276 5.859 30.273 17.578 41.992c14.323 13.021 29.622 19.206 45.898 18.555c16.276 -0.651 30.274 -6.836 41.992 -18.555c11.719 -13.021 17.579 -27.995 17.579 -44.922c0 -16.927 -5.86 -31.25 -17.579 -42.969c-13.02 -11.718 -27.994 -17.252 -44.921 -16.601c-16.928 0.651 -31.25 6.185 -42.969 16.601c-11.719 14.323 -17.578 29.623 -17.578 45.899c0 0 0 0 0 0m316.406 -165.039c0 0 91.797 0 91.797 0c48.177 2.604 84.635 17.578 109.375 44.922c0 0 355.469 396.484 355.469 396.484c11.718 14.323 17.578 30.273 17.578 47.851c0 17.579 -5.86 32.227 -17.578 43.946c0 0 -279.297 277.343 -279.297 277.343c-40.365 23.438 -72.266 20.834 -95.703 -7.812c0 0 271.484 -271.484 271.484 -271.484c11.719 -14.323 17.578 -29.948 17.578 -46.875c0 -16.927 -5.859 -31.901 -17.578 -44.922c0 0 -318.359 -355.469 -318.359 -355.469c-15.625 -20.833 -39.063 -39.714 -70.313 -56.641c-31.25 -16.927 -52.734 -26.041 -64.453 -27.343c0 0 0 0 0 0" />
  </g>
</svg>