<svg height="1000" width="994" xmlns="http://www.w3.org/2000/svg"><path d="M0 390.167l0 -240.219q1.953 -27.342 20.506 -45.895t43.943 -18.553l240.219 0q42.966 0 87.885 27.342l376.929 414.036q17.577 23.436 17.577 47.849t-17.577 43.943l-279.279 277.326q-21.483 17.577 -46.872 18.553t-42.966 -18.553l-355.446 -396.459q-44.919 -54.684 -44.919 -109.368zm103.509 -137.686q0 24.413 17.577 41.989 21.483 19.53 45.895 18.553t41.989 -18.553q17.577 -19.53 17.577 -44.919t-17.577 -42.966q-19.53 -17.577 -44.919 -16.601t-42.966 16.601q-17.577 21.483 -17.577 45.895zm316.386 -165.029l91.791 0q72.261 3.906 109.368 44.919l355.446 396.459q17.577 21.483 17.577 47.849t-17.577 43.943l-279.279 277.326q-60.543 35.154 -95.697 -7.812l271.467 -271.467q17.577 -21.483 17.577 -46.872t-17.577 -44.919l-318.339 -355.446q-23.436 -31.248 -70.308 -56.637t-64.449 -27.342z"/></svg>