<svg height="1000" width="1000" xmlns="http://www.w3.org/2000/svg"><path d="M0 576.135l0 -152.334l130.851 0q21.483 -109.368 102.532 -190.418t190.418 -102.532l0 -130.851l152.334 0l0 130.851q109.368 21.483 190.418 102.532t102.532 190.418l130.851 0l0 152.334l-130.851 0q-21.483 109.368 -102.532 190.418t-190.418 102.532l0 130.851l-152.334 0l0 -130.851q-109.368 -21.483 -190.418 -102.532t-102.532 -190.418l-130.851 0zm230.454 0q19.53 70.308 71.285 122.063t122.063 71.285l0 -146.475l152.334 0l0 146.475q70.308 -19.53 122.063 -71.285t71.285 -122.063l-146.475 0l0 -152.334l146.475 0q-19.53 -70.308 -71.285 -122.063t-122.063 -71.285l0 146.475l-152.334 0l0 -146.475q-70.308 19.53 -122.063 71.285t-71.285 122.063l146.475 0l0 152.334l-146.475 0z"/></svg>