<svg height="1000px" width="1000px" xmlns="http://www.w3.org/2000/svg">
  <g>
    <path d="M0 576.171875c0 0 0 -152.344 0 -152.344c0 0 130.859 0 130.859 0c14.323 -72.916 48.503 -136.393 102.539 -190.429c54.037 -54.037 117.513 -88.217 190.43 -102.54c0 0 0 -130.859 0 -130.859c0 0 152.344 0 152.344 0c0 0 0 130.859 0 130.859c72.917 14.323 136.393 48.503 190.43 102.54c54.036 54.036 88.216 117.513 102.539 190.429c0 0 130.859 0 130.859 0c0 0 0 152.344 0 152.344c0 0 -130.859 0 -130.859 0c-14.323 72.917 -48.503 136.393 -102.539 190.43c-54.037 54.036 -117.513 88.216 -190.43 102.539c0 0 0 130.859 0 130.859c0 0 -152.344 0 -152.344 0c0 0 0 -130.859 0 -130.859c-72.917 -14.323 -136.393 -48.503 -190.43 -102.539c-54.036 -54.037 -88.216 -117.513 -102.539 -190.43c0 0 -130.859 0 -130.859 0c0 0 0 0 0 0m230.469 0c13.021 46.875 36.784 87.565 71.289 122.07c34.505 34.506 75.195 58.269 122.07 71.289c0 0 0 -146.484 0 -146.484c0 0 152.344 0 152.344 0c0 0 0 146.484 0 146.484c46.875 -13.02 87.565 -36.783 122.07 -71.289c34.505 -34.505 58.268 -75.195 71.289 -122.07c0 0 -146.484 0 -146.484 0c0 0 0 -152.344 0 -152.344c0 0 146.484 0 146.484 0c-13.021 -46.875 -36.784 -87.565 -71.289 -122.07c-34.505 -34.505 -75.195 -58.268 -122.07 -71.289c0 0 0 146.484 0 146.484c0 0 -152.344 0 -152.344 0c0 0 0 -146.484 0 -146.484c-46.875 13.021 -87.565 36.784 -122.07 71.289c-34.505 34.505 -58.268 75.195 -71.289 122.07c0 0 146.484 0 146.484 0c0 0 0 152.344 0 152.344c0 0 -146.484 0 -146.484 0c0 0 0 0 0 0" />
  </g>
</svg>