<svg height="1000px" width="1000px" xmlns="http://www.w3.org/2000/svg">
  <g>
    <path d="M0 912.109375c0 0 0 -195.313 0 -195.313c0 0 1000 0 1000 0c0 0 0 195.313 0 195.313c0 0 -1000 0 -1000 0c0 0 0 0 0 0m0 -292.969c0 0 0 -195.312 0 -195.312c0 0 1000 0 1000 0c0 0 0 195.312 0 195.312c0 0 -1000 0 -1000 0c0 0 0 0 0 0m0 -292.968c0 0 0 -195.313 0 -195.313c0 0 1000 0 1000 0c0 0 0 195.313 0 195.313c0 0 -1000 0 -1000 0c0 0 0 0 0 0m406.25 244.14c0 0 542.969 0 542.969 0c0 0 0 -99.609 0 -99.609c0 0 -542.969 0 -542.969 0c0 0 0 99.609 0 99.609c0 0 0 0 0 0m220.703 -292.969c0 0 322.266 0 322.266 0c0 0 0 -99.609 0 -99.609c0 0 -322.266 0 -322.266 0c0 0 0 99.609 0 99.609c0 0 0 0 0 0m119.141 585.938c0 0 203.125 0 203.125 0c0 0 0 -99.61 0 -99.61c0 0 -203.125 0 -203.125 0c0 0 0 99.61 0 99.61c0 0 0 0 0 0" />
  </g>
</svg>