<svg height="1000px" width="1000px" xmlns="http://www.w3.org/2000/svg">
  <g>
    <path d="M0 826.171875c0 0 173.828 -173.828 173.828 -173.828c0 0 0 117.187 0 117.187c0 0 652.344 0 652.344 0c0 0 0 -117.187 0 -117.187c0 0 173.828 173.828 173.828 173.828c0 0 -173.828 173.828 -173.828 173.828c0 0 0 -115.234 0 -115.234c0 0 -652.344 0 -652.344 0c0 0 0 115.234 0 115.234c0 0 -173.828 -173.828 -173.828 -173.828m210.938 -648.438c0 0 3.906 -177.734 3.906 -177.734c0 0 570.312 0 570.312 0c0 0 3.907 177.734 3.907 177.734c0 0 -60.547 0 -60.547 0c0 -61.197 -6.511 -96.679 -19.532 -106.445c-13.02 -9.765 -58.593 -14.648 -136.718 -14.648c0 0 0 488.281 0 488.281c0 29.948 3.58 47.526 10.742 52.734c7.161 5.209 32.226 7.813 75.195 7.813c0 0 0 48.828 0 48.828c0 0 -316.406 0 -316.406 0c0 0 0 -48.828 0 -48.828c42.969 0 68.034 -2.279 75.195 -6.836c7.162 -4.557 10.742 -22.461 10.742 -53.711c0 0 0 -488.281 0 -488.281c-78.125 0 -123.698 4.883 -136.718 14.648c-13.021 9.766 -19.532 45.248 -19.532 106.446c0 0 -60.546 0 -60.546 0c0 0 0 0 0 0" />
  </g>
</svg>