<svg height="1000px" width="1000px" xmlns="http://www.w3.org/2000/svg">
  <g>
    <path d="M0 351.5625c0 0 5.859 -177.734 5.859 -177.734c0 0 570.313 0 570.313 0c0 0 3.906 177.734 3.906 177.734c0 0 -60.547 0 -60.547 0c0 -61.198 -6.51 -97.005 -19.531 -107.422c-13.021 -10.417 -58.594 -15.625 -136.719 -15.625c0 0 0 490.235 0 490.235c0 29.947 3.581 47.2 10.742 51.757c7.162 4.558 31.576 6.836 73.243 6.836c0 0 0 48.828 0 48.828c0 0 -314.453 0 -314.453 0c0 0 0 -48.828 0 -48.828c41.666 1.302 66.08 -0.651 73.242 -5.859c7.161 -5.208 10.742 -22.787 10.742 -52.734c0 0 0 -490.235 0 -490.235c-78.125 0 -123.373 5.208 -135.742 15.625c-12.37 10.417 -18.555 46.224 -18.555 107.422c0 0 -62.5 0 -62.5 0c0 0 0 0 0 0m652.344 474.609c0 0 117.187 0 117.187 0c0 0 0 -652.343 0 -652.343c0 0 -117.187 0 -117.187 0c0 0 173.828 -173.828 173.828 -173.828c0 0 173.828 173.828 173.828 173.828c0 0 -115.234 0 -115.234 0c0 0 0 652.343 0 652.343c0 0 115.234 0 115.234 0c0 0 -173.828 173.829 -173.828 173.829c0 0 -173.828 -173.829 -173.828 -173.829" />
  </g>
</svg>