<svg height="1000px" width="1000px" xmlns="http://www.w3.org/2000/svg">
  <g>
    <path d="M0 1000c0 0 0 -437.5 0 -437.5c0 0 437.5 0 437.5 0c0 0 0 437.5 0 437.5c0 0 -437.5 0 -437.5 0c0 0 0 0 0 0m0 -562.5c0 0 0 -437.5 0 -437.5c0 0 437.5 0 437.5 0c0 0 0 437.5 0 437.5c0 0 -437.5 0 -437.5 0c0 0 0 0 0 0m562.5 562.5c0 0 0 -437.5 0 -437.5c0 0 437.5 0 437.5 0c0 0 0 437.5 0 437.5c0 0 -437.5 0 -437.5 0c0 0 0 0 0 0m0 -562.5c0 0 0 -437.5 0 -437.5c0 0 437.5 0 437.5 0c0 0 0 437.5 0 437.5c0 0 -437.5 0 -437.5 0c0 0 0 0 0 0" />
  </g>
</svg>