<svg height="1000px" width="1000px" xmlns="http://www.w3.org/2000/svg">
  <g>
    <path d="M0 1000c0 0 0 -250 0 -250c0 0 250 0 250 0c0 0 0 250 0 250c0 0 -250 0 -250 0c0 0 0 0 0 0m0 -375c0 0 0 -250 0 -250c0 0 250 0 250 0c0 0 0 250 0 250c0 0 -250 0 -250 0c0 0 0 0 0 0m0 -375c0 0 0 -250 0 -250c0 0 250 0 250 0c0 0 0 250 0 250c0 0 -250 0 -250 0c0 0 0 0 0 0m390.625 750c0 0 0 -250 0 -250c0 0 609.375 0 609.375 0c0 0 0 250 0 250c0 0 -609.375 0 -609.375 0c0 0 0 0 0 0m0 -375c0 0 0 -250 0 -250c0 0 609.375 0 609.375 0c0 0 0 250 0 250c0 0 -609.375 0 -609.375 0c0 0 0 0 0 0m0 -375c0 0 0 -250 0 -250c0 0 609.375 0 609.375 0c0 0 0 250 0 250c0 0 -609.375 0 -609.375 0c0 0 0 0 0 0" />
  </g>
</svg>