<svg height="1000px" width="1000px" xmlns="http://www.w3.org/2000/svg">
  <g>
    <path d="M0 937.5c0 0 0 -552.734 0 -552.734c0 -10.417 3.255 -18.555 9.766 -24.414c6.51 -5.86 14.974 -9.441 25.39 -10.743c0 0 146.485 0 146.485 0c22.135 0 33.854 11.719 35.156 35.157c0 0 0 552.734 0 552.734c0 9.115 -3.255 16.927 -9.766 23.438c-6.51 6.51 -14.974 10.416 -25.39 11.718c0 0 -146.485 0 -146.485 0c-9.114 0 -16.927 -3.255 -23.437 -9.765c-6.511 -6.511 -10.417 -14.974 -11.719 -25.391c0 0 0 0 0 0m277.344 -27.344c0 0 0 -500 0 -500c0 -14.323 4.557 -26.041 13.672 -35.156c9.114 -9.115 21.484 -14.323 37.109 -15.625c0 0 113.281 0 113.281 0c0 0 113.281 -251.953 113.281 -251.953c9.115 -20.833 22.787 -31.25 41.016 -31.25c24.74 -1.302 55.99 18.88 93.75 60.547c11.719 16.927 19.857 35.482 24.414 55.664c4.557 20.182 6.511 36.133 5.86 47.851c-0.651 11.719 -3.581 32.878 -8.789 63.477c-5.209 30.599 -8.464 49.154 -9.766 55.664c0 0 248.047 0 248.047 0c16.927 0 29.622 5.534 38.086 16.602c8.463 11.067 12.044 25.716 10.742 43.945c0 0 -70.313 429.687 -70.313 429.687c-7.812 27.344 -25.39 51.758 -52.734 73.243c-27.344 21.484 -56.641 34.179 -87.891 38.086c0 0 -458.984 0 -458.984 0c-14.323 0 -26.042 -4.558 -35.156 -13.672c-9.115 -9.115 -14.323 -21.485 -15.625 -37.11c0 0 0 0 0 0" />
  </g>
</svg>