<svg height="1000px" width="1000px" xmlns="http://www.w3.org/2000/svg">
  <g>
    <path d="M0 636.71875c0 0 0 -552.734 0 -552.734c1.302 -22.136 13.021 -33.203 35.156 -33.203c0 0 146.485 0 146.485 0c23.437 1.302 35.156 12.369 35.156 33.203c0 0 0 552.734 0 552.734c-1.302 10.417 -5.208 18.88 -11.719 25.391c-6.51 6.51 -14.323 9.765 -23.437 9.765c0 0 -146.485 0 -146.485 0c-9.114 -1.302 -17.252 -5.208 -24.414 -11.718c-7.161 -6.511 -10.742 -14.323 -10.742 -23.438c0 0 0 0 0 0m277.344 -23.438c0 0 0 -501.953 0 -501.953c1.302 -14.323 6.51 -26.041 15.625 -35.156c9.114 -9.114 20.182 -13.672 33.203 -13.672c0 0 458.984 0 458.984 0c23.438 1.302 46.875 8.464 70.313 21.485c36.458 22.135 59.896 51.432 70.312 87.89c0 0 70.313 429.688 70.313 429.688c1.302 16.927 -2.93 31.25 -12.696 42.968c-9.765 11.719 -21.809 17.579 -36.132 17.579c0 0 -248.047 0 -248.047 0c5.208 39.062 12.37 78.125 21.484 117.187c3.906 59.896 -27.344 112.63 -93.75 158.203c-13.021 9.115 -27.344 11.068 -42.969 5.86c-13.02 -3.907 -23.437 -13.672 -31.25 -29.297c0 0 -111.328 -251.953 -111.328 -251.953c0 0 -115.234 0 -115.234 0c-14.323 -1.302 -26.042 -6.511 -35.156 -15.625c-9.115 -9.115 -13.672 -20.183 -13.672 -33.203c0 0 0 0 0 0" />
  </g>
</svg>