<svg height="1000" width="705" xmlns="http://www.w3.org/2000/svg"><path d="M0 645.802q1.953 -105.462 56.637 -189.441 17.577 -27.342 55.66 -80.073t53.708 -78.12q89.838 -138.663 126.945 -255.843 15.624 -44.919 58.59 -41.013 46.872 -1.953 58.59 41.013 37.107 119.133 128.898 255.843 17.577 29.295 54.684 80.073t54.684 78.12q54.684 87.885 56.637 189.441 -3.906 148.428 -103.509 249.984 -105.462 101.556 -249.984 103.509 -148.428 -3.906 -248.031 -103.509 -103.509 -107.415 -103.509 -249.984zm154.287 78.12q1.953 37.107 27.342 62.496t60.543 25.389q37.107 -1.953 62.496 -27.342t25.389 -60.543q0 -27.342 -13.671 -46.872 -17.577 -23.436 -27.342 -41.013 -25.389 -41.013 -33.201 -62.496 -1.953 -13.671 -13.671 -11.718 -11.718 -1.953 -15.624 11.718 -7.812 27.342 -29.295 62.496 -5.859 9.765 -15.624 22.46t-13.671 18.553q-13.671 19.53 -13.671 46.872z"/></svg>