<svg height="1000px" width="1000px" xmlns="http://www.w3.org/2000/svg">
  <g>
    <path d="M146.484375 644.53125c1.302 -70.313 20.182 -133.464 56.641 -189.453c11.718 -18.229 30.273 -44.922 55.664 -80.078c25.39 -35.157 43.294 -61.198 53.711 -78.125c59.895 -92.448 102.213 -177.735 126.953 -255.86c10.416 -29.948 29.948 -43.619 58.593 -41.015c31.25 -1.302 50.782 12.37 58.594 41.015c24.74 79.427 67.709 164.714 128.906 255.86c11.719 19.531 29.948 46.224 54.688 80.078c24.74 33.854 42.969 59.896 54.687 78.125c36.459 58.594 55.339 121.745 56.641 189.453c-2.604 98.958 -37.109 182.292 -103.516 250c-70.312 67.708 -153.645 102.214 -250 103.516c-98.958 -2.605 -181.64 -37.11 -248.046 -103.516c-69.011 -71.615 -103.516 -154.948 -103.516 -250c0 0 0 0 0 0m154.297 78.125c1.302 24.74 10.417 45.573 27.344 62.5c16.927 16.927 37.109 25.391 60.546 25.391c24.74 -1.302 45.573 -10.417 62.5 -27.344c16.928 -16.927 25.391 -37.109 25.391 -60.547c0 -18.229 -4.557 -33.854 -13.672 -46.875c-11.719 -15.625 -20.833 -29.297 -27.344 -41.016c-16.927 -27.343 -27.994 -48.177 -33.203 -62.5c-1.302 -9.114 -5.859 -13.02 -13.672 -11.718c-7.812 -1.302 -13.02 2.604 -15.625 11.718c-5.208 18.23 -14.973 39.063 -29.296 62.5c-3.907 6.511 -9.115 13.998 -15.625 22.461c-6.511 8.464 -11.068 14.649 -13.672 18.555c-9.115 13.021 -13.672 28.646 -13.672 46.875c0 0 0 0 0 0" />
  </g>
</svg>