<svg height="1000px" width="1000px" xmlns="http://www.w3.org/2000/svg">
  <g>
    <path d="M58.59375 1000c0 0 0 -357.422 0 -357.422c0 0 337.891 -144.531 337.891 -144.531c-40.365 -24.74 -70.964 -58.268 -91.797 -100.586c-20.834 -42.318 -31.25 -86.914 -31.25 -133.789c0 -69.011 21.484 -130.208 64.453 -183.594c42.969 -53.385 97.005 -80.078 162.109 -80.078c67.709 2.604 122.396 30.273 164.063 83.008c41.666 52.734 62.5 112.956 62.5 180.664c-1.302 49.479 -12.37 95.052 -33.203 136.719c-20.834 41.666 -49.48 74.218 -85.938 97.656c0 0 333.984 144.531 333.984 144.531c0 0 0 357.422 0 357.422c0 0 -882.812 0 -882.812 0c0 0 0 0 0 0" />
  </g>
</svg>