<svg height="1000px" width="1000px" xmlns="http://www.w3.org/2000/svg">
  <g>
    <path d="M0 500c0 -138.021 48.828 -255.859 146.484 -353.516c97.657 -97.656 215.495 -146.484 353.516 -146.484c138.021 0 255.859 48.828 353.516 146.484c97.656 97.657 146.484 215.495 146.484 353.516c0 138.021 -48.828 255.859 -146.484 353.516c-97.657 97.656 -215.495 146.484 -353.516 146.484c-138.021 0 -255.859 -48.828 -353.516 -146.484c-97.656 -97.657 -146.484 -215.495 -146.484 -353.516c0 0 0 0 0 0m242.187 -177.734c0 0 515.625 0 515.625 0c0 0 0 -87.891 0 -87.891c0 0 -179.687 0 -179.687 0c0 0 0 -46.875 0 -46.875c0 0 -156.25 0 -156.25 0c0 0 0 46.875 0 46.875c0 0 -179.688 0 -179.688 0c0 0 0 87.891 0 87.891c0 0 0 0 0 0m27.344 490.234c0 0 460.938 0 460.938 0c0 0 0 -421.875 0 -421.875c0 0 -460.938 0 -460.938 0c0 0 0 421.875 0 421.875c0 0 0 0 0 0" />
  </g>
</svg>