<svg height="1000px" width="1000px" xmlns="http://www.w3.org/2000/svg">
  <g>
    <path d="M0 1000c0 0 0 -1000 0 -1000c0 0 1000 0 1000 0c0 0 0 1000 0 1000c0 0 -1000 0 -1000 0c0 0 0 0 0 0m291.016 -558.594c0 0 76.171 0 76.171 0c0 0 0 275.391 0 275.391c1.303 46.875 20.183 80.729 56.641 101.562c27.344 14.323 61.849 21.485 103.516 21.485c55.989 0 89.843 -0.651 101.562 -1.953c29.948 0 56.641 -6.511 80.078 -19.532c0 0 0 -119.14 0 -119.14c-14.323 9.114 -29.948 16.927 -46.875 23.437c-28.645 10.417 -55.338 12.37 -80.078 5.86c-20.833 -5.209 -36.458 -11.719 -46.875 -19.532c-5.208 -5.208 -7.812 -9.114 -7.812 -11.718c0 0 0 -255.86 0 -255.86c0 0 162.109 0 162.109 0c0 0 0 -113.281 0 -113.281c0 0 -162.109 0 -162.109 0c0 0 0 -167.969 0 -167.969c0 0 -93.75 0 -93.75 0c-2.604 46.875 -16.276 86.589 -41.016 119.141c-24.739 32.552 -58.594 48.828 -101.562 48.828c0 0 0 113.281 0 113.281c0 0 0 0 0 0" />
  </g>
</svg>