<svg height="1000" width="1000" xmlns="http://www.w3.org/2000/svg"><path d="M0 1000l0-999.936l999.936 0l0 999.936l-999.936 0zm290.997-558.558l76.167 0l0 275.373q1.953 70.308 56.637 101.556 41.013 21.483 103.509 21.483 83.979 0 101.556-1.953 44.919 0 80.073-19.53l0-119.133q-21.483 13.671-46.872 23.436-42.966 15.624-80.073 5.859-31.248-7.812-46.872-19.53-7.812-7.812-7.812-11.718l0-255.843l162.099 0l0-113.274l-162.099 0l0-167.958l-93.744 0q-3.906 70.308-41.013 119.133t-101.556 48.825l0 113.274z"/></svg>