<svg height="1000" width="1000" xmlns="http://www.w3.org/2000/svg"><path d="M0 824.002q162.099 19.53 304.668 -87.885 -66.402 1.953 -117.18 -39.06t-76.167 -105.462q17.577 3.906 42.966 1.953 33.201 -1.953 48.825 -5.859 -99.603 -33.201 -138.663 -107.415 -23.436 -50.778 -23.436 -103.509 56.637 29.295 91.791 27.342 -80.073 -68.355 -89.838 -146.475 -5.859 -62.496 25.389 -134.757 113.274 124.992 238.266 179.676 93.744 39.06 185.535 39.06 -11.718 -93.744 25.389 -158.193 44.919 -70.308 128.898 -93.744 54.684 -13.671 105.462 2.929t85.932 55.66q60.543 -5.859 132.804 -48.825 -29.295 85.932 -91.791 117.18 62.496 -9.765 121.086 -35.154 -9.765 19.53 -37.107 52.731t-68.355 56.637q1.953 9.765 1.953 17.577 3.906 109.368 -42.966 232.407 -80.073 201.159 -242.172 302.715 -160.146 89.838 -382.788 68.355 -140.616 -15.624 -228.501 -87.885z"/></svg>