<svg height="1000px" width="1000px" xmlns="http://www.w3.org/2000/svg">
  <g>
    <path d="M0 824.21875c108.073 13.021 209.635 -16.276 304.688 -87.891c-44.271 1.302 -83.334 -11.718 -117.188 -39.062c-33.854 -27.344 -59.245 -62.5 -76.172 -105.469c11.719 2.604 26.042 3.255 42.969 1.953c22.135 -1.302 38.411 -3.255 48.828 -5.859c-66.406 -22.136 -112.63 -57.943 -138.672 -107.422c-15.625 -33.854 -23.437 -68.359 -23.437 -103.516c37.76 19.532 68.359 28.646 91.796 27.344c-53.385 -45.573 -83.333 -94.401 -89.843 -146.484c-3.907 -41.667 4.557 -86.589 25.39 -134.766c75.521 83.333 154.948 143.229 238.282 179.688c62.5 26.041 124.349 39.062 185.546 39.062c-7.812 -62.5 0.652 -115.234 25.391 -158.203c29.948 -46.875 72.917 -78.125 128.906 -93.75c36.459 -9.115 71.615 -8.138 105.469 2.93c33.854 11.067 62.5 29.622 85.938 55.664c40.364 -3.906 84.635 -20.183 132.812 -48.828c-19.531 57.291 -50.13 96.354 -91.797 117.187c41.667 -6.51 82.032 -18.229 121.094 -35.156c-6.51 13.021 -18.88 30.599 -37.109 52.734c-18.23 22.136 -41.016 41.016 -68.36 56.641c1.302 6.51 1.953 12.37 1.953 17.578c2.605 72.917 -11.718 150.391 -42.968 232.422c-53.386 134.114 -134.115 235.026 -242.188 302.734c-106.771 59.896 -234.375 82.683 -382.812 68.36c-93.75 -10.417 -169.922 -39.714 -228.516 -87.891c0 0 0 0 0 0" />
  </g>
</svg>