<svg height="1000" width="1000" xmlns="http://www.w3.org/2000/svg"><path d="M0 499.968q0 -207.018 146.475 -353.493t353.493 -146.475 353.493 146.475 146.475 353.493 -146.475 353.493 -353.493 146.475 -353.493 -146.475 -146.475 -353.493zm66.402 0q0 179.676 126.945 306.621t306.621 126.945 306.621 -126.945 126.945 -306.621 -126.945 -306.621 -306.621 -126.945 -306.621 126.945 -126.945 306.621zm162.099 -1.953q-19.53 -27.342 1.953 -46.872l167.958 -146.475q11.718 -7.812 21.483 -10.742t25.389 -2.929l109.368 0q15.624 0 25.389 2.929t21.483 10.742q9.765 7.812 71.285 62.496t96.674 83.979q21.483 21.483 1.953 46.872 -21.483 23.436 -46.872 3.906 -19.53 -17.577 -62.496 -53.708t-64.449 -57.614q0 1.953 -2.929 0t-6.836 -3.906 -5.859 -1.953q-5.859 0 -5.859 13.671l0 57.614t3.906 67.379q1.953 21.483 1.953 25.389l48.825 271.467q3.906 41.013 -33.201 48.825 -17.577 3.906 -32.224 -6.836t-16.601 -26.366q-39.06 -220.689 -39.06 -224.595 -5.859 -23.436 -9.765 -23.436 -3.906 1.953 -5.859 4.883t-1.953 6.836 -.977 7.812l-.977 3.906q0 1.953 -9.765 58.59t-19.53 111.321l-9.765 54.684q-5.859 17.577 -18.553 26.366t-30.271 6.836q-39.06 -9.765 -33.201 -48.825l48.825 -273.42q5.859 -37.107 5.859 -146.475 0 -15.624 -5.859 -15.624t-15.624 7.812l-126.945 109.368q-27.342 19.53 -46.872 -3.906zm199.206 -299.786q0 -30.271 21.483 -51.755t51.755 -21.483 51.755 21.483 21.483 51.755 -21.483 51.755 -51.755 21.483 -51.755 -21.483 -21.483 -51.755z"/></svg>