<svg height="1000px" width="1000px" xmlns="http://www.w3.org/2000/svg">
  <g>
    <path d="M0 500c0 -138.021 48.828 -255.859 146.484 -353.516c97.657 -97.656 215.495 -146.484 353.516 -146.484c138.021 0 255.859 48.828 353.516 146.484c97.656 97.657 146.484 215.495 146.484 353.516c0 138.021 -48.828 255.859 -146.484 353.516c-97.657 97.656 -215.495 146.484 -353.516 146.484c-138.021 0 -255.859 -48.828 -353.516 -146.484c-97.656 -97.657 -146.484 -215.495 -146.484 -353.516c0 0 0 0 0 0m66.406 0c0 119.792 42.318 222.005 126.953 306.641c84.636 84.635 186.849 126.953 306.641 126.953c119.792 0 222.005 -42.318 306.641 -126.953c84.635 -84.636 126.953 -186.849 126.953 -306.641c0 -119.792 -42.318 -222.005 -126.953 -306.641c-84.636 -84.635 -186.849 -126.953 -306.641 -126.953c-119.792 0 -222.005 42.318 -306.641 126.953c-84.635 84.636 -126.953 186.849 -126.953 306.641c0 0 0 0 0 0m162.11 -1.953c-13.021 -18.229 -12.37 -33.854 1.953 -46.875c0 0 167.968 -146.485 167.968 -146.485c7.813 -5.208 14.974 -8.789 21.485 -10.742c6.51 -1.953 14.974 -2.929 25.39 -2.929c0 0 109.375 0 109.375 0c10.417 0 18.881 0.976 25.391 2.929c6.511 1.953 13.672 5.534 21.485 10.742c6.51 5.209 30.273 26.042 71.289 62.5c41.015 36.459 73.242 64.454 96.679 83.985c14.323 14.323 14.974 29.948 1.953 46.875c-14.323 15.625 -29.948 16.927 -46.875 3.906c-13.02 -11.719 -33.854 -29.622 -62.5 -53.711c-28.645 -24.088 -50.13 -43.294 -64.453 -57.617c0 1.302 -0.976 1.302 -2.929 0c-1.954 -1.302 -4.232 -2.604 -6.836 -3.906c-2.605 -1.302 -4.558 -1.953 -5.86 -1.953c-3.906 0 -5.859 4.557 -5.859 13.671c0 0 0 57.618 0 57.618c0 0 1.302 22.461 3.906 67.382c1.302 14.323 1.953 22.787 1.953 25.391c0 0 48.828 271.484 48.828 271.484c2.605 27.344 -8.463 43.62 -33.203 48.829c-11.718 2.604 -22.461 0.325 -32.226 -6.836c-9.766 -7.162 -15.3 -15.951 -16.602 -26.368c-26.042 -147.135 -39.062 -222.005 -39.062 -224.609c-3.907 -15.625 -7.162 -23.437 -9.766 -23.437c-2.604 1.302 -4.557 2.929 -5.859 4.882c-1.302 1.954 -1.953 4.232 -1.953 6.836c0 2.605 -0.326 5.209 -0.977 7.813c0 0 -0.977 3.906 -0.977 3.906c0 1.302 -3.255 20.833 -9.765 58.594c-6.511 37.76 -13.021 74.87 -19.531 111.328c0 0 -9.766 54.688 -9.766 54.688c-3.906 11.718 -10.091 20.507 -18.555 26.367c-8.463 5.859 -18.554 8.138 -30.273 6.836c-26.042 -6.511 -37.11 -22.787 -33.203 -48.828c0 0 48.828 -273.438 48.828 -273.438c3.906 -24.74 5.859 -73.568 5.859 -146.484c0 -10.417 -1.953 -15.625 -5.859 -15.625c-3.906 0 -9.115 2.604 -15.625 7.812c0 0 -126.953 109.375 -126.953 109.375c-18.23 13.021 -33.855 11.719 -46.875 -3.906c0 0 0 0 0 0m199.218 -299.805c0 -20.182 7.162 -37.435 21.485 -51.758c14.323 -14.323 31.575 -21.484 51.758 -21.484c20.182 0 37.434 7.161 51.757 21.484c14.323 14.323 21.485 31.576 21.485 51.758c0 20.182 -7.162 37.435 -21.485 51.758c-14.323 14.323 -31.575 21.484 -51.757 21.484c-20.183 0 -37.435 -7.161 -51.758 -21.484c-14.323 -14.323 -21.485 -31.576 -21.485 -51.758c0 0 0 0 0 0" />
  </g>
</svg>