<svg height="1000" width="845" xmlns="http://www.w3.org/2000/svg"><path d="M.327 430.637q1.953 -59.567 39.06 -97.65t109.368 -41.989q50.778 -42.966 119.133 -33.201 25.389 -15.624 56.637 -21.483l0 -107.415q1.953 -52.731 37.107 -90.815t87.885 -38.084q54.684 0 88.862 36.13t38.084 92.767q1.953 218.736 1.953 273.42 93.744 -44.919 169.911 -17.577 54.684 19.53 82.026 78.12t3.906 115.227q-23.436 21.483 -79.097 30.271t-77.144 18.553q-23.436 13.671 -41.013 35.154 -15.624 21.483 -56.637 58.59t-58.59 60.543l0 154.287q0 25.389 -18.553 43.943t-43.943 20.506l-347.634 0q-25.389 0 -43.943 -18.553t-20.506 -45.895l0 -169.911q0 -27.342 -14.648 -93.744t-24.413 -124.016 -7.812 -117.18zm58.59 30.271q1.953 54.684 12.694 109.368t25.389 115.227 14.648 83.979l347.634 0l0 -3.906q15.624 -37.107 70.308 -86.909t68.355 -67.379q21.483 -25.389 53.708 -41.013t55.66 -20.506 68.355 -12.694q3.906 0 6.836 -.977t4.883 -4.883q3.906 -21.483 -9.765 -46.872 -21.483 -35.154 -57.614 -41.989t-66.402 3.906 -73.237 27.342 -66.402 20.506l0 -365.212q-1.953 -27.342 -18.553 -44.919t-45.895 -19.53q-23.436 1.953 -41.013 19.53t-19.53 44.919l0 191.395q-48.825 -48.825 -107.415 9.765 -25.389 -15.624 -58.59 -6.836t-46.872 36.13q-62.496 -9.765 -90.815 18.553t-26.366 83.002z"/></svg>