<svg height="1000px" width="1000px" xmlns="http://www.w3.org/2000/svg">
  <g>
    <path d="M78.125 430.6640625c1.302 -39.714 14.323 -72.266 39.063 -97.656c24.739 -25.391 61.197 -39.388 109.374 -41.992c33.855 -28.646 73.568 -39.714 119.141 -33.204c16.927 -10.416 35.807 -17.578 56.641 -21.484c0 0 0 -107.422 0 -107.422c1.302 -35.156 13.672 -65.429 37.109 -90.82c23.438 -25.391 52.734 -38.086 87.891 -38.086c36.458 0 66.08 12.044 88.867 36.133c22.786 24.088 35.482 55.013 38.086 92.773c1.302 145.834 1.953 236.979 1.953 273.438c62.5 -29.948 119.141 -35.808 169.922 -17.578c36.458 13.02 63.802 39.062 82.031 78.125c18.229 39.062 19.531 77.474 3.906 115.234c-15.625 14.323 -41.992 24.414 -79.101 30.273c-37.11 5.86 -62.826 12.045 -77.149 18.555c-15.625 9.115 -29.296 20.833 -41.015 35.156c-10.417 14.323 -29.297 33.854 -56.641 58.594c-27.344 24.74 -46.875 44.922 -58.594 60.547c0 0 0 154.297 0 154.297c0 16.927 -6.185 31.575 -18.554 43.945c-12.37 12.37 -27.019 19.206 -43.946 20.508c0 0 -347.656 0 -347.656 0c-16.927 0 -31.575 -6.185 -43.945 -18.555c-12.37 -12.37 -19.206 -27.669 -20.508 -45.898c0 0 0 -169.922 0 -169.922c0 -18.229 -4.883 -49.479 -14.648 -93.75c-9.766 -44.271 -17.904 -85.612 -24.414 -124.024c-6.511 -38.411 -9.115 -77.473 -7.813 -117.187c0 0 0 0 0 0m58.594 30.273c1.302 36.459 5.534 72.917 12.695 109.375c7.162 36.459 15.625 74.87 25.391 115.235c9.765 40.364 14.648 68.359 14.648 83.984c0 0 347.656 0 347.656 0c0 0 0 -3.906 0 -3.906c10.417 -24.74 33.855 -53.711 70.313 -86.914c36.458 -33.203 59.245 -55.664 68.359 -67.383c14.323 -16.927 32.227 -30.599 53.711 -41.016c21.485 -10.416 40.039 -17.252 55.664 -20.507c15.625 -3.256 38.412 -7.487 68.36 -12.696c2.604 0 4.882 -0.325 6.836 -0.976c1.953 -0.651 3.58 -2.279 4.882 -4.883c2.605 -14.323 -0.651 -29.948 -9.765 -46.875c-14.323 -23.438 -33.529 -37.435 -57.617 -41.992c-24.089 -4.558 -46.224 -3.255 -66.407 3.906c-20.182 7.161 -44.596 16.276 -73.242 27.344c-28.646 11.067 -50.781 17.903 -66.406 20.508c0 0 0 -180.665 0 -180.665c0 0 0 -184.57 0 -184.57c-1.302 -18.229 -7.487 -33.203 -18.555 -44.922c-11.068 -11.718 -26.367 -18.229 -45.898 -19.531c-15.625 1.302 -29.297 7.813 -41.016 19.531c-11.719 11.719 -18.229 26.693 -19.531 44.922c0 0 0 94.727 0 94.727c0 0 0 96.679 0 96.679c-32.552 -32.552 -68.36 -29.296 -107.422 9.766c-16.927 -10.417 -36.458 -12.695 -58.594 -6.836c-22.135 5.859 -37.76 17.904 -46.875 36.133c-41.666 -6.51 -71.94 -0.326 -90.82 18.555c-18.88 18.88 -27.669 46.549 -26.367 83.007c0 0 0 0 0 0" />
  </g>
</svg>