<svg height="1000px" width="1000px" xmlns="http://www.w3.org/2000/svg">
  <g>
    <path d="M0 500c0 -138.021 48.828 -255.859 146.484 -353.516c97.657 -97.656 215.495 -146.484 353.516 -146.484c138.021 0 255.859 48.828 353.516 146.484c97.656 97.657 146.484 215.495 146.484 353.516c0 138.021 -48.828 255.859 -146.484 353.516c-97.657 97.656 -215.495 146.484 -353.516 146.484c-138.021 0 -255.859 -48.828 -353.516 -146.484c-97.656 -97.657 -146.484 -215.495 -146.484 -353.516c0 0 0 0 0 0m109.375 0c0 108.073 38.086 200.195 114.258 276.367c76.172 76.172 168.294 114.258 276.367 114.258c108.073 0 200.195 -38.086 276.367 -114.258c76.172 -76.172 114.258 -168.294 114.258 -276.367c0 -108.073 -38.086 -200.195 -114.258 -276.367c-76.172 -76.172 -168.294 -114.258 -276.367 -114.258c-108.073 0 -200.195 38.086 -276.367 114.258c-76.172 76.172 -114.258 168.294 -114.258 276.367c0 0 0 0 0 0m169.922 -13.672c0 0 220.703 -207.031 220.703 -207.031c0 0 220.703 207.031 220.703 207.031c0 0 -123.047 0 -123.047 0c0 0 0 222.656 0 222.656c0 0 -195.312 0 -195.312 0c0 0 0 -222.656 0 -222.656c0 0 -123.047 0 -123.047 0c0 0 0 0 0 0" />
  </g>
</svg>