<svg height="1000px" width="1000px" xmlns="http://www.w3.org/2000/svg">
  <g>
    <path d="M0 1000c0 0 0 -156.25 0 -156.25c0 -15.625 19.206 -34.831 57.617 -57.617c38.412 -22.787 91.472 -46.55 159.18 -71.289c66.406 -23.438 111.979 -47.526 136.719 -72.266c24.739 -24.739 37.109 -58.594 37.109 -101.562c0 -19.532 -8.789 -43.62 -26.367 -72.266c-17.578 -28.646 -28.32 -48.177 -32.227 -58.594c-7.812 -23.437 -17.578 -68.359 -29.297 -134.765c-6.51 -35.157 -11.067 -66.407 -13.671 -93.75c-1.303 -14.323 0.651 -30.925 5.859 -49.805c5.208 -18.88 14.648 -38.737 28.32 -59.57c13.672 -20.834 35.807 -38.086 66.406 -51.758c30.599 -13.672 67.383 -20.508 110.352 -20.508c42.969 0 79.753 6.836 110.352 20.508c30.599 13.672 52.734 30.924 66.406 51.758c13.672 20.833 23.112 40.69 28.32 59.57c5.208 18.88 7.162 35.482 5.86 49.805c-2.605 27.343 -7.162 58.593 -13.672 93.75c-11.719 66.406 -21.485 111.328 -29.297 134.765c-3.906 10.417 -14.649 29.948 -32.227 58.594c-17.578 28.646 -26.367 52.734 -26.367 72.266c0 42.968 12.37 76.823 37.109 101.562c24.74 24.74 70.313 48.828 136.719 72.266c144.531 53.385 216.797 96.354 216.797 128.906c0 0 0 156.25 0 156.25c0 0 -1000 0 -1000 0c0 0 0 0 0 0" />
  </g>
</svg>