<svg height="1000px" width="1000px" xmlns="http://www.w3.org/2000/svg">
  <g>
    <path d="M0 753.90625c0 0 0 -712.891 0 -712.891c0 0 1000 0 1000 0c0 0 0 712.891 0 712.891c0 0 -472.656 0 -472.656 0c0 0 -320.313 205.078 -320.313 205.078c0 0 0 -205.078 0 -205.078c0 0 -207.031 0 -207.031 0c0 0 0 0 0 0m218.75 -201.172c0 0 402.344 0 402.344 0c0 0 0 -125 0 -125c0 0 160.156 125 160.156 125c0 0 0 -332.031 0 -332.031c0 0 -160.156 123.047 -160.156 123.047c0 0 0 -123.047 0 -123.047c0 0 -402.344 0 -402.344 0c0 0 0 332.031 0 332.031c0 0 0 0 0 0" />
  </g>
</svg>