<svg height="1000px" width="1000px" xmlns="http://www.w3.org/2000/svg">
  <g>
    <path d="M0 500c0 -138.021 48.828 -255.859 146.484 -353.516c97.657 -97.656 215.495 -146.484 353.516 -146.484c138.021 0 255.859 48.828 353.516 146.484c97.656 97.657 146.484 215.495 146.484 353.516c0 138.021 -48.828 255.859 -146.484 353.516c-97.657 97.656 -215.495 146.484 -353.516 146.484c-138.021 0 -255.859 -48.828 -353.516 -146.484c-97.656 -97.657 -146.484 -215.495 -146.484 -353.516c0 0 0 0 0 0m201.172 226.562c0 0 597.656 0 597.656 0c0 0 0 -453.125 0 -453.125c0 0 -597.656 0 -597.656 0c0 0 0 453.125 0 453.125c0 0 0 0 0 0m74.219 -74.218c0 0 0 -304.688 0 -304.688c0 0 449.218 0 449.218 0c0 0 0 304.688 0 304.688c0 0 -449.218 0 -449.218 0c0 0 0 0 0 0m158.203 -48.828c0 0 175.781 -101.563 175.781 -101.563c0 0 -175.781 -101.562 -175.781 -101.562c0 0 0 203.125 0 203.125c0 0 0 0 0 0" />
  </g>
</svg>