<svg height="1000" width="883" xmlns="http://www.w3.org/2000/svg"><path d="M0 999.936l0 -999.936l882.756 0l0 999.936l-882.756 0zm44.919 -119.133l109.368 0l0 -82.026l-109.368 0l0 82.026zm0 -183.582l109.368 0l0 -83.979l-109.368 0l0 83.979zm0 -185.535l109.368 0l0 -82.026l-109.368 0l0 82.026zm0 -185.535l109.368 0l0 -82.026l-109.368 0l0 82.026zm0 -183.582l109.368 0l0 -82.026l-109.368 0l0 82.026zm156.24 826.119l480.438 0l0 -435.519l-480.438 0l0 435.519zm0 -466.767l480.438 0l0 -435.519l-480.438 0l0 435.519zm527.31 378.882l109.368 0l0 -82.026l-109.368 0l0 82.026zm0 -183.582l109.368 0l0 -83.979l-109.368 0l0 83.979zm0 -185.535l109.368 0l0 -82.026l-109.368 0l0 82.026zm0 -185.535l109.368 0l0 -82.026l-109.368 0l0 82.026zm0 -183.582l109.368 0l0 -82.026l-109.368 0l0 82.026z"/></svg>