<svg height="1000px" width="1000px" xmlns="http://www.w3.org/2000/svg">
  <g>
    <path d="M58.59375 1000c0 0 0 -1000 0 -1000c0 0 882.813 0 882.813 0c0 0 0 1000 0 1000c0 0 -882.813 0 -882.813 0c0 0 0 0 0 0m44.922 -119.141c0 0 109.375 0 109.375 0c0 0 0 -82.031 0 -82.031c0 0 -109.375 0 -109.375 0c0 0 0 82.031 0 82.031c0 0 0 0 0 0m0 -183.593c0 0 109.375 0 109.375 0c0 0 0 -83.985 0 -83.985c0 0 -109.375 0 -109.375 0c0 0 0 83.985 0 83.985c0 0 0 0 0 0m0 -185.547c0 0 109.375 0 109.375 0c0 0 0 -82.031 0 -82.031c0 0 -109.375 0 -109.375 0c0 0 0 82.031 0 82.031c0 0 0 0 0 0m0 -185.547c0 0 109.375 0 109.375 0c0 0 0 -82.031 0 -82.031c0 0 -109.375 0 -109.375 0c0 0 0 82.031 0 82.031c0 0 0 0 0 0m0 -183.594c0 0 109.375 0 109.375 0c0 0 0 -82.031 0 -82.031c0 0 -109.375 0 -109.375 0c0 0 0 82.031 0 82.031c0 0 0 0 0 0m156.25 826.172c0 0 480.469 0 480.469 0c0 0 0 -435.547 0 -435.547c0 0 -480.469 0 -480.469 0c0 0 0 435.547 0 435.547c0 0 0 0 0 0m0 -466.797c0 0 480.469 0 480.469 0c0 0 0 -435.547 0 -435.547c0 0 -480.469 0 -480.469 0c0 0 0 435.547 0 435.547c0 0 0 0 0 0m527.344 378.906c0 0 109.375 0 109.375 0c0 0 0 -82.031 0 -82.031c0 0 -109.375 0 -109.375 0c0 0 0 82.031 0 82.031c0 0 0 0 0 0m0 -183.593c0 0 109.375 0 109.375 0c0 0 0 -83.985 0 -83.985c0 0 -109.375 0 -109.375 0c0 0 0 83.985 0 83.985c0 0 0 0 0 0m0 -185.547c0 0 109.375 0 109.375 0c0 0 0 -82.031 0 -82.031c0 0 -109.375 0 -109.375 0c0 0 0 82.031 0 82.031c0 0 0 0 0 0m0 -185.547c0 0 109.375 0 109.375 0c0 0 0 -82.031 0 -82.031c0 0 -109.375 0 -109.375 0c0 0 0 82.031 0 82.031c0 0 0 0 0 0m0 -183.594c0 0 109.375 0 109.375 0c0 0 0 -82.031 0 -82.031c0 0 -109.375 0 -109.375 0c0 0 0 82.031 0 82.031c0 0 0 0 0 0" />
  </g>
</svg>