<svg height="1000px" width="1000px" xmlns="http://www.w3.org/2000/svg">
  <g>
    <path d="M0 925.78125c0 0 925.781 -925.781 925.781 -925.781c0 0 74.219 74.218 74.219 74.218c0 0 -925.781 925.782 -925.781 925.782c0 0 -74.219 -74.219 -74.219 -74.219m0 -410.156c0 0 0 -234.375 0 -234.375c0 0 234.375 0 234.375 0c0 0 0 234.375 0 234.375c0 0 -234.375 0 -234.375 0c0 0 0 0 0 0m0 -279.297c0 0 0 -234.375 0 -234.375c0 0 234.375 0 234.375 0c0 0 0 234.375 0 234.375c0 0 -234.375 0 -234.375 0c0 0 0 0 0 0m275.391 279.297c0 0 0 -234.375 0 -234.375c0 0 234.375 0 234.375 0c0 0 -234.375 234.375 -234.375 234.375m0 -279.297c0 0 0 -234.375 0 -234.375c0 0 234.375 0 234.375 0c0 0 0 234.375 0 234.375c0 0 -234.375 0 -234.375 0c0 0 0 0 0 0m236.328 761.719c0 0 0 -130.86 0 -130.86c0 0 488.281 0 488.281 0c0 0 0 130.86 0 130.86c0 0 -488.281 0 -488.281 0c0 0 0 0 0 0m0 -167.969c0 0 0 -130.86 0 -130.86c0 0 488.281 0 488.281 0c0 0 0 130.86 0 130.86c0 0 -488.281 0 -488.281 0c0 0 0 0 0 0m31.25 -167.969c0 0 144.531 -130.859 144.531 -130.859c0 0 312.5 0 312.5 0c0 0 0 130.859 0 130.859c0 0 -457.031 0 -457.031 0c0 0 0 0 0 0" />
  </g>
</svg>