<svg height="1000" width="1000" xmlns="http://www.w3.org/2000/svg"><path d="M0 999.936l0 -999.936l999.936 0l0 999.936l-999.936 0zm132.804 -599.571q1.953 3.906 7.812 11.718t7.812 9.765q11.718 11.718 37.107 3.906 25.389 -9.765 41.013 -8.789t29.295 26.366q27.342 74.214 74.214 251.937 31.248 101.556 76.167 121.086 25.389 5.859 51.755 0t45.895 -17.577q119.133 -76.167 212.877 -238.266 1.953 -3.906 26.366 -50.778t33.201 -68.355 22.46 -60.543 11.718 -67.379 -17.577 -47.849q-52.731 -41.013 -108.392 -26.366t-100.58 57.614 -62.496 93.744q48.825 0 58.59 3.906 29.295 15.624 25.389 64.449 -11.718 50.778 -37.107 99.603t-58.59 54.684q-13.671 0 -29.295 -17.577 -19.53 -23.436 -27.342 -49.802t-12.694 -71.285 -6.836 -54.684q0 -1.953 -4.883 -31.248t-7.812 -41.989 -10.742 -35.154 -19.53 -35.154 -27.342 -18.553q-66.402 -9.765 -156.24 74.214 -37.107 33.201 -74.214 64.449l0 3.906z"/></svg>