<svg height="1000px" width="1000px" xmlns="http://www.w3.org/2000/svg">
  <g>
    <path d="M0 1000c0 0 0 -1000 0 -1000c0 0 1000 0 1000 0c0 0 0 1000 0 1000c0 0 -1000 0 -1000 0c0 0 0 0 0 0m132.813 -599.609c1.302 2.604 3.906 6.51 7.812 11.718c3.906 5.209 6.51 8.464 7.813 9.766c7.812 7.813 20.182 9.115 37.109 3.906c16.927 -6.51 30.599 -9.44 41.016 -8.789c10.416 0.651 20.182 9.44 29.296 26.367c18.23 49.48 42.969 133.464 74.219 251.953c20.833 67.709 46.224 108.073 76.172 121.094c16.927 3.907 34.18 3.907 51.758 0c17.578 -3.906 32.877 -9.765 45.898 -17.578c79.427 -50.781 150.391 -130.208 212.891 -238.281c1.302 -2.604 10.091 -19.531 26.367 -50.781c16.276 -31.25 27.344 -54.037 33.203 -68.36c5.86 -14.323 13.347 -34.505 22.461 -60.547c9.115 -26.041 13.021 -48.502 11.719 -67.382c-1.302 -18.881 -7.162 -34.831 -17.578 -47.852c-35.157 -27.344 -71.289 -36.133 -108.399 -26.367c-37.109 9.765 -70.638 28.971 -100.586 57.617c-29.948 28.646 -50.781 59.896 -62.5 93.75c32.552 0 52.084 1.302 58.594 3.906c19.531 10.417 27.995 31.901 25.391 64.453c-7.813 33.855 -20.183 67.058 -37.11 99.61c-16.927 32.552 -36.458 50.781 -58.593 54.687c-9.115 0 -18.881 -5.859 -29.297 -17.578c-13.021 -15.625 -22.136 -32.226 -27.344 -49.805c-5.208 -17.578 -9.44 -41.341 -12.695 -71.289c-3.256 -29.948 -5.534 -48.177 -6.836 -54.687c0 -1.302 -1.628 -11.719 -4.883 -31.25c-3.255 -19.531 -5.859 -33.529 -7.813 -41.992c-1.953 -8.464 -5.533 -20.183 -10.742 -35.157c-5.208 -14.974 -11.719 -26.692 -19.531 -35.156c-7.813 -8.463 -16.927 -14.648 -27.344 -18.555c-44.271 -6.51 -96.354 18.23 -156.25 74.219c-24.739 22.136 -49.479 43.62 -74.219 64.453c0 0 0 3.907 0 3.907c0 0 0 0 0 0" />
  </g>
</svg>