<svg height="1000" width="1000" xmlns="http://www.w3.org/2000/svg"><path d="M0 1000l0-999.936l999.936 0l0 999.936l-999.936 0zm97.65-701.127q1.953 27.342 19.53 66.402 46.872 99.603 142.569 236.313 35.154 39.06 53.708 56.637t49.802 39.06 69.332 28.319 88.862 4.883q15.624-1.953 22.46-2.929t16.601-8.789 11.718-23.436l3.906-50.778q5.859-21.483 26.366-19.53t28.319 15.624q13.671 23.436 52.731 58.59t66.402 33.201l128.898-5.859q17.577 0 22.46-16.601t-8.789-38.084q-29.295-42.966-103.509-111.321-35.154-33.201 13.671-87.885 35.154-39.06 73.237-97.65t24.413-76.167q-7.812-7.812-11.718-8.789t-25.389-.977l-121.086 0q-19.53 0-24.413 2.929t-12.694 20.506l-2.929 5.859-11.718 24.413-13.671 30.271-13.671 27.342-17.577 29.295-16.601 23.436-20.506 22.46-20.506 14.648q-9.765-3.906-15.624-19.53t-5.859-38.084.977-42.966 2.929-42.966 1.953-28.319q0-46.872-58.59-46.872-1.953 0-27.342-1.953t-42.966-1.953q-70.308 0-82.026 31.248 50.778 15.624 48.825 76.167 0 95.697-3.906 95.697-9.765 39.06-41.013 9.765-46.872-60.543-95.697-169.911-11.718-23.436-31.248-21.483-7.812 0-48.825-.977t-62.496.977-29.295 9.765z"/></svg>