<svg height="1000px" width="1000px" xmlns="http://www.w3.org/2000/svg">
  <g>
    <path d="M0 1000c0 0 0 -1000 0 -1000c0 0 1000 0 1000 0c0 0 0 1000 0 1000c0 0 -1000 0 -1000 0c0 0 0 0 0 0m97.656 -701.172c1.302 18.229 7.813 40.365 19.531 66.406c31.25 66.407 78.777 145.183 142.579 236.329c23.437 26.041 41.341 44.921 53.711 56.64c12.369 11.719 28.971 24.74 49.804 39.063c20.834 14.323 43.946 23.763 69.336 28.32c25.391 4.557 55.013 6.185 88.867 4.883c10.417 -1.302 17.904 -2.279 22.461 -2.93c4.558 -0.651 10.091 -3.581 16.602 -8.789c6.51 -5.208 10.417 -13.021 11.719 -23.438c0 0 3.906 -50.781 3.906 -50.781c3.906 -14.323 12.695 -20.833 26.367 -19.531c13.672 1.302 23.112 6.51 28.32 15.625c9.115 15.625 26.693 35.156 52.735 58.594c26.041 23.437 48.177 34.505 66.406 33.203c0 0 128.906 -5.86 128.906 -5.86c11.719 0 19.206 -5.533 22.461 -16.601c3.255 -11.068 0.326 -23.763 -8.789 -38.086c-19.531 -28.646 -54.036 -65.755 -103.515 -111.328c-23.438 -22.136 -18.881 -51.432 13.671 -87.891c23.438 -26.041 47.852 -58.594 73.243 -97.656c25.39 -39.063 33.528 -64.453 24.414 -76.172c-5.209 -5.208 -9.115 -8.138 -11.719 -8.789c-2.604 -0.651 -11.068 -0.977 -25.391 -0.977c0 0 -121.094 0 -121.094 0c-13.02 0 -21.158 0.977 -24.414 2.93c-3.255 1.953 -7.487 8.789 -12.695 20.508c0 0 -2.93 5.859 -2.93 5.859c0 0 -3.906 8.138 -11.718 24.414c-7.813 16.276 -12.37 26.368 -13.672 30.274c-1.302 3.906 -5.86 13.021 -13.672 27.344c-7.813 14.323 -13.672 24.088 -17.578 29.296c-3.906 5.209 -9.44 13.021 -16.602 23.438c-7.161 10.417 -13.997 17.904 -20.508 22.461c-6.51 4.557 -13.346 9.44 -20.507 14.648c-6.511 -2.604 -11.719 -9.114 -15.625 -19.531c-3.907 -10.417 -5.86 -23.112 -5.86 -38.086c0 -14.974 0.326 -29.297 0.977 -42.969c0.651 -13.671 1.627 -27.994 2.929 -42.968c1.303 -14.974 1.954 -24.414 1.954 -28.321c0 -31.25 -19.532 -46.875 -58.594 -46.875c-1.302 0 -10.417 -0.651 -27.344 -1.953c-16.927 -1.302 -31.25 -1.953 -42.969 -1.953c-46.875 0 -74.218 10.417 -82.031 31.25c33.854 10.417 50.13 35.807 48.828 76.172c0 63.802 -1.302 95.703 -3.906 95.703c-6.51 26.042 -20.182 29.297 -41.016 9.766c-31.25 -40.365 -63.151 -97.005 -95.703 -169.922c-7.812 -15.625 -18.229 -22.787 -31.25 -21.485c-5.208 0 -21.484 -0.325 -48.828 -0.976c-27.344 -0.651 -48.177 -0.326 -62.5 0.976c-14.323 1.303 -24.088 4.558 -29.297 9.766c0 0 0 0 0 0" />
  </g>
</svg>