<svg height="1000px" width="1000px" xmlns="http://www.w3.org/2000/svg">
  <g>
    <path d="M-76.171875 357.421875c0 0 76.172 0 76.172 0c0 0 228.516 0 228.516 0c0 0 345.703 -281.25 345.703 -281.25c0 0 0 964.844 0 964.844c0 0 -345.703 -279.297 -345.703 -279.297c0 0 -228.516 0 -228.516 0c0 0 -76.172 -404.297 -76.172 -404.297m712.891 283.203c0 -2.604 0.651 -4.557 1.953 -5.859c0 0 76.172 -76.172 76.172 -76.172c0 0 -76.172 -76.172 -76.172 -76.172c-1.302 -1.302 -1.953 -3.255 -1.953 -5.859c0 -2.605 0.651 -4.558 1.953 -5.86c0 0 52.734 -52.734 52.734 -52.734c1.302 -1.302 3.255 -1.953 5.86 -1.953c2.604 0 4.557 0.651 5.859 1.953c0 0 76.172 76.172 76.172 76.172c0 0 76.172 -76.172 76.172 -76.172c2.604 -1.302 4.882 -1.953 6.836 -1.953c1.953 0 3.58 0.651 4.882 1.953c0 0 54.688 52.734 54.688 52.734c1.302 1.302 1.953 3.255 1.953 5.86c0 2.604 -0.651 4.557 -1.953 5.859c0 0 -76.172 76.172 -76.172 76.172c0 0 76.172 76.172 76.172 76.172c1.302 2.604 1.953 4.883 1.953 6.836c0 1.953 -0.651 3.58 -1.953 4.883c0 0 -54.688 54.687 -54.688 54.687c-1.302 1.302 -2.929 1.953 -4.882 1.953c-1.954 0 -4.232 -0.651 -6.836 -1.953c0 0 -76.172 -78.125 -76.172 -78.125c0 0 -76.172 78.125 -76.172 78.125c-1.302 1.302 -2.93 1.953 -4.883 1.953c-1.953 0 -4.232 -0.651 -6.836 -1.953c0 0 -52.734 -54.688 -52.734 -54.688c-1.302 -1.302 -1.953 -3.255 -1.953 -5.859c0 0 0 0 0 0" />
  </g>
</svg>