<svg height="1000px" width="1000px" xmlns="http://www.w3.org/2000/svg">
  <g>
    <path d="M0 787.109375c0 0 0 -416.016 0 -416.016c0 0 236.328 0 236.328 0c0 0 353.516 -289.062 353.516 -289.062c0 0 0 994.14 0 994.14c0 0.001 -353.516 -289.062 -353.516 -289.062c0 0 -236.328 0 -236.328 0c0 0 0 0 0 0m652.344 -35.156c48.177 -49.479 72.265 -108.073 72.265 -175.781c0 -67.709 -24.088 -126.954 -72.265 -177.735c0 0 70.312 -74.219 70.312 -74.219c70.313 70.313 106.12 154.948 107.422 253.907c0 96.354 -35.807 178.385 -107.422 246.093c0 0 -70.312 -72.265 -70.312 -72.265m117.187 119.14c82.031 -79.427 123.047 -177.734 123.047 -294.921c0 -117.188 -41.016 -216.797 -123.047 -298.829c0 0 76.172 -74.218 76.172 -74.218c102.865 102.864 154.297 226.888 154.297 372.07c0 145.182 -51.432 269.206 -154.297 372.07c0 0 -76.172 -76.172 -76.172 -76.172" />
  </g>
</svg>