<svg height="1000" width="1000" xmlns="http://www.w3.org/2000/svg"><path d="M0 680.836l0 -359.352l203.112 0l306.621 -249.984l0 857.367l-306.621 -248.031l-203.112 0zm562.464 -33.201q62.496 -62.496 62.496 -150.381t-62.496 -152.334l60.543 -64.449q89.838 89.838 91.791 218.736 0 124.992 -91.791 212.877zm101.556 105.462q105.462 -105.462 105.462 -255.843t-105.462 -257.796l66.402 -62.496q130.851 132.804 130.851 319.315t-130.851 321.269zm99.603 97.65q146.475 -146.475 146.475 -353.493t-146.475 -353.493l62.496 -64.449q82.026 82.026 127.922 189.441t45.895 227.525 -45.895 228.501 -127.922 190.418z"/></svg>