<svg height="1000px" width="1000px" xmlns="http://www.w3.org/2000/svg">
  <g>
    <path d="M0 683.59375c0 0 0 -359.375 0 -359.375c0 0 203.125 0 203.125 0c0 0 306.641 -250 306.641 -250c0 0 0 857.422 0 857.422c0 0 -306.641 -248.047 -306.641 -248.047c0 0 -203.125 0 -203.125 0c0 0 0 0 0 0m562.5 -33.203c41.667 -41.667 62.5 -91.797 62.5 -150.391c0 -58.594 -20.833 -109.375 -62.5 -152.344c0 0 60.547 -64.453 60.547 -64.453c59.896 59.896 90.495 132.813 91.797 218.75c0 83.334 -30.599 154.297 -91.797 212.891c0 0 -60.547 -64.453 -60.547 -64.453m101.563 105.469c70.312 -70.313 105.468 -155.599 105.468 -255.86c0 -100.26 -35.156 -186.198 -105.468 -257.812c0 0 66.406 -62.5 66.406 -62.5c87.239 88.541 130.859 194.987 130.859 319.336c0 124.349 -43.62 231.445 -130.859 321.289c0 0 -66.407 -64.453 -66.407 -64.453m99.61 97.656c97.656 -97.656 146.484 -215.495 146.484 -353.516c0 -138.021 -48.828 -255.859 -146.484 -353.515c0 0 62.5 -64.454 62.5 -64.454c54.687 54.688 97.331 117.839 127.93 189.454c30.599 71.614 45.898 147.461 45.898 227.539c0 80.078 -15.299 156.25 -45.898 228.515c-30.599 72.266 -73.243 135.743 -127.93 190.43c0 0 -62.5 -64.453 -62.5 -64.453" />
  </g>
</svg>