<svg height="1000" width="1077" xmlns="http://www.w3.org/2000/svg"><path d="M0 357.463l304.668 0l345.681-281.232l0 964.782l-345.681-279.279l-228.501 0zm712.845 283.185q0-3.906 1.953-5.859l76.167-76.167-76.167-76.167q-1.953-1.953-1.953-5.859t1.953-5.859l52.731-52.731q1.953-1.953 5.859-1.953t5.859 1.953l76.167 76.167 76.167-76.167q3.906-1.953 6.836-1.953t4.883 1.953l54.684 52.731q1.953 1.953 1.953 5.859t-1.953 5.859l-76.167 76.167 76.167 76.167q1.953 3.906 1.953 6.836t-1.953 4.883l-54.684 54.684q-1.953 1.953-4.883 1.953t-6.836-1.953l-76.167-78.12-76.167 78.12q-1.953 1.953-4.883 1.953t-6.836-1.953l-52.731-54.684q-1.953-1.953-1.953-5.859z"/></svg>