<svg height="1000px" width="1000px" xmlns="http://www.w3.org/2000/svg">
  <g>
    <path d="M0 787.109375c0 0 0 -417.969 0 -417.969c0 0 236.328 0 236.328 0c0 0 357.422 -291.015 357.422 -291.015c0 0 0 1000 0 1000c0 0 -357.422 -291.016 -357.422 -291.016c0 0 -236.328 0 -236.328 0c0 0 0 0 0 0m656.25 -37.109c49.479 -49.48 74.219 -107.422 74.219 -173.828c0 -69.011 -24.74 -128.907 -74.219 -179.688c0 0 72.266 -74.219 72.266 -74.219c69.01 70.313 104.817 155.599 107.422 255.86c0 96.354 -35.808 178.385 -107.422 246.093c0 0 -72.266 -74.218 -72.266 -74.218" />
  </g>
</svg>