<svg height="1000" width="1000" xmlns="http://www.w3.org/2000/svg"><path d="M0 765.576l0 -765.576l999.936 0l0 765.576l-499.968 234.36zm83.979 -460.908l62.496 275.373q3.906 13.671 17.577 13.671l46.872 0q13.671 0 17.577 -13.671l23.436 -113.274 21.483 113.274q3.906 13.671 17.577 13.671l48.825 0q13.671 0 17.577 -13.671l60.543 -275.373q1.953 -9.765 -2.929 -15.624t-12.694 -5.859l-50.778 0q-13.671 0 -15.624 13.671l-23.436 121.086 -25.389 -121.086q-3.906 -13.671 -17.577 -13.671l-37.107 0q-13.671 0 -15.624 13.671l-25.389 121.086 -25.389 -121.086q-1.953 -13.671 -15.624 -13.671l-50.778 0q-19.53 0 -15.624 21.483zm343.728 242.172q37.107 50.778 103.509 52.731 44.919 -1.953 76.167 -29.295t31.248 -68.355q-1.953 -42.966 -33.201 -68.355 29.295 -27.342 29.295 -62.496 -1.953 -44.919 -32.224 -68.355t-71.285 -23.436q-64.449 0 -99.603 50.778 -7.812 11.718 1.953 23.436l27.342 25.389q13.671 11.718 25.389 -1.953 17.577 -23.436 41.013 -23.436 19.53 0 23.436 9.765 5.859 11.718 0 25.389 -7.812 9.765 -44.919 9.765 -19.53 0 -19.53 15.624l0 41.013q1.953 21.483 19.53 17.577 44.919 0 48.825 9.765t3.906 15.624q0 25.389 -27.342 25.389 -29.295 0 -46.872 -25.389 -11.718 -15.624 -25.389 -1.953l-29.295 29.295q-9.765 9.765 -1.953 21.483zm232.407 -107.415q0 72.261 36.13 116.204t94.721 43.943q70.308 0 103.509 -74.214 3.906 -19.53 -9.765 -23.436l-37.107 -17.577q-5.859 -1.953 -13.671 .977t-9.765 8.789q-11.718 29.295 -33.201 29.295t-35.154 -23.436 -13.671 -61.52 13.671 -61.52 35.154 -23.436q21.483 1.953 33.201 27.342 7.812 13.671 23.436 9.765l37.107 -17.577q17.577 -9.765 9.765 -25.389 -33.201 -70.308 -103.509 -70.308 -58.59 0 -94.721 44.919t-36.13 117.18z"/></svg>