<svg height="1000px" width="998.046875px" xmlns="http://www.w3.org/2000/svg">
  <g>
    <path d="M0 765.625c0 0 0 -765.625 0 -765.625c0 0 1000 0 1000 0c0 0 0 765.625 0 765.625c0 0 -500 234.375 -500 234.375c0 0 -500 -234.375 -500 -234.375m83.984 -460.938c0 0 62.5 275.391 62.5 275.391c2.605 9.115 8.464 13.672 17.579 13.672c0 0 46.875 0 46.875 0c9.114 0 14.973 -4.557 17.578 -13.672c0 0 23.437 -113.281 23.437 -113.281c0 0 21.484 113.281 21.484 113.281c2.605 9.115 8.464 13.672 17.579 13.672c0 0 48.828 0 48.828 0c9.114 0 14.974 -4.557 17.578 -13.672c0 0 60.547 -275.39 60.547 -275.39c1.302 -6.511 0.325 -11.719 -2.93 -15.625c-3.255 -3.907 -7.487 -5.86 -12.695 -5.86c0 0 -50.782 0 -50.782 0c-9.114 0 -14.322 4.557 -15.625 13.672c0 0 -23.437 121.094 -23.437 121.094c0 0 -25.391 -121.094 -25.391 -121.094c-2.604 -9.115 -8.463 -13.672 -17.578 -13.672c0 0 -37.109 0 -37.109 0c-9.115 0 -14.323 4.557 -15.625 13.672c0 0 -25.391 121.094 -25.391 121.094c0 0 -25.39 -121.094 -25.39 -121.094c-1.302 -9.115 -6.511 -13.672 -15.625 -13.672c0 0 -50.782 0 -50.782 0c-13.02 0 -18.229 7.162 -15.625 21.485c0 0 0 0 0 0m343.75 242.187c24.74 33.854 59.245 51.432 103.516 52.734c29.948 -1.302 55.339 -11.067 76.172 -29.297c20.833 -18.229 31.25 -41.015 31.25 -68.359c-1.302 -28.646 -12.37 -51.432 -33.203 -68.359c19.531 -18.229 29.297 -39.063 29.297 -62.5c-1.302 -29.948 -12.045 -52.735 -32.227 -68.36c-20.182 -15.625 -43.945 -23.437 -71.289 -23.437c-42.969 0 -76.172 16.927 -99.609 50.781c-5.209 7.813 -4.558 15.625 1.953 23.438c0 0 27.343 25.39 27.343 25.39c9.115 7.813 17.579 7.162 25.391 -1.953c11.719 -15.625 25.391 -23.437 41.016 -23.437c13.021 0 20.833 3.255 23.437 9.765c3.906 7.813 3.906 16.276 0 25.391c-5.208 6.51 -20.182 9.765 -44.922 9.765c-13.02 0 -19.531 5.209 -19.531 15.625c0 0 0 41.016 0 41.016c1.302 14.323 7.813 20.182 19.531 17.578c29.948 0 46.224 3.255 48.828 9.766c2.605 6.51 3.907 11.719 3.907 15.625c0 16.927 -9.115 25.39 -27.344 25.39c-19.531 0 -35.156 -8.463 -46.875 -25.39c-7.813 -10.417 -16.276 -11.068 -25.391 -1.953c0 0 -29.297 29.297 -29.297 29.297c-6.51 6.51 -7.161 13.671 -1.953 21.484c0 0 0 0 0 0m232.422 -107.422c0 48.177 12.045 86.914 36.133 116.211c24.089 29.297 55.664 43.945 94.727 43.945c46.875 0 81.38 -24.739 103.515 -74.218c2.604 -13.021 -0.651 -20.834 -9.765 -23.438c0 0 -37.11 -17.578 -37.11 -17.578c-3.906 -1.302 -8.463 -0.977 -13.672 0.977c-5.208 1.953 -8.463 4.882 -9.765 8.789c-7.813 19.531 -18.88 29.296 -33.203 29.296c-14.323 0 -26.042 -7.812 -35.157 -23.437c-9.114 -15.625 -13.672 -36.133 -13.672 -61.523c0 -25.391 4.558 -45.899 13.672 -61.524c9.115 -15.625 20.834 -23.437 35.157 -23.437c14.323 1.302 25.39 10.416 33.203 27.343c5.208 9.115 13.021 12.37 23.437 9.766c0 0 37.11 -17.578 37.11 -17.578c11.718 -6.511 14.974 -14.974 9.765 -25.391c-22.135 -46.875 -56.64 -70.312 -103.515 -70.312c-39.063 0 -70.638 14.974 -94.727 44.922c-24.088 29.948 -36.133 69.01 -36.133 117.187c0 0 0 0 0 0" />
  </g>
</svg>