<svg height="1000px" width="1000px" xmlns="http://www.w3.org/2000/svg">
  <g>
    <path d="M0 1000c0 0 500 -1000 500 -1000c0 0 500 1000 500 1000c0 0 -1000 0 -1000 0c0 0 0 0 0 0m460.938 -179.688c0 0 78.125 0 78.125 0c0 0 0 -82.031 0 -82.031c0 0 -78.125 0 -78.125 0c0 0 0 82.032 0 82.032c0 0 0 0 0 0m0 -341.797c0 0 19.531 185.547 19.531 185.547c0 0 39.062 0 39.062 0c0 0 19.532 -185.547 19.532 -185.547c0 0 0 -130.86 0 -130.86c0 0 -78.125 0 -78.125 0c0 0 0 130.86 0 130.86c0 0 0 0 0 0" />
  </g>
</svg>