<svg height="1000" width="1000" xmlns="http://www.w3.org/2000/svg"><path d="M0 500.032q0-207.018 146.475-353.493t353.493-146.475 353.493 146.475 146.475 353.493-146.475 353.493-353.493 146.475-353.493-146.475-146.475-353.493zm234.36 248.031l531.216 0l0-496.062l-531.216 0l0 496.062zm66.402-64.449l0-367.164l400.365 0l0 367.164l-400.365 0zm42.966-41.013l87.885 0l0-87.885l-87.885 0l0 87.885zm0-117.18l312.48 0l0-162.099l-312.48 0l0 162.099zm111.321 117.18l87.885 0l0-87.885l-87.885 0l0 87.885zm111.321 0l89.838 0l0-87.885l-89.838 0l0 87.885z"/></svg>