<svg height="1000px" width="1000px" xmlns="http://www.w3.org/2000/svg">
  <g>
    <path d="M0 500c0 -138.021 48.828 -255.859 146.484 -353.516c97.657 -97.656 215.495 -146.484 353.516 -146.484c138.021 0 255.859 48.828 353.516 146.484c97.656 97.657 146.484 215.495 146.484 353.516c0 138.021 -48.828 255.859 -146.484 353.516c-97.657 97.656 -215.495 146.484 -353.516 146.484c-138.021 0 -255.859 -48.828 -353.516 -146.484c-97.656 -97.657 -146.484 -215.495 -146.484 -353.516c0 0 0 0 0 0m234.375 248.047c0 0 531.25 0 531.25 0c0 0 0 -496.094 0 -496.094c0 0 -531.25 0 -531.25 0c0 0 0 496.094 0 496.094c0 0 0 0 0 0m66.406 -64.453c0 0 0 -367.188 0 -367.188c0 0 400.391 0 400.391 0c0 0 0 367.188 0 367.188c0 0 -400.391 0 -400.391 0c0 0 0 0 0 0m42.969 -41.016c0 0 87.891 0 87.891 0c0 0 0 -87.891 0 -87.891c0 0 -87.891 0 -87.891 0c0 0 0 87.891 0 87.891c0 0 0 0 0 0m0 -117.187c0 0 312.5 0 312.5 0c0 0 0 -162.11 0 -162.11c0 0 -312.5 0 -312.5 0c0 0 0 162.11 0 162.11c0 0 0 0 0 0m111.328 117.187c0 0 87.891 0 87.891 0c0 0 0 -87.891 0 -87.891c0 0 -87.891 0 -87.891 0c0 0 0 87.891 0 87.891c0 0 0 0 0 0m111.328 0c0 0 89.844 0 89.844 0c0 0 0 -87.891 0 -87.891c0 0 -89.844 0 -89.844 0c0 0 0 87.891 0 87.891c0 0 0 0 0 0" />
  </g>
</svg>