<svg height="1000px" width="1000px" xmlns="http://www.w3.org/2000/svg">
  <g>
    <path d="M0 968.75c0 0 0 -937.5 0 -937.5c0 0 1000 0 1000 0c0 0 0 937.5 0 937.5c0 0 -1000 0 -1000 0c0 0 0 0 0 0m123.047 -123.047c0 0 753.906 0 753.906 0c0 0 0 -691.406 0 -691.406c0 0 -753.906 0 -753.906 0c0 0 0 691.406 0 691.406c0 0 0 0 0 0m82.031 -78.125c0 0 0 -166.015 0 -166.015c0 0 166.016 0 166.016 0c0 0 0 166.015 0 166.015c0 0 -166.016 0 -166.016 0c0 0 0 0 0 0m0 -218.75c0 0 0 -306.64 0 -306.64c0 0 587.891 0 587.891 0c0 0 0 306.64 0 306.64c0 0 -587.891 0 -587.891 0c0 0 0 0 0 0m210.938 218.75c0 0 0 -166.015 0 -166.015c0 0 166.015 0 166.015 0c0 0 0 166.015 0 166.015c0 0 -166.015 0 -166.015 0c0 0 0 0 0 0m210.937 0c0 0 0 -166.015 0 -166.015c0 0 166.016 0 166.016 0c0 0 0 166.015 0 166.015c0 0 -166.016 0 -166.016 0c0 0 0 0 0 0" />
  </g>
</svg>