<svg height="1000px" width="1000px" xmlns="http://www.w3.org/2000/svg">
  <g>
    <path d="M0 500c2.604 -139.323 53.06 -257.161 151.367 -353.516c98.307 -96.354 214.518 -145.182 348.633 -146.484c138.021 2.604 255.534 53.06 352.539 151.367c97.005 98.307 146.159 214.518 147.461 348.633c-2.604 138.021 -53.06 255.534 -151.367 352.539c-98.307 97.005 -214.518 146.159 -348.633 147.461c-139.323 -2.604 -257.161 -53.06 -353.516 -151.367c-96.354 -98.307 -145.182 -214.518 -146.484 -348.633c0 0 0 0 0 0m35.156 0c1.302 128.906 47.852 238.281 139.649 328.125c91.797 89.844 200.195 135.417 325.195 136.719c128.906 -2.604 238.281 -49.479 328.125 -140.625c89.844 -91.146 135.417 -199.219 136.719 -324.219c-2.604 -128.906 -49.479 -238.281 -140.625 -328.125c-91.146 -89.844 -199.219 -135.417 -324.219 -136.719c-128.906 2.604 -238.607 49.479 -329.102 140.625c-90.494 91.146 -135.742 199.219 -135.742 324.219c0 0 0 0 0 0m41.016 30.273c-5.208 -72.265 5.859 -138.997 33.203 -200.195c0 0 205.078 552.735 205.078 552.735c-72.917 -36.459 -130.859 -87.891 -173.828 -154.297c-37.76 -59.896 -59.245 -125.977 -64.453 -198.243c0 0 0 0 0 0m68.359 -264.648c41.667 -59.896 94.076 -106.445 157.227 -139.648c63.151 -33.204 129.232 -50.456 198.242 -51.758c111.979 2.604 207.682 39.713 287.109 111.328c-31.25 -1.302 -54.687 11.719 -70.312 39.062c-2.604 16.927 -4.557 29.948 -5.859 39.063c-1.303 9.114 0.976 20.833 6.835 35.156c5.86 14.323 10.743 25.391 14.649 33.203c3.906 7.813 9.766 18.229 17.578 31.25c0 0 17.578 29.297 17.578 29.297c22.136 41.667 24.74 89.844 7.813 144.531c0 0 -62.5 218.75 -62.5 218.75c0 0 -154.297 -458.984 -154.297 -458.984c28.646 -2.604 44.271 -3.906 46.875 -3.906c7.812 -2.604 12.695 -7.162 14.648 -13.672c1.953 -6.511 -0.325 -11.719 -6.836 -15.625c-3.906 -3.906 -7.812 -5.86 -11.718 -5.86c0 0 -93.75 7.813 -93.75 7.813c0 0 -70.313 0 -70.313 0c-2.604 0 -11.393 -1.302 -26.367 -3.906c-14.974 -2.604 -27.344 -3.255 -37.11 -1.953c-9.765 1.302 -15.299 5.859 -16.601 13.671c-2.604 10.417 1.953 16.928 13.672 19.532c22.135 2.604 37.76 4.557 46.875 5.859c0 0 68.359 179.688 68.359 179.688c0 0 -93.75 277.343 -93.75 277.343c0 0 -156.25 -458.984 -156.25 -458.984c28.646 -2.604 44.922 -3.906 48.828 -3.906c11.719 -1.302 16.927 -7.813 15.625 -19.532c-2.604 -10.416 -9.114 -15.625 -19.531 -15.625c-46.875 6.511 -92.448 9.115 -136.719 7.813c0 0 0 0 0 0m234.375 642.578c0 0 128.907 -367.187 128.907 -367.187c0 0 132.812 359.375 132.812 359.375c-87.24 29.948 -174.479 32.552 -261.719 7.812c0 0 0 0 0 0m333.985 -39.062c3.906 -13.021 11.067 -33.855 21.484 -62.5c0 0 119.141 -345.704 119.141 -345.704c10.416 -32.552 18.229 -69.661 23.437 -111.328c1.302 -18.229 0.651 -34.505 -1.953 -48.828c50.781 108.073 61.849 212.24 33.203 312.5c-33.854 114.584 -98.958 199.87 -195.312 255.86c0 0 0 0 0 0" />
  </g>
</svg>