<svg height="1000" width="1000" xmlns="http://www.w3.org/2000/svg"><path d="M0 499.968q3.906 -208.971 151.358 -353.493t348.611 -146.475q207.018 3.906 352.517 151.358t147.452 348.611q-3.906 207.018 -151.358 352.517t-348.611 147.452q-208.971 -3.906 -353.493 -151.358t-146.475 -348.611zm35.154 0q1.953 193.347 139.639 328.104t325.175 136.71q193.347 -3.906 328.104 -140.616t136.71 -324.198q-3.906 -193.347 -140.616 -328.104t-324.198 -136.71q-193.347 3.906 -329.081 140.616t-135.733 324.198zm41.013 30.271q-7.812 -108.392 33.201 -200.183l205.065 552.699q-109.368 -54.684 -173.817 -154.287 -56.637 -89.838 -64.449 -198.23zm68.355 -264.632q62.496 -89.838 157.216 -139.639t198.23 -51.755q167.958 3.906 287.091 111.321 -46.872 -1.953 -70.308 39.06 -3.906 25.389 -5.859 39.06t6.836 35.154 14.648 33.201 17.577 31.248l17.577 29.295q33.201 62.496 7.812 144.522l-62.496 218.736 -154.287 -458.955q42.966 -3.906 46.872 -3.906 11.718 -3.906 14.648 -13.671t-6.836 -15.624q-5.859 -5.859 -11.718 -5.859l-93.744 7.812l-70.308 0q-3.906 0 -26.366 -3.906t-37.107 -1.953 -16.601 13.671q-3.906 15.624 13.671 19.53 33.201 3.906 46.872 5.859l68.355 179.676 -93.744 277.326 -156.24 -458.955q42.966 -3.906 48.825 -3.906 17.577 -1.953 15.624 -19.53 -3.906 -15.624 -19.53 -15.624 -70.308 9.765 -136.71 7.812zm234.36 642.537l128.898 -367.164 132.804 359.352q-130.851 44.919 -261.702 7.812zm333.963 -39.06q5.859 -19.53 21.483 -62.496l119.133 -345.681q15.624 -48.825 23.436 -111.321 1.953 -27.342 -1.953 -48.825 76.167 162.099 33.201 312.48 -50.778 171.864 -195.3 255.843z"/></svg>