<svg height="1000px" width="1000px" xmlns="http://www.w3.org/2000/svg">
  <g>
    <path d="M0 820.3125c0 0 462.891 -462.891 462.891 -462.891c-16.927 -45.573 -20.183 -94.075 -9.766 -145.507c10.417 -51.433 34.505 -96.029 72.266 -133.789c37.76 -37.761 82.031 -61.849 132.812 -72.266c50.781 -10.417 99.61 -7.162 146.485 9.766c0 0 -162.11 162.109 -162.11 162.109c0 0 44.922 117.187 44.922 117.187c0 0 115.234 44.922 115.234 44.922c0 0 164.063 -164.062 164.063 -164.062c16.927 46.875 19.857 96.028 8.789 147.461c-11.068 51.432 -35.156 95.703 -72.266 132.812c-37.109 37.11 -81.38 61.198 -132.812 72.266c-51.432 11.068 -100.586 8.138 -147.461 -8.789c0 0 -462.891 462.89 -462.891 462.89c0 0 -160.156 -162.109 -160.156 -162.109m113.281 1.953c0 13.021 4.558 24.089 13.672 33.203c9.115 9.115 20.182 13.672 33.203 13.672c13.021 0 24.089 -4.557 33.203 -13.672c9.115 -9.114 13.672 -20.182 13.672 -33.203c0 -13.021 -4.557 -24.088 -13.672 -33.203c-9.114 -9.115 -20.182 -13.672 -33.203 -13.672c-13.021 0 -24.088 4.557 -33.203 13.672c-9.114 9.115 -13.672 20.182 -13.672 33.203c0 0 0 0 0 0" />
  </g>
</svg>