<svg height="1000" width="1000" xmlns="http://www.w3.org/2000/svg"><path d="M0 500.032q0-207.018 146.475-353.493t353.493-146.475 353.493 146.475 146.475 353.493-146.475 353.493-353.493 146.475-353.493-146.475-146.475-353.493zm199.206 201.159l99.603 99.603 283.185-283.185q41.013 15.624 88.862 5.859t82.026-43.943 43.943-81.05-5.859-89.838l-99.603 99.603-72.261-27.342-27.342-72.261 99.603-99.603q-25.389-9.765-54.684-9.765-68.355 0-115.227 48.825-35.154 33.201-44.919 81.05t5.859 88.862zm77.144 22.46q-20.506-20.506.977-41.989 19.53-19.53 41.013 0 19.53 21.483-.977 41.989t-41.013 0z"/></svg>