<svg height="1000px" width="1000px" xmlns="http://www.w3.org/2000/svg">
  <g>
    <path d="M0 500c0 -138.021 48.828 -255.859 146.484 -353.516c97.657 -97.656 215.495 -146.484 353.516 -146.484c138.021 0 255.859 48.828 353.516 146.484c97.656 97.657 146.484 215.495 146.484 353.516c0 138.021 -48.828 255.859 -146.484 353.516c-97.657 97.656 -215.495 146.484 -353.516 146.484c-138.021 0 -255.859 -48.828 -353.516 -146.484c-97.656 -97.657 -146.484 -215.495 -146.484 -353.516c0 0 0 0 0 0m199.219 201.172c0 0 99.609 99.609 99.609 99.609c0 0 283.203 -283.203 283.203 -283.203c27.344 10.417 56.966 12.37 88.867 5.859c31.901 -6.51 59.245 -21.158 82.032 -43.945c22.786 -22.786 37.435 -49.805 43.945 -81.055c6.51 -31.25 4.557 -61.197 -5.859 -89.843c0 0 -99.61 99.609 -99.61 99.609c0 0 -72.265 -27.344 -72.265 -27.344c0 0 -27.344 -72.265 -27.344 -72.265c0 0 99.609 -99.61 99.609 -99.61c-16.927 -6.51 -35.156 -9.765 -54.687 -9.765c-45.573 0 -83.985 16.276 -115.235 48.828c-23.437 22.135 -38.411 49.154 -44.921 81.055c-6.511 31.901 -4.558 61.523 5.859 88.867c0 0 -283.203 283.203 -283.203 283.203m77.148 22.461c-13.672 -13.672 -13.346 -27.669 0.977 -41.992c13.021 -13.021 26.692 -13.021 41.015 0c13.021 14.323 12.696 28.32 -0.976 41.992c-13.672 13.672 -27.344 13.672 -41.016 0c0 0 0 0 0 0" />
  </g>
</svg>