<svg height="1000px" width="1000px" xmlns="http://www.w3.org/2000/svg">
  <g>
    <path d="M0 447.265625c0 -123.698 43.62 -229.167 130.859 -316.406c87.24 -87.24 192.709 -130.86 316.407 -130.86c123.698 0 229.492 43.62 317.382 130.86c87.891 87.239 131.836 192.708 131.836 316.406c0 93.75 -27.343 179.036 -82.031 255.859c0 0 185.547 185.547 185.547 185.547c0 0 -111.328 111.328 -111.328 111.328c0 0 -185.547 -185.547 -185.547 -185.547c-76.823 54.688 -162.109 82.032 -255.859 82.032c-123.698 0 -229.167 -43.946 -316.407 -131.836c-87.239 -87.891 -130.859 -193.685 -130.859 -317.383c0 0 0 0 0 0m126.953 0c0 88.542 31.25 164.062 93.75 226.562c62.5 62.5 138.021 93.75 226.563 93.75c88.541 0 164.062 -31.25 226.562 -93.75c62.5 -62.5 93.75 -138.02 93.75 -226.562c0 -88.542 -31.25 -163.737 -93.75 -225.586c-62.5 -61.849 -138.021 -92.773 -226.562 -92.773c-88.542 0 -164.063 30.924 -226.563 92.773c-62.5 61.849 -93.75 137.044 -93.75 225.586c0 0 0 0 0 0m128.906 64.453c0 0 0 -126.953 0 -126.953c0 0 128.907 0 128.907 0c0 0 0 -128.906 0 -128.906c0 0 126.953 0 126.953 0c0 0 0 128.906 0 128.906c0 0 128.906 0 128.906 0c0 0 0 126.953 0 126.953c0 0 -128.906 0 -128.906 0c0 0 0 128.906 0 128.906c0 0 -126.953 0 -126.953 0c0 0 0 -128.906 0 -128.906c0 0 -128.907 0 -128.907 0c0 0 0 0 0 0" />
  </g>
</svg>